<?xml version="1.0" encoding="utf-8"?>
<!-- Generator: Adobe Illustrator 16.0.0, SVG Export Plug-In . SVG Version: 6.00 Build 0)  -->
<!DOCTYPE svg PUBLIC "-//W3C//DTD SVG 1.1//EN" "http://www.w3.org/Graphics/SVG/1.1/DTD/svg11.dtd">
<svg version="1.1" id="Calque_1" xmlns="http://www.w3.org/2000/svg" xmlns:xlink="http://www.w3.org/1999/xlink" x="0px" y="0px"
	 width="595.281px" height="841.891px" viewBox="0 0 595.281 841.891" enable-background="new 0 0 595.281 841.891"
	 xml:space="preserve">
<path fill="#FCF7F7" d="M311.179,192.341c11.885,5.374,19.531,17.156,19.531,30.178v396.854c0,13.022-7.646,24.804-19.531,30.178
	s-25.837,3.204-35.552-5.478L136.212,520.159h-70.07C29.661,520.159,0,490.498,0,454.016v-66.143
	c0-36.481,29.661-66.142,66.142-66.142h70.07l139.415-123.914C285.342,189.137,299.294,187.07,311.179,192.341z M439.226,328.967
	l56.84,56.841l56.842-56.841c9.715-9.715,25.424-9.715,35.035,0c9.611,9.714,9.715,25.423,0,35.034l-56.842,56.841l56.842,56.842
	c9.715,9.714,9.715,25.423,0,35.034s-25.424,9.715-35.035,0l-56.842-56.841l-56.84,56.841c-9.715,9.715-25.424,9.715-35.035,0
	s-9.715-25.423,0-35.034l56.842-56.842l-56.842-56.841c-9.715-9.715-9.715-25.424,0-35.034
	C413.906,319.355,429.615,319.252,439.226,328.967z"/>
</svg>
