<?xml version="1.0" encoding="utf-8"?>
<!-- Generator: Adobe Illustrator 16.0.0, SVG Export Plug-In . SVG Version: 6.00 Build 0)  -->
<!DOCTYPE svg PUBLIC "-//W3C//DTD SVG 1.1//EN" "http://www.w3.org/Graphics/SVG/1.1/DTD/svg11.dtd">
<svg version="1.1" id="Calque_1" xmlns="http://www.w3.org/2000/svg" xmlns:xlink="http://www.w3.org/1999/xlink" x="0px" y="0px"
	 width="595.281px" height="841.891px" viewBox="0 0 595.281 841.891" enable-background="new 0 0 595.281 841.891"
	 xml:space="preserve">
<path fill="#F7F2F2" d="M496.314,213.062c60.365,49.11,98.967,123.985,98.967,207.883s-38.602,158.865-98.967,207.883
	c-9.58,7.813-23.625,6.325-31.438-3.255s-6.324-23.625,3.256-31.438c50.412-40.926,82.502-103.244,82.502-173.189
	s-32.09-132.264-82.502-173.282c-9.58-7.813-10.977-21.858-3.256-31.438s21.857-10.976,31.438-3.255V213.062z M440.042,282.356
	c40.182,32.74,65.945,82.688,65.945,138.589s-25.764,105.849-65.945,138.589c-9.58,7.813-23.625,6.325-31.438-3.256
	c-7.814-9.58-6.326-23.625,3.254-31.438c30.23-24.556,49.482-61.946,49.482-103.896c0-41.948-19.252-79.34-49.482-103.988
	c-9.58-7.813-10.975-21.857-3.254-31.438c7.719-9.581,21.857-10.976,31.438-3.256V282.356z M383.769,351.651
	c19.998,16.37,32.928,41.297,32.928,69.294s-12.93,52.925-32.928,69.295c-9.58,7.813-23.625,6.324-31.438-3.256
	s-6.324-23.625,3.256-31.438c10.045-8.185,16.463-20.648,16.463-34.601s-6.418-26.416-16.463-34.693
	c-9.58-7.813-10.977-21.858-3.256-31.438s21.857-10.976,31.438-3.256V351.651z M280.061,215.201
	c10.697,4.837,17.58,15.44,17.58,27.16v357.168c0,11.72-6.883,22.323-17.58,27.16c-10.696,4.837-23.253,2.883-31.996-4.93
	L122.59,510.237H59.528C26.695,510.237,0,483.543,0,450.71v-59.528c0-32.834,26.695-59.528,59.528-59.528h63.063l125.474-111.522
	C256.808,212.318,269.364,210.458,280.061,215.201z"/>
</svg>
