<?xml version="1.0" encoding="UTF-8"?><svg id="Capa_1" xmlns="http://www.w3.org/2000/svg" viewBox="0 0 1519.5 287.4"><defs><style>.cls-1{fill:#7e4f9b;}.cls-2{fill:#7c4b9a;}</style></defs><g id="tfVAjc.tif"><path class="cls-2" d="m87.02,161.13c-1.18-.48-1.13-1.57-1.11-2.52.03-1.82.19-3.63.3-5.45.59-.14,1.01-.35.38-.97.04-.51.09-1.02.13-1.53.6-.15,1.01-.37.36-.97.05-.51.1-1.01.14-1.52.75-.16.79-.7.69-1.31.23-3.66,1.45-7.13,2.29-10.66,3.43-14.42,6.95-28.82,10.49-43.21,1.27-5.14,2.46-10.3,4.19-15.32.1-.22.19-.45.29-.67.19-.44.56-1,.02-1.3-.62-.34-.76.39-.97.76-.15.27-.17.62-.25.93-2.26,3.57-4.52,7.14-6.79,10.71-4.29,6.71-8.62,13.39-12.87,20.13-4.95,7.86-9.82,15.77-14.74,23.65-1.19,1.9-2.62,3.63-3.64,5.65-.75,1.49-2.17,2-3.71,2.17-2.87.32-5.64-.19-8.31-1.2-1.65-.62-2.7-1.88-3.3-3.53-.63-1.74-.76-3.57-.97-5.38-1.08-9.31-2.08-18.63-2.5-27.99-.35-7.95-.97-15.91-.3-23.88.12-1.4-.19-2.82.14-4.22-.03-.66.28-1.4-.42-1.94-.88.56-1.02,1.3-.93,2.13-.14,2.43-1.06,4.68-1.61,7.01-3.96,16.62-7.93,33.24-12,49.84-.89,3.62-2.2,7.13-3.28,10.7-.66,2.22-1.95,3.47-4.4,3.68-2.09.18-4.15.2-6.21-.18-4.78-.88-9.37-2.28-13.54-4.85-4.11-2.53-5.15-4.83-4.35-9.58.99-5.9,2.57-11.66,4.22-17.4,3.21-11.24,6.73-22.4,9.64-33.73,1.28-4.98,2.81-9.89,4.21-14.84.18-.63.26-1.3.39-1.95.53-.11,1.04-.23.51-.92.01-.37.02-.74.03-1.11.1-.14.2-.28.3-.42.05-.35.09-.69.14-1.04.58-.12,1.08-.27.45-.96.03-.36.05-.71.08-1.07.11-.14.22-.28.33-.42.05-.35.1-.69.15-1.04.53-.11,1.04-.22.51-.92.01-.37.02-.74.03-1.11.1-.14.2-.28.3-.42.05-.35.09-.69.14-1.04.58-.12,1.08-.27.45-.96.03-.36.05-.71.08-1.07.11-.14.22-.28.33-.42.05-.35.11-.7.16-1.05.52-.11,1.03-.22.52-.92,0-.37.02-.74.02-1.12.1-.14.2-.28.3-.41.05-.35.1-.7.14-1.04.57-.12,1.07-.27.45-.95.03-.36.05-.71.08-1.07.11-.14.22-.27.32-.41.05-.35.11-.7.16-1.05.52-.11,1.02-.23.52-.91,0-.37.01-.75.02-1.12.1-.14.2-.27.3-.41.05-.35.1-.7.15-1.05.57-.12,1.07-.27.46-.95.03-.36.05-.72.08-1.07.11-.14.22-.27.32-.41.05-.36.11-.72.16-1.09.11-.15.22-.3.33-.45.04-.34.08-.68.13-1.02.59-.12,1.11-.27.44-.97.03-.34.06-.68.09-1.03.56-.12,1.06-.27.46-.94.02-.36.05-.72.07-1.08.11-.13.21-.26.32-.4.06-.37.11-.73.17-1.1.11-.15.22-.29.33-.44.05-.34.09-.68.14-1.03.57-.12,1.09-.26.46-.96.02-.35.04-.69.07-1.04,1.22-.5,1.11-1.64,1.27-2.64.07-.79.15-1.58.22-2.37.14-.07.24-.17.31-.31.56-2.22,1.13-4.45,1.69-6.67.15-.07.25-.18.31-.33.71-.95.55-2.09.71-3.17.1-.15.21-.29.31-.44.37-1.51.73-3.02,1.1-4.53.14-.15.27-.31.41-.46.12-.95.65-1.59,1.48-2.02.16-.1.32-.2.48-.31,2.65-1.07,5.33-.99,8.02-.17,4.53,1.39,8.51,3.55,11.33,7.54,1.29,1.83,1.84,3.86,2.14,5.99.22,1.56.39,3.14.38,4.71-.03,6.48.47,12.94.66,19.41.2,7.04.7,14.08,1.25,21.11.3,3.71.06,7.47.2,11.2.23,6.05.52,12.1.83,18.14.25,4.8.5,9.61.59,14.42.05,2.98.43,5.91.67,9.44,12.17-19.16,24.07-37.89,35.96-56.62.91-.06.96-.72.98-1.41.81-.94.76-2.43,2.02-3.08.95-.07.96-.76.97-1.46.75-2.12,2.33-3.71,3.57-5.51.92-.11.92-.8.92-1.48.04-.41-.03-.88.54-1.02.92-.06.96-.73.98-1.42.79-.95.77-2.42,2.01-3.07.96-.07.97-.76.97-1.46.01-.42.16-.77.42-1.12,1.72-2.37,3.31-4.82,4.68-7.41.53-1,1.34-1.87,2.35-2.48.17-.12.34-.23.51-.35,2-.89,4.08-1.26,6.26-.9,3.15.53,6.09,1.69,8.59,3.62,3.61,2.79,4.79,6.7,3.98,11.09-.86,4.7-1.85,9.38-3.07,13.99-.42,1.6-.85,3.13-.88,4.79-.03,1.38-.72,2.68-1.12,3.93-.76,2.37-.39,4.95-1.58,7.2-.18.35-.21.79-.24,1.2-.2,2.5-.79,4.9-1.88,7.17-.04.07-.07.16-.07.23.17,2.26-.58,4.37-.98,6.55-.53,2.9-1.26,5.75-1.72,8.65-.36,2.26-.99,4.48-1.51,6.67-.58,2.46-.68,5.01-1.53,7.45-.69,1.98-.74,4.18-1.23,6.27-2.72,11.63-5.3,23.28-8.06,34.9-1.06,4.45-2.29,8.89-3.81,13.2-.54,1.52-1.87,2.88-3.76,3.48-3.41,1.08-6.85,1.24-10.36.8-.15-.8-.69-.86-1.34-.72-1.23-.11-2.46-.22-3.69-.33-.14-.1-.28-.21-.43-.31-1.64.15-2.57-1.45-4.06-1.65-.14-.12-.29-.23-.43-.35-.19-.07-.39-.14-.58-.2-.15-.1-.29-.19-.44-.29Z"/><path class="cls-2" d="m606.2,261.84c-.27-5.01.63-9.99.48-15,0-.13,0-.26,0-.39.42-1.62.37-3.29.45-4.95.37-8.2.78-16.4,1.18-24.59.02-.41.17-.81.26-1.21-.47-1.22-1.46-.89-2.07-.4-.63.5-.42,1.29.35,1.76-.47.99-1.19,1.77-2,2.48q-1.61.11-1.66,1.96s.01-.01.01-.01c-1.71.45-2.79,1.48-3.04,3.28-3.31,3.15-7.34,3.56-11.62,3.09-1.8-.2-3.59-.38-5.39-.56-.15-.12-.31-.23-.46-.35-.34-.03-.68-.06-1.02-.09-.16-.14-.31-.27-.47-.41-.17-.04-.34-.09-.51-.13-.12-.6-.29-1.1-.97-.43-.35-.04-.7-.09-1.06-.13-.12-.11-.25-.21-.37-.32-.2-.12-.4-.24-.6-.36-.29-.64-.77-.66-1.33-.39-2.47-.69-4.19-2.34-5.61-4.37-.03-1.03-.36-1.81-1.58-1.83-1.44-1.44-2.21-3.25-2.95-5.09-.11-.13-.22-.25-.34-.38-.06-.35-.12-.7-.18-1.05-.11-.15-.23-.3-.34-.45-.03-.35-.05-.7-.08-1.06.64-.62.21-.82-.38-.96-.85-5.48-1.03-10.96-.07-16.45,1.73-.96,1.81-1.51.35-2.49-.03-1.73.32-3.41.69-5.09.49.04,1.05.11,1.19-.51.14-.64-.36-.81-.88-.88.05-.83.11-1.66.16-2.49,1.42-1.05,1.53-1.42.87-2.98l.1-1.01c.59-.12,1.09-.27.45-.96.03-.35.06-.71.08-1.06.11-.15.22-.3.34-.44.05-.34.09-.68.14-1.02,1.48-.75,1.22-2.19,1.36-3.46.06-.35.11-.7.17-1.05.11-.13.23-.26.34-.39.24-.53.47-1.05.71-1.58,1.46-1.43,1.62-1.78,1.39-2.95.36-1.49.99-2.84,2.03-3.99,2.32-1.64,4.19-3.58,4.31-6.64.51-.62.48-1.65,1.47-1.91,2.31-.33,3.34-1.41,3.5-3.68.22-.26.45-.53.67-.79.13-.11.25-.22.38-.33.34-.23.67-.46,1.01-.69,2.19.9,2.71.65,3.53-1.63,1.52-.83,3.2-.97,4.87-1.15,1.06,1.16,1.41,1.13,2.1-.17,2.41-.58,4.65.52,6.99.67.05.46-.06,1.03.56,1.2.64.18.85-.25.95-.78,6.01,1.4,11,4.42,14.93,9.19.27.32.54,1.38,1.1.17,1.82-.84,1.84-.99.49-2.98.04-.34.08-.67.12-1.01,1.41-.25,1.42-1.23,1.22-2.32.66-2.1,2.11-3.27,4.26-3.57,3.57-.5,6.91.51,10.01,2.03,1.8.89,2.9,2.63,3.01,4.84.18,3.92-.21,7.79-.77,11.66-.97,6.73-1.86,13.48-2.45,20.26-.43,4.96-1.01,9.9-1.53,14.85-.81,7.76-1.61,15.52-1.97,23.32-.07,1.41-.27,2.8-.42,4.21-.7.62-.69,1.27-.1,1.96-.35,4.83-.32,9.68-.89,14.49-1.3,1.11-1.3,1.28-.05,2-.01,5.64,0,11.29-.04,16.93-.04,4.99.26,9.95.89,14.9.33,2.62.51,5.3-1.39,7.55-1.1.09-2.24.12-2.37,1.62-1.21,1.47-2.88,2.18-4.66,2.36-4.07.42-8.03.05-11.57-2.3-3.86-2.57-6.47-5.86-6.78-10.73-.22-3.5.22-6.93.5-10.39.52-.07.91-.28.94-.87.04-.67-.25-1.06-.94-1.12Zm-8.28-55.16c1.89-.09,2.38-.87,1.7-2.7.52-1.41,1.16-2.75,2.06-3.96.63-.1,1.25-.21.5-1,.61-1.77,1.42-3.44,2.44-5.01,1.69-.48,1.82-.78.91-2.04.25-1.21.81-2.31,1.31-3.42q1.38-.23.75-1.69c1.07-3.09,2.14-6.19,3.21-9.28q1.42-.29.66-1.82c-.3-.66.02-1.3.05-1.96.17-4.05-.57-7.95-2.38-11.57-1.12-2.25-3.09-2.69-5.23-1.38-1,.62-1.77,1.51-2.52,2.39-2.91,3.38-4.94,7.32-6.54,11.4-2.79,7.11-4.98,14.44-5.94,22.05-.43,3.38-.6,6.81,0,10.18.65,3.7,2.89,5.75,6.59,2.53,2.15-.2,2.34-.41,2.38-2.64l.05-.1Z"/><path class="cls-2" d="m1156.82,71.66c1.17-.26,2.33-.32,3.48.05.87,1.46,1.25,1.51,2,.28,2.47.04,4.61,1.1,6.62,2.34,2.3,1.42,2.36,4.04,2.71,6.3,1.15,7.43.35,14.93.66,22.39.06,1.43-.54,2.85-.03,4.27-1.13.54-1.13.6.06,1.5.36,1.21.36,2.46.37,3.7,0,9.37,1.15,18.68,1.98,27.99.4,4.49,1.3,8.99,2.11,13.46,1.76,9.62,3.4,19.26,5.49,28.82,1.36,6.24,2.62,12.5,4.51,18.61.53,1.71.3,3.45.58,5.17.12.7-.25,1.29-.69,1.81-.54.63-1.15,1.22-1.91,1.58-4.02,1.88-8.19,2.74-12.59,1.69-3.8-.91-6.59-3.21-8.15-6.74-2.37-5.34-3.48-11.04-4.23-16.81.71-.87.94-1.63-.47-2-.09-.14-.1-.29-.03-.45-.09-.14-.18-.27-.27-.41-.87,2.13-1.75,4.26-2.61,6.39-1.22,3.01-2.9,5.76-4.83,8.36-3.17,4.27-7.62,6.77-12.64,7.82-4.2.88-8.58.81-12.63-1.22-.11-.71-.24-1.35-1.03-.43-4.63-2-8.02-5.46-10.89-9.46-4.14-5.76-6.47-12.22-7.52-19.22-.72-4.78-.86-9.53-.36-14.32,1.5-.97.84-2.22.46-3.44-.13-.73.15-1.38.41-2.04.87-.06,1.18-.69,1.27-1.4.07-.52-.44-.52-.82-.59.3-2.64,1.31-5.06,2.36-7.46,1.06.08,1.58-.83,1.71-1.48.35-1.71,1.48-2.86,2.49-4.09.85-1.04,1.01-2.18.93-3.43,0,0,0,0,0,0,3.19-.06,5.65-2.4,5.93-5.65.06-.24.22-.35.46-.37,1.46.12,2.39-.45,2.58-1.98,0,0,0,.01,0,.01.17-.13.34-.26.51-.39,2.69-1.27,5.19-2.98,8.16-3.61,2.93-.63,5.71-2.07,8.84-1.51.06.5.16.99.82.95.52-.03.6-.45.68-.85,1.56.08,3.1.2,4.46,1.07.62.39,1.28.17,2.15.29-.3-3.15-.44-6.19-.89-9.18-1.18-7.86-1.77-15.78-1.99-23.71-.11-3.79.26-7.6.42-11.4.85-.23.99-.58.16-1.07.08-1.56.28-3.08.62-4.62.62-2.79,2.24-4.38,5.06-4.77.83.84,1.87.47,2.82.41.62-.04.63-.66.68-1.16Zm-16,115.89c3.88-1.91,5.69-5.38,6.93-9.24.66-2.04,1.16-4.13,1.73-6.2.69-.17,1.04-.43.29-1.01,0-.33-.02-.67.03-.99,1.42-8.22,1.55-16.52,1.45-24.84-.02-1.47-.36-2.74-1.14-3.98-.57-.89-1.29-1.14-2.28-1.18-1.48-.06-2.7.63-4.01,1.09-.17.13-.33.26-.5.39-2.37,1.76-3.99,4.05-5.3,6.69-2.3,4.61-3.46,9.5-3.97,14.54-.65,6.29-.54,12.58,1.26,18.72.66,2.24,1.52,4.4,3.58,5.8-.04.61.08,1.12.84,1.18.7.06,1.03-.3,1.09-.96Z"/><path class="cls-2" d="m1461.55,80c.61-3.02,1.62-5.73,3.12-8.3,2.02-3.47,5.02-5.76,8.66-7.23,4.44-1.8,9-3.21,13.87-3.01,4.4.19,8.43,1.6,11.85,4.4,5.1,4.17,8.25,9.69,10.58,15.75,3.66,9.5,5.7,19.41,7.47,29.38.72,4.08,1.36,8.18,2.19,12.25.75,3.73-.53,6.73-3.09,9.25-3.11,3.07-6.98,4.83-11.25,5.52-5.58.9-10.6-2.29-12.45-7.68-1.27-3.71-1.75-7.59-2.38-11.43-1.43-8.59-3.18-17.12-5.12-25.61-.83-3.62-1.91-7.23-3.81-10.5-2.1-3.61-4.83-3.61-6.89.04-1.73,3.06-2.03,6.48-2.12,9.89-.24,8.84.93,17.56,2.59,26.21,1.08,5.62,2.29,11.22,3.73,16.76.71,2.74,0,5.08-2.01,7.05-3.53,3.46-7.97,5.03-12.68,5.87-1.77.32-3.7.33-5.47.01-3.3-.6-5.89-2.32-7.33-5.55-3.22-7.23-5.47-14.77-7.31-22.45-.66-2.73-1.28-5.48-1.86-8.21-.47-2.22-.71-4.57-1.1-6.85-1.29-7.54-1.6-15.17-1.97-22.79-.22-4.57.1-9.1,1.01-13.62.71-3.52,2.87-5.3,6.13-6.04,2.94-.67,5.87-.95,8.81.32,1.17.5,1.89,1.07,2.45,2.2,1.7,3.4,2.08,7.13,2.87,10.75.29,1.3.66,2.54,1.51,3.63Z"/><path class="cls-2" d="m1279.6,74.4c2.85-1.3,5.98-1.38,8.98-1.77,3.33-.43,6.73-.59,10.12.13,2.98.64,5.22,2.33,7.08,4.51,2.26,2.65,3.25,5.99,4.28,9.23.98,3.1-.2,5.28-3.14,6.97-3.05,1.76-6.48,1.81-9.81,2.28-4.6.65-9.23,1.12-13.85,1.66-.69.08-1.16.34-.9,1.09,1.25,3.65,1.21,7.5,1.71,11.25.56,4.16,1.35,8.28,1.9,12.44.41,3.12,1.07,6.2,1.26,9.37.1,1.73.93,3.39,1.19,5.17.46,3.09,1.35,6.12,1.87,9.21.23,1.38.78,2.64,1.08,4,1.98,9.02,4.13,18,5.87,27.07,1.03,5.34.48,6.84-4.16,9.82-4.48,2.88-9.33,4.37-14.72,3.25-.19-.02-.37-.05-.56-.07-3.91-.62-6.59-2.85-7.94-6.47-2.43-6.47-4.24-13.15-5.88-19.84-.71-2.92-1.13-6-1.78-8.95-1.7-7.75-2.3-15.65-3.84-23.42-.89-4.46-1.13-9.05-1.61-13.58-.39-3.63-.68-7.27-1.06-10.9-.09-.81-.32-1.62-.59-2.39-.21-.59-.69-.92-1.39-.71-3.56,1.07-7.07,2.25-10.2,4.36-.45.3-.95.63-1.57.66-1.42.05-2.77.63-3.91,1.31-2.03,1.19-3.72.85-5.46-.39-1.27-.91-2.57-1.78-3.61-2.97-2.29-2.61-2.27-6.82.12-9.12,3.18-3.06,6.9-5.28,10.51-7.64,4.02-2.62,8.36-4.75,12.57-7.09.14-.08.3-.14.46-.16,2.35-.22,2.61-1.75,2.75-3.75.3-4.21.9-8.4,1.39-12.6.45-3.82,2.94-5.89,7.42-5.83,2.96.04,5.91.52,8.68,1.71,2.35,1.01,4.3,2.35,4.73,5.14.35,2.23,1.94,4.15,1.64,6.54.13.15.25.3.38.45Z"/><path class="cls-1" d="m809.95,213.89c3.95-.1,7.26-1.19,10.59-2.1,5.64-1.54,11.25-3.18,16.83-4.92,1.75-.54,3.56-.73,5.3-1.6,1.68-.84,3.72.19,5.25,1.47,1.76,1.47,2.87,3.37,3.65,5.52,1.51,4.16,1.96,8.32.47,12.59-1.24,3.54-3.61,5.48-7.27,5.65-12.47.59-24.93,1.22-37.41,1.57-4.4.12-8.81.3-13.21.6-1.99.14-4.01,0-5.99.21-3.63.4-5.9-1.49-7.86-4.18-1.37-1.88-2.42-3.9-2.82-6.16-.72-4.06-.67-8.04,2.02-11.53.56-.73,1.27-1.28,2.04-1.76,6.34-3.91,12.21-8.4,17.89-13.23,5.32-4.52,10.3-9.34,15.17-14.3,3.24-3.29,6.49-6.59,8.53-10.85.38-.79.72-1.63,1.1-2.42.9-1.91.1-3.7-1.96-4.28-1.79-.5-3.68-1.04-5.55-.34-1.78.66-3.6,1.17-5.34,1.99-4.24,2-8.44,4.06-12.49,6.44-1.81,1.07-5.59.3-7.15-1.2-2.14-2.07-3.51-4.46-3.79-7.52-.2-2.14-.67-4.25-.38-6.43.31-2.33,1.21-3.3,3.56-3.99,5.26-1.54,10.62-2.76,15.99-3.63,8.37-1.35,16.84-2.29,25.31-.42,3.56.79,7.03,1.83,10.12,3.88,5.89,3.91,8.11,10.37,6.31,17.19-1.57,5.92-4.57,11.1-8.5,15.77-4.39,5.21-9.46,9.69-14.59,14.16-3.36,2.93-6.97,5.57-10.09,8.79-1.64,1.69-3.87,2.75-5.73,5.01Z"/><path class="cls-2" d="m170.3,173.21c-5-.26-9.84-1.07-14.61-2.81-3.75-1.36-7.03-3.32-9.67-6.13-2.68-2.85-5.11-6.02-6.44-9.79-2.03-5.78-2.45-11.72-1.59-17.79,1.21-8.55,3.66-16.74,7.52-24.46,2.32-4.63,5.37-8.82,8.92-12.58,3.65-3.86,8.18-6.45,13.15-8.29,1.07-.39,2.18-.69,3.2-1.19,1.97-.96,4.05-.98,6.09-.59,6.43,1.23,12.38,3.74,17.38,7.96,4.92,4.16,8.05,9.45,9.28,15.95.71,3.75,1.53,7.47,1.27,11.27-.22,3.22-.73,6.43-1.36,9.6-1,5.03-2.05,10.07-4.03,14.82-2,4.8-4.12,9.59-7.52,13.6-5.63,6.63-12.55,10.71-21.58,10.44Zm12.56-56.77c.02-1.54.08-4.03-.39-6.5-.35-1.84-1.28-2.31-3.02-1.58-.98.41-1.6,1.19-2.16,1.99-2.67,3.84-4.67,8.03-6.31,12.39-1.85,4.93-3.19,9.97-3.64,15.27-.28,3.4-.4,6.78-.39,10.18,0,1.17.17,2.33.49,3.44.33,1.12,1.12,1.36,2.09.7.41-.28.75-.66,1.09-1.02,3.41-3.57,5.81-7.73,7.66-12.29,2.82-6.96,4.75-14.07,4.57-22.59Z"/><path class="cls-2" d="m1373.25,153.16c-3.45-4.01-5.73-8.57-6.82-13.77-1.26-6.01-2.7-11.98-2.94-18.15-.08-2.16-.15-4.32.19-6.46.36-.07.84-.06.76-.59-.05-.33-.43-.37-.73-.4.03-1.68-.29-3.4.59-4.98.69-.08,1.21-.38,1.3-1.13.07-.62-.36-.8-.87-.87-.09-.89.28-1.68.57-2.49.52-.06,1.02-.23,1.16-.77.15-.55-.3-.67-.73-.73.27-1.57.74-3.08,1.5-4.49.65-.12,1.19-.28.43-1,.47-1.69,1.29-3.19,2.44-4.51,2.04-.56,3.2-1.79,3.05-4.01,1.42-1.9,3.05-3.58,5.01-4.94.97,0,2.11.22,2.01-1.36.74-.48,1.55-.72,2.43-.78.98.85,1.08.83,1.57-.37.77-.48,1.62-.53,2.5-.46.08.52.22,1.01.89.89.66-.12.56-.71.61-1.18,9.81-.91,18.7,1.1,25.89,8.3,1.82,1.83,3.25,3.97,4.7,6.11,5.03,7.42,6.55,16.02,8.41,24.5,1.43,6.51,1.15,13.02.04,19.53-.56,3.29-1.72,6.35-3.35,9.3-1.51,2.74-2.89,5.48-5.25,7.65-2.96,2.72-6.47,4.35-10.18,5.68-1.38.49-2.83.77-4.19,1.25-1.53.55-3.05.53-4.58.71-.39-.55-.73-.44-1.03.09-2.48.07-4.97.18-7.45-.07-.15,0-.29-.02-.44-.03-1.36-.35-2.71-.7-4.07-1.05-.14-.7-.35-1.17-1.02-.36-3.86-1.35-7.15-3.57-9.99-6.48-.25-2.02-.4-2.19-2.4-2.55Zm17.85-44.38c-.18,8.12,1.04,15.26,3.46,22.19,1.23,3.53,2.94,6.85,4.75,10.11.42.77.84,1.69,2.01,1.57,1.27-.14,1.48-1.2,1.76-2.13.56-1.83.93-3.69,1.12-5.6,1.13-11.49-1.02-22.42-5.67-32.92-.63-1.43-1.47-2.79-2.34-4.09-1.1-1.65-2.38-1.62-3.54,0-.54.75-.8,1.61-1.05,2.5-.84,3.02-.4,6.1-.51,8.39Z"/><path class="cls-2" d="m897.31,211.08c3.42-.34,6.28-1.18,9.14-2,7.99-2.29,15.82-5.06,23.74-7.55,2.48-.78,4.71.48,6.16,2.37,3.86,5.04,5.04,10.77,3.31,16.93-.96,3.44-3.21,5.54-6.94,5.82-5.89.44-11.77.93-17.66,1.37-5.8.44-11.61.85-17.42,1.25-3.4.24-6.81.46-10.21.68-3.4.22-6.84.19-10.2.69-3.75.56-6.53-.91-8.67-3.61-3.1-3.91-4.74-8.33-3.62-13.46.55-2.5,1.88-4.49,3.92-5.87,5.79-3.93,11.24-8.29,16.42-12.97,7.89-7.13,15.78-14.3,21.93-23.08,1.34-1.92,2.37-4.01,2.93-6.29.71-2.92-.14-4.16-3.11-4.69-2.57-.46-4.93.28-7.27,1.22-4.41,1.78-8.51,4.17-12.63,6.5-.22.12-.43.25-.65.38-4.78,2.74-8.59,1.66-11.2-3.21-1.52-2.84-2.15-5.94-2.17-9.12-.03-3.38,1.11-4.76,4.38-5.68,3.51-.98,7-2.04,10.55-2.85,8.58-1.95,17.22-3.45,26.09-2.72,4.66.38,9.06,1.64,13.21,3.7,5.6,2.79,8.66,8.99,7.8,15.14-.87,6.15-3.34,11.58-7.01,16.55-2.08,2.81-4.37,5.43-6.82,7.93-7.39,7.55-15.45,14.39-23.18,21.57-.17.16-.31.36-.83,1Z"/><path class="cls-2" d="m654.92,197.08c-.07-4.82.29-9.64.75-14.42.76-7.92,1.64-15.84,3-23.69.6-3.46,3.38-6.05,7.51-6.65,4.36-.63,8.61-.1,12.54,2.18,2.32,1.35,3.52,3.2,3.35,5.9-.37,5.8-.78,11.6-1.1,17.4-.54,9.79-.84,19.58.16,29.36.22,2.16.91,4.21,1.84,6.18.62,1.32,1.4,2.5,3.04,2.62,1.78.13,2.69-1.09,3.49-2.39,1.41-2.29,2.29-4.78,2.9-7.39,1.64-7.06,2.45-14.21,2.73-21.44.3-7.88,1.1-15.72,2.04-23.54.62-5.1,5.37-8.61,11.03-8.28,6.09.35,10.75,4.97,11.42,11.2.94,8.8.31,17.59-.33,26.37-.4,5.46-.87,10.92-1.73,16.33-1.76,11.08-7.25,19.45-17.74,24.18-2.27,1.02-4.61,1.91-6.95,2.67-1.89.61-4.11.29-6.17.23-6.34-.17-12.41-1.5-17.8-4.96-7.32-4.69-11.62-11.45-13.27-19.95-.77-3.94-.8-7.92-.72-11.9Z"/><path class="cls-2" d="m401.81,187.63c.88-2.37,1.86-4.65,4.54-5.55.14-.11.28-.22.42-.34,3.39-1.57,6.74-1.24,10.07.22.86.38,1.57.94,2.18,1.62.91,1.02,1.39,2.05.93,3.57-.99,3.29-.77,6.49,1.26,9.46,1.87,2.72,4.56,3.71,7.67,3.74,1.68.01,2.97-.99,3.85-2.39.3-.48.54-1,.93-1.43.51-.19.77-.45.26-.93-.05-.69-.1-1.39-.15-2.08-.12-.15-.25-.3-.37-.46-1.02-1.78-2.04-3.56-3.06-5.34-.1-.55-.17-1.12-.92-1.16-3.96-4.41-8.48-8.31-12-13.13-3.15-4.3-6.51-8.44-8.85-13.28-.4-.83-.71-1.65-.78-2.56-.11-.14-.22-.28-.33-.42-.56-4.16-.95-8.32-.03-12.49.58-.12,1.09-.28.44-.96.04-.35.07-.71.11-1.06.11-.12.22-.25.33-.37.37-.87.74-1.74,1.11-2.61.13-.14.26-.28.38-.43.36-.93.61-1.92,1.49-2.55.89,0,1-.63,1.05-1.3,1.13-1.77,2.42-3.37,4.46-4.18.16-.17.32-.34.48-.51h0c.16-.1.32-.2.48-.3l.54-.19c.16-.13.32-.26.48-.38,2.63-1.84,5.65-2.63,8.76-2.97,11.38-1.22,21.28,1.94,29.17,10.4,4.47,4.79,6.75,10.68,7.54,17.13.24,1.97.54,3.93.45,5.94-.17,3.88-1.89,5.92-5.72,6.65-1.91.37-3.81.08-5.71-.07-.13-.57-.31-1.03-.96-.41-.36-.03-.71-.05-1.07-.08-.14-.11-.27-.22-.41-.33-.37-.07-.73-.15-1.1-.22-.07-.11-.16-.19-.28-.24-1.17-.91-2.59-1.44-3.66-2.49-1.35-1.33-2.24-2.81-1.87-4.79.46-2.44.09-4.91.22-7.36.09-.76.37-1.61-.79-1.83-.12-1.78-1.13-3.16-2.07-4.57-.16-.14-.32-.28-.48-.43-2.69-.65-4.56.29-6.07,2.64-1.86,2.89-2.69,6.01-2.84,9.36-.08,1.88.7,3.54,1.71,5.08,2.13,3.26,4.64,6.21,7.11,9.23,4.14,5.05,8.99,9.51,12.4,15.17,2.53,4.2,4.83,8.42,5.35,13.41.43,4.14-.76,7.84-2.9,11.27-2.24,3.6-5.82,5.2-9.77,6.16-.17.14-.35.27-.52.41-.74.02-1.5-.01-2.23.08-5.9.77-11.73.15-17.56-.77-1.23-.19-2.47-.28-3.71-.42-1.08-1.19-2.39-1.69-3.99-1.32-.17-.03-.35-.05-.52-.08-.16-.14-.31-.27-.47-.41-.75.06-1.44-.12-2.03-.6-.14-.14-.27-.27-.41-.41-1.87-.68-3.74-1.37-5.08-2.96l-.47-.52c-2.65-1.16-4.13-3.43-5.52-5.79-.41-.71-.66-1.51-.98-2.27-.13-.71.3-1.68-.88-1.91-.98-3.84-1.01-7.67.05-11.49.11-.13.22-.26.32-.39Z"/><path class="cls-2" d="m236.92,186.56c-.33-.02-.72.07-.98-.07-3.7-2.04-6.5-4.95-8.3-8.78-.74-1.57-1.47-3.14-2.21-4.71-.06-.16-.17-.28-.32-.37-.06-.36-.13-.72-.19-1.09-.11-.14-.22-.27-.33-.41-.06-.36-.11-.73-.17-1.09-.1-.13-.2-.26-.3-.39-.02-.37-.03-.74-.05-1.11.55-.69.02-.81-.5-.92-.03-.34-.05-.69-.08-1.03.64-.66.17-.83-.42-.96-.03-.34-.05-.69-.08-1.03.64-.65.17-.83-.41-.96,0-2.74-1.03-5.38-.81-8.14.1-.51.13-.99-.37-1.33-.98-6.81-1.45-13.67-1.38-20.55.06-6.71.62-13.39,1.6-20.03.31-2.09.19-4.26.98-6.28.56-.13,1.02-.3.42-.95.02-.35.04-.7.06-1.05.52-.11,1.01-.24.5-.91.01-.37.02-.75.03-1.12.14-.1.24-.22.29-.38.17-.71.04-1.51.62-2.09.12-.14.25-.28.37-.42.75-1.96,1.57-3.87,3.47-5.04.16-.1.32-.2.48-.3,5.98-1.57,10.93.36,15.02,4.66,1.7,1.79,2.36,3.87,1.1,6.53-1.78,3.76-2.24,7.96-2.46,12.09-.54,10.44-1.04,20.88-.31,31.33.25,3.54.2,7.1.29,10.66-.05.43-.23.97.39,1.09.33.06.43-.35.51-.63.8-1.23,1.53-2.51,2.54-3.59.92-.09.94-.76.95-1.44,1.2-2.95,2.72-5.74,4.21-8.55.56-.14.98-.34.39-.95-.21-.64.27-1.07.51-1.57.13-.14.25-.29.38-.43.18-.7.05-1.49.63-2.06.12-.14.25-.29.37-.43.1-.18.2-.36.29-.54.53-.16.88-.38.35-.93-.24-.65.25-1.08.49-1.58.12-.14.25-.28.37-.42.11-.19.22-.38.33-.56.99-.4.55-1.27.66-1.96.11-.71.09-1.47.63-2.04l.37-.42c.11-.19.22-.37.33-.56.6-.19.66-.65.6-1.17.08-.61.15-1.23.23-1.84.12-.13.23-.27.35-.4.06-.37.13-.73.19-1.1.14-.09.25-.21.31-.37.12-.2.23-.4.35-.6.95-.39.53-1.25.66-1.92.11-.19.22-.38.33-.57.55-.19.82-.46.26-.95.03-.36.06-.72.1-1.08.14-.09.25-.21.31-.37.11-.2.23-.39.34-.59.54-.19.81-.45.27-.94.03-.36.07-.72.1-1.09.13-.09.23-.21.29-.35.12-.2.24-.41.36-.61,1.11-1.64,1.82-3.41,1.74-5.43.02-.36.04-.72.07-1.08.11-.15.21-.3.32-.44-.06-1.78.75-3.36,1.14-5.03.12-.15.24-.31.36-.46.13-.36.06-.83.54-1,.15-.12.29-.23.44-.35,3.37-1.35,6.68-.74,9.94.38,1,.35,1.93.92,2.87,1.44,2.08,1.14,3.25,2.86,3.74,5.22.83,3.96-.03,7.76-.81,11.55-1.48,7.2-4.08,14.05-6.87,20.83-1.34,3.27-3.01,6.39-4.22,9.72-.91,2.48-2.23,4.79-3.65,7.04-2.46,3.9-4.42,8.1-7.02,11.92-2.41,3.55-4.86,7.06-7.83,10.22-2.49,2.65-5.54,3.54-8.88,3.8-2.23.18-4.49.14-6.72-.13-.16-.14-.31-.27-.47-.41Z"/><path class="cls-2" d="m347.44,199.54c-.6-.57-1.18-1.16-1.8-1.71-3.05-2.74-5.37-5.98-6.79-9.84-.13-.69.31-1.58-.73-1.93-.09-.18-.19-.37-.28-.55-.12-.14-.23-.28-.35-.43-.05-.35-.1-.71-.15-1.06-.11-.14-.21-.29-.32-.43-.02-.36-.05-.72-.07-1.08.61-.67.11-.82-.45-.95-.05-1.88-.52-3.74-.31-5.64.12-.52.13-1.01-.38-1.35-.63-7.07.4-14.01,1.71-20.93.55-.12,1.03-.28.45-.94.02-.36.03-.72.05-1.08.11-.14.22-.29.32-.43.05-.34.09-.69.14-1.03.22-.1.58-.16.63-.32.67-2.01,1.72-3.91,1.74-6.11.1-.18.19-.37.29-.55.55-.17.89-.41.32-.95-.2-.65.28-1.07.52-1.57.12-.13.25-.26.37-.39,1.05-2.26,1.78-4.69,3.58-6.54.92-.11.91-.8.92-1.47l.02-.03c.92-.06.97-.72.99-1.42,1.6-2.9,4.28-4.81,6.55-7.09.14-.14.28-.29.42-.43.79-.58,1.4-1.46,2.5-1.54.16-.12.32-.25.48-.37,4.48-2.68,9.28-3.31,14.28-2.01,3.52.91,6.89,2.22,9.9,4.38,2.89,2.07,5.15,4.68,6.83,7.75,5.65,10.3,5.98,20.96,1.85,31.82-1.48,3.87-3.36,7.59-6.53,10.4-4.74,4.2-10.17,6.3-16.6,5.07-.9-.17-1.81-.23-2.72-.34-.13-.6-.3-1.09-.98-.42-.34-.03-.68-.06-1.02-.1-.14-.63-.35-1.08-.99-.37-.17-.02-.35-.04-.52-.07-.16-.14-.31-.28-.47-.41-.22-.12-.45-.24-.67-.36-.12.1-.24.21-.36.31-.02,1.66-.05,3.31-.06,4.97-.01,1.68.37,3.27,1,4.83.61,1.52,1.68,2.39,3.29,2.65,1.97.32,3.9.3,5.79-.42.16-.14.33-.29.49-.43.62-.61,1.57-.79,2.06-1.58.14-.12.27-.23.41-.35,2.57-1.58,5.26-1.62,8.03-.64,3.54,1.26,4.95,4.03,3.82,7.61-.8,2.55-2.28,4.71-4.05,6.68-.55.61-1.22,1.1-1.84,1.65l-.44.37c-3.99,2.38-8.25,3.8-12.97,3.54-.99-.06-1.98-.17-2.98-.25-.25-.51-.55-.77-1.03-.23-1.09.24-2.02-.38-3.03-.58-.12-.58-.28-1.07-.96-.44-.36-.03-.71-.06-1.07-.08-.14-.11-.28-.22-.43-.33-.36-.06-.71-.11-1.07-.17-.13-.1-.25-.2-.38-.31-1.69-.85-3.39-1.7-5.08-2.54-.16-.16-.32-.31-.47-.47-.33-.21-.89,0-1.02-.56-.13-.14-.27-.28-.4-.41Zm27.05-62.31c-1.17-2.53-2.19-2.76-3.94-.88-.9.97-1.63,2.06-2.25,3.25-3.29,6.29-4.85,13.14-6.5,19.96-.52,2.17-1,4.37-1.02,6.62-.01,1.38.28,1.63,1.62,1.42,1.69-.27,3.15-1.05,4.37-2.23,2.22-2.15,4.19-4.48,5.42-7.37,1.71-4,2.86-8.15,3.09-12.49.13-2.63.54-5.3-.47-7.87-.11-.14-.21-.27-.32-.41Z"/><path class="cls-2" d="m1055.36,132.36c.48-.26.87-.73,1.5-.65l.5-.35c2.14-.57,4.23-1.38,6.52-1.1.91,1.35,1.61,1.35,2.5-.02,5.8-.05,10.88,1.98,15.25,5.64,6.93,5.81,10.39,13.5,11.65,22.29.05.32-.02.66-.03.99-.45.35-.39.66.07.94,1.21,8.86-.97,16.76-6.93,23.47-2.57,2.89-6.2,4.04-9.86,4.94-2.93.72-5.9.76-8.85.25-.88,3.62.79,8.39,3.59,10.5.77.58,1.61.86,2.55.79,2.91-.23,5.54-1.02,7.25-3.66.45-.69.8-1.46,1.55-1.91,0,0,.11-.04.11-.04,1.93-1.09,3.83-2.06,6.21-2.02,3.21.05,6.86,3.14,6.07,7.18-1.38,7.04-5.12,12.27-12.01,14.7-12.15,4.29-26.2,1.74-34.92-11.15-4.21-6.22-6.51-13.05-7.59-20.33-1.62-10.89-1.09-21.68,2.19-32.26.2-.63.28-1.29.41-1.94.14-.09.25-.21.32-.37.45-1.01.51-2.17,1.13-3.11.12-.13.24-.27.37-.4.38-.86.75-1.71,1.13-2.57,1.84-.34,1.96-.51,1.38-1.99,1.51-2.62,3.15-5.1,6-6.49.16-.17.31-.33.47-.5.17-.53.69-.31,1.03-.5.15-.12.3-.24.45-.36Zm9.01,35.44c.06,3.48-.19,6.97.4,10.43.25,1.49.65,1.7,2,1.13,1.07-.46,2.09-1.02,2.87-1.93,1.64-1.91,2.93-3.98,3.6-6.46,1.56-5.81,1.36-11.68.49-17.52-.4-2.67-1.01-5.38-3.16-7.39-1.47-1.37-2.23-1.3-3.21.49-1.04,1.91-1.63,3.99-1.95,6.13-.77,5.01-1.22,10.04-1.04,15.12Z"/><path class="cls-2" d="m1203.44,179.08c-.05-.34-.1-.68-.15-1.03-.1-.15-.2-.29-.3-.44-.07-.52-.13-1.05-.2-1.57-.1-.14-.2-.28-.29-.42-.71-4.25-1.51-8.48-2.11-12.74-.89-6.32-1.73-12.64-2.22-19.01-.44-5.73-.32-11.43.11-17.14.46-.27.57-.58.11-.96.02-.35.04-.69.05-1.04.59-.12,1.07-.29.43-.96.03-.34.05-.69.08-1.03,1.35-.8,1.32-2.13,1.35-3.45.33-.94.57-1.93,1.47-2.54.17-.12.33-.25.5-.37,3.1-1.38,6.38-1.72,9.69-1.42,7.94.72,9.39,3.42,10.08,9.74.69,6.26,1.44,12.52,2.2,18.77,1.18,9.68,3.23,19.19,5.9,28.56,1.32,4.66,2.7,9.31,3.99,13.98.87,3.17,0,5.24-2.9,6.9-4.36,2.5-9.14,2.89-13.98,2.4-2.54-.25-5.25-.12-7.46-1.84-.16-.15-.32-.31-.48-.46-.87-.96-2.33-1.45-2.41-3.04.37-1.1.13-1.94-.99-2.44-.04-.34-.09-.67-.13-1.01-.11-.73.36-1.71-.84-1.98-.25-1-.78-1.95-.65-3.03-.1-.14-.2-.28-.3-.42-.02-.37-.03-.73-.05-1.1.56-.7.03-.81-.5-.93Z"/><path class="cls-2" d="m297.37,131.26c.06-.35.11-.71.17-1.06.11-.14.22-.28.34-.42.06-.36.12-.72.18-1.08.11-.13.22-.26.33-.39.11-.2.23-.39.34-.59.96-.4.54-1.26.66-1.94.1-.18.2-.37.3-.55.55-.17.87-.42.3-.95.37-2.17,1.61-3.87,2.96-5.51.89-.07.94-.72.96-1.39,1.77-3.77,5.06-3.51,8.32-2.96,3.03.51,5.85,1.75,8.47,3.36,3,1.84,4.28,4.66,3.59,8.03-1.2,5.88-2.49,11.75-3.69,17.63-1.18,5.76-2.23,11.55-2.84,17.41-.85,8.22-1.52,16.45-1.51,24.73,0,1.65-.25,3.31-.34,4.96-.19,3.26-1.97,5.17-5.26,5.53-2.07.22-4.16.12-6.23-.03-.14-.01-.28-.02-.43-.02-.96-.56-2.04-.59-3.11-.68-.13-.55-.28-1.03-.94-.45-.36-.03-.73-.06-1.09-.09-.09-.13-.21-.23-.35-.29-.21-.12-.41-.25-.62-.37-.3-.63-.78-.64-1.33-.38-1.43-.2-2.63-.86-3.64-1.87-.13-.11-.26-.22-.39-.34-1.04-1.2-2.49-2.03-3.11-3.59-.11-.13-.21-.26-.32-.38-.41-2.97-.28-5.93-.03-8.9.35-4.2.57-8.41.84-12.61,0-.12,0-.25,0-.37.73-4.51,1.45-9.03,2.18-13.54.76-.17.8-.71.68-1.33.09-1.22.18-2.44.27-3.66.63-.14,1.08-.35.37-.99.05-.5.1-1,.15-1.51.59-.13,1.05-.32.4-.96.03-.34.05-.69.08-1.03.58-.12,1.07-.28.44-.96.02-.35.05-.69.07-1.04.59-.13,1.06-.3.42-.96.02-.34.05-.69.07-1.03.57-.12,1.06-.28.44-.96.02-.35.04-.69.07-1.04.58-.12,1.05-.29.43-.96.03-.36.05-.71.08-1.07.11-.14.22-.28.33-.42.05-.36.11-.72.16-1.07.11-.15.22-.29.34-.44.05-.35.1-.7.15-1.05.12-.15.23-.29.35-.44Z"/><path class="cls-2" d="m762.96,185.03c.24,4.14.3,8.29.43,12.44.3,8.99,1.47,17.86,2.5,26.77.52,4.52-1.1,6.2-4.52,7.37-3.97,1.35-7.9.92-11.82.13-2.34-.47-4.7-.99-6.83-2.26-2.47-1.47-3.79-3.43-4.25-6.32-1.57-9.96-2.29-19.96-1.92-30.02.35-9.7.89-19.4,3.01-28.93.79-3.58,1.92-7.04,3.8-10.23,1.33-2.27,3.12-3.49,5.89-3.39,3.6.12,7.13.39,10.43,2.02,3.07,1.52,4.63,3.87,4.48,7.36-.33,8.04-.6,16.09-1.15,24.12-.46.3-.48.61-.03.94Z"/><path class="cls-2" d="m1318.7,100.31c-.06-.74.2-1.38.58-1.99.65-.12,1.18-.28.43-1,.28-1.14.62-2.23,1.99-2.52,2.01.82,4.71.16,6.01-1.47,1.5-.34,3-.36,4.5,0,.07.23.11.65.22.66,1.08.19,2.15.37,3.19.72.31.11.53-.32.68-.62,2.81.73,3.98,2.87,4.45,5.43.87,4.72,1.67,9.46,2.36,14.21,1.22,8.37,2.91,16.63,5.1,24.8.86,3.2,1.99,6.32,2.62,9.57-.83,1.01-.8,1.11.43,1.53,1.14,3.33,2.28,6.67,3.43,10-.77.81-.58,1.3.5,1.5.61.72.77,1.64.98,2.5.73,3.05-.28,5.39-3.1,6.78-5.85,2.88-12.01,3.36-18.35,2.1-.06-.42.14-1.03-.45-1.15-.53-.11-.48.45-.57.8-2.41-.75-4.31-2.02-4.96-4.64-.11-.13-.23-.26-.34-.39-.06-.34-.11-.69-.17-1.03-.12-.16-.24-.31-.36-.47-.05-.34-.09-.68-.14-1.02-.11-.73.36-1.71-.83-1.99.03-.76-.52-1.34-.66-2.04-.12-.14-.24-.29-.37-.43-.05-.34-.1-.68-.14-1.02-.12-.16-.24-.32-.36-.48-.05-.34-.09-.69-.14-1.03-.11-.15-.23-.31-.34-.46-.48-2.19-1.49-4.25-1.6-6.53.69-.74.12-.86-.48-.97-.79-4.19-1.62-8.37-2.36-12.57-1.78-10.13-3.38-20.28-2.79-30.63.09-1.58.22-3.14.66-4.67,1.07-.26,1.15-.77.39-1.5Z"/><path class="cls-1" d="m765.68,135.42c.46,5.86-4.99,10.46-9.96,10.52-3.11.04-5.96-.62-8.31-2.78-2.11-1.93-3.13-4.58-3.13-7.19,0-2.68.75-5.49,2.93-7.53,2.19-2.04,4.82-3.06,7.78-3.16,6.09-.2,10.58,4.09,10.69,10.14Z"/><path class="cls-1" d="m1198.29,100.03c-.27-9.16,9-12.38,14.94-9.95,4.23,1.73,6.09,4.88,6.16,9.23.07,4.26-1.86,7.38-5.64,9.41-3.26,1.76-6.38,1.44-9.8.2-2.95-1.07-3.84-3.62-5.37-5.74-.67-.93-.14-2.26-.3-3.14Z"/><path class="cls-1" d="m1316.5,79.03c.04-5.37,3.02-9.45,7.05-10.9,4.29-1.54,9.31-.52,11.8,2.86,2.42,3.28,3.62,7.16,1.41,10.94-3.43,5.88-10.21,8.93-16.71,3.72-2.49-1.99-3.61-4.69-3.55-6.63Z"/><path class="cls-1" d="m308.63,100.1c-.14-6.98,5.78-10.17,10.91-9.95,6.18.27,10.51,5.02,10.34,10.19-.21,6.36-5.34,10.42-10.8,10.39-4.97-.03-10.8-4.23-10.45-10.62Z"/><path class="cls-1" d="m1115.34,139.2c.08,1.25-.08,2.38-.93,3.43-1,1.23-2.14,2.38-2.49,4.09-.13.64-.65,1.55-1.71,1.48.91-3.46,2.8-6.35,5.13-8.99Z"/><path class="cls-1" d="m1121.27,133.55c-.29,3.25-2.74,5.59-5.93,5.65,1.82-2.05,3.49-4.25,5.93-5.65Z"/><path class="cls-1" d="m578.64,154.04c-.12,3.06-1.99,4.99-4.31,6.64.95-2.52,2.03-4.97,4.31-6.64Z"/><path class="cls-1" d="m1327.7,93.33c-1.29,1.63-4,2.29-6.01,1.47,1.87-1.02,3.84-1.64,6.01-1.47Z"/><path class="cls-1" d="m583.6,148.45c-.16,2.27-1.19,3.35-3.5,3.68.84-1.54,2.04-2.73,3.5-3.68Z"/><path class="cls-1" d="m340.85,143.74c-.02,2.19-1.07,4.1-1.74,6.11-.05.16-.41.21-.63.32.67-2.19,1.04-4.48,2.37-6.43Z"/><path class="cls-1" d="m589.19,145.02c-.81,2.28-1.34,2.53-3.53,1.63,1.05-.83,2.17-1.48,3.53-1.63Z"/><path class="cls-1" d="m1373.16,88.8c.15,2.22-1.01,3.45-3.05,4.01.74-1.54,1.72-2.91,3.05-4.01Z"/><path class="cls-1" d="m264,113.32c.09,2.02-.63,3.79-1.74,5.43-.02-2,.67-3.78,1.74-5.43Z"/><path class="cls-1" d="m1156.82,71.66c-.04.5-.06,1.12-.68,1.16-.95.06-1.99.43-2.82-.41,1.07-.71,2.28-.77,3.5-.75Z"/><path class="cls-1" d="m600.16,224.75c.25-1.8,1.33-2.83,3.04-3.28-.59,1.48-1.75,2.43-3.04,3.28Z"/><path class="cls-1" d="m1336.29,94.1c-.15.29-.37.72-.68.62-1.04-.36-2.11-.54-3.19-.72-.11-.02-.15-.43-.22-.66,1.44-.14,2.8.12,4.09.77Z"/><path class="cls-1" d="m621.19,151.18c1.35,1.99,1.32,2.14-.49,2.98.04-1.01-.32-2.09.49-2.98Z"/><path class="cls-1" d="m1373.25,153.16c1.99.37,2.15.53,2.4,2.55-1.34-.35-1.77-1.54-2.4-2.55Z"/><path class="cls-1" d="m606.85,217.05c-.77-.47-.97-1.25-.35-1.76.61-.49,1.6-.82,2.07.4-.89.05-1.15.9-1.72,1.35Z"/><path class="cls-1" d="m417.79,214.46c1.6-.36,2.91.13,3.99,1.32-1.41-.2-2.73-.68-3.99-1.32Z"/><path class="cls-1" d="m1106.98,159.69c.38,1.22,1.04,2.47-.46,3.44-.12-1.18.09-2.32.46-3.44Z"/><path class="cls-1" d="m572.3,164.67c.23,1.17.07,1.52-1.39,2.95-.15-1.27.63-2.1,1.39-2.95Z"/><path class="cls-1" d="m567.23,178.6c.66,1.56.55,1.93-.87,2.98.13-1.04.21-2.09.87-2.98Z"/><path class="cls-1" d="m565.18,190.55c1.46.99,1.38,1.53-.35,2.49-.16-.87.09-1.68.35-2.49Z"/><path class="cls-1" d="m1124.32,131.2c-.19,1.53-1.12,2.1-2.58,1.98.76-.79,1.29-1.89,2.58-1.98Z"/><path class="cls-1" d="m569.7,170.63c-.14,1.28.12,2.71-1.36,3.46.14-1.28.44-2.49,1.36-3.46Z"/><path class="cls-1" d="m103.96,77.41c.08-.31.1-.66.25-.93.21-.37.35-1.1.97-.76.54.3.18.86-.02,1.3-.1.22-.19.45-.29.67-.3-.09-.61-.18-.91-.28Z"/><path class="cls-1" d="m1047.41,140.21c.58,1.48.46,1.65-1.38,1.99.31-.77.56-1.58,1.38-1.99Z"/><path class="cls-1" d="m1200.3,119.3c-.03,1.31,0,2.65-1.35,3.45.32-1.2.36-2.51,1.35-3.45Z"/><path class="cls-1" d="m1066.37,130.25c-.88,1.36-1.59,1.37-2.5.02.83-.17,1.66-.17,2.5-.02Z"/><path class="cls-1" d="m1107.84,155.65c.37.07.88.08.82.59-.09.71-.4,1.34-1.27,1.4-.05-.71,0-1.4.46-2Z"/><path class="cls-1" d="m1162.31,71.99c-.76,1.23-1.14,1.18-2-.28.71-.23,1.35.1,2,.28Z"/><path class="cls-1" d="m631.61,243.89c-1.25-.71-1.25-.88.05-2,.3.67.13,1.34-.05,2Z"/><path class="cls-1" d="m45.62,73.71c-.09-.83.05-1.57.93-2.13.7.54.4,1.28.42,1.94-.54-.58-.95-.18-1.36.2Z"/><path class="cls-1" d="m1205.91,187.56c1.11.5,1.36,1.35.99,2.44-.57-.72-.99-1.49-.99-2.44Z"/><path class="cls-1" d="m30.98,21.4c-.17,1-.05,2.14-1.27,2.64.14-1.02.16-2.09,1.27-2.64Z"/><path class="cls-1" d="m628.7,284.89c.13-1.5,1.27-1.53,2.37-1.62-.44,1.06-1.35,1.42-2.37,1.62Z"/><path class="cls-1" d="m1364.74,106.79c.51.07.94.25.87.87-.09.74-.61,1.04-1.3,1.13-.13-.72.2-1.35.43-2Z"/><path class="cls-1" d="m606.2,261.84c.69.06.98.45.94,1.12-.04.6-.42.81-.94.87-.14-.67-.14-1.33,0-1.99Z"/><path class="cls-1" d="m596.17,143.7c-.7,1.3-1.04,1.33-2.1.17.69-.25,1.39-.3,2.1-.17Z"/><path class="cls-1" d="m632.55,227.4c-.58-.69-.6-1.34.1-1.96.23.67.19,1.32-.1,1.96Z"/><path class="cls-1" d="m1380.17,82.5c.09,1.58-1.04,1.35-2.01,1.36.47-.75,1.14-1.2,2.01-1.36Z"/><path class="cls-1" d="m1172.33,108.8c-1.19-.9-1.19-.96-.06-1.5.24.49.32.99.06,1.5Z"/><path class="cls-1" d="m1159.32,186.06c1.41.37,1.18,1.13.47,2-.48-.59-.57-1.27-.47-2Z"/><path class="cls-1" d="m1388.17,80.59c-.06.47.05,1.05-.61,1.18-.68.13-.82-.37-.89-.89.48-.21.96-.43,1.51-.29Z"/><path class="cls-1" d="m622.52,147.85c.21,1.09.2,2.07-1.22,2.32-.21-1.1.83-1.54,1.22-2.32Z"/><path class="cls-1" d="m603.19,221.49q.06-1.85,1.66-1.96c-.43.75-.9,1.48-1.66,1.96Z"/><path class="cls-1" d="m569.16,218.48c1.22.01,1.54.79,1.58,1.83-.84-.34-1.35-.96-1.58-1.83Z"/><path class="cls-1" d="m1365.74,102.81c.43.06.88.18.73.73-.15.54-.64.71-1.16.77-.09-.57.16-1.04.43-1.5Z"/><path class="cls-1" d="m604.67,144.79c-.1.52-.31.96-.95.78-.62-.17-.5-.74-.56-1.2.5.14,1,.28,1.51.42Z"/><path class="cls-1" d="m1333.68,172.17c.09-.35.04-.91.57-.8.59.12.38.73.45,1.15-.41.08-.81.15-1.02-.35Z"/><path class="cls-1" d="m1318.7,100.31c.76.73.68,1.24-.39,1.5-.08-.56,0-1.07.39-1.5Z"/><path class="cls-1" d="m1351.25,149.65c-1.23-.43-1.26-.53-.43-1.53.59.39.26,1.03.43,1.53Z"/><path class="cls-1" d="m1355.17,161.14c-1.08-.2-1.27-.69-.5-1.5.52.38.48.95.5,1.5Z"/><path class="cls-1" d="m566.19,184.07c.52.07,1.02.24.88.88-.14.63-.7.55-1.19.51.1-.47.21-.93.32-1.4Z"/><path class="cls-1" d="m255.9,135.74c-.12.69.32,1.56-.66,1.96-.34-.84.04-1.44.66-1.96Z"/><path class="cls-1" d="m1384.17,81.34c-.49,1.2-.58,1.22-1.57.37.46-.4,1-.41,1.57-.37Z"/><path class="cls-1" d="m1204.94,184.56c1.2.27.74,1.25.84,1.98-.61-.52-.96-1.16-.84-1.98Z"/><path class="cls-1" d="m259.91,125.31c-.12.67.29,1.53-.66,1.92-.37-.84.04-1.41.66-1.92Z"/><path class="cls-1" d="m338.13,186.06c1.04.34.6,1.24.73,1.93-.63-.5-1-1.09-.73-1.93Z"/><path class="cls-1" d="m299.38,125.79c-.12.68.3,1.54-.66,1.94-.35-.84.02-1.43.66-1.94Z"/><path class="cls-1" d="m1143.32,125.8c-.08.4-.15.82-.68.85-.67.04-.76-.45-.82-.95.51-.1,1.01-.07,1.5.1Z"/><path class="cls-1" d="m443.35,149.17c1.16.22.88,1.07.79,1.83-.81-.38-.96-1.04-.79-1.83Z"/><path class="cls-1" d="m1326.87,162.63c1.19.28.72,1.26.83,1.99-.61-.52-.97-1.15-.83-1.99Z"/><path class="cls-1" d="m401.44,199.52c1.19.23.76,1.2.88,1.91-.66-.47-.97-1.1-.88-1.91Z"/><path class="cls-1" d="m108.5,43.02c0,.68,0,1.37-.92,1.48-.11-.75.33-1.16.92-1.48Z"/><path class="cls-1" d="m346.85,132.27c-.01.68,0,1.36-.92,1.47-.11-.75.33-1.16.92-1.47Z"/><path class="cls-1" d="m246.92,155.73c-.01.68-.03,1.35-.95,1.44-.06-.72.29-1.19.95-1.44Z"/><path class="cls-1" d="m104,50.01c0,.69-.02,1.39-.97,1.46-.05-.73.37-1.15.97-1.46Z"/><path class="cls-1" d="m101.02,54.55c-.02.68-.07,1.35-.98,1.41,0-.7.34-1.15.98-1.41Z"/><path class="cls-1" d="m347.86,130.82c-.01.69-.07,1.35-.99,1.42-.02-.72.36-1.15.99-1.42Z"/><path class="cls-1" d="m112.99,36.05c0,.7-.01,1.4-.97,1.46-.04-.73.38-1.15.97-1.46Z"/><path class="cls-1" d="m110.01,40.58c-.02.69-.06,1.35-.98,1.42,0-.7.35-1.15.98-1.42Z"/><path class="cls-1" d="m303.9,117.39c-.03.67-.08,1.32-.96,1.39-.05-.72.31-1.15.96-1.39Z"/><path class="cls-1" d="m412.34,135.41c-.05.68-.16,1.3-1.05,1.3.06-.67.35-1.15,1.05-1.3Z"/><path class="cls-1" d="m429.43,186.56c.75.03.82.61.92,1.16-.82.02-.88-.56-.92-1.16Z"/><path class="cls-1" d="m295.47,137.75c.62.67.13.83-.44.96-.17-.46-.17-.85.44-.96Z"/><path class="cls-1" d="m1319.7,97.32c.76.71.22.88-.43,1-.04-.41.08-.75.43-1Z"/><path class="cls-1" d="m1198.39,125.78c.46.37.35.69-.11.96-.62-.39-.59-.71.11-.96Z"/><path class="cls-1" d="m1367.67,97.32c.76.72.23.88-.43,1-.04-.41.08-.76.43-1Z"/><path class="cls-1" d="m299.98,124.29c.57.53.25.78-.3.95-.2-.41-.31-.8.3-.95Z"/><path class="cls-1" d="m1147.64,81.8c.82.49.69.83-.16,1.07-.1-.38-.1-.75.16-1.07Z"/><path class="cls-1" d="m762.96,185.03c-.45-.33-.43-.64.03-.94.21.32.21.63-.03.94Z"/><path class="cls-1" d="m1198.87,123.78c.64.67.16.84-.43.96-.17-.46-.17-.84.43-.96Z"/><path class="cls-1" d="m357.36,204.41c.68-.63.84-.13.96.44-.47.17-.85.16-.96-.44Z"/><path class="cls-1" d="m260.5,123.79c.56.49.29.76-.26.95-.2-.39-.44-.8.26-.95Z"/><path class="cls-1" d="m295.97,135.75c.62.66.14.83-.43.96-.18-.46-.17-.84.43-.96Z"/><path class="cls-1" d="m28.16,30.07c.59.68.1.83-.46.94-.17-.47-.15-.85.46-.94Z"/><path class="cls-1" d="m361.35,205.43c.48-.54.79-.28,1.03.23-.46.43-.82.44-1.03-.23Z"/><path class="cls-1" d="m336.51,181.57c.56.12,1.05.28.45.95-.61-.1-.63-.47-.45-.95Z"/><path class="cls-1" d="m1203.44,179.08c.53.11,1.06.23.5.93-.63-.06-.66-.45-.5-.93Z"/><path class="cls-1" d="m1125.28,206.12c.79-.92.93-.28,1.03.43-.41,0-.78-.07-1.03-.43Z"/><path class="cls-1" d="m294.95,139.73c.64.66.17.83-.42.96-.18-.46-.18-.84.42-.96Z"/><path class="cls-1" d="m254.05,140.26c.53.55.18.78-.35.93-.2-.43-.27-.81.35-.93Z"/><path class="cls-1" d="m25.23,40.57c.5.69,0,.81-.52.91-.18-.5-.12-.87.52-.91Z"/><path class="cls-1" d="m363.84,178.02c.67-.67.85-.19.98.42-.45.16-.84.18-.98-.42Z"/><path class="cls-1" d="m19.22,61.5c.53.69.02.81-.51.92-.17-.5-.12-.87.51-.92Z"/><path class="cls-1" d="m361.83,177.56c.64-.71.85-.27.99.37-.44.17-.79.12-.99-.37Z"/><path class="cls-1" d="m567.78,176.62c.65.69.14.84-.45.96-.15-.46-.15-.85.45-.96Z"/><path class="cls-1" d="m294.46,141.73c.63.67.14.84-.44.96-.16-.46-.16-.85.44-.96Z"/><path class="cls-1" d="m341.46,142.24c.57.54.23.78-.32.95-.19-.42-.29-.8.32-.95Z"/><path class="cls-1" d="m261.51,120.81c.54.49.27.76-.27.94-.2-.4-.44-.8.27-.94Z"/><path class="cls-1" d="m293.95,143.72c.65.65.19.83-.4.96-.19-.46-.19-.83.4-.96Z"/><path class="cls-1" d="m335.82,174.59c.51.34.5.83.38,1.35-.46-.36-1.28-.61-.38-1.35Z"/><path class="cls-1" d="m407.88,143.72c.65.68.14.84-.44.96-.16-.46-.16-.85.44-.96Z"/><path class="cls-1" d="m564.9,209.49c.59.14,1.01.35.38.96-.59-.14-.6-.5-.38-.96Z"/><path class="cls-1" d="m29.64,25.08c.63.69.11.84-.46.96-.15-.46-.15-.85.46-.96Z"/><path class="cls-1" d="m27.61,32.04c.66.69.15.85-.44.97-.14-.46-.15-.85.44-.97Z"/><path class="cls-1" d="m20.14,57.98c.63.69.13.84-.45.96-.15-.46-.15-.85.45-.96Z"/><path class="cls-1" d="m26.15,37.05c.61.68.11.83-.46.95-.16-.47-.15-.85.46-.95Z"/><path class="cls-1" d="m223.57,167.61c.53.11,1.05.23.5.92-.63-.06-.67-.43-.5-.92Z"/><path class="cls-1" d="m296.52,193.77c.56-.27,1.03-.26,1.33.38-.6.44-1,.15-1.33-.38Z"/><path class="cls-1" d="m251.52,146.23c.59.61.17.81-.39.95-.15-.43-.21-.82.39-.95Z"/><path class="cls-1" d="m293.4,146.19c.7.64.26.85-.37.99-.19-.45-.19-.82.37-.99Z"/><path class="cls-1" d="m87.9,146.87c.1.61.06,1.15-.69,1.31-.4-.77.21-1,.69-1.31Z"/><path class="cls-1" d="m452.31,166.51c.65-.62.83-.16.96.41-.47.21-.84.19-.96-.41Z"/><path class="cls-1" d="m1363.72,113.77c.3.04.68.08.73.4.08.53-.41.52-.76.59.01-.33.02-.66.04-1Z"/><path class="cls-1" d="m223.08,165.62c.58.13,1.06.3.42.96-.6-.12-.59-.51-.42-.96Z"/><path class="cls-1" d="m576.34,224.67c.56-.26,1.04-.25,1.33.39-.61.43-1,.12-1.33-.39Z"/><path class="cls-1" d="m21.22,54.52c.53.7.01.81-.51.92-.17-.5-.12-.87.51-.92Z"/><path class="cls-1" d="m223.6,104.39c.5.67.02.8-.5.91-.2-.51-.14-.87.5-.91Z"/><path class="cls-1" d="m87.06,149.7c.65.61.25.82-.36.97-.23-.45-.23-.82.36-.97Z"/><path class="cls-1" d="m1322.79,149.67c.59.11,1.16.24.48.97-.59-.11-.55-.54-.48-.97Z"/><path class="cls-1" d="m96.65,164.25c.65-.14,1.19-.08,1.34.72-.75.32-1.03-.22-1.34-.72Z"/><path class="cls-1" d="m292.75,150.83c.12.62.08,1.16-.68,1.33-.39-.76.2-1.01.68-1.33Z"/><path class="cls-1" d="m222.59,163.63c.58.13,1.05.31.41.96-.6-.12-.61-.49-.41-.96Z"/><path class="cls-1" d="m22.14,51c.63.68.13.84-.45.96-.16-.46-.16-.85.45-.96Z"/><path class="cls-1" d="m86.58,152.19c.64.62.22.82-.38.97-.23-.46-.22-.82.38-.97Z"/><path class="cls-1" d="m337.98,152.72c.58.66.1.82-.45.94-.21-.48-.16-.84.45-.94Z"/><path class="cls-1" d="m299.92,194.9c.66-.59.82-.1.94.45-.48.21-.86.18-.94-.45Z"/><path class="cls-1" d="m1398.62,163.71c.3-.53.64-.64,1.03-.09-.29.61-.64.63-1.03.09Z"/><path class="cls-1" d="m221.41,154.16c.5.34.48.82.37,1.33-.45-.35-1.29-.6-.37-1.33Z"/><path class="cls-1" d="m23.23,47.55c.51.69,0,.81-.52.92-.17-.5-.12-.87.52-.92Z"/><path class="cls-1" d="m433.93,195.6c.5.48.25.74-.26.93-.23-.4-.43-.79.26-.93Z"/><path class="cls-1" d="m579.71,225.88c.68-.67.85-.17.97.43-.45.15-.85.18-.97-.43Z"/><path class="cls-1" d="m1385.64,162.19c.67-.81.89-.34,1.02.36-.41.08-.82.14-1.02-.36Z"/><path class="cls-1" d="m223.04,106.35c.6.64.13.81-.42.95-.22-.48-.19-.84.42-.95Z"/><path class="cls-1" d="m243.43,160.75c-.08.29-.18.7-.51.63-.63-.12-.44-.66-.39-1.09.3.15.6.31.91.46Z"/><path class="cls-1" d="m1093.31,160.12c-.46-.28-.52-.59-.07-.94.25.3.26.61.07.94Z"/><path class="cls-1" d="m24.15,44.02c.62.68.12.83-.45.95-.16-.46-.16-.85.45-.95Z"/><path class="cls-1" d="m257.82,131.54c.06.52,0,.99-.6,1.17-.45-.72.05-.96.6-1.17Z"/><path class="cls-1" d="m1325.85,160.16l.37.43c-.29,0-.48-.08-.37-.43Z"/><path class="cls-1" d="m36.03,3.12c-.14.15-.27.31-.41.46-.06-.33.12-.44.41-.46Z"/><path class="cls-1" d="m1324.87,157.17c.11.15.23.31.34.46-.27-.04-.49-.11-.34-.46Z"/><path class="cls-1" d="m87.02,161.13c.15.1.29.19.44.29-.34.19-.38-.06-.44-.29Z"/><path class="cls-1" d="m88.04,161.62c.14.12.29.23.43.35-.36.15-.42-.06-.43-.35Z"/><path class="cls-1" d="m407.47,157.17c.11.14.22.28.33.42-.27-.02-.49-.07-.33-.42Z"/><path class="cls-1" d="m23.55,46.02c-.1.14-.2.28-.3.41-.2-.35.05-.38.3-.41Z"/><path class="cls-1" d="m22.55,49.51c-.11.14-.22.28-.33.42-.16-.35.06-.4.33-.42Z"/><path class="cls-1" d="m92.54,163.62c.14.1.28.21.43.31-.35.18-.4-.05-.43-.31Z"/><path class="cls-1" d="m338.34,151.2c-.11.14-.22.29-.32.43-.17-.35.06-.4.32-.43Z"/><path class="cls-1" d="m1390.74,163.6c.15.01.29.02.44.03-.08.12-.17.23-.25.35-.06-.13-.13-.25-.19-.38Z"/><path class="cls-1" d="m21.55,53c-.1.14-.2.28-.3.42-.2-.35.05-.39.3-.42Z"/><path class="cls-1" d="m24.55,42.54c-.11.14-.22.27-.32.41-.16-.35.06-.4.32-.41Z"/><path class="cls-1" d="m1043.4,148.27c-.07.16-.17.28-.32.37-.16-.35.05-.38.32-.37Z"/><path class="cls-1" d="m289.89,165.7c0,.12-.01.25,0,.37-.12-.07-.24-.14-.37-.2.13-.06.25-.11.38-.17Z"/><path class="cls-1" d="m449.45,165.64c.12.05.21.13.28.24-.28.14-.35.02-.28-.24Z"/><path class="cls-1" d="m1327.84,165.64c.12.16.24.31.36.47-.28-.03-.49-.12-.36-.47Z"/><path class="cls-1" d="m450.83,166.11c.14.11.27.22.41.33-.35.16-.4-.06-.41-.33Z"/><path class="cls-1" d="m584.66,147.33c-.13.11-.25.22-.38.33-.03-.3.05-.45.38-.33Z"/><path class="cls-1" d="m1328.37,167.14c.11.13.23.26.34.39-.28.02-.47-.04-.34-.39Z"/><path class="cls-1" d="m1044.9,144.76c-.12.13-.24.27-.37.4-.1-.34.08-.41.37-.4Z"/><path class="cls-1" d="m570.2,169.2c-.11.13-.23.26-.34.39-.13-.34.07-.4.34-.39Z"/><path class="cls-1" d="m224.12,169.64c.1.13.2.26.3.39-.26-.01-.49-.04-.3-.39Z"/><path class="cls-1" d="m20.55,56.49c-.11.14-.22.28-.33.42-.16-.35.06-.4.33-.42Z"/><path class="cls-1" d="m224.59,171.13c.11.14.22.27.33.41-.27-.01-.49-.06-.33-.41Z"/><path class="cls-1" d="m440.8,144.18c.16.14.32.29.48.43-.32.03-.46-.13-.48-.43Z"/><path class="cls-1" d="m252.4,144.23c-.13.14-.25.29-.38.43-.1-.34.09-.43.38-.43Z"/><path class="cls-1" d="m225.11,172.63c.15.09.25.21.32.37-.27.01-.48-.02-.32-.37Z"/><path class="cls-1" d="m19.55,59.97c-.1.14-.2.28-.3.42-.2-.35.05-.39.3-.42Z"/><path class="cls-1" d="m568.2,175.12c-.11.15-.22.3-.34.44-.15-.35.07-.41.34-.44Z"/><path class="cls-1" d="m1202.5,175.63c.1.14.2.28.29.42-.25-.04-.5-.07-.29-.42Z"/><path class="cls-1" d="m408.31,142.29c-.11.12-.22.25-.33.37-.15-.35.06-.39.33-.37Z"/><path class="cls-1" d="m359.81,177.04c.12-.1.24-.21.36-.31-.08.15-.2.25-.36.31Z"/><path class="cls-1" d="m253.4,141.74c-.12.14-.25.29-.37.43-.11-.34.09-.43.37-.43Z"/><path class="cls-1" d="m360.84,177.08c.16.14.31.28.47.41-.32.05-.44-.12-.47-.41Z"/><path class="cls-1" d="m1279.6,74.4c-.13-.15-.25-.3-.38-.45.13.15.25.3.38.45Z"/><path class="cls-1" d="m1202.99,177.62c.1.15.2.29.3.44-.25-.04-.51-.08-.3-.44Z"/><path class="cls-1" d="m342.35,140.28l-.37.39c-.1-.34.08-.41.37-.39Z"/><path class="cls-1" d="m409.8,139.25c-.13.14-.26.28-.38.43-.09-.34.09-.43.38-.43Z"/><path class="cls-1" d="m1203.99,181.11c.1.14.2.28.3.42-.25-.03-.5-.07-.3-.42Z"/><path class="cls-1" d="m254.9,138.26c-.12.14-.25.28-.37.42-.1-.34.08-.42.37-.42Z"/><path class="cls-1" d="m406.77,181.75c-.14.11-.28.22-.42.34,0-.28.06-.49.42-.34Z"/><path class="cls-1" d="m337.03,183.6c.11.14.21.29.32.43-.26-.03-.49-.08-.32-.43Z"/><path class="cls-1" d="m296.37,134.26c-.11.14-.22.28-.33.42-.15-.35.06-.4.33-.42Z"/><path class="cls-1" d="m1053.88,133.22c-.16.17-.31.33-.47.5,0-.31.17-.47.47-.5Z"/><path class="cls-1" d="m337.5,185.09c.12.14.23.28.35.43-.28-.01-.48-.08-.35-.43Z"/><path class="cls-1" d="m1159.03,185.2c.09.14.18.27.27.41-.09-.14-.18-.27-.27-.41Z"/><path class="cls-1" d="m25.55,39.04c-.1.14-.2.27-.3.41-.21-.36.05-.38.3-.41Z"/><path class="cls-1" d="m256.9,133.27l-.37.42c-.11-.34.08-.42.37-.42Z"/><path class="cls-1" d="m296.87,132.75c-.11.15-.22.29-.34.44-.15-.35.07-.41.34-.44Z"/><path class="cls-1" d="m236.92,186.56c.16.14.31.27.47.41-.33.06-.45-.12-.47-.41Z"/><path class="cls-1" d="m372.8,186.7c-.14.12-.27.23-.41.35-.02-.3.07-.47.41-.35Z"/><path class="cls-1" d="m1055.36,132.36c-.15.12-.3.24-.45.36.02-.29.1-.49.45-.36Z"/><path class="cls-1" d="m1057.36,131.37c-.17.12-.33.23-.5.35.06-.27.16-.48.5-.35Z"/><path class="cls-1" d="m289.07,187.59c.11.13.21.26.32.38-.27,0-.49-.03-.32-.38Z"/><path class="cls-1" d="m401.81,187.63c-.11.13-.22.26-.32.39-.16-.35.06-.39.32-.39Z"/><path class="cls-1" d="m297.37,131.26c-.12.15-.23.29-.35.44-.13-.35.07-.42.35-.44Z"/><path class="cls-1" d="m1124.82,130.82c-.17.13-.34.26-.51.39.06-.28.18-.47.51-.39Z"/><path class="cls-1" d="m370.33,188.63c-.16.14-.33.29-.49.43.03-.3.17-.46.49-.43Z"/><path class="cls-1" d="m1277.8,190.03c.19.02.37.05.56.07-.24.36-.45.53-.56-.07Z"/><path class="cls-1" d="m417.28,130.71c-.16.17-.32.34-.48.51,0-.31.18-.47.48-.51Z"/><path class="cls-1" d="m292.49,191.56c.13.11.26.22.39.34-.3.09-.45,0-.39-.34Z"/><path class="cls-1" d="m26.55,35.57c-.11.14-.22.27-.32.41-.16-.35.06-.39.32-.41Z"/><path class="cls-1" d="m27.04,34.03c-.11.15-.22.3-.33.45-.16-.35.07-.41.33-.45Z"/><path class="cls-1" d="m433.41,193.06l.37.46c-.28-.03-.48-.12-.37-.46Z"/><path class="cls-1" d="m1209.31,193.03c.16.15.32.31.48.46-.32.02-.47-.15-.48-.46Z"/><path class="cls-1" d="m228.87,95.03c-.16.1-.32.2-.48.3.08-.23.14-.49.48-.3Z"/><polygon class="cls-1" points="1082.71 194.47 1082.6 194.51 1082.64 194.39 1082.71 194.47"/><path class="cls-1" d="m298.47,194.52c.15.06.27.16.35.29-.35.18-.37-.04-.35-.29Z"/><path class="cls-1" d="m417.76,130.41c-.16.1-.32.2-.48.3.08-.23.15-.48.48-.3Z"/><path class="cls-1" d="m418.77,129.84c-.16.13-.32.26-.48.38.03-.29.14-.47.48-.38Z"/><path class="cls-1" d="m303.97,196.03c.14,0,.28,0,.43.02-.08.11-.16.31-.25.31-.18,0-.24-.15-.18-.33Z"/><path class="cls-1" d="m297.87,129.78c-.11.14-.22.28-.34.42-.15-.35.07-.4.34-.42Z"/><path class="cls-1" d="m347.44,199.54c.13.14.27.28.4.41-.29.02-.46-.09-.4-.41Z"/><path class="cls-1" d="m258.4,129.3c-.12.13-.23.27-.35.4-.13-.34.07-.41.35-.4Z"/><path class="cls-1" d="m348.86,200.51c.16.16.32.31.47.47-.31,0-.47-.16-.47-.47Z"/><path class="cls-1" d="m298.38,128.32c-.11.13-.22.26-.33.39-.15-.35.06-.39.33-.39Z"/><path class="cls-1" d="m378.33,202.37l.44-.37c-.02.27-.11.46-.44.37Z"/><path class="cls-1" d="m354.42,203.52c.13.1.25.2.38.31-.32.14-.39-.03-.38-.31Z"/><path class="cls-1" d="m355.87,204c.14.11.28.22.43.33-.35.16-.4-.06-.43-.33Z"/><path class="cls-1" d="m258.9,127.83c-.06.16-.17.28-.31.37-.17-.35.05-.38.31-.37Z"/><path class="cls-1" d="m354.84,123.3c-.14.14-.28.29-.42.43-.04-.32.12-.44.42-.43Z"/><path class="cls-1" d="m260.9,122.34c-.06.16-.16.28-.31.37-.17-.35.05-.38.31-.37Z"/><path class="cls-1" d="m28.55,28.6c-.11.13-.21.26-.32.4-.17-.35.05-.39.32-.4Z"/><path class="cls-1" d="m357.81,121.38c-.16.12-.32.25-.48.37.03-.28.14-.47.48-.37Z"/><path class="cls-1" d="m29.04,27.06c-.11.15-.22.29-.33.44-.17-.35.06-.41.33-.44Z"/><path class="cls-1" d="m408.82,209.49l.47.52c-.3-.05-.47-.2-.47-.52Z"/><path class="cls-1" d="m224.92,100.37c-.12.14-.25.28-.37.42-.11-.34.08-.42.37-.42Z"/><path class="cls-1" d="m565.35,211.51c.11.15.23.3.34.45-.28-.03-.49-.1-.34-.45Z"/><path class="cls-1" d="m414.36,212.97c.14.14.27.27.41.41-.33.05-.44-.11-.41-.41Z"/><path class="cls-1" d="m565.87,213.01c.11.13.22.25.34.38-.27.02-.47-.04-.34-.38Z"/><path class="cls-1" d="m416.8,213.97c.16.14.31.27.47.41-.33.07-.45-.12-.47-.41Z"/><path class="cls-1" d="m261.9,119.37c-.06.15-.16.27-.29.35-.18-.35.04-.37.29-.35Z"/><path class="cls-1" d="m120.96,24.67c-.17.12-.34.23-.51.35.08-.25.19-.46.51-.35Z"/><path class="cls-1" d="m31.51,18.72c-.06.14-.17.24-.31.31-.07-.28.03-.38.31-.31Z"/><path class="cls-1" d="m445.28,216.89c.17-.14.35-.27.52-.41-.07.27-.2.46-.52.41Z"/><path class="cls-1" d="m1202.27,116.39c-.17.12-.33.25-.5.37.06-.26.18-.45.5-.37Z"/><path class="cls-1" d="m223.93,102.88c-.05.16-.15.29-.29.38-.21-.36.04-.37.29-.38Z"/><path class="cls-1" d="m33.51,11.72c-.06.15-.17.26-.31.33-.08-.29.03-.39.31-.33Z"/><path class="cls-1" d="m264.39,111.8c-.11.15-.21.3-.32.44-.17-.35.06-.41.32-.44Z"/><path class="cls-1" d="m578.28,225.43c.12.11.25.21.37.32-.35.16-.38-.05-.37-.32Z"/><path class="cls-1" d="m266.86,104.96c-.15.12-.29.23-.44.35.02-.27.09-.48.44-.35Z"/><path class="cls-1" d="m265.89,106.31c-.12.15-.24.31-.36.46-.13-.35.08-.43.36-.46Z"/><path class="cls-1" d="m581.2,226.44c.16.14.31.27.47.41-.32.05-.44-.13-.47-.41Z"/><path class="cls-1" d="m582.69,226.94c.15.12.31.23.46.35-.35.15-.43-.07-.46-.35Z"/><path class="cls-1" d="m34.53,8.11c-.1.15-.21.29-.31.44-.18-.34.05-.4.31-.44Z"/><path class="cls-1" d="m606.68,246.45c0,.13,0,.26,0,.39-.12-.07-.25-.14-.37-.21.12-.06.25-.12.37-.18Z"/><path class="cls-1" d="m38,.79c-.16.1-.32.2-.48.31.07-.24.14-.48.48-.31Z"/><path class="cls-1" d="m1325.35,158.66c.12.16.24.32.36.48-.28-.04-.49-.13-.36-.48Z"/><path class="cls-1" d="m595.48,209.42c.59-1.06,1.44-1.89,2.38-2.64-.05,2.22-.24,2.43-2.38,2.64Z"/><path class="cls-1" d="m597.91,206.68c.34-1.04.99-1.89,1.7-2.7.69,1.83.19,2.61-1.7,2.7Z"/><path class="cls-1" d="m604.61,194.02c.09-.77.42-1.44.91-2.04.91,1.25.78,1.55-.91,2.04Z"/><path class="cls-1" d="m610.79,177.59c.06-.67.18-1.31.67-1.82q.75,1.53-.67,1.82Z"/><path class="cls-1" d="m606.82,188.56c.11-.63.28-1.22.75-1.69q.63,1.46-.75,1.69Z"/><path class="cls-1" d="m601.67,200.02c0-.42.14-.76.5-1,.76.79.14.9-.5,1Z"/><path class="cls-1" d="m1138.9,187.33c.64.07,1.28.14,1.93.21-.06.66-.39,1.02-1.09.96-.76-.06-.87-.56-.84-1.18Z"/><path class="cls-1" d="m1149.49,172.1c-.09-.39,0-.73.29-1.01.75.58.4.85-.29,1.01Z"/><path class="cls-1" d="m1143.83,141.2c-.06.27-.18.45-.5.39.17-.13.33-.26.5-.39Z"/><path class="cls-1" d="m374.8,137.64c-.27,0-.46-.08-.32-.41.11.14.21.27.32.41Z"/></g></svg>