<?xml version="1.0" encoding="UTF-8"?><svg id="Capa_1" xmlns="http://www.w3.org/2000/svg" viewBox="0 0 1349.97 245.26"><defs><style>.cls-1{fill:#6a4183;}.cls-2{fill:#6b4384;}</style></defs><g id="Q7PNxn.tif"><path class="cls-1" d="m103.87,21.01c.42-1.17.74-2.41,1.97-3.07.16-.11.32-.22.49-.33.18-.05.36-.11.54-.16.15-.11.31-.22.46-.33,5.4-1.48,10.15-.15,14.33,3.42,2.51,2.15,3.45,5.03,3.22,8.21-.21,2.89-.77,5.75-1.11,8.63-.42,3.58-1.98,6.99-1.53,10.69-1.92,3.01-.09,6.72-1.88,9.8-.4.69-.11,1.79-.09,2.7.03,1.26-.02,2.48-.68,3.61-.12.21-.3.47-.27.68.51,3.45-1.02,6.68-1.05,10.06,0,.08.02.17,0,.25-1.11,3.82-.6,7.88-1.79,11.69-.43,1.36.05,2.84-.28,4.2-1.19,4.92-1.52,9.96-2.31,14.94-1.63,10.23-3.24,20.46-5.01,30.67-.47,2.69-1.03,5.37-1.6,8.05-1.08,5.09-3.09,7.1-8.32,7.77-4.95.63-9.78-.16-14.41-2.04-1.89-.77-2.82-2.13-2.75-4.26.13-3.49.66-6.93,1.09-10.39.71-5.76,1.72-11.47,2.63-17.19,1.1-6.92,2.39-13.81,3.63-20.71,1.46-8.16,2.82-16.33,4.26-24.49.23-1.3.66-2.56.99-3.84.46-.96,1.1-1.88.61-3.38-1,1.13-1.54,2.13-1.68,3.35-3.87,6.39-6.67,13.34-10.56,19.72-2.42,3.97-4.32,8.23-6.36,12.4-1.28,2.61-2.92,5-4.42,7.48-.81,1.34-1.31,2.82-2,4.2-2.68,5.33-5.2,10.75-8.34,15.84-1.11,1.8-2.97,2.08-4.76,2.28-2.16.24-4.31-.23-6.38-.87-1.26-.39-2.13-1.26-2.73-2.41-.73-1.41-1.22-2.89-1.46-4.47-1.46-9.5-3.28-18.94-4.46-28.49-.95-7.66-1.46-15.35-1.99-23.05-.07-1.02.07-2.1-.58-3.51-1.1,4-1.67,7.65-2.27,11.29-1.85,11.28-3.66,22.58-5.38,33.88-.66,4.34-1.26,8.7-2.19,12.99-.63,2.89-1.42,5.74-2.07,8.62-.4,1.74-1.48,2.66-3.14,3.17-2.45.75-4.95.65-7.43.46-3.84-.29-7.54-1.25-11.03-2.89-.82-.39-1.6-.88-2.37-1.36-2.3-1.45-3.5-3.47-3.25-6.25.14-1.49.2-2.98.3-4.47.5-.35.49-.84.36-1.36-.21-4.1,1.14-7.96,1.95-11.89,3.01-14.6,6-29.2,8.78-43.84,1.34-7.07,2.88-14.11,4.32-21.16.13-.65.17-1.31.25-1.97.63-.14,1.08-.34.38-.98.05-.5.1-1,.14-1.51.62-.14,1.06-.35.37-.98.04-.5.09-1.01.13-1.51.62-.14,1.05-.35.37-.98.05-.5.1-1.01.15-1.51.6-.14,1.03-.34.38-.97.04-.51.09-1.01.13-1.52.61-.14,1.02-.36.36-.97.05-.51.09-1.01.14-1.52.77-.17.8-.71.68-1.34.02-2.77,1.21-5.36,1.26-8.13.79-.14.86-.68.75-1.32.09-1.22.17-2.44.26-3.66.79-.14.85-.68.74-1.32.07-1.46-.27-2.98.88-4.25.22-.25.12-.79.14-1.2.08-1.36-.25-2.75.87-3.95.35-.38.2-1.27.18-1.93-.05-1.56.63-2.63,2.01-3.3.16-.1.33-.19.49-.29,6.25-1.92,11.51.26,16.36,3.99,2.48,1.9,3.74,4.53,4.28,7.58.86,4.91,1.23,9.87,1.74,14.82.79,7.67,1.69,15.32,2.81,22.94.26,1.8.57,3.6.37,5.43-.02.16-.08.35-.03.49,1.72,4.5,1.12,9.31,1.78,13.95.72,5.07,1.17,10.2,1.77,15.31.66,5.6,1.31,11.19,1.98,16.79.12.98.32,1.95.48,2.94.81-.15.83-.81,1.07-1.31,2.2-4.55,4.51-9.05,6.96-13.49,3.64-6.61,7.17-13.29,10.76-19.93,3.59-6.64,7.16-13.29,10.8-19.91,1.75-3.19,3.28-6.48,4.9-9.73.9-1.79,1.79-3.6,3.09-5.17.87-.13.87-.8.89-1.45,1.48-3.71,3.45-7.15,5.59-10.51,1.24-.37,1.32-1.41,1.41-2.45Z"/><path class="cls-1" d="m551.01,111.76c3.09-2.14,6.64-2.85,10.27-2.9,6.38-.09,12.21,1.84,17.44,5.49,1.77,1.23,2.92,3.16,4.98,4.41.16-1.45.31-2.81.46-4.17.11-.15.23-.3.34-.45.06-.35.11-.7.17-1.05.11-.13.23-.27.34-.4.36-1.21.85-2.34,1.95-3.07l.5-.3c4.02-1.45,7.77-.5,11.44,1.28,2.13,1.04,2.72,3.01,2.95,5.07.23,2.05.17,4.14-.09,6.21-.33,2.58-.61,5.16-.87,7.74-.46,4.61-.9,9.23-1.44,13.84-.22,1.84-.24,3.71-.52,5.56-.47.29-.51.6-.05.94-.4,6.67-.74,13.34-1.44,19.98-.46.28-.51.59-.07.94-.33,5.05-.49,10.1-.66,15.15-.36,10.61-.98,21.22-.51,31.84.26,5.88.59,11.76,1.42,17.6.63,4.48-1.55,7.37-6,9.07-2.66,1.01-5.38.74-8.11.48-.12-.57-.26-1.07-.95-.46-.36-.03-.72-.06-1.08-.09-.09-.15-.21-.25-.37-.31-2.74-1.25-5.22-2.84-7.04-5.31-.48-.65-1.05-1.28-.96-2.19.65-.69.13-.84-.45-.96-.63-8.92-.08-17.83.11-26.75.1-4.38.18-8.75.27-13.13.47-.29.52-.6.06-.95.17-5.73.34-11.46.51-17.2l-.38-.1c-1.48,1.91-3.01,3.79-4.41,5.76-.68.96-1.38,1.84-2.33,2.52-.15.13-.3.26-.45.39-2.01,1.49-4.08,2.98-6.67,2.98-2.38,0-4.78.31-7.17-.2-1.05-.22-2.13-.27-3.2-.39-.09-.14-.21-.24-.37-.3-.38-.06-.75-.13-1.13-.19-.09-.15-.22-.25-.38-.31-.2-.12-.39-.23-.59-.35-.75-.93-1.72-1.14-2.84-.89-.66-.03-1.29-.15-1.66-.79-.15-.15-.3-.31-.45-.46-1.78-.41-2.53-1.75-2.99-3.33-.26-.68-.84-.65-1.41-.65-2.03-1.97-3.08-4.51-4.12-7.06-.1-.13-.21-.26-.31-.39-.56-1.63-.52-3.34-.68-5.02.51-.36.45-.69-.05-.99-.6-5.52.03-11,.54-16.48,0-.12,0-.25-.01-.37.49-1.65.54-3.36.59-5.06.6-.11,1.16-.24.47-.97.05-.51.09-1.01.14-1.52.56-.13,1.03-.3.42-.95l.05-1.04c.59-.13,1.06-.3.42-.96.03-.34.05-.69.08-1.03.54-.11,1.06-.24.49-.93.02-.36.03-.73.05-1.09.1-.13.2-.26.31-.4.06-.36.11-.73.17-1.09.11-.14.22-.29.33-.43.05-.35.11-.71.16-1.06.11-.14.23-.28.34-.42.06-.36.12-.72.18-1.08.11-.13.22-.25.32-.38.22-.7.43-1.41.65-2.11.12-.13.23-.27.35-.4l.73-1.57c.55-.14.97-.33.4-.94-.02-.84.22-1.55.97-2.02.9-.13.9-.81.9-1.48,1.01-2.8,2.73-5.18,4.53-7.51,1.3-.29,2.08-1.11,2.45-2.36.36-.38.73-.77,1.09-1.15.14-.14.28-.27.42-.41.12-.58.7-.34,1.02-.56.15-.12.3-.25.45-.37Zm3.94,51.48c0,1.5,0,2.83,0,4.15,0,1.43.32,2.8.89,4.1.79,1.81,2.09,2.26,3.78,1.25.56-.34,1.14-.75,1.52-1.27,1.85-2.54,3.93-4.92,5.25-7.83,3.5-7.7,6.43-15.61,8.81-23.73,1.39-4.73-.12-9.01-2-13.14-1.35-2.96-3.61-3.13-6.01-.86-1.77,1.67-3.02,3.72-4.18,5.84-2.79,5.11-4.67,10.54-5.96,16.19-1.16,5.09-2.34,10.17-2.09,15.28Z"/><path class="cls-1" d="m982.77,177.38c-8.67-2.05-14.09-7.85-18.01-15.44-2.64-5.12-3.67-10.62-4.12-16.27-.14-1.73-.21-3.46-.31-5.19.43-.3.43-.6,0-.91.1-3.22.54-6.41,1.14-9.57.18-.97.31-1.95.46-2.93,1.51-1.33,1.61-3.16,1.79-4.96.12-.71.08-1.47.64-2.04.12-.13.24-.26.37-.39,4.96-10.75,13.3-17.32,24.81-20,2.47-.57,4.95-.61,7.44-.44,2.07.15,3.89,1.27,5.97,1.67.43-.66.24-1.41.17-2.1-.63-6.78-.77-13.58-1.16-20.37-.43-7.49.19-14.92,1.27-22.32.16-1.06.47-2.1.79-3.13.69-2.16,2.21-3.47,4.4-4,4.35-1.05,8.61-.62,12.72,1.03,2.75,1.1,4.33,3.06,4.66,6.18.37,3.49.42,6.96.19,10.44-.25,3.65-.39,7.29-.39,10.94,0,9.38-.08,18.76.09,28.14.17,9.88,1.32,19.69,2.7,29.47.75,5.34,1.61,10.66,2.22,16.01.46,4.06,1.44,8.01,2.05,12.04.6,4.01,1.34,7.99,2.41,11.91.84,3.09-.38,5.31-3.35,6.59-3.74,1.61-7.65,1.27-11.55,1.01-1.11-.07-1.71-1.2-2.6-1.76-2.96-1.88-4.25-4.98-5.77-7.91.43-2.28-.84-4.28-1.04-6.48-.29-3.3-.87-6.57-1.33-9.9-.7.11-.59.8-.79,1.27-1.95,4.66-4.09,9.17-7.65,12.91-4.88,5.13-10.69,7.42-17.73,6.53-.16-.01-.32-.03-.48-.04Zm20.95-52.81c.48-.29.53-.61.06-.96-.04-2.32,0-4.64-.12-6.96-.15-2.86-2.31-4.22-4.97-3.15-1.13.45-2.26.92-3.22,1.78-2.32,2.09-4.12,4.54-5.3,7.4-2.99,7.24-4.31,14.79-3.86,22.61.21,3.65.63,7.29,2.49,10.56,1.37,2.4,3.09,2.78,5.36,1.2,1.62-1.12,2.61-2.77,3.53-4.45,1.72-3.16,2.64-6.61,3.49-10.08,1.46-5.9,1.84-11.96,2.55-17.96Z"/><path class="cls-1" d="m1109.79,146.51c-.11-1.21-.21-2.42-.32-3.63.16-.64.12-1.18-.67-1.36-.71-5.17-1.52-10.34-2.1-15.53-1.26-11.29-2.51-22.59-2.66-33.98-.03-1.81-.04-3.63-.06-5.44.13-.67,0-1.2-.71-1.46-.19-.57-.45-1.17-1.19-.99-1.38.34-3.07-.31-4.09,1.23-3.88,1.1-7.49,3-11.43,3.86-1.47.32-3.08.5-4.41-.64-.14-.12-.28-.24-.41-.36-.76-.64-1.52-1.28-2.26-1.94-1.87-1.66-2.42-3.81-2.3-6.22.02-.45.24-.73.47-1.08,1.13-1.67,2.5-3.06,4.17-4.23,6.36-4.48,13.35-7.77,20.46-10.8,1.82-.78,2.51-1.92,2.79-3.64.51-3.19,1.04-6.38,1.52-9.58.24-1.57.8-3.04,1.34-4.52.57-1.56,1.73-2.39,3.34-2.63.65-.1,1.32-.17,1.98-.15,3.52.1,6.91.79,10.06,2.43,1.78.93,3,2.29,3.43,4.33.37,1.79.93,3.55.89,5.38-.03,1.27.42,1.61,1.63,1.36,4.69-.96,9.45-.6,14.19-.6,4.23,0,7.27,2.11,9.53,5.46,2.08,3.09,3.05,6.62,3.48,10.28.28,2.4-1.4,4.51-4.22,5.43-2.64.86-5.4.95-8.13,1.16-4.06.31-8.14.46-12.21.67-2.2.11-2.37.31-2.19,2.52.65,7.69,1.25,15.38,1.96,23.06.32,3.47.67,6.93,1.01,10.39.19,1.97.83,4,1.15,6.03,1.57,10.06,3.17,20.12,4.73,30.18.35,2.29.9,4.55,1.07,6.88.19,2.57-1.14,4.2-3.05,5.57-.15.13-.3.26-.46.39-3.74,2.37-7.69,4.04-12.26,3.54-.74-.08-1.49-.11-2.24-.17-.14-.56-.34-.98-.95-.39-3.5-.33-6.88-3.65-7.53-7.41-.11-.14-.22-.27-.33-.41-.03-.35-.07-.71-.1-1.06.66-.75.07-.85-.5-.96.02-.18.03-.35.05-.53.55-.69.53-1.22-.44-1.47-.02-.35-.04-.7-.07-1.05.61-.66.11-.82-.44-.95-.11-1.21-.21-2.42-.32-3.63.15-.66.08-1.2-.72-1.35l-.08-1.02c.67-.64.22-.84-.39-.97Z"/><path class="cls-1" d="m1277.99,68.77c.07-2.76.9-5.35,1.87-7.9.58-1.52,1.73-2.41,3.19-2.9,2.89-.98,5.85-1.03,8.82-.42,2.34.47,3.81,1.86,4.34,4.22.58,2.58,1.13,5.18,1.25,7.81.07,1.44.33,2.74,1.03,3.97,0,.26,0,.52,0,.78.17.38.52.93.66.11.57-3.17,2.24-5.75,4.16-8.21,1.56-.19,2.43-1.04,2.58-2.61,2.62-2.16,5.68-3.35,8.98-3.98.75.96,1.27.84,1.57-.33,2.85-.71,5.65-.74,8.59-.24,8.08,1.37,12.74,6.6,15.95,13.52,3.75,8.07,5.27,16.72,6.46,25.46.92,6.74,1.5,13.52,2.32,20.27.29,2.41.38,4.78-.91,6.94-.9,1.5-2.25,2.69-3.61,3.71-3.54,2.65-7.52,4.14-12.08,3.68-4.5-.45-7.9-3.46-8.81-7.9-1.01-4.97-1.4-10.02-1.91-15.05-.67-6.6-1.23-13.23-2.42-19.76-.57-3.14-1.12-6.32-2.2-9.35-.5-1.41-1.02-2.82-2.11-3.91-1.05-1.05-2.14-1.16-3.36-.34-.85.57-1.39,1.4-1.88,2.28-1.93,3.51-2.58,7.35-2.77,11.27-.3,6.39,0,12.77.52,19.15.44,5.46,1.31,10.86,1.95,16.3.16,1.39.28,2.85.78,4.26.59,1.65-.36,3.41-1.46,4.42-4.82,4.43-10.47,6.71-17.15,5.54-3.77-.66-6.54-2.62-7.87-6.34-1.95-5.43-3.36-11.05-4.36-16.68-.84-4.7-1.44-9.5-1.96-14.28-.67-6.19-1.17-12.39-1.08-18.62.06-3.98.24-7.96.38-11.94.02-.66-.03-1.34.33-1.94.38-.06.92.04.92-.54,0-.37-.43-.41-.75-.45Z"/><path class="cls-1" d="m1229.6,149.47c-4.83-.65-9.01-2.68-12.71-5.81-4.63-3.92-8.09-8.6-9.99-14.41-1.11-3.4-1.21-6.95-1.78-10.43-.88-5.36-.98-10.77-.59-16.14.6-8.32,3.07-16.15,7.96-23.01,2.22-3.12,5.18-5.62,8.42-7.7,2.77-1.78,6-2.01,9.14-2.06,8.46-.16,16.13,2.02,22.33,8.14.47.46.92.96,1.33,1.48,4.74,6,7.58,12.79,8.84,20.32.78,4.66,1.75,9.3,1.88,14.04.2,6.89-.95,13.58-3.61,19.93-1.34,3.21-3.15,6.34-5.81,8.65-4.01,3.49-8.76,5.61-14.04,6.52-3.63.62-7.28.76-10.94.53-.14,0-.29-.02-.43-.03Zm1.01-48.63c.11,7.81,1.19,15.45,3.89,22.83.7,1.92,1.5,3.78,2.77,5.39,1.07,1.35,1.69,1.28,2.32-.28,1.16-2.89,2.03-5.87,2.38-8.97.68-6.14.43-12.24-.77-18.33-.98-5-2.4-9.82-4.86-14.3-1.06-1.94-2.24-2.02-3.46-.19-.41.61-.65,1.34-.89,2.04-1.33,3.83-1.43,7.81-1.39,11.8Z"/><path class="cls-1" d="m155.29,77.4c.18-.05.36-.1.54-.15.15-.11.3-.22.45-.33,1.93-.88,3.91-1.37,6.02-.68.06.5.21.97.83.91.6-.06.65-.59.72-1.06,8.85,1.27,16.35,4.99,21.73,12.3,2.63,3.58,3.74,7.83,4.66,12.11,1.06,4.92,1.07,9.83.26,14.81-.46,2.77-.52,5.63-1.23,8.35-.95,3.63-1.82,7.28-3.31,10.79-1.24,2.91-2.54,5.76-4.24,8.4-4.99,7.77-11.81,12.92-21.34,12.99-8.15.06-15.88-1.9-22.32-7.36-.12-.1-.18-.27-.26-.41.14-1.09-.27-1.67-1.43-1.57-6.18-6.01-7.53-13.64-7.23-21.77.11-3.05.51-6.08.78-9.12.62-.11,1.17-.26.45-.98.05-.5.09-1.01.14-1.51.61-.14,1.06-.34.38-.98.05-.51.1-1.01.15-1.52.58-.13,1.02-.33.4-.96.02-.35.04-.71.07-1.06l.33-.45c.04-.34.09-.68.13-1.02,1.53-.75,1.58-.87.93-2.47.04-.35.07-.7.11-1.05.11-.14.22-.28.33-.42.06-.36.12-.72.18-1.08.11-.13.22-.26.33-.39.11-.19.23-.38.34-.58.94-.39,1.52-.92.74-1.96,1.64-4.22,3.93-8.02,6.88-11.49,1.33-1.56,2.49-3.28,4.01-4.69.61-.56,1.16-1.19,2.06-1.29.14-.12.28-.23.43-.35,1.64-.68,2.72-2.33,4.57-2.64.14-.11.28-.22.43-.33.18-.06.37-.11.55-.17.15-.12.3-.23.45-.35.18-.05.36-.1.54-.15l.46-.35Zm1.49,48.49c0,.91-.05,1.83.01,2.74.13,1.98.35,3.96.48,5.94.06.97.66,1.55,1.4,1.89.84.38,1.37-.35,1.86-.91,1.36-1.53,2.35-3.33,3.23-5.13,1.78-3.64,3.13-7.44,4.31-11.32,2.41-7.93,2.73-15.93,1.24-24.06-.44-2.42-1.71-2.13-3.15-1.22-1.16.73-1.81,1.93-2.42,3.11-4.72,9.08-6.88,18.78-6.95,28.97Z"/><path class="cls-1" d="m783.84,167.03c.34-.03.67-.06,1.01-.09.16-.14.33-.27.49-.41.34-.03.68-.06,1.02-.09.16-.14.32-.27.48-.41,1.93-.41,3.89-.7,5.68-1.61.14-.06.24-.15.3-.29,3.95-.74,6.56,1.16,8.19,4.47,2.11,4.31,3.01,8.88,1.67,13.63-.39,1.39-.89,2.85-2.34,3.63-.17.15-.34.3-.51.45-.97,1.38-2.29,1.82-3.98,1.89-8.15.32-16.29.72-24.43,1.19-4.53.26-9.06.4-13.59.55-4.66.16-9.32.33-13.96.71-3.81.31-6.51-1.1-8.68-4.2-2.51-3.59-3.67-7.38-2.84-11.73.46-2.4,1.63-4.17,3.65-5.66,6.67-4.92,13.37-9.8,19.4-15.51,1.57-1.49,3.23-2.85,5.03-4.06,2.55-.75,4.21-2.39,4.95-4.94,2.48-3.74,5.91-6.73,8.33-10.53,1.03-1.62,1.98-3.28,2.43-5.15.59-2.47-.3-3.83-2.8-4.27-1.65-.29-3.3-.15-4.93.31-3.39.96-6.44,2.66-9.58,4.18-2.02.97-3.96,2.1-5.94,3.15-3.31,1.76-6.27,1.14-8.56-1.84-2.8-3.65-3.45-7.83-2.87-12.26.24-1.83,1.43-2.91,3.22-3.38,5.62-1.46,11.22-2.93,16.99-3.78,2.86-.42,5.73-.86,8.61-1.12,5.94-.54,11.81-.08,17.5,1.76,4.02,1.3,7.61,3.32,9.91,7.09,1.99,3.26,2.58,6.77,1.86,10.48-1.08,5.52-3.61,10.36-7.01,14.82-3.33,4.36-7.02,8.35-11.28,11.83-1.73,1.41-3.28,3.05-4.91,4.59-.16.14-.31.27-.47.41-4.48,3.62-8.49,7.77-13.3,11.5,1.16.42,2,.09,2.82-.09,5.66-1.22,11.18-2.98,16.73-4.62.4-.12.81-.15,1.22-.23.17-.14.34-.27.51-.41Z"/><path class="cls-1" d="m640.97,142.88c-.15,6.15-.13,12.29.16,18.43.17,3.57.57,7.11,1.69,10.53.37,1.12.87,2.16,1.69,3.01,1.41,1.47,2.96,1.5,4.3-.04,1.33-1.52,2.13-3.34,2.7-5.28,1.77-6.09,2.6-12.35,2.76-18.66.22-8.88.96-17.73,1.72-26.57.55-6.44,6.53-10.1,12.67-8.34,5.7,1.63,7.95,5.62,8.84,10.91.41,2.47.35,4.96.39,7.45.17,11.23-.51,22.42-2.11,33.51-1.35,9.32-6.11,16.7-14.45,21.43-5.67,3.21-11.82,4.33-18.3,3.42-2.37-.33-4.74-.66-7.05-1.32-1.23-.35-2.61-.46-3.23-1.89-.08-.19-.33-.36-.54-.45-8.31-3.45-12.33-10.27-14.18-18.54-1.7-7.59-1.39-15.32-.75-23.03.23-2.81.38-5.63.55-8.44.28-4.39,1.06-8.72,1.27-13.13.09-1.91.83-3.84,1.05-5.81.1-.89.71-1.72,1.48-2.2,3.95-2.44,8.16-3.36,12.72-1.96,1.55.48,3.12.83,4.53,1.74,2.08,1.34,3.14,3.09,3.01,5.59-.27,5.3-.47,10.61-.7,15.92-.06,1.24-.14,2.49-.22,3.73Z"/><path class="cls-1" d="m391.64,102.16c.15-.54.69-.31,1.01-.5.16-.13.31-.25.47-.38.33-.21.66-.42.99-.63.16-.09.32-.18.49-.28,7.69-3.51,15.45-3.06,23.18-.26,5.33,1.93,9.87,5.06,13.19,9.73,3.33,4.69,5.23,9.92,5.71,15.65.12,1.4.43,2.79.34,4.21-.2,3.36-1.82,5.06-5.46,5.78-3.95.79-7.77-.27-11.22-2.41-1.99-1.23-3.1-2.92-2.93-5.37.18-2.49-.15-4.98-.41-7.45-.22-2.03-.97-3.81-2.6-5.18-1.31-1.1-2.75-1.31-3.97-.19-1.08,1-2.23,2-2.71,3.5-.23.71-.54,1.39-.79,2.09-1.43,4.11-1.08,7.95,1.66,11.49,1.07,1.38,2.06,2.81,3.27,4.09,3.7,3.93,7.16,8.08,10.92,11.96,3.41,3.51,6.29,7.52,8.16,12.13,1.53,3.78,2.12,7.6,1.25,11.67-1.15,5.4-4.39,8.8-9.46,10.62-3.64,1.31-7.45,1.88-11.28,1.8-5.23-.1-10.47-.55-15.56-1.91-5.01-1.34-9.45-3.67-13.01-7.49-4.73-5.07-5.9-10.97-3.89-17.54,1.92-6.28,8.57-8.63,14.34-5.78,2.37,1.17,3.02,2.42,2.51,5.02-.49,2.51-.52,4.91.8,7.24,1.26,2.24,3.06,3.66,5.54,4.29,2.75.69,4.42.12,6.09-2.15,1.47-2,1.35-4.05.04-6.03-1.84-2.78-4.23-5.12-6.45-7.59-2.22-2.48-4.53-4.87-6.92-7.18-4.42-4.27-7.83-9.23-10.65-14.64-1.79-3.42-2.26-7.09-2.16-10.87.04-1.71.1-3.43.73-5.06.1-.14.2-.27.3-.41.06-.36.12-.72.18-1.08.11-.13.22-.25.33-.38.24-.53.49-1.06.73-1.58.84-.15.73-.82.77-1.41.16-.37.08-.86.55-1.06.9-.08.94-.74.96-1.41,1.29-1.73,2.32-3.71,4.49-4.58.16-.17.31-.33.47-.5Z"/><path class="cls-1" d="m246.14,93.36c.09-1.05.19-2.1.28-3.16.8-.17.84-.72.67-1.36.13-1.29-.25-2.74,1.15-3.62.16-.1.32-.21.48-.31,3.09-.6,6.09-.94,9.25.17,4.53,1.6,6.41,3.61,6.73,8.33.27,4-.27,7.93-1.1,11.83-2.37,11.11-6.3,21.72-10.88,32.07-3.05,6.9-6.63,13.56-10.88,19.82-1.02,1.5-2.22,2.91-3.46,4.24-1.44,1.55-3.19,2.52-5.37,2.88-2.54.42-5,1.01-7.64.51-2.8-.53-4.7-2.37-6.66-4.09-2.4-2.1-4.05-4.81-5.34-7.72-2.8-6.34-4.34-13.03-5.57-19.81-1.08-5.97-1.41-12.01-1.94-18.04.48-.34.44-.65-.04-.95-.26-6.51-.2-13.02.51-19.51.11-.98.29-1.95.44-2.93.47-.27.57-.59.1-.96-.25-1.4.4-2.68.58-4.02.61-.14,1.05-.34.38-.97.03-.34.06-.68.09-1.02,1.1-.5,1.33-1.36.99-2.44.82-2.52,2.18-4.49,5.04-4.93,4.33-.66,8.24.4,11.66,3.1,2.42,1.91,3,4.23,2.18,7.27-.9,3.35-1.51,6.76-1.53,10.25-.01,3.9-.06,7.8-.09,11.69-.59.66-.6,1.31.05,1.95.54,4.2.55,8.45.81,12.66.33,5.22,1.26,10.37,1.44,15.91,1.21-.94,1.87-2.04,2.49-3.17,2.11-3.88,3.76-7.96,5.24-12.1,1.76-4.91,3.38-9.87,5.05-14.81,0-.13,0-.25.02-.38.59-1.85,1.38-3.63,1.61-5.58.78-.12.87-.65.77-1.29.03-2.14,1.19-4.05,1.25-6.18.58-.12,1.06-.29.44-.96.02-.35.04-.69.07-1.04.78-.15.84-.69.72-1.33Z"/><path class="cls-1" d="m325.22,106.75c1.29-3.17,3.74-5.44,6.1-7.79.46-.46.98-.87,1.47-1.3.14-.14.28-.28.41-.43.76-.65,1.44-1.42,2.53-1.54.15-.11.29-.23.44-.34.18-.05.36-.11.54-.16.15-.12.31-.23.46-.35,8.57-3.28,16.09-1.11,22.85,4.51,5.65,4.7,8.03,11.12,9.19,18.13,1.34,8.09-.37,15.69-4.06,22.82-2.97,5.71-7.94,9.16-14.36,10-3.08.4-6.26.13-9.32-.87-2.04-.67-2.31-.41-2.34,1.73-.02,1.74-.02,3.48.47,5.18,1.4,4.9,6.95,6.46,10.62,2.85,1.54-1.52,3.16-2.69,5.31-2.95,2.43-.3,4.69.28,6.41,2.03,2.11,2.16,1.68,4.78.63,7.22-2.2,5.12-6.19,8.31-11.5,9.9-.63.19-1.29.25-1.94.37-.37-.43-.67-.34-.94.11-2.01.62-4.02.53-6.02,0-.27-.46-.58-.53-.94-.09-7.25-.67-13.28-3.87-17.77-9.45-3.67-4.57-5.94-9.97-6.75-15.85-1.38-10-.59-19.85,2.34-29.52.33-1.11.81-2.18.84-3.37.11-.13.22-.26.33-.4.11-.19.22-.39.33-.58.97-.39.55-1.26.67-1.94.1-.18.2-.37.3-.55.55-.17.88-.4.32-.94.33-1.91,1.28-3.52,2.47-5.01.88-.11.9-.76.92-1.42Zm26.12,4.4l-.68-1.99c-.08-.57-.09-1.25-.95-.62-1.4.21-2.28.99-3.01,2.22-1.53,2.59-2.37,5.43-3.29,8.24-2.09,6.4-3.26,13.01-4.14,19.66-.18,1.35.18,1.69,1.53,1.42,2.36-.48,4.38-1.67,5.75-3.64,1.8-2.59,3.4-5.32,4.12-8.44.5-2.16,1.15-4.33,1.33-6.52.27-3.28.7-6.62-.33-9.88-.11-.15-.22-.3-.34-.45Z"/><path class="cls-1" d="m897.79,146.06c-.1-3.01-.19-6.03.03-9.04.47-.28.52-.59.06-.94.45-3.85.68-7.72,1.59-11.5.54-.12,1.01-.27.47-.93.01-.37.02-.73.03-1.1.1-.14.19-.27.29-.41.52-1.32,1.03-2.64,1.18-4.07.11-.13.23-.26.34-.4,1.31-3,2.71-5.95,4.6-8.64.47-.67.85-1.4,1.54-1.89,1.3.06,1.91-.56,1.84-1.85,3.89-3.93,8.73-5.46,14.09-4.95,11.13,1.05,18.47,7.09,22.38,17.46,2.96,7.83,3.72,15.78,1.23,23.84-2.2,7.12-6.42,12.32-13.94,14.53-2.21.65-4.32.42-6.49.53-.91.05-1.83-.07-2.74-.11-.38-.65-.75-.64-1.11.01-.58,3.5.49,6.56,2.55,9.35.17.16.33.32.5.48,1.82,1.12,3.69,1.26,5.58.23.48-.26.96-.12,1.42-.24.17-.15.34-.3.51-.46,1.17-1.38,2.36-2.72,3.82-3.82,2.53-1.9,6.04-1.99,8.79-.37,1.55.91,2.24,2.17,2.29,3.83.12,4.16-1.46,7.69-4.18,10.74-3.97,4.45-9.23,5.96-14.94,6.4-1.91.15-3.82.03-5.72-.22-.24-.5-.54-.77-1.03-.25-.35-.02-.69-.04-1.04-.07-.13-.77-.67-.84-1.3-.75-.77.06-1.45-.25-2.16-.51-3.72-1.32-6.96-3.52-9.73-6.19-1.77-1.7-3.31-3.8-4.37-6.13-.37-.82-.95-1.55-1.44-2.32-.11-.12-.23-.25-.34-.37-.4-.83-1.15-1.53-.98-2.58,0-1.5-.16-2.94-1.51-3.92-.05-.34-.09-.68-.14-1.02-.11-.15-.22-.3-.33-.45-.1-1.06-.2-2.11-.3-3.17.13-.62.09-1.17-.68-1.34-.23-2.35-.45-4.7-.68-7.05,0-.12-.01-.25,0-.37Zm29.46-30.96c-.06-.49-.18-.94-.8-.92-.49.02-.61.39-.7.78-1.12.43-1.64,1.43-1.93,2.44-.64,2.22-1.3,4.44-1.63,6.75-1.03,7.08-1.15,14.19-.96,21.32.06,2.27.47,2.49,2.5,1.5.82-.41,1.62-.87,2.21-1.59,1.69-2.07,3.02-4.29,3.78-6.91,1.52-5.22,1.25-10.48.74-15.77-.28-2.86-1.35-5.39-3.21-7.6Z"/><path class="cls-1" d="m1048.52,107.28c.04-3.94,1.09-7.56,2.62-11.21,1.35-3.21,3.63-3.75,6.47-3.82,2.65-.06,5.24.05,7.85.84,3.47,1.04,5.27,3.18,5.62,6.66.28,2.8.67,5.6.46,8.42-.55.51-.53.99.06,1.45.23,2.17.5,4.34.42,6.52-.47.36-.4.67.08.95.73,2.91.49,5.92.85,8.88,1.05,8.59,2.65,17.08,4.49,25.53.73,3.36,1.72,6.67,2.29,10.07.46,2.77-.35,4.58-2.86,5.87-.72.37-1.37.93-2.24.99-.16.14-.33.27-.49.41-1.64-.05-3.23.36-4.85.5-2.2.18-4.4.11-6.58-.25-.32-.58-.84-.64-1.42-.53-1.15.12-2.08-.69-3.17-.8-.15-.11-.3-.22-.45-.33-.18-.05-.36-.1-.55-.16-.17-.11-.34-.21-.51-.32-1.92-.54-2-2.31-2.53-3.77.08-.6-.02-1.1-.73-1.23,0-1.22-.95-2.25-.69-3.52-.1-.14-.2-.29-.3-.43-.05-.52-.11-1.03-.16-1.55.69-.64.23-.84-.38-.98-.02-.35-.04-.69-.06-1.04.63-.75.05-.85-.51-.95-.03-3.07-.79-6.05-1.22-9.06-1.32-9.17-2.03-18.38-2.22-27.63-.06-2.72.24-5.44.38-8.17.49-.35.46-.84.34-1.34Z"/><path class="cls-1" d="m1168.75,148.52c-.06-.36-.11-.72-.17-1.08-.1-.14-.21-.28-.31-.41-.02-.36-.05-.72-.07-1.08.43-1.1.1-1.91-.95-2.44-.02-.35-.05-.69-.07-1.04.63-.65.16-.83-.42-.96-.02-.35-.04-.7-.06-1.05.61-.68.1-.82-.45-.94-.02-.35-.03-.7-.05-1.05.59-.64.13-.81-.42-.94-.74-3.63-1.15-7.31-2.02-10.92-.45-1.87-.36-3.93-.57-5.91-.51-4.78-1.09-9.54-1.45-14.33-.49-6.57-.09-13.08.9-19.57.34-2.24,1.37-4.24,2.33-6.26.51-1.08,1.45-1.6,2.53-1.83,3.87-.85,7.78-.96,11.59.16,3.14.92,5.38,3.23,5.42,7.18.02,2.06.28,4.13.42,6.19-.45.36-.38.67.09.94.74,3.17.59,6.43.93,9.64.58,5.41,1.11,10.86,2.23,16.16,1.54,7.31,3.01,14.65,5.18,21.82.54,1.8.97,3.64,1.5,5.45.85,2.91-.04,5.25-2.77,6.61-4.13,2.06-8.55,2.46-13.09,1.97-1.32-.14-2.64-.33-3.95-.5-.15-.12-.31-.23-.46-.35-2.04-.21-3.56-1.17-4.5-3.01-.03-.58.13-1.24-.67-1.47l-.32-.57c-.11-.13-.22-.27-.33-.4Z"/><path class="cls-1" d="m718.85,140.14c0,5.07-.13,10.13.03,15.2.27,8.88,1.39,17.7,2.66,26.49.11.74.23,1.48.26,2.22.1,2.72-1.31,4.83-3.84,5.67-1.98.66-4.03.95-6.14.94-2.86,0-5.64-.32-8.37-1.26-1.59-.55-3.1-1.17-4.5-2.1-1.78-1.17-2.71-2.83-3.07-4.91-1.77-10.26-2.32-20.58-2.12-30.98.13-7.24.68-14.41,1.61-21.57.57-4.46,1.7-8.75,3.65-12.79,1.65-3.42,2.68-4.08,6.47-4.31,4.32-.25,8.32.69,11.84,3.39,1.66,1.27,2.03,2.98,1.99,4.84-.09,4.15-.3,8.3-.41,12.45-.06,2.24-.01,4.48-.01,6.72-.02,0-.03,0-.05,0Z"/><path class="cls-1" d="m283.73,95.23c.82-2.4,2.64-3.49,5.05-3.53,3.89-.07,7.58.94,10.93,2.86,2.81,1.62,4.2,4.04,3.64,7.47-1.01,6.22-1.82,12.46-2.77,18.69-1.19,7.8-1.9,15.63-1.94,23.52-.03,6.14,0,12.28.02,18.41,0,1.17-.05,2.33-.43,3.44-.5,1.48-1.44,2.41-3.02,2.98-6.54,2.35-12.34-.05-18.03-2.74-2.7-1.28-4.03-3.61-4.21-6.81-.37-6.81-.4-13.62.33-20.38.88-8.15,1.79-16.31,3.6-24.33.24-1.05.32-2.13.48-3.19.57-.12,1.07-.28.45-.95.02-.36.04-.71.07-1.07.11-.15.22-.3.33-.45.07-.52.14-1.03.21-1.55.1-.14.2-.27.3-.41.05-.35.1-.7.15-1.05,1.61-1.28,1.62-3.15,1.85-4.95.08-.18.16-.35.25-.53.58-.16.96-.38.34-.96.1-1.19.67-2.16,1.48-3,.93-.1.93-.79.93-1.47Z"/><path class="cls-2" d="m296.79,87.85c-5.42.28-9.64-4.86-9.55-10.42.08-4.64,5.36-9.45,10.5-9.19,5.46.28,10.01,4.46,9.86,9.5-.18,5.9-4.75,10.57-10.81,10.11Z"/><path class="cls-2" d="m1070.15,77.93c0,5.27-4.6,9.6-10.38,9.4-6.23-.22-9.56-3.27-9.52-10.11.03-5.85,3.74-9.26,10.13-9.48,5.85-.2,9.78,4.12,9.78,10.19Z"/><path class="cls-2" d="m1182.62,63.12c.11,5.5-4.45,10.16-10.02,10.22-5.29.06-9.94-4.28-10.05-9.38-.12-5.59,4.44-10.4,10.21-10.39,5.13,0,9.77,3.13,9.87,9.56Z"/><path class="cls-2" d="m720.56,98.44c-.1,6.65-5.84,9.77-10.19,9.76-5.39,0-9.93-4.56-9.85-9.85.08-5.36,4.72-9.88,10.22-9.84,5.02.04,10.03,3.52,9.82,9.93Z"/><path class="cls-2" d="m765.38,144.57c-.74,2.55-2.4,4.19-4.95,4.94,1.51-1.79,3.16-3.43,4.95-4.94Z"/><path class="cls-2" d="m93.3,69.52c.14-1.22.69-2.22,1.68-3.35.49,1.5-.15,2.43-.61,3.38-.35-.16-.71-.18-1.07-.04Z"/><path class="cls-2" d="m280.73,101.2c-.22,1.8-.24,3.67-1.85,4.95.51-1.69.74-3.48,1.85-4.95Z"/><path class="cls-2" d="m963.73,122.11c-.19,1.8-.28,3.63-1.79,4.96.3-1.76.63-3.51,1.79-4.96Z"/><path class="cls-2" d="m899.91,159.46c1.36.98,1.51,2.42,1.51,3.92-1.11-1.07-1.09-2.58-1.51-3.92Z"/><path class="cls-2" d="m1305.91,63.62c-.15,1.57-1.02,2.43-2.58,2.61.54-1.18,1.43-2.03,2.58-2.61Z"/><path class="cls-2" d="m548.03,114.26c-.37,1.25-1.15,2.07-2.45,2.36.45-1.17,1.11-2.12,2.45-2.36Z"/><path class="cls-2" d="m132.9,104.68c.65,1.59.6,1.72-.93,2.47,0-.94.42-1.72.93-2.47Z"/><path class="cls-2" d="m163.86,76.09c-.08.47-.12,1-.72,1.06-.62.07-.77-.41-.83-.91.35-1.72,1.01-.39,1.55-.15Z"/><path class="cls-2" d="m208.91,82.28c.34,1.08.11,1.93-.99,2.44-.03-.96.42-1.72.99-2.44Z"/><path class="cls-2" d="m103.87,21.01c-.09,1.04-.16,2.07-1.41,2.45.08-1.04.45-1.91,1.41-2.45Z"/><path class="cls-2" d="m543.68,186.61c1.12-.25,2.09-.04,2.84.89-1.06.06-2.02-.18-2.84-.89Z"/><path class="cls-2" d="m134.92,99.21c.78,1.04.2,1.56-.74,1.96-.32-.86,0-1.49.74-1.96Z"/><path class="cls-2" d="m909.76,105.3c.06,1.29-.54,1.91-1.84,1.85.44-.79,1.06-1.4,1.84-1.85Z"/><path class="cls-2" d="m1167.24,143.52c1.06.53,1.38,1.34.95,2.44-.89-.59-.85-1.54-.95-2.44Z"/><path class="cls-2" d="m226.22,111.61c-.65-.63-.63-1.28-.05-1.95.24.64.24,1.29.05,1.95Z"/><path class="cls-2" d="m321.21,114.67c-.12.68.31,1.55-.67,1.94-.36-.85.06-1.42.67-1.94Z"/><path class="cls-2" d="m136.37,146.51c1.17-.11,1.57.48,1.43,1.57-.61-.4-1.2-.82-1.43-1.57Z"/><path class="cls-2" d="m1316.46,59.31c-.3,1.17-.82,1.29-1.57.33.47-.38,1.01-.4,1.57-.33Z"/><path class="cls-2" d="m1071.61,109.62c-.6-.46-.62-.94-.06-1.45.24.47.25.96.06,1.45Z"/><path class="cls-2" d="m541.05,124.13c0,.67,0,1.35-.9,1.48-.13-.75.24-1.2.9-1.48Z"/><path class="cls-2" d="m1169.41,149.5c.79.23.64.89.67,1.47-.54-.34-1.12-.68-.67-1.47Z"/><path class="cls-2" d="m385.17,109.72c-.04.59.06,1.26-.77,1.41-.3-.78.16-1.13.77-1.41Z"/><path class="cls-2" d="m1111.8,155.48c.96.25.99.77.44,1.47-.16-.48-.84-.82-.44-1.47Z"/><path class="cls-2" d="m96.88,33.97c-.01.66-.01,1.32-.89,1.45-.14-.75.24-1.18.89-1.45Z"/><path class="cls-2" d="m537.18,181.38c.57,0,1.15-.03,1.41.65-.76.41-1.16.05-1.41-.65Z"/><path class="cls-2" d="m283.73,95.23c0,.69,0,1.37-.93,1.47-.07-.73.34-1.16.93-1.47Z"/><path class="cls-2" d="m386.68,107.25c-.02.67-.06,1.33-.96,1.41-.06-.73.34-1.14.96-1.41Z"/><path class="cls-2" d="m325.22,106.75c-.02.66-.04,1.32-.92,1.42-.09-.73.25-1.18.92-1.42Z"/><path class="cls-2" d="m22.31,15.63c.11.64.05,1.18-.74,1.32-.33-.76.24-1.02.74-1.32Z"/><path class="cls-2" d="m535.19,138.6c.57.69.05.82-.49.93-.18-.49-.15-.87.49-.93Z"/><path class="cls-2" d="m1108.8,141.52c.79.18.82.72.67,1.36-.47-.33-1.05-.61-.67-1.36Z"/><path class="cls-2" d="m534.15,142.57c.61.65.14.82-.42.95-.22-.48-.2-.84.42-.95Z"/><path class="cls-2" d="m573.09,194.88c.46.35.4.66-.06.95-.65-.36-.62-.68.06-.95Z"/><path class="cls-2" d="m243.66,102.86c.1.64,0,1.17-.77,1.29-.3-.76.27-1.01.77-1.29Z"/><path class="cls-2" d="m922.79,182.29c.49-.52.79-.25,1.03.25-.47.43-.84.45-1.03-.25Z"/><path class="cls-2" d="m281.32,99.71c.62.58.24.8-.34.96-.15-.41-.28-.82.34-.96Z"/><path class="cls-2" d="m920.45,181.48c.63-.1,1.17-.02,1.3.75-.77.34-1.01-.25-1.3-.75Z"/><path class="cls-2" d="m21.31,20.61c.11.64.04,1.19-.75,1.32-.32-.76.25-1.02.75-1.32Z"/><path class="cls-2" d="m245.35,95.72c.63.67.14.83-.44.96-.18-.46-.18-.85.44-.96Z"/><path class="cls-2" d="m1048.52,107.28c.12.51.15.99-.34,1.34-.96-.72-.07-.97.34-1.34Z"/><path class="cls-2" d="m348.18,175.87c.26-.45.57-.54.94-.11-.29.25-.6.3-.94.11Z"/><path class="cls-2" d="m341.22,175.77c.36-.43.67-.37.94.09-.33.18-.65.14-.94-.09Z"/><path class="cls-2" d="m597.37,170.89c-.45-.35-.4-.66.07-.94.18.33.17.64-.07.94Z"/><path class="cls-2" d="m246.14,93.36c.11.63.06,1.18-.72,1.33-.34-.76.24-1.02.72-1.33Z"/><path class="cls-2" d="m1061.3,168.55c.58-.11,1.1-.05,1.42.53-.83.77-1.05-.06-1.42-.53Z"/><path class="cls-2" d="m532.01,167.93c.51.31.56.63.05.99-.66-.3-.66-.63-.05-.99Z"/><path class="cls-2" d="m131.43,109.67c.62.63.18.82-.4.96-.23-.47-.21-.84.4-.96Z"/><path class="cls-2" d="m1185.03,93.18c-.47-.27-.54-.58-.09-.94.24.3.27.61.09.94Z"/><path class="cls-2" d="m1120.66,167.31c.61-.59.81-.17.95.39-.49.28-.84.24-.95-.39Z"/><path class="cls-2" d="m206.87,90.74c.46.37.37.69-.1.96-.63-.39-.59-.71.1-.96Z"/><path class="cls-2" d="m277.83,110.67c.62.68.12.83-.45.95-.17-.47-.18-.86.45-.95Z"/><path class="cls-2" d="m19.29,30.06c.13.62.09,1.17-.68,1.34-.41-.76.21-1.01.68-1.34Z"/><path class="cls-2" d="m1053.35,161.95c.72.13.82.62.73,1.23-.48-.27-1.11-.45-.73-1.23Z"/><path class="cls-2" d="m130.88,112.15c.68.64.24.84-.38.98-.2-.45-.21-.83.38-.98Z"/><path class="cls-2" d="m18.48,32.92c.66.61.25.83-.36.97-.23-.45-.23-.82.36-.97Z"/><path class="cls-2" d="m17.98,35.41c.66.63.23.83-.38.97-.21-.45-.22-.83.38-.97Z"/><path class="cls-2" d="m1112.19,157.47c.58.11,1.16.21.5.96-.62-.09-.58-.51-.5-.96Z"/><path class="cls-2" d="m247.09,88.84c.18.65.13,1.19-.67,1.36-.37-.74.2-1.03.67-1.36Z"/><path class="cls-2" d="m321.83,113.18c.55.54.22.78-.32.94-.2-.42-.31-.81.32-.94Z"/><path class="cls-2" d="m923.19,156.61c.36-.65.74-.66,1.11-.01-.37.48-.74.5-1.11.01Z"/><path class="cls-2" d="m205.81,114.13c.48.3.52.61.04.95-.68-.29-.7-.61-.04-.95Z"/><path class="cls-2" d="m17.46,37.89c.69.63.26.84-.37.98-.21-.45-.22-.82.37-.98Z"/><path class="cls-2" d="m582.55,244.55c.69-.61.83-.1.95.46-.48.18-.87.17-.95-.46Z"/><path class="cls-2" d="m207.84,85.74c.67.64.22.84-.38.97-.2-.45-.22-.84.38-.97Z"/><path class="cls-2" d="m16.96,40.39c.68.63.25.84-.37.98-.2-.45-.22-.83.37-.98Z"/><path class="cls-2" d="m130.36,114.63c.72.72.17.87-.45.98-.08-.43-.13-.85.45-.98Z"/><path class="cls-2" d="m1103.27,85.12c.71.26.84.79.71,1.46-.55-.34-1.06-.69-.71-1.46Z"/><path class="cls-2" d="m1051.82,155.48c.62.14,1.07.33.38.98-.59-.14-.57-.53-.38-.98Z"/><path class="cls-2" d="m1111.3,153.48c.55.13,1.05.28.44.95-.63-.09-.65-.46-.44-.95Z"/><path class="cls-2" d="m1072.11,117.1c-.47-.28-.54-.6-.08-.95.23.3.26.62.08.95Z"/><path class="cls-2" d="m1051.25,153.48c.57.11,1.15.2.51.95-.62-.08-.59-.5-.51-.95Z"/><path class="cls-2" d="m898.47,153.48c.77.17.8.72.68,1.34-.46-.33-1.09-.57-.68-1.34Z"/><path class="cls-2" d="m16.45,42.87c.7.64.25.85-.38.98-.19-.45-.2-.83.38-.98Z"/><path class="cls-2" d="m598.88,149.96c-.46-.34-.41-.66.05-.94.18.33.17.64-.05.94Z"/><path class="cls-2" d="m1110.26,148.5c.81.15.87.69.72,1.35-.49-.32-1.04-.6-.72-1.35Z"/><path class="cls-2" d="m.78,122.73c.13.52.15,1.01-.36,1.36-.95-.73-.06-.98.36-1.36Z"/><path class="cls-2" d="m899.93,123.66c.54.66.07.81-.47.93-.22-.5-.17-.86.47-.93Z"/><path class="cls-2" d="m1109.79,146.51c.6.14,1.06.33.39.97-.6-.13-.57-.52-.39-.97Z"/><path class="cls-2" d="m1277.99,68.77c.32.04.75.09.75.45,0,.58-.54.47-.92.54.06-.33.11-.66.17-.99Z"/><path class="cls-2" d="m539.17,127.63c.57.61.15.8-.4.94-.15-.43-.22-.83.4-.94Z"/><path class="cls-2" d="m533.6,145.04c.69.73.13.86-.47.97-.07-.43-.13-.86.47-.97Z"/><path class="cls-2" d="m1166.75,141.52c.58.13,1.04.31.42.96-.62-.11-.62-.49-.42-.96Z"/><path class="cls-2" d="m572.65,235.7c.58.12,1.09.27.45.96-.57-.12-.61-.5-.45-.96Z"/><path class="cls-2" d="m534.62,140.56c.64.66.17.84-.42.96-.19-.46-.2-.85.42-.96Z"/><path class="cls-2" d="m897.87,136.08c.46.34.41.65-.06.94-.7-.36-.66-.67.06-.94Z"/><path class="cls-2" d="m1166.25,139.53c.55.12,1.06.27.45.94-.63-.09-.65-.46-.45-.94Z"/><path class="cls-2" d="m1165.78,137.54c.55.13,1.01.3.42.94-.63-.1-.65-.47-.42-.94Z"/><path class="cls-2" d="m960.33,139.57c.43.3.43.6,0,.91-.16-.12-.42-.2-.46-.35-.1-.34.15-.5.46-.56Z"/><path class="cls-2" d="m133.84,101.74c-.11.13-.22.26-.33.39-.17-.36.05-.4.33-.39Z"/><path class="cls-2" d="m584.5,114.15c-.11.15-.23.3-.34.45-.16-.36.07-.42.34-.45Z"/><path class="cls-2" d="m536.04,135.59c-.11.14-.22.29-.33.43-.18-.36.06-.41.33-.43Z"/><path class="cls-2" d="m536.54,134.1c-.11.14-.23.28-.34.42-.15-.36.07-.41.34-.42Z"/><path class="cls-2" d="m537.05,132.65c-.11.13-.22.25-.32.38-.16-.36.05-.39.32-.38Z"/><path class="cls-2" d="m393.12,101.28c-.16.13-.31.25-.47.38.02-.29.13-.48.47-.38Z"/><path class="cls-2" d="m156.29,76.91c-.15.11-.3.22-.45.33.03-.27.11-.49.45-.33Z"/><path class="cls-2" d="m1298.5,74.33c0-.26,0-.52,0-.78.76.25.57.51,0,.78Z"/><path class="cls-2" d="m538.05,130.14c-.12.13-.23.27-.35.4-.13-.35.07-.41.35-.4Z"/><path class="cls-2" d="m897.79,146.06c0,.12,0,.25,0,.37-.13-.06-.26-.12-.38-.17.13-.06.25-.13.38-.19Z"/><path class="cls-2" d="m155.29,77.4l-.46.35c.03-.28.12-.48.46-.35Z"/><path class="cls-2" d="m154.29,77.9c-.15.12-.3.23-.45.35.02-.28.1-.48.45-.35Z"/><path class="cls-2" d="m1168.27,147.03c.1.14.21.28.31.41-.26-.02-.51-.05-.31-.41Z"/><path class="cls-2" d="m153.29,78.42c-.14.11-.28.22-.43.33,0-.28.05-.51.43-.33Z"/><path class="cls-2" d="m1168.75,148.52c.11.13.22.27.33.4-.28,0-.49-.04-.33-.4Z"/><path class="cls-2" d="m900.26,122.15c-.1.14-.19.27-.29.41-.2-.35.03-.39.29-.41Z"/><path class="cls-2" d="m964.74,119.68c-.12.13-.24.26-.37.39-.11-.35.08-.42.37-.39Z"/><path class="cls-2" d="m1229.6,149.47c.14.01.29.02.43.03-.08.12-.16.24-.25.36-.06-.13-.12-.26-.19-.39Z"/><path class="cls-2" d="m532.54,151.07c0,.13,0,.25.01.37-.13-.06-.25-.13-.38-.19.12-.06.24-.12.36-.18Z"/><path class="cls-2" d="m901.78,117.68c-.11.13-.23.26-.34.4-.15-.36.06-.41.34-.4Z"/><path class="cls-2" d="m320.21,117.18c-.11.13-.22.26-.33.4-.16-.36.06-.4.33-.4Z"/><path class="cls-2" d="m148.3,81.39c-.14.12-.28.23-.43.35,0-.28.08-.48.43-.35Z"/><path class="cls-2" d="m1174.58,153.98c.15.12.31.23.46.35-.34.13-.43-.08-.46-.35Z"/><path class="cls-2" d="m248.72,84.9c-.16.1-.32.21-.48.31.06-.25.12-.5.48-.31Z"/><path class="cls-2" d="m26.87.71c-.16.1-.33.19-.49.29.09-.22.14-.51.49-.29Z"/><path class="cls-2" d="m383.16,114.18l-.3.41c-.21-.37.05-.39.3-.41Z"/><path class="cls-2" d="m1081.74,88.22c.14.12.28.24.41.36-.32.09-.46-.02-.41-.36Z"/><path class="cls-2" d="m585.01,112.69c-.11.13-.23.27-.34.4-.15-.36.06-.41.34-.4Z"/><path class="cls-2" d="m899.45,157.99c.11.15.22.3.33.45-.27-.04-.51-.09-.33-.45Z"/><path class="cls-2" d="m1052.37,158c.1.14.2.29.3.43-.25-.04-.53-.07-.3-.43Z"/><path class="cls-2" d="m549.54,112.7c-.14.14-.28.27-.42.41-.05-.33.11-.44.42-.41Z"/><path class="cls-2" d="m1112.8,159.49c.11.14.22.27.33.41-.27,0-.5-.05-.33-.41Z"/><path class="cls-2" d="m775.87,160.87c.16-.14.31-.27.47-.41-.01.3-.14.48-.47.41Z"/><path class="cls-2" d="m383.66,112.71c-.11.13-.22.25-.33.38-.17-.36.05-.39.33-.38Z"/><path class="cls-2" d="m551.01,111.76c-.15.12-.3.25-.45.37,0-.29.11-.48.45-.37Z"/><path class="cls-2" d="m792.82,164.14c-.06.13-.16.23-.3.29-.08-.28,0-.39.3-.29Z"/><path class="cls-2" d="m1136.11,164.33c.15-.13.3-.26.46-.39-.02.29-.11.48-.46.39Z"/><path class="cls-2" d="m786.84,166.03c-.16.14-.32.27-.48.41.03-.28.16-.46.48-.41Z"/><path class="cls-2" d="m902.41,165.96c.11.12.23.25.34.37-.3.05-.43-.06-.34-.37Z"/><path class="cls-2" d="m926.24,166.44c-.17-.16-.33-.32-.5-.48.32,0,.48.17.5.48Z"/><path class="cls-2" d="m933.75,165.98c-.17.15-.34.3-.51.46.03-.3.19-.47.51-.46Z"/><path class="cls-2" d="m785.34,166.53c-.16.14-.33.27-.49.41.04-.28.16-.47.49-.41Z"/><path class="cls-2" d="m783.84,167.03c-.17.14-.34.27-.51.41.05-.28.18-.47.51-.41Z"/><path class="cls-2" d="m1056.61,166.95c.17.11.34.21.51.32-.33.14-.43-.08-.51-.32Z"/><path class="cls-2" d="m241.28,109.73c-.01.12-.02.25-.02.38-.12-.08-.25-.15-.37-.23.13-.05.26-.1.39-.15Z"/><path class="cls-2" d="m1057.67,167.43c.15.11.3.22.45.33-.35.16-.42-.06-.45-.33Z"/><path class="cls-2" d="m587.47,109.33l-.5.3c.09-.23.15-.51.5-.3Z"/><path class="cls-2" d="m278.23,109.15c-.11.15-.22.3-.33.45-.18-.36.06-.42.33-.45Z"/><path class="cls-2" d="m1074.15,168.84c.16-.14.33-.27.49-.41-.04.29-.17.47-.49.41Z"/><path class="cls-2" d="m337.16,94.84c-.15.12-.31.23-.46.35.03-.28.11-.48.46-.35Z"/><path class="cls-2" d="m532.74,173.94c.1.13.21.26.31.39-.27,0-.51-.02-.31-.39Z"/><path class="cls-2" d="m336.16,95.35c-.15.11-.29.23-.44.34.01-.28.09-.48.44-.34Z"/><path class="cls-2" d="m131.83,108.16l-.33.45c-.17-.36.06-.42.33-.45Z"/><path class="cls-2" d="m278.74,107.2c-.1.14-.2.27-.3.41-.22-.37.05-.38.3-.41Z"/><path class="cls-2" d="m982.77,177.38c.16.01.32.02.48.04-.09.12-.19.24-.28.36-.07-.13-.13-.26-.2-.39Z"/><path class="cls-2" d="m106.33,17.61c-.16.11-.32.22-.49.33.06-.25.13-.5.49-.33Z"/><path class="cls-2" d="m333.19,97.23c-.14.14-.28.28-.41.43-.06-.33.11-.44.41-.43Z"/><path class="cls-2" d="m394.6,100.38c-.16.09-.32.18-.49.28.09-.22.14-.51.49-.28Z"/><path class="cls-2" d="m541.57,185.36c.15.15.3.31.45.46-.31,0-.46-.15-.45-.46Z"/><path class="cls-2" d="m566.02,186.25c.15-.13.3-.26.45-.39,0,.29-.11.48-.45.39Z"/><path class="cls-2" d="m799.83,186.33c.17-.15.34-.3.51-.45-.04.29-.2.47-.51.45Z"/><path class="cls-2" d="m107.32,17.12c-.15.11-.31.22-.46.33.04-.27.12-.49.46-.33Z"/><path class="cls-2" d="m547.11,187.85c.16.06.29.16.38.31-.37.2-.38-.04-.38-.31Z"/><path class="cls-2" d="m548.62,188.35c.16.06.28.16.37.3-.37.2-.38-.04-.37-.3Z"/><path class="cls-2" d="m133.34,103.21c-.11.14-.22.28-.33.42-.16-.36.06-.41.33-.42Z"/><path class="cls-2" d="m391.64,102.16c-.16.17-.31.33-.47.5,0-.32.17-.47.47-.5Z"/><path class="cls-2" d="m581.09,244.16c.16.06.29.16.37.31-.37.19-.39-.04-.37-.31Z"/><path class="cls-2" d="m535.55,137.11c-.1.13-.2.26-.31.4-.2-.37.05-.39.31-.4Z"/><path class="cls-2" d="m1003.72,124.57c-.19-.33-.16-.65.06-.96.47.35.42.66-.06.96Z"/><path class="cls-2" d="m350.66,109.16c-.41-.07-.89-.02-.95-.62.87-.63.88.05.95.62Z"/><path class="cls-2" d="m351.67,111.6c-.27-.03-.51-.09-.34-.45.11.15.22.3.34.45Z"/><path class="cls-2" d="m927.25,115.11c-.5-.05-1-.09-1.5-.14.09-.39.2-.77.7-.78.63-.02.74.43.8.92Z"/></g></svg>