<?xml version="1.0" encoding="UTF-8"?><svg id="Capa_1" xmlns="http://www.w3.org/2000/svg" viewBox="0 0 646.77 179.12"><defs><style>.cls-1{fill:#d8bcdb;}.cls-2{fill:#965ba5;}.cls-3{fill:#653376;}</style></defs><path class="cls-2" d="m193.47,147.16C115.91,134.04,71.08,122.38,0,86.72l65.02-22.58L43.51,0c62.39,31.31,98,39.96,166.06,51.5l-16.1,95.67Z"/><path class="cls-2" d="m453.27,147.16c77.57-13.12,122.42-24.78,193.5-60.44l-65.03-22.58L603.26,0c-62.41,31.31-98,39.96-166.09,51.5l16.1,95.67Z"/><path class="cls-3" d="m206.08,72.16l3.49-20.66-91.73-.31c-1.2,10.05,27.06,8.37,45.91,12.4,11.05,2.38,42.33,8.57,42.33,8.57Z"/><path class="cls-3" d="m440.66,72.16l-3.49-20.66s92.01-2.34,91.9-.31c-.54,11.14-27.25,8.37-46.06,12.4-11.07,2.38-42.35,8.57-42.35,8.57Z"/><path class="cls-1" d="m557.61,143.91c-152.58,46.95-315.7,46.95-468.26,0,9.5-30.9,19-61.82,28.49-92.72,133.99,41.22,277.26,41.22,411.23,0,9.52,30.9,19.04,61.82,28.54,92.72Z"/></svg>