<?xml version="1.0" encoding="UTF-8"?><svg id="Layer_1" xmlns="http://www.w3.org/2000/svg" viewBox="0 0 261.1 218.08"><defs><style>.cls-1{fill:#793d8f;}</style></defs><path class="cls-1" d="m215.74,60.81c-3.03,5.18-.91,7.54,3.25,8.99.45.16.63,1.08.96,1.63,2.23,3.71,3.05,8.35,7.36,10.71,1.12.61.45,2.16.57,3.28.12,1.15-.22,2.99.36,3.34,6.55,3.95,4.04,10.9,5.54,16.47.44,1.63,1.4,2.52,2.36,3.59,3.96,4.43,3.81,10.16-.09,14.57-8.57,9.7-18.04,18.52-26.87,27.96-14.59,15.61-29.25,31.14-44.35,46.25-.8.8-1.37,1.83-2.04,2.69-3.16,4.07-6.64,6.62-12.64,6.92-16.53.84-33.1,1.62-49.56,3.66-4.7.58-9.5-.5-14.24.9-1.51.45-2.43-1.66-3.38-3.06-13.96-20.5-27.98-40.96-42.07-61.37-1.56-2.27-1.41-4.59-.62-6.75,10.35-28.49,20.83-56.93,31.24-85.4,2.6-7.12,4.79-14.4,7.75-21.36,2.82-6.64,4.98-9.89,13.73-9.85,4.99.02,9.54-.64,14.46,1.84,2.73,1.38,7.36.41,10.54-.93,3.1-1.31,5.89-1.05,8.74-.6,1.95.31,2.68.18,3.56-1.73,2.36-5.11,7.93-6.55,13.65-3.99,6.78,3.04,13.85,4.21,21.44,3.82,5.22-.26,10.78-1.39,15.96,1.49,3.12,1.73,4.66,3.97,4.57,7.4-.12,4.39,1.67,7.01,6.34,6.82,1.42-.06,2.56.45,3.7,1.05,3.84,2,6.64,5.92,11.43,6.21.4.02.85.54,1.12.93,3.21,4.6,2.73,10.75,7.22,14.52Zm-23.18,8.03c3.87-2.61,7.44-1.84,7.15,1.87-.42,5.32,3.18,4.35,6.01,5.32.21-2.54-2.02-3.08-2.9-4.54-.37-.62-1.98.07-1.38-1.32,1.94-4.52-2.27-4.98-4.46-5.84-2.62-1.04-4.7.67-5.14,3.71-.78,1-1.39,2.23-2.38,2.94-2.11,1.52-1.45,3.24-.27,4.58,1.02,1.15,3.24,1.05,4.06.21,1.17-1.21,1.48-3.36-.35-4.59-1.24-.83-.97-1.45-.34-2.34Zm5.28,21.17c.26.24.52.49.79.73-.77,1.39-2.1,1.3-3.44,1.41-1.48.12-1.48.99-.67,1.98,2.38,2.9,8.57,2.21,10.4-1.08,2.54-4.55-2.23-4.87-4.17-6.89,2.6-.87,4.46-3.05,3.91-4.68-.59-1.73-2.03-3.38-3.76-3.17-2.78.34-1.69,2.99-2.03,4.79-.28,1.46,1.33,4.01-1.96,3.97-1.42-.01-2.3.41-1.94,1.98.41,1.76,1.85.79,2.86.96Zm-9.99,2.15c.11,2.29.22,4.59.35,7.27,4.75-3.54,4.71-5.08.45-7.99-.09-.13-.22-.26-.28-.41-.05-.14-.04-.3-.06-.45,2.67.08,4.05-.81,3.91-3.89-.05-1.11,1.48-2.48,3.18-2.6,1.88-.14,1.72-.96.81-2.21-1.72-2.36-3.98-3.25-6.83-2.77-3.75.64-4.99,3.87-6.24,6.65-.98,2.17,1.14,3.35,2.89,4.39.74.44,1.22,1.33,1.82,2.01Zm-66.77-43.94c-.27-.24-.54-.47-.81-.71.51-1.68,2.5-.94,3.57-2-3.28-3.13-5.89-7.45-11.27-4.2-5.13,3.09-5.7,5.65-2.72,12.78.07-1.54.05-2.63.17-3.71.36-3.23,6.42-6.15,7.52-3.74-.06,1.8-2.97,1-2.66,3.15,2.13,1.14,5.46-1.04,6.68,1.65,1.18,2.61,3.13,2.85,5.29,3.13.29.04,1.1-1.04,1.01-1.46-.57-2.59-2.27-4.22-4.81-4.91-.61-.17-1.32,0-1.98.02Zm2.55-20.79c-.45-.32-.9-.63-1.35-.95-.45.83-.26,1.42.65,1.76-.32,2.22,1.23,4.89-2.05,7.04.49-3.42.26-6.48-3.29-7.02-3.86-.59-5.21,2.35-5.97,5.63-1.3-1.47.24-3.45-1.49-4.79-3.68,1.91-4.4,5.36-2.25,8.1,2.89,3.68,4.31-.13,5.88-2.2,1.08-1.43,2.92-1.14,4.15-.69,1.77.65-.36,1.27-.4,2-.08,1.4,1.46,1.4,1.9,1.48,1.94.33,3.21,1.44,4.52,2.73.84.82,1.52,2.44,3.19,1.03,2.82-2.38,4.65-5.28,3.77-9.02-.36-1.55-1.83-2.85-2.81-4.24-.04-.06-.4-.03-.45.05-2.37,4.33-2.48-1.4-3.99-.89Zm103.26,75.57c.02.38.05.76.07,1.14-.05,1.67.03,3.62-2.16,3.82-2.04.19-4.34.78-5.93-1.43-1.53-2.11-1.3-4.3-.39-6.49.38-.93,2.06-1.32.91-2.83-2.57-3.39-8.27-3.09-10.96.63,7.58,2.13,8.44,3.05,8.46,9.08.02,6.81,4.31,9.19,11.13,5.86-1.81-1.61-4.61.22-6.15-1.56.22-.47.25-.7.35-.73.62-.17,1.24-.38,1.87-.43,5.6-.41,6.87-2.26,5.04-7.38-.35-.97-.11-1.78.3-2.77,1.18-2.88.47-5.68-1.95-7.49-2.59-1.93-5.53-2.22-8.24.36,2.16,2.95,7.82,5.16,1.96,9.73-.92.72-.32,2.15.69,3.03,1.08.94,1.73.12,2.53-.47.88-.64,1.08-2.08,2.47-2.09Zm-51.95-5.91c.49,3.88.03,7.54-3.09,10.77,5.26-2.51,10.08-2.48,15.18-.11-1.7-5.96-5.92-6.97-10.77-6.85.88-3.05,3.83-.98,5.35-2.35-1.91-3.05-4.19-3.07-6.77-1.35,1.63-3.67,4.45-4.29,7.98-1.78.66.47.93,1.92,2.22.99,1.35-.97.46-1.83.07-2.94-1.27-3.56-4.78-3-8.49-4.09,3.9-1.77,4.15-4.5,4.4-7.22.9-.33,1.08-.92.65-1.74-.45.31-.9.62-1.35.93-3.82.42-2.91,5.14-6.05,6.99,1.27-4.55.84-7.99-3.4-9.78-2.15-.91-4.17-.91-5.01,2.27,1.16.12,2.16.09,3.07.34,2.07.56,2.59,2.53,2.87,4.17.26,1.52-.62,2.87-2.19,3.88-1.71,1.1-2.91.81-4.49-.06-1.2-.66-1.62-1.3-.37-1.95,1.24-.64,1.42-1.2.58-2.17-.54-.63-1.22-1.29-2.08-.64-1.05.79-2.17,1.06-3.18.26-1.41-1.11-2.22-.21-2.79.77-.83,1.43.46,2.11,1.44,2.58.89.43,1.79.65,1.73,1.86-4.74,1.5-6.63-2.9-9.78-4.77-1.83,2.2.51,3.14,1.09,4.61.19.46,2.58,2.6-.73,2.3-.33-.9-.92-1.08-1.74-.65.31.45.62.9.93,1.35,2.26,3.47,7.04,2.91,9.32,6.32,4.31-6.3,9.34-6.83,15.4-1.93Zm-57.3,42.67c8.45-13.95,16.92-27.9,25.34-41.88,1-1.65,3.02-3.79-.02-5.12-2.41-1.06-5.37-2.14-7.07,1.59-.87,1.91-2.03,3.69-3.16,5.47-7.67,12.08-13.42,24.93-15.81,39.14-1.4,1.34-2.12,2.96-2.21,6.22,1.36-2.52,2.14-3.97,2.92-5.42Zm-5.26,6.53c-2.32,3.4-5.42,6.01-8.68,8.43-1.23.91-2.84.93-3.8,2.63-6.18,10.99-12.37,21.98-18.97,32.73-2.48,4.04-3.18,7.23.7,10.37,3.83-6.35,7.73-12.68,11.49-19.08,6.7-11.4,13.32-22.85,19.97-34.28,1.16-.79,1.31-1.84.89-3.65-.71,1.26-1.16,2.05-1.6,2.85Zm70.62-102.07c.61-2.03,4.15-3.12,3.04-5.16-1.79-3.29-4.34.33-6.61.26-.47-.01-1,1.06-1.4-.1,5.99-6.46,6.43-8.82,2.26-12.18-3.5-2.83-6.27-2.55-9,1.04,3.21-.04,7.17-.43,7.38,3.75.19,3.69-1.99,6.69-7.02,6.84,1.01-1.45.41-3.21.61-4.3.65-3.47-3.76-4.51-3.13-6.98.83-3.22-1.23-2.41-2.4-2.15-2.74.61-4.6,2.22-4.83,5.34-.09,1.19,1.05,3.13-1.97,3.53,0-2.57-.01-5.02,0-7.47,0-1.45-.95-1.61-1.99-1.4-1.17.23-1.04,1-.54,1.83.9,1.48.64,3.02.26,4.7-6.74-10.87-9.79-11.13-19.08-1.72.18-2.52.16-2.53,2.26-6.33,1.19-2.14-.09-3.13-1.83-3.47-3.19-.62-8.07,4.42-6.79,7.3,1.1,2.48,1.6,4.85,1.91,7.49.25,2.16,2.33,3.54,4.52,3.55,1.59,0,3.25-3.84,3.52-5.19.48-2.32.02-5.03,3.25-6.46,3.19-1.41,5.46-.99,7.32,1.59,1.37,1.9,3.13,4.24-.7,5.62-.64.23-.58.42-.34.9,1.35,2.76,7.44,5.19,10.9,4.3,1.25,2.63-.99,5.58,1.03,8.34,1.05,1.43,1.95,1.39,3.21,1.38,1.17,0,1.16-1.06,1.37-1.77.61-2.08-1.33-.97-2-1.41-1.98-1.29-4.06-2.11-.49-4.2,2.24-1.31.8-2.37-.68-3.63-3.38-2.88-2.46-7.01,1.81-8.55.08,2.13-3.09,4.13-.4,6.18,1.04-1.48,1.81-3.26,4.32-3.52-2.37,5.27-.57,10.63,2.93,9.56,3.17-.97,6,3.11,8.81-.14.09-.11,0,1.25-.32,1.9-.32.45-.63.9-.95,1.35.83.45,1.42.26,1.76-.65Zm-93.57,163.21c3.15-.92,6.62,2.57,9.22-1.5,13.32-20.83,26.84-41.53,40.39-62.2,7.45-11.37,15.1-22.6,22.64-33.9,1.06-1.58,3.65-3.23,2.11-5.04-1.46-1.73-4.54-1.2-6.53-.31-2.39,1.06-4.92,1.99-6.45,4.82-3.46,6.39-7.42,12.51-11.29,18.66-16.68,26.51-33.4,52.99-50.1,79.48Zm-43.71-60.68c6.87-17.85,13.61-35.46,20.42-53.03,7.27-18.78,14.62-37.54,21.91-56.32.51-1.32,1.85-2.79-.82-3.69-2.11-.71-3.73-1.18-4.68,1.45-.33.91-1.02,1.69-1.34,2.6-3.88,10.76-7.72,21.54-11.59,32.3-8.51,23.65-16.96,47.32-25.63,70.91-.98,2.68-.92,4.32,1.74,5.78Zm72.51-27.34c-.77-12.01-3.37-21.89-11.89-29.63-6.72-6.11-16.12-7.53-24.06-2.39-18.51,11.98-23.69,38.45-11.81,56.99,6.83,10.66,18.26,16.76,31.84,6.98,11.37-8.19,14.12-20.33,15.93-31.95Zm28.65,65.57c2.05-.29,4.4.1,6.9-.82,15.07-5.58,25.26-15.74,29.7-31.24,3.5-12.2-4.61-22.05-17.16-20.82-15.51,1.51-33.15,18.14-35.34,33.45-1.82,12.73,3.54,19.43,15.89,19.43Zm-11.6-131.76c3.46-6,3.26-7.8-.68-10.98-3.45-2.78-3.91,2.31-6.4,2.39-.96.03-1.82,1.53-.5,2.7,3.18,2.82,3.83,6.29,2.14,10.02-1.18,2.6,1.12,3.17,2.2,4.19,1.91,1.8,1.74-.92,2.55-1.54,1.56-1.19,2.58-3.92,4.43-3.67,5.57.74,10.9-2.22,16.56-.42,2.74.87,5.5.17,5.42-4.06-.12-6.46-3.11-9.88-9.95-10.7-.74-.09-1.77.31-1.95-.9-.07-.45.06-.92.75-1.03,3.88-.61-.03-1.61-.06-1.62-4.74-1.96-8.96,1.5-8.78,7.43.13,4.17-.64,7.38-5.74,8.2Zm94.44,63.94c-4.93-.3-8.03,1.36-10.45,4.07-6.42,7.22-12.78,14.49-18.94,21.94-11.97,14.48-23.71,29.15-36.17,43.22-2.59,2.92-5.76,5.66-7.3,9.38.4.3.79.61,1.19.91,23.61-26.2,47.23-52.41,71.67-79.53Zm-50.8-64.04c3.71-.25,6.44-.14,6.09,4.51-.4,5.2-4.02,2.97-6.73,3.55.3-.48.43-.92.62-.94,1.85-.27,3.97-1.12,3.31-3.01-.69-1.99-2.55-1.14-4.05.07-1.53,1.24-2.04-.3-2.16-1.35-.25-2.12-.13-4.22,1.01-6.19.46-.8,2.91-.56,1.44-2.26-.66-.76-2.1-1.41-3.02-1.25-2.04.37-4.2,1-4.73,3.56-.49,2.33-2.86,4.16-.63,7.14,2.57,3.44,7.55,5.09,8.52,9.07,1.04,4.27,3.44,4.24,6.36,4.03,3.39-.25,4.3-2.99,4.97-5.78.79-3.28-2.4-4.4-3.79-6.87,4.41-.05,6.39-2.21,5.77-6.42-.59-4.03-3.37-4.15-6.77-3.59.79,1.98,3.88,2.83,2.38,5.53-2.66-1.67-5.18-4.97-8.59.2Zm-98.85,30.98c5.38-1.47,8.93-3.27,10.63-8.85,2.44-7.97,6.45-15.47,9.85-23.14.91-2.06,2.63-3.68-1.05-5.27-3.22-1.39-4.41-.42-5.47,2.27-4.57,11.5-9.17,22.98-13.96,34.98Zm69.91-12.62c4.55,2.24,7.98,1.17,8.95-2.48.69-2.63-2.6-9.35-4.96-10.93-1.71-1.15-3.36-.78-4.34.27-1.58,1.7-3.35,1.33-4.74.67-4.59-2.18-7.06.97-8.62,3.95-1.51,2.88-3.27,6.82,1.88,8.97,1.18.49,2.72,1.7,2.76,3.3.08,3.1,2.98,3.33,4.64,4.55,1.92,1.42,3.09-1.03,4.39-2.16.77-.67,1.67-1.91.48-2.38-2.11-.82-2.2-4-4.56-3.89-2.02.09.34,3.31-2.24,3.73-1.9-1.82-3.26-3.82-2.29-6.77,1.52-4.61,5.37-4.4,9.03-4.25.37-1.83-2.72.13-1.73-1.94.46-.96,1.27-.91,2.46-.5,2.41.82,3.6,2.75,3.71,4.7.14,2.7-1.28,4.97-4.81,5.18Zm21.18-2.72c.85-6.94,0-7.99-5.7-10.89-2.17-1.1-3.71-.48-4.89.5-1.28,1.05-1.17,3.39-.13,4.55,3.09,3.44,1.15,6.6-.23,10.1,3.52-.72,5.75,3.66,9.22,1.82-.29-4.1-3.57-3.6-6.45-3.72,6.67-1.88,6.95-1.62,10.06,4.5.85,1.68,1.87,4.74,4.7,3.02,2.32-1.41,4.35-3.51,2.17-6.84-2.18-3.33-2.98,2.56-4.91.47-.36-2.17,2.81-4.76-.78-7.01-.36,1.8-1.4,2.92-3.05,3.51Zm-52.68,32.91c2.3-2.6,3.63-5.93,5.34-9.03,1.79-3.24,3.58-6.5,5.18-9.84.68-1.42,2.99-3.08,1.21-4.48-1.78-1.4-4.1-2.81-6.77-2.18-2.27.54-9.51,16.68-8.44,18.8,1.15,2.28,2.34,4.54,3.48,6.74Zm69.57-57.66c6.52.37,7.02,4.9,7.03,10.68,2.03-4.68,4.9-5.08,8.72-4.17-1.27.51-2.12.94-3.01,1.19-2.4.64-3.9,2.69-3.63,4.6.41,2.93,2.91.57,4.41.72,1.91.19,3.52.41,4.76,2.03,1.52,1.99.1,3.85-.95,4.79-2.43,2.2.29,2.85.86,4.05.45.95,1.34,1.33,2.24.19,1.62-2.06,3.44-4.29,3.24-6.86-.21-2.71-2.27-4.62-5.17-5.05-1.09-.16-1.91-.45-2.24-1.57,3.41-.78,4.14-1.51,3.54-3.54-1.11-3.75-5.28-4.99-12.12-3.4.84-1.8,2.89-3.6.07-5.12-2.78-1.5-5.49-2.6-7.76,1.47Zm-115.37,142.85c4.97-9.22,9.8-18.17,14.58-27.03-4.94-3.23-7.43-1.69-9.3,3.2-1.91,4.98-4.3,9.85-7.1,14.38-2.41,3.9-1.77,6.63,1.83,9.45Zm35.52,19.83c3.65.61,6.47.63,8.59-2.94,3.46-5.81,7.05-11.65,11.38-16.81,3.03-3.61,3.17-6.35.13-9.73-6.61,9.7-13.31,19.53-20.09,29.48Zm79.11-58.21c9.39-11.7,18.34-22.87,27.5-34.28-8.6,1.32-28.26,25.4-27.5,34.28ZM110.91,61.12c-2.16-.29-3.31.59-4.17,2.6-2.09,4.89-4.28,9.77-6.78,14.46-1.34,2.51-.91,3.75,1.55,4.84,2.16.96,3.61,1.51,4.84-1.5,2.18-5.37,4.76-10.61,7.49-15.73,2-3.75-.11-4.31-2.92-4.67Zm97.62,45.04c-1.23-2.6-.35-7.14-5.27-6.61.78,1.9,1.41,3.73-.74,5.2-1.09-.68-.25-1.83-.66-2.58-1.3-2.35-2.92-4.96-5.96-3.92-2.41.83-4.94,2.93-3.79,6,1.04,2.8,3.27,3.23,6.45,2.12,4.99-1.74,7.61.49,8.79,6.4,2.38-1.48,6.53-.54,6.6-5.17.04-2.77-.63-4.76-3.41-5.49-1.3,1.11.28,3.18-2,4.04Zm-9.43,5.47c-.71-.24-1.18-.58-1.57-.51-5.27.92-18.18,13.79-19.01,18.88-.34,2.07,1.57,2.61,2.62,3.6,1.26,1.2,2.15-.27,2.76-1.09,5.07-6.87,10.07-13.8,15.21-20.88Zm-17.25-2.27c-7.45-2.09-14.13,7.72-21.26,20.65,4.6.12,8.18-.85,10.71-5.46,2.86-5.21,6.77-9.85,10.55-15.19Zm-113.59,38.27c-2.12,4.57-4.14,9.61-6.75,14.32-2.42,4.37-2.38,7.89,2.05,11.1,1.93-4.26,3.52-8.65,5.83-12.62,2.75-4.73,5.28-9.05-1.13-12.8Zm-6.99-17.1c-2.78,6.98-5.25,14.12-8.47,20.89-1.6,3.36-1.83,5.79,1.34,8.66,3.12-7.37,6.28-14.54,9.18-21.81,1.08-2.71-1.99-4.93-2.06-7.74ZM97.1,27.74c2.54.63,4.58,1.33,4.94,4.71-2.83-.82-4.99-3.69-7.61-.33-2.23,2.86.98,3.83.9,6.42,1.4-3.07,2.93-5.1,5.89-4.26,2.21.63,2.06,2.58,1.56,4.39-1.34.45-2.4-3.36-3.73-.25-.96,2.24-.46,4.22,1.76,5.71,6.16,4.13,4.88-3.69,8.89-4.57-5.5-.86-5.86-4.06-5.57-7.5.11-1.38,2.35-2.86-.36-3.94-2.05-.81-3.93-3.52-6.66-.39Zm26.88,177.89c3.63.87,5.95.16,7.83-2.86,2.47-3.98,5.56-7.58,8.24-11.44.64-.92,3.32-1.57,1.05-3.28-1.42-1.06-3.26-1.98-4.74.08-4.13,5.77-8.2,11.58-12.38,17.49Zm83.57-120.4c2.76-2.11,6.14-1.09,7.31.71,2.12,3.3,4.62,2.15,7.21,2.16,1.7,0,3.96-.06,3.58-2.15-.37-2.04-1.83-5.43-4.16-4.6-3.77,1.35-7.99-2.46-10.88,1.78-.69-2.62,2.43-3.41,2.23-5.16-1.9-2.51-3.06,3.94-4.76-.33-.16,2.38-.33,4.76-.53,7.59Zm-68.08,5.01c2.63-3.26,6.89-6.16,3.31-8.5-3.79-2.49-5.03-6.96-9.21-8.87-2.41-1.1-3.57-.11-5.27.76,7.26,2.49,10.14,8.07,11.18,16.62Zm15.73,96.85c-8.67,2.72-10.89,11.98-17.7,17.76,1.89,0,3.25.42,3.78-.06,5.55-5.03,9.39-11.5,13.91-17.69Zm-28.64-120.02c.79-8.75-.49-10.44-7.57-9.32,3.88,2.44,3.83,6.8,5.87,10.05.6.95.15,2.97,1.75,2.85,1.08-.08,1.88-1.53,2.52-2.78.76-1.47,1.16-2.73.51-4.33-1.53.9-.92,3.36-3.08,3.53Zm91.68,13.39c1.22-5.05-.42-7.4-3.19-9.34-2.08-1.45-3.98-.92-5.83.31-.78.52-1.92,1.36-.93,2.32.55.53-.04,2.47,2.12,1.62,3.48-1.37,5.8.77,7.83,5.09Zm-64.71,5.36c.95-2.98,1.85-6.54,5.89-5.38,2.28.65,3.21.32,3.45-1.64.27-2.16-1.32-2.61-3.2-2.73-5.49-.36-8.23,3.89-6.14,9.75Zm54.27,7.92c2.64-.85,4.9-1.59,7.53-2.44-1.78-2.02-2.92-4.21-5.6-3.47-3.48.96-1.14,3.78-1.92,5.9Zm-35.41,6.89c-4.32-5.13-7.1-4.88-9.18.46,2.9-1.2,5.7-1.32,9.18-.46Zm-15.21,95.36c-3.33,2.44-5.98,4.24-6.94,8.56,3.05-2.55,5.98-4.11,6.94-8.56ZM113.52,50.18c-.14.41-.33.79-.38,1.18-.01.11.4.27.62.4l.65-1.17c-.25-.12-.5-.23-.89-.42Z"/><path class="cls-1" d="m242.65,193.78c7.89,1.42,10.78,9.47,5.61,16.18-5.35,6.94-19.75,11.4-28.14,5.08-5.04-3.79-6.99-7.46-5.04-14.58.88-3.21.78-6.22.81-9.35.06-5.76,3.64-9.49,9.39-10.18,4.78-.58,9.46-2.43,13.84,1.66,3.46,3.23,4.3,6.92,3.66,11.29-1.55,4.07-4.98,6.01-8.73,7.48,1.32,2.55,3.75,1.04,5.58,1.92-2.1,3.5-5.6,4.67-8.9,3.41-5.5-2.09-5.22-7.3-4.77-12.17-1.67-.02-.59,1.83-1.91,2.06-.53-2.66.13-5.5,2.45-6.29,5.05-1.73,8.99.23,10.63,6.01,3.63-5.36,3.27-8.16-.95-11.51-2.59-2.06-10.23-1.41-13.54.88-6.87,4.74.44,12.9-4.57,18.33-1.35,1.46.74,4.23,2.34,5.98,6.7,7.33,19.42,6.37,25.86-1.97,3.62-4.69,3.48-6.53-.71-10.9-1.02-1.06-1.94-2.22-2.9-3.34Z"/><path class="cls-1" d="m32.12,65.29c.96,11.79-11.89,21.39-24.66,17.52-4.27-1.29-6.54-6.17-5.02-11.89.5-1.89.19-3.12-.56-4.43-2.54-4.45-2.78-8.66.97-12.55,3.16-3.28,8.59-4.1,13.05-1.3,1.97,1.23,3.15,1.17,5.25.66,6.16-1.51,10.98,3.96,10.97,11.99Zm-25.6,5.89c-1.46,5.1.94,8.35,5.78,8.94,8.72,1.06,15.73-6.66,16.47-14.95.22-2.45-.08-6.53-3.95-8.2-2.34-1.01-4.43-1.39-6.4.16-1.66,1.3-3.82,2.71-.13,4.69,5.29,2.84,5.1,7.63-.03,10.73-4.23,2.55-8.04,2.08-11.74-1.38Zm3.62-1.83c1.24-3.62,1.37-6.4,4.51-7.61,1.18-.46.78-2.91-.64-4.26-2.41-2.3-5.25-2.36-7.75-.78-2.76,1.74-3.06,4.4-.76,7.36,1.17-1.67,1.85-3.87,4.67-3.75-.88,2.71-1.62,5.16-.04,9.05Z"/><path class="cls-1" d="m258.82,12.64c-.99,1.53.08,2.85.94,4.45,3.35,6.21.16,12.32-6.41,15.32-10.05,4.59-23.53-3.29-25.23-13.36-1.14-6.73,1.62-11.73,8.44-12.82,1.44-.23,3.21.31,3.99-1.33,2.65-5.63,7.46-5.42,12.18-4.18,4.34,1.14,6.48,5.84,6.08,11.92Zm-13.55,10.37c.38-2.09,3.12-2.35,2.27-4.48-.18-.46-1.11-1.08-1.41-.95-2.37,1.01-2.09,3.66-2.91,6.09-3.86-3.4-7.62-6.04-5.45-11.63.58-1.49-.71-2.29-1.98-1.75-1.84.78-3.82,1.27-4.01,4.21-.54,8.64,6.98,16.39,15.58,15.64,6.55-.58,11.42-5.29,10.43-10.3-.51-2.59-2.21-4.45-4.97-4.61-3.3-.19-1.68,2.49-1.94,3.95-.59,3.28-2.45,4.42-5.62,3.83Zm-3.35-9.51c2.42-.06,4.75-.95,7.08.32,2.93,1.6,4.55.31,4.8-2.73.21-2.43.17-4.8-2.6-6.21-3.08-1.56-5.05-.16-7.35,2.04,2.42.44,5.11-.14,5.3,3.23-2.85.12-6.14-.66-7.23,3.36Z"/><path class="cls-1" d="m69.07,26.62c.04,6.4-7.28,12.53-13.73,11.43-4.25-.73-8.41-1.64-11.54-5.52-4.34-5.37-3.81-11.46,2.11-14.68,1.37-.75,1.97-1.63,2.49-3.15,1.28-3.74,4.08-5.92,8.23-5.47,3.85.42,6.98,2.1,7.47,6.38.49,4.35,6.19,6.35,4.97,11.01Zm-14.91-6.36c1.83-.75,3.17,1.14,4.91.92,2.09,5.5,1.54,7.14-2.6,7.74.07-1.35,1.69-2.38.87-3.88-.14-.26-.93-.47-1.18-.32-1.94,1.24-.54,3.42-1.35,5.05-3.51-1.11-6.68-2.54-6.72-7,0-.9-.41-1.95-1.32-1.41-.89.52-2.48.41-2.59,1.9-.08,1.14-.16,2.37.17,3.44,2.32,7.52,13.19,10.23,18.95,4.71,1.79-1.71,4.16-3.24,3.16-6.4-1.22-3.83-4.12-4.25-7.49-3.73,2.81-2.68,2.09-5.18-.63-7.24-2.65-2.01-4.53-.71-5.93,1.8,1.45.93,3.37-.46,4.7,1.17-.49,2.02-3.38.5-3.74,2.55-.32.45-.63.9-.95,1.35.83.45,1.42.26,1.76-.65Z"/><path class="cls-1" d="m115.02,120.93c0-12.13-1.89-17.92-6.26-24.68-7.33-11.35-21.14-11.87-30.08-3.24-10.87,10.48-15.19,30.54-7.68,46.97,6.84,14.95,23.85,17.19,33.79,5.9,7.28-8.27,10.05-17.89,10.23-24.95Z"/><path class="cls-1" d="m180.92,147.14c.23-2.81-.13-5.54-2.28-8.02-4.02-4.62-9.28-5.09-14.39-3.67-16.89,4.71-27.45,15.74-31.05,33.05-1.34,6.45,3.71,12.62,10.09,13.52,18.29,2.59,39.2-19.87,37.64-34.89Z"/><path class="cls-1" d="m177.24,91.06c-.14-.33-.23-.55-.32-.77-.29.2-.65.35-.84.62-.08.11.2.47.31.71.29-.19.58-.38.86-.57Z"/><path class="cls-1" d="m225.53,100.12c-.28.41-.54.61-.56.83-.06.76.41,1.23,1.1,1.4.18.04.66-.41.65-.43-.32-.54-.69-1.06-1.19-1.8Z"/><path class="cls-1" d="m214.8,114.2c-9.15,11.41-18.11,22.58-27.5,34.28"/><path class="cls-1" d="m115.02,120.93c-.19,7.06-2.95,16.67-10.23,24.95-9.94,11.29-26.95,9.05-33.79-5.9-7.51-16.42-3.19-36.49,7.68-46.97,8.95-8.63,22.75-8.11,30.08,3.24,4.37,6.76,6.26,12.55,6.26,24.68Z"/><path class="cls-1" d="m180.92,147.14c1.56,15.02-19.35,37.48-37.64,34.89-6.38-.9-11.43-7.07-10.09-13.52,3.6-17.31,14.16-28.34,31.05-33.05,5.11-1.42,10.37-.96,14.39,3.67,2.16,2.48,2.51,5.21,2.28,8.02Z"/><path class="cls-1" d="m153.01,54.46c-2.15-3.59-4.4-4.79-7.38-1.49-1.46,1.62-2.36.51-2.58-.92-.42-2.82.13-5.48,3.55-5.82,3-.3,6.59-.88,7.29,3.57.21,1.32.57,2.89-.89,4.66Z"/><path class="cls-1" d="m177.24,91.06c-.28.18-.57.37-.86.57-.11-.25-.39-.61-.31-.71.2-.27.55-.42.84-.62.09.22.18.44.32.77Z"/><path class="cls-1" d="m225.53,100.12c.51.74.87,1.26,1.19,1.8.01.02-.47.47-.65.43-.69-.17-1.16-.64-1.1-1.4.02-.22.28-.43.56-.83Z"/><path class="cls-1" d="m226.89,103c.27.25.54.5.81.75-.25.13-.49.26-.74.39-.02-.38-.05-.76-.07-1.14Z"/><path class="cls-1" d="m121.08,48.22c-.33.9-.93,1.09-1.76.65.32-.45.63-.9.95-1.35.27.24.54.47.81.71Z"/><path class="cls-1" d="m197.84,90.01c.04-2.31,1.44-2.41,2.89-1.46,1.16.76,2.6,1.75,2.1,3.53-.38,1.35-1.2,1.38-1.86.11-.51-.98-.74-2.29-2.35-1.45-.26-.24-.52-.49-.79-.73Z"/></svg>