<?xml version="1.0" encoding="UTF-8"?><svg id="Layer_1" xmlns="http://www.w3.org/2000/svg" xmlns:xlink="http://www.w3.org/1999/xlink" viewBox="0 0 119.68 203.37"><defs><style>.cls-1{fill:none;}.cls-2{clip-path:url(#clippath);}.cls-3{fill:#f4ad23;}.cls-4{fill:#f1dab4;}.cls-5{fill:#e4c59e;}.cls-6{fill:#f3dab4;}.cls-7{fill:#fff;}.cls-8{fill:#9a362e;}.cls-9{fill:#9a6443;}.cls-10{fill:#c3977d;}.cls-11{fill:#b48d76;}.cls-12{fill:#c1967d;}.cls-13{fill:#cba686;}.cls-14{fill:#c49d80;}.cls-15{fill:#c5997d;}.cls-16{fill:#e1bd9d;}.cls-17{fill:#d7ad88;}.cls-18{fill:#dbbb9a;}.cls-19{fill:#e1c7a3;}.cls-20{fill:#231c08;}.cls-21{fill:#362e2b;}.cls-22{fill:#3e3733;}.cls-23{fill:#899dab;}.cls-24{fill:#544d4c;}.cls-25{fill:#463216;}.cls-26{fill:#345877;}.cls-27{fill:#4c4543;}.cls-28{fill:#4f8ec7;}</style><clipPath id="clippath"><rect class="cls-1" x="43.77" y="130.02" width="32.39" height="19.73"/></clipPath></defs><path class="cls-8" d="m106.96,122.22c1.54,1.79,7.92,4.43,7.92,4.43,0,0-4.13-1.81-5.51-8.72-.52-2.52-.76-3.95-.81-4.96h-.5c1.71-2.51,3.02-5.18,3.87-7.97h0c.04-.14.08-.29.11-.44.32-1.12.58-2.25.75-3.41,2.2-13.03-1.83-29.1-3.82-35.83-.03-.09-.05-.18-.08-.27-.55-1.86-.93-2.94-.93-2.94.03.2.04.41.07.61-5.94-14.06-25.13-24.36-47.92-24.36-26.54,0-48.22,13.97-49.73,31.58-2,7.96-4.35,20.6-2.56,31.22.17,1.16.42,2.29.74,3.41.04.15.08.3.12.44h.01c.85,2.78,2.15,5.45,3.86,7.96h-.5c-.05,1.01-.3,2.44-.81,4.96-1.38,6.91-5.51,8.72-5.51,8.72,0,0,6.37-2.64,7.91-4.43.75-.87,2.72-3.24,3.32-3.99.02.02.04.03.06.05-.36.8-1.19,3.37-.02,8.32,1.54,6.48,7.86,10.84,7.86,10.84,0,0-3.79-5.15-2.74-10.79,0,0-.22,2.26,5.94,8.54,5.88,6.01,13.17,12.46,14.13,12.53-.08-.19,3.25-6.37,3.17-8.92,4.49,1.32,9.18,9.9,14.05,9.9.29,0,.58-.01.86-.02h0c.28,0,.57.02.86.02,4.87,0,9.55-8.57,14.05-9.9-.08,2.55,3.1,9.8,3.02,10,.95-.08,8.4-7.6,14.28-13.61,6.16-6.28,5.94-8.54,5.94-8.54,1.05,5.64-2.74,10.79-2.74,10.79,0,0,6.32-4.36,7.86-10.84,1.18-4.95.34-7.52-.01-8.32.02-.02.04-.03.06-.05.61.75,2.58,3.13,3.32,3.99Zm-77.85-19.91c.15,2.94.8,4.95,1.94,6.49l.06.06s.21.22.52.52c.29.29.75.68,1.39,1.06,0,0,.02,0,.03.02.63.36,1.44.73,2.45.99.8.26,1.89.31,3.25.25-.19,1.08-.3,2.22-.3,3.4,0,2.17.35,4.21.95,5.99-8.91-4.63-15.99-12.14-19.96-21.31-.29-.79-1.17-3.18-2.2-6.5-.61-1.95-1.26-4.22-1.9-6.67,5.56,7.66,15.33,13.68,27.28,16.7-.03.04-.05.07-.05.07-8.18,8.19-13.46-1.07-13.46-1.07Zm74.28-9.03c-1.03,3.32-1.9,5.71-2.19,6.5-3.97,9.17-11.05,16.68-19.96,21.31.59-1.79.95-3.82.95-5.99,0-.96-.09-1.88-.21-2.77.88-.11,1.73-.25,2.52-.47,1.26-.25,2.41-.71,3.4-1.42,2.04-1.47,3.4-4.03,3.62-8.12,0,0-5.26,9.26-13.46,1.07,0,0-.04-.05-.12-.15,12.26-3.16,22.18-9.49,27.58-17.51-.7,2.8-1.45,5.38-2.13,7.56Z"/><path class="cls-5" d="m59.71,115.98v87.38H1.43l-1.43-.46c0-6.12.61-11.51,1.66-16.24.89-3.87,2.06-7.34,3.44-10.39,3.09-6.8,7.21-11.67,11.45-15.17,1.41-1.15,2.82-2.15,4.22-3.01.25-.15.49-.31.74-.45,2.09-1.26,4.11-2.21,5.96-2.93,1.06-.43,2.07-.78,2.99-1.04.32-.11.61-.2.92-.28.35-.09.66-.18.98-.26.89-.21,1.61-.38,2.16-.46.74-.14,1.15-.17,1.15-.17.21,0,.41-.02.63-.05.12-.02.25-.03.37-.08,1.67-.35,3.02-1.6,4.16-3.53.89-1.52,1.64-3.48,2.23-5.74.25-.89.45-1.77.64-2.75.28-1.61.55-3.3.8-5.08.08-1.06.21-2.1.38-3.22.51-5.34.64-11.21.64-16.75,0,0,7.84.66,14.18.66Z"/><path class="cls-4" d="m119.68,202.91s-.51.15-1.38.46h-58.59v-87.38h.17c6.29,0,14.21-.66,14.21-.66,0,5.51.14,11.28.68,16.64.14,1.04.28,2.1.37,3.15.25,1.86.52,3.58.86,5.2v.03c.09.74.28,1.4.43,2.07.57,2.27,1.26,4.28,2.12,5.88,1.04,2,2.32,3.39,3.87,3.94.05.02.11.03.15.05.45.14.91.23,1.41.23,0,0,.28.03.77.11.8.12,2.19.38,3.96.91.28.08.55.17.86.26.15.05.31.09.48.15.41.14.83.29,1.26.45,2.03.75,4.36,1.8,6.8,3.24v.02c.15.08.32.18.48.28.98.6,1.96,1.26,2.98,2v.02c4.77,3.53,9.58,8.72,13.03,16.35,1.35,2.96,2.49,6.29,3.36,10.01,1.11,4.82,1.73,10.33,1.73,16.62Z"/><g class="cls-2"><path class="cls-14" d="m76.17,140.62v.05c-1.47,2.34-6.42,9.08-16.22,9.08h-.1c-9.28-.05-14.7-6.98-16.08-9.04.29-2.05.57-4.2.81-6.45.1-1.32.24-2.69.38-4.1,4.52,1.17,9.47,1.9,14.7,2h.19c5.42-.1,10.42-.88,15.08-2.15.14,1.32.29,2.69.38,4,.24,2.34.52,4.54.86,6.59"/></g><path class="cls-17" d="m60.18,22.76C13.46,22.76,13.21,61.93,15.29,87.58c-3.19-6.08-12.7-4.22-11.91,5.37.75,9.23,14.34,13.93,13.96,12.91,7.07,18.97,25.8,33.27,42.84,33.27h.36V22.76h-.36"/><path class="cls-11" d="m6.36,88.9c2.3-3.72,5.88-2.11,6.75-1.29.93.89,1.69,2.04,1.11,4.22-.32,1.25-1.61,1.36-1.33,3.22.36,2.11,1.33,2.22,1.9,2.72.54.47,1.22.82,1.54,1.72.36.89.39,1.82.22,2.65-.36,1.5-2.55.29-4.02-.36-.97-.46-4.05-3.08-4.84-3.93-1.94-2.22-2.87-6.51-1.33-8.94"/><path class="cls-16" d="m60.43,22.76c46.71,0,46.96,39.17,44.92,64.82,3.19-6.08,12.67-4.22,11.88,5.37-.72,9.23-14.33,13.94-13.96,12.91-6.89,18.97-25.8,33.27-42.84,33.27h-.25l-.11-116.37h.36"/><path class="cls-11" d="m114.24,88.9c-2.3-3.72-5.85-2.11-6.75-1.29-.93.89-1.65,2.04-1.11,4.22.32,1.25,1.61,1.36,1.33,3.22-.36,2.11-1.33,2.22-1.87,2.72-.54.47-1.26.82-1.58,1.72-.32.89-.39,1.82-.22,2.65.36,1.5,2.55.29,4.02-.36,1-.46,4.05-3.08,4.84-3.93,1.97-2.22,2.87-6.51,1.33-8.94"/><path class="cls-5" d="m59.81,33.81c-15.36,0-26.62,4.47-33.4,13.27-9.51,12.34-9.15,31.16-5.67,44.68,1.08,4.15,1.65,15.27,2.37,19.35,3.34,18.28,23.46,28.01,36.7,28.01h.36V33.81h-.22"/><path class="cls-4" d="m93.18,47.12c-6.75-8.76-17.87-13.24-33.01-13.31v105.31c15.14-.18,33.26-10.84,36.34-28.01.75-4.08,1.29-15.2,2.37-19.35,3.52-13.49,3.87-32.27-5.7-44.64"/><path class="cls-1" d="m58.29,116.62c-.21-.04-.41-.07-.58-.11.2.04.39.08.58.11Z"/><path class="cls-1" d="m57.5,120.41c-.13-.03-.26-.06-.35-.08.12.03.23.05.35.08Z"/><path class="cls-10" d="m57.72,120.46c-.07-.02-.15-.03-.22-.05.07.02.14.03.22.05Z"/><path class="cls-10" d="m57.15,120.33c-.07-.02-.13-.04-.2-.06h0s.08.02.2.06Z"/><path class="cls-16" d="m51.45,106.8c-.18-3.64,6.66-1.33,8.92-1.22,1.78.09,7.2-1.15,7.67-.83,3.19,2.16-3.38,6.5-7.78,6.5-1.17,0-8.7-2.26-8.81-4.46Z"/><path class="cls-1" d="m18.29,66.64c-.42,1.4-.71,2.92-.91,4.55,0,0,.61-2.56,1.97-6.36-.58.81-.97,1.46-1.07,1.82Z"/><path class="cls-25" d="m47.13,34.08l-.19.19.03.06c.06-.1.1-.19.16-.26Z"/><path class="cls-1" d="m58.44,118.43c-.22-.04-.42-.08-.59-.11.2.04.4.08.59.11Z"/><path class="cls-1" d="m57.62,118.27c-.14-.03-.27-.06-.36-.08.12.03.24.05.36.08Z"/><path class="cls-12" d="m57.84,118.32c-.08-.02-.15-.03-.23-.05.07.02.14.03.23.05Z"/><path class="cls-12" d="m57.26,118.19c-.07-.02-.13-.04-.2-.06h0s.08.02.21.06Z"/><path class="cls-7" d="m26.66,78.38s3.56,11.53,9.68,12.47c6.12.94,12.74-.93,12.74-.93,0,0,.63-13.55-2.5-15.32-3.13-1.78-10.35-4.35-19.92,3.78Z"/><path class="cls-18" d="m49.09,89.89s-.14.03-.45.14c-.08-4.16-.57-9.86-2.52-10.96-2.91-1.68-9.48-4.04-18.25,2.42-.8-1.79-1.2-3.14-1.2-3.14,9.59-8.14,16.82-5.58,19.92-3.8,3.14,1.78,2.5,15.34,2.5,15.34Z"/><path class="cls-28" d="m45.46,84.02c0,2.62-2.7,4.75-6.02,4.75s-6.02-2.13-6.02-4.75,2.7-4.75,6.02-4.75,6.02,2.13,6.02,4.75Z"/><path class="cls-26" d="m39.16,87.18c-1.74-.11-3.07-1.5-2.92-3.02.16-1.52,1.76-2.71,3.5-2.6,1.74.11,3.07,1.5,2.92,3.02-.16,1.52-1.76,2.71-3.5,2.6Z"/><path class="cls-20" d="m39.31,86.63c-1.21-.08-2.47-1.13-2.33-2.42.14-1.29,1.59-2.17,2.8-2.09,1.21.08,2.46,1.13,2.33,2.42-.13,1.29-1.59,2.16-2.8,2.08Z"/><path class="cls-7" d="m38.33,83.45c-.05.47-.66.81-1.35.76-.7-.05-1.22-.46-1.18-.93.05-.47.65-.81,1.35-.76.7.04,1.22.46,1.18.93Z"/><path class="cls-7" d="m42.24,86.14c-.03.23-.33.4-.68.38-.35-.02-.61-.23-.59-.46.03-.23.33-.4.68-.38.35.02.61.23.59.46Z"/><path class="cls-1" d="m58.53,120.16c-.22-.04-.42-.08-.59-.11.2.04.4.08.59.11Z"/><path class="cls-1" d="m57.71,120c-.14-.03-.27-.06-.36-.08.12.03.24.05.36.08Z"/><path class="cls-12" d="m57.94,120.05c-.08-.02-.15-.03-.23-.05.07.02.14.03.23.05Z"/><path class="cls-12" d="m57.36,119.92c-.07-.02-.13-.04-.2-.06h0s.08.02.21.06Z"/><path class="cls-1" d="m58.3,119.76c-.23-.04-.45-.08-.64-.12.22.05.42.09.64.12Z"/><path class="cls-1" d="m57.42,119.58c-.15-.03-.29-.07-.39-.09.13.03.25.06.39.09Z"/><path class="cls-10" d="m57.67,119.64c-.08-.02-.16-.03-.24-.05.08.02.15.03.24.05Z"/><path class="cls-10" d="m57.04,119.5c-.07-.02-.14-.04-.22-.06h0s.08.03.22.06Z"/><path class="cls-1" d="m58.12,119.14c-.23-.04-.45-.08-.64-.12.22.05.43.09.64.12Z"/><path class="cls-1" d="m57.24,118.97c-.15-.03-.29-.07-.38-.09.13.03.25.06.38.09Z"/><path class="cls-10" d="m57.49,119.02c-.08-.02-.16-.03-.24-.05.08.02.15.03.24.05Z"/><path class="cls-10" d="m56.86,118.88c-.07-.02-.14-.04-.22-.06h0s.08.03.22.06Z"/><path class="cls-1" d="m58.66,119.06c-.23-.04-.43-.08-.61-.12.21.04.41.09.61.12Z"/><path class="cls-1" d="m57.81,118.89c-.14-.03-.28-.06-.37-.09.12.03.25.06.37.09Z"/><path class="cls-10" d="m58.05,118.94c-.08-.02-.16-.03-.23-.05.08.02.14.03.23.05Z"/><path class="cls-10" d="m57.44,118.8c-.07-.02-.14-.04-.21-.06h0s.08.03.22.06Z"/><path class="cls-7" d="m94.04,77.99s-3.56,11.53-9.68,12.47c-6.12.94-12.74-.93-12.74-.93,0,0-.63-13.55,2.5-15.32,3.13-1.78,10.35-4.35,19.92,3.78Z"/><path class="cls-18" d="m71.61,89.49s.14.03.45.14c.08-4.16.57-9.86,2.52-10.96,2.91-1.68,9.48-4.04,18.25,2.42.8-1.79,1.2-3.14,1.2-3.14-9.59-8.14-16.82-5.58-19.92-3.8-3.14,1.78-2.5,15.34-2.5,15.34Z"/><path class="cls-28" d="m75.24,83.62c0,2.62,2.7,4.75,6.02,4.75s6.02-2.13,6.02-4.75-2.7-4.75-6.02-4.75-6.02,2.13-6.02,4.75Z"/><path class="cls-26" d="m81.54,86.79c1.74-.11,3.07-1.5,2.92-3.02-.16-1.52-1.76-2.71-3.5-2.6-1.74.11-3.07,1.5-2.92,3.02.16,1.52,1.76,2.71,3.5,2.6Z"/><path class="cls-20" d="m81.39,86.24c1.21-.08,2.47-1.13,2.33-2.42-.14-1.29-1.59-2.17-2.8-2.09-1.21.08-2.46,1.13-2.33,2.42.13,1.29,1.59,2.16,2.8,2.08Z"/><path class="cls-7" d="m82.37,83.05c.05.47.66.81,1.35.76.7-.05,1.22-.46,1.17-.93-.05-.47-.65-.81-1.35-.76-.7.04-1.23.46-1.18.93Z"/><path class="cls-7" d="m78.46,85.75c.03.23.33.4.68.38.35-.02.61-.23.59-.46-.03-.23-.33-.4-.68-.38-.35.02-.61.23-.59.46Z"/><path class="cls-9" d="m52.75,78.2c-.05-.06-1.16-1.39-3.43-2.76-1.42-.86-2.82-1.52-4.26-2-1.76-.58-3.65-.99-5.48-1.19-1.66-.15-3.5-.11-5.64.12-1.64.25-3.23.63-4.59,1.1-.97.26-1.73.63-2.34.93-.23.11-.45.22-.66.31l-2.92,1.45,3.37-.62c.16-.03.33-.07.51-.1.7-.15,1.56-.33,2.58-.44.24-.03.48-.07.73-.1.42-.07.86-.14,1.32-.15.51-.03,1.04-.06,1.58-.09l.71-.04c1.87-.02,3.44.09,4.84.35,1.53.21,3.1.6,4.54,1.12,1.36.51,2.67,1.02,3.69,1.61,2.06,1.08,3.2,1.99,3.21,1.99h0c.28.22.66.34,1.04.34.28,0,.55-.06.8-.19.68-.35.87-1.07.44-1.59l-.03-.03Z"/><path class="cls-9" d="m94.65,74.69c-.19-.08-.41-.18-.64-.3-.61-.3-1.38-.66-2.31-.92-1.38-.48-2.98-.86-4.64-1.11-2.13-.23-3.96-.26-5.63-.12-1.82.2-3.72.61-5.48,1.19-1.43.48-2.86,1.15-4.26,2-2.23,1.35-3.34,2.66-3.42,2.76l-.02.02c-.38.46-.3,1.07.19,1.45.28.22.64.34,1.04.34h0c.39,0,.76-.12,1.03-.34h.01c.11-.09,1.22-.95,3.21-2,1-.58,2.31-1.09,3.67-1.6,1.45-.53,3.02-.92,4.57-1.13,1.38-.25,2.96-.36,4.8-.34l.74.04c.54.03,1.06.06,1.58.09.45.02.89.09,1.31.15.25.04.49.08.73.1,1.02.12,1.88.3,2.58.44.18.04.35.07.51.11l3.37.62-2.95-1.46Z"/><path class="cls-1" d="m57.5,121.91c-.23-.04-.44-.08-.62-.12.21.05.41.09.62.12Z"/><path class="cls-1" d="m56.65,121.74c-.14-.03-.28-.06-.38-.09.13.03.25.06.38.09Z"/><path class="cls-15" d="m56.88,121.79c-.08-.02-.16-.03-.24-.05.08.02.15.03.24.05Z"/><path class="cls-15" d="m56.27,121.65c-.07-.02-.14-.04-.21-.06h0s.08.03.22.06Z"/><path class="cls-6" d="m51.54,124.81c-.18-2.36,6.55.49,8.75.56,1.76.06,7.05-.35,7.54-.54,3.7-1.39-.2,3.94-7.65,4.22-3.41.14-8.54-2.82-8.65-4.25Z"/><path class="cls-19" d="m73.42,120.27c-1.83-.09-3.7,1.44-5.89,1.2-.09-.04-.13-.04-.23-.04-.5-.09-1,0-1.55.13-.68.14-1.37.42-2.01.65-1.1.36-2.33.64-3.61.55h0s-.04,0-.07,0-.04,0-.07,0h0c-1.27.09-2.51-.2-3.61-.55-.64-.22-1.33-.5-2.01-.65-.55-.13-1.05-.22-1.55-.13-.09,0-.14,0-.23.04-2.2.23-4.07-1.29-5.89-1.2-.5.04-1.24-.09-1.65-.09.09.04.18.09.28.13,5.2,2.54,9.69,7.31,14.66,7.16h.14c4.97.15,9.46-4.61,14.66-7.16.09-.04.19-.09.28-.13-.41,0-1.14.13-1.65.09Z"/><path class="cls-13" d="m74.95,120.12h0s-5.29-2.04-9.05-.84c0,0-1.4.55-2.85.88-.88.34-1.95.45-2.99.4h0c-.79-.03-1.54-.13-2.16-.24-.21-.03-.41-.07-.62-.12-.09-.02-.16-.03-.24-.05-.13-.03-.25-.05-.38-.09-.14-.03-.22-.06-.22-.06h0c-1.2-.33-2.24-.73-2.24-.73-3.76-1.2-9.05.84-9.05.84h0c-.07.03-.12.06-.12.06.41,0,1.14.13,1.65.09,1.82-.09,3.7,1.44,5.89,1.2.09-.04.13-.04.23-.04.5-.09,1,0,1.55.13.68.14,1.37.42,2.01.65,1.1.36,2.33.64,3.61.55h0s.04,0,.07,0,.04,0,.07,0h0c1.27.09,2.51-.2,3.61-.55.64-.22,1.33-.5,2.01-.65.55-.13,1.05-.22,1.55-.13.09,0,.14,0,.23.04,2.2.23,4.07-1.29,5.89-1.2.5.04,1.24-.09,1.65-.09,0,0-.04-.02-.12-.06Z"/><path class="cls-13" d="m51.17,121.37c.1.02,9.91,3.02,17.59.07l-.88-.6h-10.38l-6.33.53Z"/><path class="cls-3" d="m105.74,203.37H13.62c2.79-10.64,5.99-22.64,7.15-44.77.25-.32.49-.63.74-.94,2.09-1.26,4.11-2.21,5.96-2.93,1.06-.43,2.07-.78,2.99-1.04.32-.11.61-.2.92-.28.35-.09.66-.18.98-.26.89-.21,1.61-.38,2.16-.46.74-.14,1.15-.17,1.15-.17.21,0,.41-.02.63-.05.12-.02.25-.03.37-.08,6.83,16.12,16.98,26.8,22.73,26.89h.02c.09,0,.18,0,.29-.03,5.88-.63,16.07-11.16,22.86-26.97.45.14.91.23,1.41.23,0,0,.28.03.77.11.8.12,2.19.38,3.96.91.28.08.55.17.86.26.15.05.31.09.48.15.41.14.83.29,1.26.45,2.03.75,4.36,1.8,6.8,3.24v.02c.17.2.32.38.48.58,1.15,22.41,4.34,34.44,7.17,45.14Z"/><path class="cls-23" d="m59.1,50.19l-45.06-.37c-8.95,4.31-10.82,10.35-10.82,10.35-1.36,3.64,25.87,9.22,25.87,9.22l30.01.92v-20.13Z"/><path class="cls-24" d="m59.1,69.22c-50.87-.54-55.88-9.05-55.88-9.05,2.83,11.31,39.54,12.5,55.88,12.47v-3.42Z"/><path class="cls-23" d="m59.1,50.19l45.06-.37c8.95,4.31,10.82,10.35,10.82,10.35,1.36,3.64-25.87,9.22-25.87,9.22l-30.01.92v-20.13Z"/><path class="cls-24" d="m59.1,69.22c50.87-.54,55.88-9.05,55.88-9.05-2.83,11.31-39.54,12.5-55.88,12.47v-3.42Z"/><path class="cls-22" d="m59.36,3.49l1.5-1.23s19.31-1.11,34.73,11.7c0,0,10.19,4.15,8.53,27.22l1.31,8.55c.37,2.43-1.44,4.73-4.29,5.42-2,.49-4.22.98-5.82,1.19L59.36,3.49Z"/><path class="cls-24" d="m101.57,54.72s-4.04-15.52-1.2-20.44c0,0,7.34-17.73-16.77-24.51l-24.25-6.28v54.8s35.18,0,42.22-3.57Z"/><path class="cls-22" d="m59.36,3.49l-1.5-1.23s-19.31-1.11-34.73,11.7c0,0-10.19,4.15-8.53,27.22l-1.31,8.55c-.37,2.43,1.44,4.73,4.29,5.42,2,.49,4.22.98,5.82,1.19L59.36,3.49Z"/><path class="cls-24" d="m59.36,3.5v54.8s-35.19,0-42.22-3.55c0,0,3.3-12.67,1.85-18.76-.15-.63-.37-1.22-.65-1.7,0,0-7.35-17.72,16.76-24.5l24.26-6.27Z"/><rect class="cls-27" x="58.09" y="3.49" width="1.27" height="17.88"/><path class="cls-27" d="m59.36,21.37v36.92s-35.19,0-42.22-3.55c0,0,3.3-12.67,1.85-18.76l.03-.13s27.69-14.9,39.69-14.47h.65Z"/><path class="cls-27" d="m58.72,21.37v36.92s35.71,0,42.85-3.55c0,0-3.35-12.67-1.88-18.76l-.03-.13s-28.1-14.9-40.28-14.47h-.66Z"/><path class="cls-21" d="m65.07,2.41c0,1.33-2.56,2.41-5.72,2.41s-5.72-1.08-5.72-2.41,2.56-2.41,5.72-2.41,5.72,1.08,5.72,2.41Z"/></svg>