<?xml version="1.0" encoding="UTF-8"?><svg id="Layer_1" xmlns="http://www.w3.org/2000/svg" xmlns:xlink="http://www.w3.org/1999/xlink" viewBox="0 0 124.56 205.33"><defs><style>.cls-1{fill:none;}.cls-2{clip-path:url(#clippath);}.cls-3{fill:#f1dab4;}.cls-4{fill:#e4c59e;}.cls-5{fill:#ef9200;}.cls-6{fill:#f3dab4;}.cls-7{fill:#fff;}.cls-8{fill:#7f401b;}.cls-9{fill:#664f83;}.cls-10{fill:#7f5e9c;}.cls-11{fill:#c3977d;}.cls-12{fill:#b48d76;}.cls-13{fill:#c1967d;}.cls-14{fill:#cba686;}.cls-15{fill:#c49d80;}.cls-16{fill:#c5997d;}.cls-17{fill:#e1bd9d;}.cls-18{fill:#e0bc9b;}.cls-19{fill:#d7ad88;}.cls-20{fill:#dbbb9a;}.cls-21{fill:#e1c7a3;}.cls-22{fill:#231c08;}.cls-23{fill:#443954;}.cls-24{fill:#544567;}.cls-25{fill:#463216;}.cls-26{fill:#2b1d42;}.cls-27{fill:#392852;}.cls-28{fill:#393b36;}.cls-29{fill:#4c2912;}.cls-30{fill:url(#Névtelen_színátmenet_12-2);}.cls-30,.cls-31{opacity:.53;}.cls-31{fill:url(#Névtelen_színátmenet_12);}.cls-32{fill:#b40653;opacity:.37;}</style><clipPath id="clippath"><rect class="cls-1" x="46.46" y="136.56" width="25.11" height="14.85"/></clipPath><linearGradient id="Névtelen_színátmenet_12" x1="31.28" y1="69.41" x2="32.27" y2="106.55" gradientUnits="userSpaceOnUse"><stop offset="0" stop-color="#fff"/><stop offset="1" stop-color="#dc3261"/></linearGradient><linearGradient id="Névtelen_színátmenet_12-2" x1="83.28" y1="68.02" x2="84.27" y2="105.16" xlink:href="#Névtelen_színátmenet_12"/></defs><path class="cls-5" d="m22.98,160.49s-4.75-1.85-10.17-7.45c-5.6-5.42-7.45-10.17-7.45-10.17,0,0,3.09-1.49,7.11-3.26l13.77,13.77c-1.77,4.02-3.26,7.11-3.26,7.11Z"/><path class="cls-28" d="m26.24,153.38l-13.77-13.77c2.79-1.23,6.02-2.58,8.99-3.67l8.46,8.46c-1.09,2.96-2.44,6.2-3.67,8.99Z"/><path class="cls-5" d="m94.7,160.49s4.75-1.85,10.17-7.45c5.6-5.42,7.45-10.17,7.45-10.17,0,0-3.09-1.49-7.11-3.26l-13.77,13.77c1.77,4.02,3.26,7.11,3.26,7.11Z"/><path class="cls-28" d="m91.44,153.38l13.77-13.77c-2.79-1.23-6.02-2.58-8.99-3.67l-8.46,8.46c1.09,2.96,2.44,6.2,3.67,8.99Z"/><path class="cls-5" d="m17.63,128.34c0,10.34,8.34,18.72,18.63,18.72h44.43c10.29,0,18.63-8.38,18.63-18.72,0-8.31-5.39-15.34-12.84-17.79-2.11-5.25-6.74-8.9-12.12-8.9h-31.78c-5.38,0-10.01,3.65-12.12,8.9-7.45,2.45-12.84,9.49-12.84,17.79Z"/><path class="cls-4" d="m12.51,204.89c0-10.73,1.57-19.09,3.96-25.61,5.77-15.74,16.32-20.74,21.18-22.24,1.59-.5,2.58-.61,2.58-.61.17,0,.33-.02.5-.04,1.43-.23,2.59-1.47,3.51-3.46.69-1.47,1.27-3.35,1.74-5.53.19-.85.33-1.7.48-2.63.22-1.55.44-3.18.63-4.88.07-1.04.18-2.03.29-3.11.4-5.14.52-10.77.52-16.1,0,0,6.08.63,11.02.63v84.02"/><path class="cls-3" d="m58.92,205.33v-84.02h.11c4.9,0,11.06-.63,11.06-.63,0,5.29.11,10.84.51,15.98.11,1,.22,2.03.29,3.03.19,1.78.41,3.44.67,4.99v.03c.07.71.22,1.33.33,2,.45,2.19.99,4.11,1.64,5.65.81,1.92,1.8,3.26,3.01,3.79.38.17.79.26,1.21.26,0,0,1.74.21,4.36,1.24,5.33,2.09,14.29,7.59,19.44,21.62,2.39,6.52,3.96,14.88,3.96,25.61"/><g class="cls-2"><path class="cls-15" d="m71.57,144.54v.04c-1.14,1.76-4.98,6.84-12.57,6.84h-.07c-7.19-.04-11.39-5.26-12.46-6.8.22-1.54.44-3.16.63-4.85.07-.99.18-2.02.3-3.09,3.5.88,7.34,1.43,11.39,1.51h.15c4.2-.07,8.07-.66,11.69-1.62.11.99.22,2.02.29,3.01.18,1.76.41,3.42.66,4.96"/></g><path class="cls-19" d="m58.4,25.56c-48,0-48.26,40.25-46.12,66.6-3.28-6.25-13.05-4.34-12.24,5.51.77,9.48,14.73,14.32,14.34,13.27,7.27,19.49,26.51,34.18,44.02,34.18h.37V25.56h-.37"/><path class="cls-12" d="m3.11,93.52c2.36-3.82,6.05-2.17,6.93-1.32.96.92,1.73,2.09,1.14,4.34-.33,1.29-1.66,1.4-1.36,3.31.37,2.17,1.36,2.28,1.95,2.79.55.48,1.25.85,1.59,1.76.37.92.41,1.87.22,2.72-.37,1.54-2.62.29-4.13-.37-1-.48-4.17-3.16-4.98-4.04-1.99-2.28-2.95-6.69-1.36-9.19"/><path class="cls-17" d="m58.66,25.56c48,0,48.26,40.25,46.15,66.6,3.28-6.25,13.01-4.34,12.2,5.51-.74,9.48-14.72,14.32-14.34,13.27-7.08,19.49-26.51,34.18-44.02,34.18h-.26l-.11-119.57h.37"/><path class="cls-12" d="m113.96,93.52c-2.36-3.82-6.01-2.17-6.93-1.32-.96.92-1.7,2.09-1.14,4.34.33,1.29,1.66,1.4,1.36,3.31-.37,2.17-1.36,2.28-1.92,2.79-.55.48-1.29.85-1.62,1.76-.33.92-.41,1.87-.22,2.72.37,1.54,2.62.29,4.13-.37,1.03-.48,4.17-3.16,4.98-4.04,2.03-2.28,2.95-6.69,1.36-9.19"/><path class="cls-4" d="m58.03,36.92c-15.78,0-27.35,4.59-34.32,13.64-9.77,12.68-9.4,32.01-5.82,45.91,1.11,4.26,1.7,15.69,2.43,19.88,3.43,18.78,24.11,28.78,37.71,28.78h.37V36.92h-.22"/><path class="cls-3" d="m92.31,50.59c-6.93-9.01-18.36-13.6-33.92-13.67v108.21c15.56-.18,34.17-11.14,37.34-28.78.77-4.19,1.33-15.62,2.43-19.88,3.61-13.86,3.98-33.15-5.86-45.87"/><path class="cls-1" d="m56.47,122c-.22-.04-.42-.08-.59-.11.2.04.4.08.59.11Z"/><path class="cls-1" d="m55.65,125.89c-.14-.03-.27-.06-.36-.08.12.03.24.05.36.08Z"/><path class="cls-11" d="m55.88,125.94c-.08-.02-.15-.03-.23-.05.07.02.14.03.23.05Z"/><path class="cls-11" d="m55.29,125.81c-.07-.02-.13-.04-.2-.06h0s.08.02.21.06Z"/><path class="cls-1" d="m15.37,70.64c-.43,1.43-.73,3-.93,4.67,0,0,.63-2.64,2.03-6.54-.6.83-1,1.5-1.1,1.87Z"/><path class="cls-25" d="m45,37.19l-.2.2.03.07c.07-.1.1-.2.17-.27Z"/><path class="cls-1" d="m56.62,123.86c-.22-.04-.43-.08-.61-.12.21.04.41.09.61.12Z"/><path class="cls-1" d="m55.78,123.7c-.14-.03-.28-.06-.37-.09.12.03.24.06.37.09Z"/><path class="cls-13" d="m56.01,123.75c-.08-.02-.15-.03-.23-.05.08.02.14.03.23.05Z"/><path class="cls-13" d="m55.41,123.61c-.07-.02-.14-.04-.21-.06h0s.08.02.21.06Z"/><path class="cls-18" d="m50.14,110c-.19-3.84,7.03-1.4,9.41-1.28,1.88.1,7.6-1.21,8.09-.87,3.37,2.28-3.57,6.86-8.21,6.86-1.24,0-9.18-2.39-9.29-4.71Z"/><path class="cls-7" d="m23.96,79.15s3.66,15.07,9.95,16.3c6.29,1.23,13.09-1.22,13.09-1.22,0,0,.65-17.71-2.57-20.02-3.22-2.32-10.63-5.68-20.47,4.94Z"/><path class="cls-20" d="m47.01,94.19s-.14.04-.47.18c-.08-5.43-.58-12.89-2.59-14.32-2.99-2.2-9.74-5.28-18.75,3.17-.82-2.33-1.23-4.1-1.23-4.1,9.86-10.64,17.28-7.29,20.47-4.96,3.22,2.32,2.57,20.05,2.57,20.05Z"/><ellipse class="cls-29" cx="37.1" cy="86.51" rx="6.19" ry="6.21"/><path class="cls-8" d="m36.81,90.65c-1.79-.15-3.16-1.96-3-3.95.16-1.99,1.81-3.54,3.6-3.39,1.79.15,3.16,1.95,3,3.94-.16,1.99-1.81,3.55-3.6,3.4Z"/><path class="cls-22" d="m36.97,89.93c-1.24-.11-2.53-1.48-2.4-3.16.14-1.69,1.63-2.83,2.88-2.73,1.24.11,2.53,1.48,2.39,3.17-.14,1.69-1.63,2.83-2.87,2.72Z"/><path class="cls-7" d="m35.96,85.77c-.05.61-.68,1.05-1.39,1-.72-.06-1.26-.61-1.21-1.21.05-.61.67-1.06,1.39-1,.72.06,1.26.6,1.21,1.21Z"/><path class="cls-7" d="m39.97,89.3c-.03.3-.34.53-.69.5-.36-.03-.63-.3-.61-.61.03-.3.34-.53.69-.5.36.03.63.3.61.61Z"/><path class="cls-1" d="m56.72,125.64c-.22-.04-.43-.08-.61-.12.21.04.41.09.61.12Z"/><path class="cls-1" d="m55.88,125.47c-.14-.03-.28-.06-.37-.09.12.03.24.06.37.09Z"/><path class="cls-13" d="m56.11,125.52c-.08-.02-.15-.03-.23-.05.08.02.14.03.23.05Z"/><path class="cls-13" d="m55.51,125.39c-.07-.02-.14-.04-.21-.06h0s.08.03.21.06Z"/><path class="cls-1" d="m56.48,125.22c-.24-.04-.46-.08-.65-.12.22.05.44.09.65.12Z"/><path class="cls-1" d="m55.58,125.05c-.15-.03-.3-.07-.4-.09.13.03.26.06.4.09Z"/><path class="cls-11" d="m55.83,125.1c-.08-.02-.17-.03-.25-.05.08.02.15.03.25.05Z"/><path class="cls-11" d="m55.18,124.95c-.08-.02-.15-.04-.22-.06h0s.09.03.23.06Z"/><path class="cls-1" d="m56.29,124.59c-.24-.04-.46-.08-.65-.12.22.05.44.09.65.12Z"/><path class="cls-1" d="m55.39,124.42c-.15-.03-.3-.07-.4-.09.13.03.26.06.4.09Z"/><path class="cls-11" d="m55.64,124.47c-.08-.02-.17-.03-.25-.05.08.02.15.03.25.05Z"/><path class="cls-11" d="m55,124.32c-.08-.02-.15-.04-.22-.06h0s.09.03.23.06Z"/><path class="cls-1" d="m56.85,124.5c-.23-.04-.44-.08-.63-.12.21.05.42.09.63.12Z"/><path class="cls-1" d="m55.98,124.33c-.14-.03-.29-.06-.38-.09.13.03.25.06.38.09Z"/><path class="cls-11" d="m56.22,124.38c-.08-.02-.16-.03-.24-.05.08.02.15.03.24.05Z"/><path class="cls-11" d="m55.59,124.24c-.07-.02-.14-.04-.21-.06h0s.08.03.22.06Z"/><path class="cls-7" d="m93.2,78.64s-3.66,15.07-9.95,16.3c-6.29,1.23-13.09-1.22-13.09-1.22,0,0-.65-17.71,2.57-20.02,3.22-2.32,10.63-5.68,20.47,4.94Z"/><path class="cls-20" d="m70.16,93.67s.14.04.47.18c.08-5.43.58-12.89,2.59-14.32,2.99-2.2,9.74-5.28,18.75,3.16.82-2.33,1.23-4.1,1.23-4.1-9.86-10.64-17.28-7.29-20.47-4.96-3.22,2.32-2.57,20.05-2.57,20.05Z"/><path class="cls-29" d="m73.88,86c0,3.43,2.77,6.21,6.19,6.21s6.19-2.78,6.19-6.21-2.77-6.21-6.19-6.21-6.19,2.78-6.19,6.21Z"/><path class="cls-8" d="m80.35,90.13c1.79-.15,3.16-1.96,3-3.95-.16-1.99-1.81-3.54-3.6-3.39-1.79.15-3.16,1.95-3,3.94.16,1.99,1.81,3.55,3.6,3.4Z"/><path class="cls-22" d="m80.2,89.42c1.24-.11,2.53-1.47,2.4-3.16-.14-1.69-1.63-2.83-2.88-2.73-1.24.11-2.53,1.48-2.39,3.17.14,1.69,1.63,2.83,2.87,2.72Z"/><path class="cls-7" d="m81.21,85.26c.05.61.68,1.05,1.39,1,.72-.06,1.26-.61,1.21-1.21-.05-.61-.67-1.06-1.39-1-.72.06-1.26.6-1.21,1.21Z"/><path class="cls-7" d="m77.2,88.78c.03.3.34.53.69.5.36-.03.63-.3.61-.61-.03-.3-.34-.53-.69-.5-.36.03-.63.3-.61.61Z"/><path d="m50.78,78.91c-.05-.07-1.19-1.81-3.52-3.61-1.46-1.12-2.89-1.98-4.38-2.62-1.81-.76-3.75-1.3-5.63-1.56-1.7-.19-3.59-.14-5.8.16-1.68.32-3.32.82-4.71,1.44-.99.34-1.78.82-2.41,1.21-.24.15-.46.28-.68.4l-3,1.89,3.46-.82c.16-.04.34-.09.52-.14.72-.19,1.61-.43,2.65-.58.24-.04.49-.09.75-.14.44-.09.89-.18,1.36-.2.52-.04,1.07-.07,1.63-.11l.73-.05c1.92-.02,3.54.12,4.97.45,1.57.27,3.19.78,4.67,1.47,1.4.67,2.74,1.34,3.79,2.11,2.11,1.42,3.29,2.6,3.3,2.61h0c.29.29.68.44,1.07.44.28,0,.57-.08.82-.25.7-.46.89-1.4.45-2.08l-.03-.05Z"/><path d="m93.82,74.32c-.2-.11-.42-.24-.66-.39-.63-.39-1.41-.87-2.38-1.2-1.42-.63-3.06-1.13-4.76-1.45-2.18-.29-4.07-.35-5.78-.15-1.87.26-3.82.8-5.63,1.56-1.46.63-2.94,1.51-4.38,2.62-2.29,1.76-3.43,3.47-3.51,3.6l-.02.03c-.39.6-.3,1.4.2,1.9.28.29.66.45,1.06.45h0c.4,0,.78-.16,1.06-.45h.01c.11-.12,1.25-1.24,3.3-2.62,1.03-.76,2.37-1.43,3.77-2.1,1.49-.69,3.1-1.2,4.7-1.48,1.42-.33,3.04-.47,4.93-.45l.76.05c.55.04,1.09.08,1.62.11.46.02.91.11,1.35.2.25.05.5.1.75.14,1.05.15,1.94.39,2.65.58.19.05.36.1.53.14l3.46.82-3.03-1.91Z"/><path class="cls-1" d="m55.66,127.43c-.23-.04-.45-.08-.64-.12.22.05.43.09.64.12Z"/><path class="cls-1" d="m54.78,127.26c-.15-.03-.29-.07-.39-.09.13.03.26.06.39.09Z"/><path class="cls-16" d="m55.02,127.31c-.08-.02-.16-.03-.24-.05.08.02.15.03.24.05Z"/><path class="cls-16" d="m54.39,127.17c-.07-.02-.14-.04-.22-.06h0s.08.03.22.06Z"/><path class="cls-6" d="m49.53,130.42c-.18-2.42,6.73.51,9,.58,1.81.06,7.25-.36,7.75-.55,3.8-1.43-.21,4.05-7.86,4.34-3.51.14-8.78-2.9-8.88-4.36Z"/><path class="cls-21" d="m72.02,125.75c-1.88-.09-3.8,1.48-6.06,1.24-.09-.05-.14-.05-.23-.05-.52-.09-1.03,0-1.6.14-.7.15-1.41.43-2.07.66-1.13.37-2.4.66-3.7.56h0s-.05,0-.07,0-.05,0-.07,0h0c-1.31.09-2.58-.2-3.7-.57-.66-.23-1.37-.52-2.07-.66-.56-.14-1.08-.23-1.6-.14-.1,0-.14,0-.23.05-2.26.24-4.18-1.33-6.06-1.24-.52.05-1.27-.09-1.69-.09.09.05.19.09.28.14,5.35,2.61,9.96,7.51,15.07,7.35h.15c5.11.16,9.72-4.74,15.07-7.35.1-.05.19-.09.28-.14-.42,0-1.17.14-1.69.09Z"/><path class="cls-14" d="m73.59,125.6h0s-5.44-2.1-9.3-.87c0,0-1.44.56-2.93.91-.91.35-2.01.46-3.07.41h0c-.81-.03-1.59-.14-2.22-.25-.21-.03-.42-.08-.64-.12-.09-.02-.16-.03-.24-.05-.13-.03-.26-.06-.39-.09-.14-.03-.22-.06-.22-.06h0c-1.24-.34-2.3-.75-2.3-.75-3.87-1.23-9.3.87-9.3.87h0c-.07.03-.12.06-.12.06.42,0,1.17.14,1.69.09,1.88-.09,3.8,1.48,6.06,1.24.09-.05.14-.05.23-.05.52-.09,1.03,0,1.6.14.7.15,1.41.43,2.07.66,1.13.37,2.4.66,3.7.56h0s.05,0,.07,0,.05,0,.07,0h0c1.31.09,2.58-.2,3.7-.57.66-.23,1.37-.52,2.07-.66.56-.14,1.08-.23,1.6-.14.1,0,.14,0,.23.05,2.26.24,4.18-1.33,6.06-1.24.52.05,1.27-.09,1.69-.09,0,0-.05-.02-.12-.06Z"/><path class="cls-14" d="m49.15,126.88c.1.02,10.19,3.11,18.08.07l-.91-.61h-10.66l-6.5.55Z"/><path class="cls-9" d="m30.7,177.82H14.63c1.64-4.56,3.28-8.07,3.28-8.07.64-.87,1.3-1.69,1.98-2.44l10.81,10.51Z"/><path class="cls-10" d="m19.45,205.33c.18-2.7.37-7.09.38-12.85h-8.52c-.05-4.24,1.64-9.99,3.32-14.66h16.07l28.27,27.51"/><path class="cls-26" d="m104.16,177.82h-20.86l-13.15-12.8c3.07-4.05,5.14-8.49,5.62-9.64.18-.51.35-.77.46-.83.23.29.48.57.72.8.03,0,.03.03.03.03.72.6,1.57.95,2.5.95,0,0,1.04.09,2.73.57.38.12.8.25,1.24.41,2.32.77,5.46,2.1,8.75,4.48.22.17.46.32.66.52,2.5,1.84,5.02,4.25,7.34,7.43,0,0,2.13,3.09,3.96,8.07Z"/><path class="cls-27" d="m106.7,192.48h-8.33l-15.06-14.66h20.86c1.43,3.91,2.67,8.99,2.53,14.66Z"/><path class="cls-23" d="m83.3,177.82H30.7l-10.81-10.51c1.73-2,3.51-3.62,5.3-4.94.05-.05.09-.09.14-.11.17-.17.37-.29.52-.4.58-.41,1.17-.8,1.73-1.17,2.58-1.64,5.02-2.69,6.92-3.35.45-.15.86-.29,1.24-.38,1.8-.51,2.9-.63,2.9-.63.94,0,1.77-.35,2.49-.95,0,0,0-.03.03-.03.23-.21.48-.49.71-.77t.03-.03c.06.03.12.11.2.25l.02.03c.08.14.15.32.23.55.94,2.26,7.94,17.04,16.72,17.02.2,0,.4-.02.6-.03,4.04-.31,7.67-3.67,10.48-7.35l13.15,12.8Z"/><path class="cls-24" d="m58.97,205.33l-28.27-27.51h52.6l15.06,14.66h-.09c.03,5.76.23,10.15.43,12.85"/><path class="cls-5" d="m99.1,31.86C86.98,22.98,70.8-1.1,59.77.04c-11.05-1.13-27.22,22.94-39.36,31.83C.62,46.38,5.22,89.43,5.22,89.43c0,0,3.18-.75,5.03,1.09,2.53,2.52,4.01,5.43,4.7,8.52.68,3.06,3.52,4.43,3.52,4.43,0,0-4.74-20.68.13-29.89,3.01-5.7,5.62-11.93,14.67-17.93,5.94-3.93,16.44,15.73,26.49,15.85,10.04-.13,20.53-19.79,26.46-15.85,9.06,6,11.68,12.23,14.68,17.93,4.87,9.21.13,29.89.13,29.89,0,0,2.84-1.37,3.53-4.43.69-3.09,2.17-6,4.7-8.52,1.85-1.83,5.03-1.09,5.03-1.09,0,0,4.6-43.05-15.2-57.57"/><path class="cls-32" d="m48.94,94.37c-.9,1.97-1.86,3.78-2.62,5.16-1.34,2.41-3.7,4.11-6.41,4.56-7.6,1.27-18.97-1.4-18.97-1.4-4.78-.99-7.02-5.16-8.04-8.32,4.81-2.46,20.75-9.21,36.04,0Z"/><path class="cls-31" d="m48.94,94.37c-15.29-9.21-31.22-2.46-36.04,0-.42-1.3-.64-2.43-.74-3.1-.06-.41-.13-.82-.22-1.23-1.69-7.69,1.4-9.27,2.21-9.55.34-.12.67-.28,1.01-.4,16.18-5.52,29.06-1.3,34.05-.35,1.63.31,2.62,2.04,2.72,3.7.18,3.06-1.32,7.27-3,10.93Z"/><path class="cls-32" d="m102.39,94.76c-1.08,3.1-3.32,6.98-7.91,7.93,0,0-11.36,2.68-18.96,1.4-2.72-.45-5.07-2.15-6.41-4.56-.82-1.48-1.85-3.44-2.81-5.56,15.99-9.13,32.5-1.16,36.09.8Z"/><path class="cls-30" d="m103.49,90.04c-.09.41-.16.82-.22,1.23-.12.73-.36,2.02-.87,3.49-3.59-1.96-20.1-9.92-36.09-.8-1.6-3.56-2.98-7.57-2.81-10.52.1-1.66,1.08-3.39,2.71-3.7,4.99-.96,17.87-5.17,34.05.35.34.12.67.28,1.02.4.82.28,3.9,1.86,2.21,9.55Z"/><path class="cls-7" d="m107.37,87.85l.02-4.94c0-.99-.51-1.91-1.36-2.43-3.48-2.11-14.17-7.47-25.36-5.91,0,0-12.21,1.65-17.5,3.69-.79.3-1.62.49-2.47.58l-2.99.33h0l-3-.33c-.84-.09-1.68-.28-2.47-.58-5.29-2.04-17.5-3.69-17.5-3.69-11.18-1.56-21.87,3.8-25.36,5.91-.85.52-1.36,1.43-1.36,2.43l.02,4.94c-.1.37.03.62.24.79,1.03.81,1.59,2.08,1.78,3.38.99,6.8,4.16,10.05,4.16,10.05,4.09,5.09,20.62,4.64,26.75,4.29,2.39-.14,4.66-1.16,6.31-2.9,3.74-3.93,5.88-10.44,6.57-12.84.28-.97.75-1.88,1.44-2.62.89-.97,1.7-1.23,2.18-1.29,0,0,.12-.02.33-.01.03,0,.07,0,.11.01.48.06,1.29.32,2.18,1.29.68.75,1.15,1.65,1.43,2.62.69,2.39,2.83,8.9,6.57,12.84,1.65,1.74,3.92,2.76,6.31,2.9,6.14.35,22.66.8,26.75-4.29,0,0,3.18-3.26,4.16-10.05.19-1.29.75-2.56,1.78-3.38.21-.17.33-.42.24-.79Zm-58.43,6.53c-.9,1.97-1.86,3.78-2.62,5.16-1.34,2.41-3.7,4.11-6.41,4.56-7.6,1.27-18.97-1.4-18.97-1.4-4.78-.99-7.02-5.16-8.04-8.32-.42-1.3-.64-2.43-.74-3.1-.06-.41-.13-.82-.22-1.23-1.69-7.69,1.4-9.27,2.21-9.55.34-.12.67-.28,1.01-.4,16.18-5.52,29.06-1.3,34.05-.35,1.63.31,2.62,2.04,2.72,3.7.18,3.06-1.32,7.27-3,10.93Zm54.55-4.33c-.09.41-.16.82-.22,1.23-.12.73-.36,2.02-.87,3.49-1.08,3.1-3.32,6.98-7.91,7.93,0,0-11.36,2.68-18.96,1.4-2.72-.45-5.07-2.15-6.41-4.56-.82-1.48-1.85-3.44-2.81-5.56-1.6-3.56-2.98-7.57-2.81-10.52.1-1.66,1.08-3.39,2.71-3.7,4.99-.96,17.87-5.17,34.05.35.34.12.67.28,1.02.4.82.28,3.9,1.86,2.21,9.55Z"/><path class="cls-1" d="m50.21,95.17c-.42-.28-.85-.54-1.27-.8"/><path class="cls-1" d="m12.9,94.37c-.94.48-1.46.8-1.46.8"/><path class="cls-1" d="m66.3,93.97c-.65.37-1.3.77-1.95,1.2"/></svg>