<?xml version="1.0" encoding="UTF-8"?><svg id="Layer_1" xmlns="http://www.w3.org/2000/svg" xmlns:xlink="http://www.w3.org/1999/xlink" viewBox="0 0 129.84 203.66"><defs><style>.cls-1{fill:none;}.cls-2{clip-path:url(#clippath);}.cls-3{fill:#f4b335;}.cls-4{fill:#f1dab4;}.cls-5{fill:#e4c59e;}.cls-6{fill:#f3dab4;}.cls-7{fill:#fff;}.cls-8{fill:#7f401b;}.cls-9{fill:#c3977d;}.cls-10{fill:#b48d76;}.cls-11{fill:#ad0d3a;}.cls-12{fill:#c1967d;}.cls-13{fill:#cba686;}.cls-14{fill:#c49d80;}.cls-15{fill:#c5997d;}.cls-16{fill:#e1bd9d;}.cls-17{fill:#d7ad88;}.cls-18{fill:#dbbb9a;}.cls-19{fill:#e1c7a3;}.cls-20{fill:#ca0240;}.cls-21{fill:#231c08;}.cls-22{fill:#463216;}.cls-23{fill:#4c2912;}</style><clipPath id="clippath"><rect class="cls-1" x="46.46" y="134.89" width="25.1" height="14.85"/></clipPath></defs><path class="cls-5" d="m58.77,119.64v84.02H13.47c-.74-.29-1.11-.45-1.11-.45,0-5.89.48-11.07,1.29-15.61.69-3.73,1.6-7.06,2.67-9.99,5.46-14.97,15.27-20.22,20.42-22,.28-.09.52-.17.77-.25,1.6-.51,2.58-.61,2.58-.61.17,0,.32-.02.49-.05,1.43-.23,2.58-1.47,3.52-3.45.69-1.47,1.27-3.36,1.73-5.53.18-.86.34-1.7.49-2.64.21-1.55.43-3.18.63-4.88.06-1.03.17-2.03.29-3.1.4-5.14.51-10.78.51-16.1,0,0,6.09.63,11.02.63Z"/><path class="cls-4" d="m105.37,203.21s-.4.15-1.07.45h-45.53v-84.02h.12c4.9,0,11.05-.63,11.05-.63,0,5.3.11,10.84.52,15.99.11,1,.21,2.03.29,3.02.18,1.78.4,3.44.66,5v.03c.08.71.21,1.34.34,2,.45,2.18.98,4.11,1.64,5.65.81,1.92,1.81,3.25,3.01,3.79.38.17.78.26,1.21.26,0,0,1.73.2,4.34,1.23.12.05.25.09.37.15,5.37,2.21,14.06,7.77,19.08,21.47,1.04,2.84,1.93,6.05,2.61,9.62.86,4.64,1.35,9.93,1.35,15.98Z"/><g class="cls-2"><path class="cls-14" d="m71.57,142.87v.04c-1.14,1.76-4.98,6.84-12.57,6.84h-.07c-7.19-.04-11.39-5.26-12.46-6.8.22-1.54.44-3.16.63-4.85.07-.99.18-2.02.29-3.09,3.5.88,7.34,1.43,11.39,1.51h.15c4.2-.07,8.07-.66,11.69-1.62.11.99.22,2.02.29,3.01.18,1.76.41,3.42.66,4.96"/></g><path class="cls-17" d="m58.4,23.89c-48,0-48.26,40.25-46.12,66.6-3.28-6.25-13.05-4.34-12.24,5.51.77,9.48,14.73,14.32,14.34,13.27,7.27,19.49,26.51,34.18,44.02,34.18h.37V23.89h-.37"/><path class="cls-10" d="m3.11,91.85c2.36-3.82,6.05-2.17,6.93-1.32.96.92,1.73,2.1,1.14,4.34-.33,1.29-1.66,1.4-1.36,3.31.37,2.17,1.36,2.28,1.95,2.79.55.48,1.25.85,1.59,1.76.37.92.41,1.87.22,2.72-.37,1.54-2.62.29-4.13-.37-1-.48-4.17-3.16-4.98-4.04-1.99-2.28-2.95-6.69-1.36-9.19"/><path class="cls-16" d="m58.66,23.89c48,0,48.26,40.25,46.15,66.6,3.28-6.25,13.01-4.34,12.2,5.51-.74,9.48-14.72,14.32-14.34,13.27-7.08,19.49-26.51,34.18-44.02,34.18h-.26l-.11-119.57h.37"/><path class="cls-10" d="m113.96,91.85c-2.36-3.82-6.01-2.17-6.93-1.32-.96.92-1.7,2.1-1.14,4.34.33,1.29,1.66,1.4,1.36,3.31-.37,2.17-1.36,2.28-1.92,2.79-.55.48-1.29.85-1.62,1.76-.33.92-.41,1.87-.22,2.72.37,1.54,2.62.29,4.13-.37,1.03-.48,4.17-3.16,4.98-4.04,2.03-2.28,2.95-6.69,1.36-9.19"/><path class="cls-5" d="m58.03,35.25c-15.78,0-27.35,4.59-34.32,13.64-9.77,12.68-9.4,32.01-5.82,45.91,1.11,4.26,1.7,15.69,2.43,19.88,3.43,18.78,24.11,28.78,37.71,28.78h.37V35.25h-.22"/><path class="cls-4" d="m92.31,48.92c-6.93-9.01-18.36-13.6-33.92-13.67v108.21c15.56-.18,34.17-11.14,37.34-28.78.77-4.19,1.33-15.62,2.43-19.88,3.61-13.86,3.98-33.15-5.86-45.87"/><path class="cls-1" d="m56.47,120.33c-.22-.04-.42-.08-.59-.11.2.04.4.08.59.11Z"/><path class="cls-1" d="m55.65,124.22c-.14-.03-.27-.06-.36-.08.12.03.24.05.36.08Z"/><path class="cls-9" d="m55.88,124.27c-.08-.02-.15-.03-.23-.05.07.02.14.03.23.05Z"/><path class="cls-9" d="m55.29,124.14c-.07-.02-.13-.04-.2-.06h0s.08.02.21.06Z"/><path class="cls-16" d="m49.44,111.95c-.18-3.74,6.85-1.37,9.16-1.25,1.83.09,7.4-1.18,7.88-.85,3.28,2.22-3.47,6.68-8,6.68-1.21,0-8.94-2.33-9.05-4.58Z"/><path class="cls-1" d="m15.37,68.97c-.43,1.43-.73,3-.93,4.67,0,0,.63-2.64,2.03-6.54-.6.83-1,1.5-1.1,1.87Z"/><path class="cls-22" d="m45,35.52l-.2.2.03.07c.07-.1.1-.2.17-.27Z"/><path class="cls-1" d="m56.62,122.19c-.22-.04-.43-.08-.61-.12.21.04.41.09.61.12Z"/><path class="cls-1" d="m55.78,122.03c-.14-.03-.28-.06-.37-.09.12.03.24.06.37.09Z"/><path class="cls-12" d="m56.01,122.08c-.08-.02-.15-.03-.23-.05.08.02.14.03.23.05Z"/><path class="cls-12" d="m55.41,121.94c-.07-.02-.14-.04-.21-.06h0s.08.03.21.06Z"/><path class="cls-7" d="m23.96,77.48s3.66,15.07,9.95,16.3c6.29,1.23,13.09-1.22,13.09-1.22,0,0,.65-17.71-2.57-20.02-3.22-2.32-10.63-5.68-20.47,4.94Z"/><path class="cls-18" d="m47.01,92.52s-.14.04-.47.18c-.08-5.43-.58-12.89-2.59-14.32-2.99-2.2-9.74-5.28-18.75,3.17-.82-2.33-1.23-4.1-1.23-4.1,9.86-10.64,17.28-7.29,20.47-4.96,3.22,2.32,2.57,20.05,2.57,20.05Z"/><ellipse class="cls-23" cx="37.1" cy="84.84" rx="6.19" ry="6.21"/><path class="cls-8" d="m36.81,88.98c-1.79-.15-3.16-1.96-3-3.95.16-1.99,1.81-3.54,3.6-3.39,1.79.15,3.16,1.95,3,3.94-.16,1.99-1.81,3.55-3.6,3.4Z"/><path class="cls-21" d="m36.97,88.26c-1.24-.11-2.53-1.47-2.4-3.16.14-1.69,1.63-2.83,2.88-2.73,1.24.11,2.53,1.48,2.39,3.17-.14,1.69-1.63,2.83-2.87,2.72Z"/><path class="cls-7" d="m35.96,84.1c-.05.61-.68,1.05-1.39,1-.72-.06-1.26-.61-1.21-1.21.05-.61.67-1.06,1.39-1,.72.06,1.26.6,1.21,1.21Z"/><path class="cls-7" d="m39.97,87.63c-.03.3-.34.53-.69.5-.36-.03-.63-.3-.61-.61.03-.3.34-.53.69-.5.36.03.63.3.61.61Z"/><path class="cls-1" d="m56.72,123.97c-.22-.04-.43-.08-.61-.12.21.04.41.09.61.12Z"/><path class="cls-1" d="m55.88,123.8c-.14-.03-.28-.06-.37-.09.12.03.24.06.37.09Z"/><path class="cls-12" d="m56.11,123.85c-.08-.02-.15-.03-.23-.05.08.02.14.03.23.05Z"/><path class="cls-12" d="m55.51,123.72c-.07-.02-.14-.04-.21-.06h0s.08.03.21.06Z"/><path class="cls-1" d="m56.48,123.55c-.24-.04-.46-.08-.65-.12.22.05.44.09.65.12Z"/><path class="cls-1" d="m55.58,123.38c-.15-.03-.3-.07-.4-.09.13.03.26.06.4.09Z"/><path class="cls-9" d="m55.83,123.43c-.08-.02-.17-.03-.25-.05.08.02.15.03.25.05Z"/><path class="cls-9" d="m55.18,123.28c-.08-.02-.15-.04-.22-.06h0s.09.03.23.06Z"/><path class="cls-1" d="m56.29,122.92c-.24-.04-.46-.08-.65-.12.22.05.44.09.65.12Z"/><path class="cls-1" d="m55.39,122.75c-.15-.03-.3-.07-.4-.09.13.03.26.06.4.09Z"/><path class="cls-9" d="m55.64,122.8c-.08-.02-.17-.03-.25-.05.08.02.15.03.25.05Z"/><path class="cls-9" d="m55,122.65c-.08-.02-.15-.04-.22-.06h0s.09.03.23.06Z"/><path class="cls-1" d="m56.85,122.83c-.23-.04-.44-.08-.63-.12.21.05.42.09.63.12Z"/><path class="cls-1" d="m55.98,122.66c-.14-.03-.29-.06-.38-.09.13.03.25.06.38.09Z"/><path class="cls-9" d="m56.22,122.71c-.08-.02-.16-.03-.24-.05.08.02.15.03.24.05Z"/><path class="cls-9" d="m55.59,122.57c-.07-.02-.14-.04-.21-.06h0s.08.03.22.06Z"/><path class="cls-7" d="m93.2,76.97s-3.66,15.07-9.95,16.3c-6.29,1.23-13.09-1.22-13.09-1.22,0,0-.65-17.71,2.57-20.02,3.22-2.32,10.63-5.68,20.47,4.94Z"/><path class="cls-18" d="m70.16,92s.14.04.47.18c.08-5.43.58-12.89,2.59-14.32,2.99-2.2,9.74-5.28,18.75,3.17.82-2.33,1.23-4.1,1.23-4.1-9.86-10.64-17.28-7.29-20.47-4.96-3.22,2.32-2.57,20.05-2.57,20.05Z"/><path class="cls-23" d="m73.88,84.33c0,3.43,2.77,6.21,6.19,6.21s6.19-2.78,6.19-6.21-2.77-6.21-6.19-6.21-6.19,2.78-6.19,6.21Z"/><path class="cls-8" d="m80.35,88.46c1.79-.15,3.16-1.96,3-3.95-.16-1.99-1.81-3.54-3.6-3.39-1.79.15-3.16,1.95-3,3.94.16,1.99,1.81,3.55,3.6,3.4Z"/><path class="cls-21" d="m80.2,87.75c1.24-.11,2.53-1.47,2.4-3.16-.14-1.69-1.63-2.83-2.88-2.73-1.24.11-2.53,1.48-2.39,3.17.14,1.69,1.63,2.83,2.87,2.72Z"/><path class="cls-7" d="m81.21,83.59c.05.61.68,1.05,1.39,1,.72-.06,1.26-.61,1.21-1.21-.05-.61-.67-1.06-1.39-1-.72.06-1.26.6-1.21,1.21Z"/><path class="cls-7" d="m77.2,87.11c.03.3.34.53.69.5.36-.03.63-.3.61-.61-.03-.3-.34-.53-.69-.5-.36.03-.63.3-.61.61Z"/><path d="m50.78,77.24c-.05-.07-1.19-1.81-3.52-3.61-1.46-1.12-2.89-1.98-4.38-2.62-1.81-.76-3.75-1.3-5.63-1.56-1.7-.19-3.59-.14-5.79.16-1.68.32-3.32.82-4.71,1.44-.99.34-1.78.82-2.41,1.21-.24.15-.46.28-.68.4l-3,1.89,3.46-.82c.16-.04.34-.09.52-.14.72-.19,1.61-.43,2.65-.58.24-.04.49-.09.75-.14.44-.09.89-.18,1.36-.2.52-.04,1.07-.07,1.63-.11l.73-.05c1.92-.02,3.54.12,4.97.45,1.57.27,3.19.78,4.67,1.47,1.4.67,2.74,1.34,3.79,2.11,2.11,1.42,3.29,2.6,3.3,2.61h0c.29.29.68.44,1.07.44.28,0,.57-.08.82-.25.7-.46.89-1.4.45-2.08l-.03-.05Z"/><path d="m93.82,72.65c-.2-.11-.42-.24-.66-.39-.63-.39-1.41-.87-2.38-1.2-1.42-.63-3.06-1.13-4.76-1.45-2.18-.29-4.07-.35-5.78-.15-1.87.26-3.82.8-5.63,1.56-1.46.63-2.94,1.51-4.38,2.62-2.29,1.76-3.43,3.47-3.51,3.6l-.02.03c-.39.6-.3,1.4.2,1.9.28.29.66.45,1.07.45h0c.4,0,.78-.16,1.06-.45h.01c.11-.12,1.25-1.24,3.3-2.62,1.03-.76,2.37-1.43,3.77-2.1,1.49-.69,3.1-1.2,4.7-1.48,1.42-.33,3.04-.47,4.93-.45l.76.05c.55.04,1.09.08,1.62.11.46.02.91.11,1.35.2.25.05.5.1.75.14,1.05.15,1.94.39,2.65.58.19.05.36.1.53.14l3.46.82-3.03-1.91Z"/><path class="cls-1" d="m55.66,125.76c-.23-.04-.45-.08-.64-.12.22.05.43.09.64.12Z"/><path class="cls-1" d="m54.78,125.59c-.15-.03-.29-.07-.39-.09.13.03.26.06.39.09Z"/><path class="cls-15" d="m55.02,125.64c-.08-.02-.16-.03-.24-.05.08.02.15.03.24.05Z"/><path class="cls-15" d="m54.39,125.5c-.07-.02-.14-.04-.22-.06h0s.08.03.22.06Z"/><path class="cls-6" d="m49.53,128.75c-.18-2.42,6.73.51,9,.58,1.81.06,7.25-.36,7.75-.55,3.8-1.43-.21,4.05-7.86,4.34-3.51.14-8.78-2.9-8.88-4.36Z"/><path class="cls-19" d="m72.02,124.08c-1.88-.09-3.8,1.48-6.06,1.24-.09-.05-.14-.05-.23-.05-.52-.09-1.03,0-1.6.14-.7.15-1.41.43-2.07.66-1.13.37-2.4.66-3.7.56h0s-.05,0-.07,0-.05,0-.07,0h0c-1.31.09-2.58-.2-3.7-.57-.66-.23-1.37-.52-2.07-.66-.56-.14-1.08-.23-1.6-.14-.1,0-.14,0-.23.05-2.26.24-4.18-1.33-6.06-1.24-.52.05-1.27-.09-1.69-.09.09.05.19.09.28.14,5.35,2.61,9.96,7.51,15.07,7.35h.15c5.11.16,9.72-4.74,15.07-7.35.1-.05.19-.09.28-.14-.42,0-1.17.14-1.69.09Z"/><path class="cls-13" d="m73.59,123.93h0s-5.44-2.1-9.3-.87c0,0-1.44.56-2.93.91-.91.35-2.01.46-3.07.41h0c-.81-.03-1.59-.14-2.22-.25-.21-.03-.42-.08-.64-.12-.09-.02-.16-.03-.24-.05-.13-.03-.26-.06-.39-.09-.14-.03-.22-.06-.22-.06h0c-1.24-.34-2.3-.75-2.3-.75-3.87-1.23-9.3.87-9.3.87h0c-.07.03-.12.06-.12.06.42,0,1.17.14,1.69.09,1.88-.09,3.8,1.48,6.06,1.24.09-.05.14-.05.23-.05.52-.09,1.03,0,1.6.14.7.15,1.41.43,2.07.66,1.13.37,2.4.66,3.7.56h0s.05,0,.07,0,.05,0,.07,0h0c1.31.09,2.58-.2,3.7-.57.66-.23,1.37-.52,2.07-.66.56-.14,1.08-.23,1.6-.14.1,0,.14,0,.23.05,2.26.24,4.18-1.33,6.06-1.24.52.05,1.27-.09,1.69-.09,0,0-.05-.02-.12-.06Z"/><path class="cls-13" d="m49.15,125.21c.1.03,10.19,3.11,18.08.07l-.91-.61h-10.66l-6.5.55Z"/><path class="cls-20" d="m58.71,192.03v11.62H24.36v-13.51s-5.02-1.2-10.7-2.55c.69-3.73,1.6-7.06,2.67-9.99,3.52-9.64,8.84-15.24,13.55-18.5l28.66,33.09.17-.17Z"/><path class="cls-11" d="m104.02,187.23c-6.26,1.49-12.23,2.92-12.23,2.92v13.51h-33.08v-11.62l30.74-31.71c4.28,3.38,8.83,8.75,11.96,17.28,1.04,2.84,1.93,6.05,2.61,9.62Z"/><path class="cls-3" d="m29.88,159.11s24.63,36.87,59.57,1.21l-31.06,34.43-28.51-35.65Z"/><path d="m129.84,32.63c-.17.43-.5.84-.96,1.24.63-.75.96-1.24.96-1.24-1.03.67-2.01,1.23-2.97,1.74-18,9.58-23.01-7.25-23.01-7.25,1.88-15.86,21.2-15.64,21.2-15.64,0,0-16.43-7.93-22.75,7.62-.85-8.37,3.7-16.5,3.7-16.5-7.33,1.56-10.41,7.49-11.7,12.55-4.53-8.69.16-15.15.16-15.15l-25.14,9.99c3.26-2.59,8.36-7.39,8.36-7.39,0,0-7.8.8-19.85,4.21-8.47,2.4-13.54,6.66-16.38,8.62l-.07-7.08s-12.31,8.46-23.97,19.58C5.75,39.04,1.28,49.48,1.28,61.23s5.23,23.51,8.66,27.01c3.42,3.5,2.33,8.56,3.35,8.56,0,0,2.47.09,2.1-11.49,1.35-13.15,7.41-18.4,10.8-20.33,5.96-3.14,14.94-3.71,28.38,3.1v-.02c8.29,4.83,11.63-1.58,23.34-4.81,19.98-5.51,28.27,8.95,26.59,16.4-2.58,11.49,1.01,18.1,2.38,17.79,0,0,.06-2.92,1.3-5.51,3.69-7.75,6.78-2.36,7.36-12.86.67-12.29,2.82-16.79,2.13-23.35-.39-3.71-1.72-8.13-2.78-11.22,13.42-.22,14.97-11.88,14.97-11.88Z"/><path d="m73.81,116.94c-3.94-1.23-10.68-1.57-15.09-1.65h0s-.82-.03-2.16-.03c-1.33,0-2.16.02-2.16.02h0c-4.41.09-11.15.43-15.09,1.66-6.21,1.95-8.14,9.59-15.33,15.46,0,0,9.9-.79,15.73-3.11,5.83-2.33,6.56-4.21,14.82-6.7.81-.24,1.47-.52,2.05-.82.57.3,1.24.58,2.05.82,8.26,2.5,8.99,4.38,14.82,6.7,5.83,2.33,15.73,3.11,15.73,3.11-7.19-5.87-9.11-13.51-15.33-15.46Z"/></svg>