<?xml version="1.0" encoding="UTF-8"?><svg id="Layer_1" xmlns="http://www.w3.org/2000/svg" xmlns:xlink="http://www.w3.org/1999/xlink" viewBox="0 0 121.79 193.29"><defs><style>.cls-1{fill:none;}.cls-2{clip-path:url(#clippath);}.cls-3{fill:#f1dab4;}.cls-4{fill:#e4c59e;}.cls-5{fill:#f3dab4;}.cls-6{fill:#fff;}.cls-7{fill:#7f401b;}.cls-8{fill:#c3977d;}.cls-9{fill:#c36b70;}.cls-10{fill:#b48d76;}.cls-11{fill:#c1967d;}.cls-12{fill:#c75d51;}.cls-13{fill:#c49d80;}.cls-14{fill:#c5997d;}.cls-15{fill:#e1bd9d;}.cls-16{fill:#e0bc9b;}.cls-17{fill:#d7ad88;}.cls-18{fill:#dbbb9a;}.cls-19{fill:#d77a77;}.cls-20{fill:#231c08;}.cls-21{fill:#6e5488;}.cls-22{fill:#463216;}.cls-23{fill:#9a78af;}.cls-24{fill:#4c2912;}.cls-25{fill:url(#Névtelen_színátmenet_7);}.cls-25,.cls-26,.cls-27{opacity:.54;}.cls-26{fill:url(#Névtelen_színátmenet_7-2);}.cls-27{fill:#98d1e7;}</style><clipPath id="clippath"><rect class="cls-1" x="51.18" y="124.73" width="25.11" height="14.8"/></clipPath><linearGradient id="Névtelen_színátmenet_7" x1="39.29" y1="100.87" x2="36.97" y2="40.48" gradientUnits="userSpaceOnUse"><stop offset="0" stop-color="#fff"/><stop offset="1" stop-color="#53addc"/></linearGradient><linearGradient id="Névtelen_színátmenet_7-2" x1="87.37" y1="99.02" x2="85.05" y2="38.63" xlink:href="#Névtelen_színátmenet_7"/></defs><path class="cls-4" d="m17.23,192.85c0-10.69,1.57-19.03,3.96-25.53,5.77-15.69,16.32-20.67,21.18-22.17,1.59-.49,2.58-.61,2.58-.61.17,0,.33-.02.5-.04,1.43-.23,2.58-1.47,3.51-3.45.69-1.47,1.27-3.34,1.74-5.51.19-.85.33-1.7.48-2.62.22-1.55.44-3.17.63-4.87.07-1.03.18-2.03.29-3.1.4-5.12.52-10.73.52-16.05,0,0,6.08.63,11.02.63v83.76"/><path class="cls-3" d="m63.64,193.29v-83.76h.11c4.9,0,11.06-.63,11.06-.63,0,5.27.11,10.81.51,15.93.11,1,.22,2.03.29,3.02.19,1.77.41,3.43.67,4.98v.03c.07.7.22,1.33.33,1.99.45,2.18.99,4.1,1.64,5.63.81,1.91,1.8,3.25,3.01,3.77.38.17.79.26,1.21.26,0,0,1.74.21,4.36,1.24,5.33,2.09,14.29,7.57,19.44,21.55,2.39,6.5,3.96,14.84,3.96,25.53"/><g class="cls-2"><path class="cls-13" d="m76.29,132.69v.04c-1.14,1.76-4.98,6.82-12.57,6.82h-.07c-7.19-.04-11.39-5.24-12.46-6.78.22-1.54.44-3.15.63-4.84.07-.99.18-2.02.29-3.08,3.5.88,7.34,1.43,11.39,1.5h.15c4.2-.07,8.07-.66,11.69-1.61.11.99.22,2.02.3,3,.18,1.76.41,3.41.66,4.95"/></g><path class="cls-17" d="m63.12,14.08C15.13,14.08,14.87,54.2,17.01,80.47c-3.28-6.23-13.05-4.32-12.24,5.5.77,9.45,14.73,14.27,14.34,13.23,7.27,19.43,26.51,34.08,44.02,34.08h.37V14.08h-.37"/><path class="cls-10" d="m7.83,81.83c2.36-3.81,6.05-2.16,6.93-1.32.96.92,1.73,2.09,1.14,4.32-.33,1.28-1.66,1.39-1.36,3.3.37,2.16,1.36,2.27,1.95,2.78.55.48,1.25.84,1.59,1.76.37.92.41,1.87.22,2.71-.37,1.54-2.62.29-4.13-.37-1-.48-4.17-3.15-4.98-4.03-1.99-2.27-2.95-6.67-1.36-9.16"/><path class="cls-15" d="m63.38,14.08c48,0,48.26,40.12,46.15,66.39,3.28-6.23,13.01-4.32,12.2,5.5-.74,9.45-14.72,14.27-14.34,13.23-7.08,19.43-26.51,34.08-44.02,34.08h-.26l-.11-119.19h.37"/><path class="cls-10" d="m118.68,81.83c-2.36-3.81-6.01-2.16-6.93-1.32-.96.92-1.7,2.09-1.14,4.32.33,1.28,1.66,1.39,1.36,3.3-.37,2.16-1.36,2.27-1.92,2.78-.55.48-1.29.84-1.62,1.76s-.41,1.87-.22,2.71c.37,1.54,2.62.29,4.13-.37,1.03-.48,4.17-3.15,4.98-4.03,2.03-2.27,2.95-6.67,1.36-9.16"/><path class="cls-4" d="m62.75,25.4c-15.78,0-27.35,4.58-34.32,13.59-9.77,12.64-9.4,31.91-5.82,45.76,1.11,4.25,1.7,15.65,2.43,19.82,3.43,18.72,24.11,28.69,37.71,28.69h.37V25.4h-.22"/><path class="cls-3" d="m97.03,39.03c-6.93-8.98-18.36-13.56-33.92-13.63v107.87c15.56-.18,34.17-11.1,37.34-28.69.77-4.18,1.33-15.57,2.43-19.82,3.61-13.81,3.98-33.05-5.86-45.73"/><path class="cls-1" d="m61.19,114.26c-.22-.04-.42-.08-.59-.11.2.04.4.08.59.11Z"/><path class="cls-1" d="m60.37,114.1c-.14-.03-.27-.06-.36-.08.12.03.24.05.36.08Z"/><path class="cls-8" d="m60.6,114.15c-.08-.02-.15-.03-.23-.05.07.02.14.03.23.05Z"/><path class="cls-8" d="m60.01,114.02c-.07-.02-.13-.04-.2-.06h0s.08.02.21.06Z"/><path class="cls-1" d="m20.09,59.02c-.43,1.43-.73,2.99-.93,4.66,0,0,.63-2.63,2.03-6.52-.6.83-1,1.5-1.1,1.86Z"/><path class="cls-22" d="m49.72,25.67l-.2.2.03.07c.07-.1.1-.2.17-.27Z"/><path class="cls-1" d="m61.34,112.08c-.22-.04-.43-.08-.61-.12.21.04.41.09.61.12Z"/><path class="cls-1" d="m60.5,111.91c-.14-.03-.28-.06-.37-.08.12.03.24.06.37.08Z"/><path class="cls-11" d="m60.73,111.96c-.08-.02-.15-.03-.23-.05.08.02.14.03.23.05Z"/><path class="cls-11" d="m60.13,111.83c-.07-.02-.14-.04-.21-.06h0s.08.02.21.06Z"/><path class="cls-16" d="m53.74,99.28c-.19-3.83,7.03-1.4,9.41-1.28,1.88.1,7.6-1.21,8.09-.87,3.37,2.27-3.57,6.84-8.21,6.84-1.24,0-9.18-2.38-9.29-4.69Z"/><path class="cls-6" d="m28.68,67.5s3.66,15.02,9.95,16.25c6.29,1.23,13.09-1.21,13.09-1.21,0,0,.65-17.65-2.57-19.96-3.22-2.32-10.63-5.66-20.47,4.92Z"/><path class="cls-18" d="m51.73,82.49s-.14.04-.47.18c-.08-5.41-.58-12.85-2.59-14.28-2.99-2.19-9.74-5.27-18.75,3.16-.82-2.33-1.23-4.09-1.23-4.09,9.86-10.61,17.28-7.27,20.47-4.95,3.22,2.32,2.57,19.99,2.57,19.99Z"/><circle class="cls-24" cx="41.82" cy="74.84" r="6.19" transform="translate(-25.84 22.19) rotate(-22.91)"/><path class="cls-7" d="m41.53,78.97c-1.79-.15-3.16-1.95-3-3.93.16-1.98,1.81-3.53,3.6-3.38,1.79.15,3.16,1.95,3,3.93-.16,1.98-1.81,3.54-3.6,3.39Z"/><path class="cls-20" d="m41.69,78.25c-1.24-.11-2.53-1.47-2.4-3.15.14-1.69,1.63-2.82,2.88-2.72,1.24.11,2.53,1.48,2.39,3.16-.14,1.68-1.63,2.82-2.87,2.72Z"/><path class="cls-6" d="m40.68,74.1c-.05.61-.68,1.05-1.39.99-.72-.06-1.26-.6-1.21-1.21.05-.61.67-1.05,1.39-1,.72.06,1.26.6,1.21,1.21Z"/><path class="cls-6" d="m44.69,77.62c-.03.3-.34.53-.69.5-.36-.03-.63-.3-.61-.6.03-.3.34-.53.69-.5.36.03.63.3.61.6Z"/><path class="cls-1" d="m61.44,113.85c-.22-.04-.43-.08-.61-.12.21.04.41.09.61.12Z"/><path class="cls-1" d="m60.6,113.68c-.14-.03-.28-.06-.37-.08.12.03.24.06.37.08Z"/><path class="cls-11" d="m60.83,113.73c-.08-.02-.15-.03-.23-.05.08.02.14.03.23.05Z"/><path class="cls-11" d="m60.23,113.6c-.07-.02-.14-.04-.21-.06h0s.08.02.21.06Z"/><path class="cls-1" d="m61.2,113.43c-.24-.04-.46-.08-.65-.12.22.05.44.09.65.12Z"/><path class="cls-1" d="m60.3,113.26c-.15-.03-.3-.07-.4-.09.13.03.26.06.4.09Z"/><path class="cls-8" d="m60.55,113.31c-.08-.02-.17-.03-.25-.05.08.02.15.03.25.05Z"/><path class="cls-8" d="m59.9,113.17c-.08-.02-.15-.04-.22-.06h0s.09.03.23.06Z"/><path class="cls-1" d="m61.01,112.81c-.24-.04-.46-.08-.65-.12.22.05.44.09.65.12Z"/><path class="cls-1" d="m60.11,112.63c-.15-.03-.3-.07-.4-.09.13.03.26.06.4.09Z"/><path class="cls-8" d="m60.36,112.68c-.08-.02-.17-.03-.25-.05.08.02.15.03.25.05Z"/><path class="cls-8" d="m59.72,112.54c-.08-.02-.15-.04-.22-.06h0s.09.03.23.06Z"/><path class="cls-1" d="m61.57,112.72c-.23-.04-.44-.08-.63-.12.21.05.42.09.63.12Z"/><path class="cls-1" d="m60.7,112.54c-.14-.03-.29-.06-.38-.09.13.03.25.06.38.09Z"/><path class="cls-8" d="m60.94,112.6c-.08-.02-.16-.03-.24-.05.08.02.15.03.24.05Z"/><path class="cls-8" d="m60.31,112.46c-.07-.02-.14-.04-.21-.06h0s.08.03.22.06Z"/><path class="cls-6" d="m97.92,66.99s-3.66,15.02-9.95,16.25c-6.29,1.23-13.09-1.21-13.09-1.21,0,0-.65-17.65,2.57-19.96,3.22-2.32,10.63-5.66,20.47,4.92Z"/><path class="cls-18" d="m74.88,81.98s.14.04.47.18c.08-5.41.58-12.85,2.59-14.28,2.99-2.19,9.74-5.27,18.75,3.16.82-2.33,1.23-4.09,1.23-4.09-9.86-10.61-17.28-7.27-20.47-4.95-3.22,2.32-2.57,19.99-2.57,19.99Z"/><path class="cls-24" d="m78.6,74.33c0,3.42,2.77,6.19,6.19,6.19s6.19-2.77,6.19-6.19-2.77-6.19-6.19-6.19-6.19,2.77-6.19,6.19Z"/><path class="cls-7" d="m85.07,78.45c1.79-.15,3.16-1.95,3-3.93-.16-1.98-1.81-3.53-3.6-3.38-1.79.15-3.16,1.95-3,3.93.16,1.98,1.81,3.54,3.6,3.39Z"/><path class="cls-20" d="m84.92,77.74c1.24-.11,2.53-1.47,2.4-3.15-.14-1.69-1.63-2.82-2.88-2.72-1.24.11-2.53,1.48-2.39,3.16.14,1.68,1.63,2.82,2.87,2.72Z"/><path class="cls-6" d="m85.93,73.59c.05.61.68,1.05,1.39.99.72-.06,1.26-.6,1.21-1.21-.05-.61-.67-1.05-1.39-1-.72.06-1.26.6-1.21,1.21Z"/><path class="cls-6" d="m81.92,77.11c.03.3.34.53.69.5.36-.03.63-.3.61-.6-.03-.3-.34-.53-.69-.49-.36.03-.63.3-.61.6Z"/><path d="m55.5,67.26c-.05-.07-1.19-1.81-3.52-3.6-1.46-1.12-2.89-1.97-4.38-2.61-1.81-.76-3.75-1.3-5.63-1.55-1.7-.19-3.59-.14-5.8.16-1.68.32-3.32.82-4.71,1.43-.99.34-1.78.82-2.41,1.21-.24.15-.46.28-.68.4l-3,1.89,3.46-.81c.16-.04.34-.09.52-.14.72-.19,1.61-.43,2.65-.58.24-.04.49-.09.75-.14.44-.09.89-.18,1.36-.2.52-.04,1.07-.07,1.63-.11l.73-.05c1.92-.02,3.54.12,4.97.45,1.57.27,3.19.78,4.67,1.46,1.4.67,2.74,1.33,3.79,2.1,2.11,1.41,3.29,2.59,3.3,2.6h0c.29.29.68.44,1.07.44.28,0,.57-.08.82-.24.7-.46.89-1.4.45-2.07l-.03-.05Z"/><path d="m98.54,62.69c-.2-.11-.42-.24-.66-.39-.63-.39-1.41-.87-2.38-1.2-1.42-.63-3.06-1.13-4.76-1.45-2.18-.29-4.07-.34-5.78-.15-1.87.26-3.82.79-5.63,1.55-1.46.63-2.94,1.5-4.38,2.61-2.29,1.76-3.43,3.46-3.51,3.59l-.02.03c-.39.59-.3,1.39.2,1.89.28.29.66.44,1.07.44h0c.4,0,.78-.16,1.06-.44h.01c.11-.12,1.25-1.24,3.3-2.61,1.03-.76,2.37-1.42,3.77-2.09,1.49-.69,3.1-1.2,4.7-1.47,1.42-.33,3.04-.47,4.93-.45l.76.05c.55.04,1.09.08,1.62.11.46.02.91.11,1.35.2.25.05.5.1.75.14,1.05.15,1.94.39,2.65.58.19.05.36.1.53.14l3.46.81-3.03-1.9Z"/><path class="cls-21" d="m27.7,192.76c0-10.33.92-18.67,2.41-25.45h-8.93c2.27-6.16,5.26-10.67,8.38-13.95l68.63,39.92"/><path class="cls-1" d="m59.21,119.09c-.22-.04-.43-.08-.6-.12.2.04.4.08.6.12Z"/><path class="cls-1" d="m58.38,118.93c-.14-.03-.28-.06-.37-.08.12.03.24.06.37.08Z"/><path class="cls-14" d="m58.61,118.98c-.08-.02-.15-.03-.23-.05.08.02.14.03.23.05Z"/><path class="cls-14" d="m58.01,118.84c-.07-.02-.14-.04-.21-.06h0s.08.02.21.06Z"/><path class="cls-1" d="m59.04,118.51c-.22-.04-.43-.08-.6-.12.21.04.4.08.6.12Z"/><path class="cls-1" d="m58.21,118.35c-.14-.03-.28-.06-.37-.08.12.03.24.06.37.08Z"/><path class="cls-14" d="m58.44,118.39c-.08-.02-.15-.03-.23-.05.08.02.14.03.23.05Z"/><path class="cls-14" d="m57.84,118.26c-.07-.02-.14-.04-.21-.06h0s.08.02.21.06Z"/><path class="cls-1" d="m59.55,118.43c-.22-.04-.41-.08-.58-.11.2.04.39.08.58.11Z"/><path class="cls-1" d="m58.75,118.27c-.13-.03-.27-.06-.35-.08.12.03.23.05.35.08Z"/><path class="cls-14" d="m58.97,118.31c-.07-.02-.15-.03-.22-.05.07.02.14.03.22.05Z"/><path class="cls-14" d="m58.39,118.19c-.07-.02-.13-.04-.2-.06h0s.08.02.21.06Z"/><path class="cls-5" d="m53.94,120.1c-.18-2.39,6.65.5,8.89.57,1.79.06,7.16-.35,7.66-.54,3.76-1.4-.21,3.99-7.77,4.27-3.47.14-8.68-2.85-8.78-4.3Z"/><path class="cls-9" d="m76.45,114.37c-4.33-.81-13.45.05-13.45.05-7.52,1.25-13.41-.08-13.45-.03-.18.02,6.01,8.22,13.35,7.85h0c7.34.38,13.73-7.85,13.56-7.87Z"/><path class="cls-19" d="m67.35,112.64c-1.95-.22-3.34,1.19-4.34,1.09-1.02.09-2.34-.81-4.3-.83-2.76-.03-4.11-.27-9.16,1.5.18.34,3.41,2.22,9.47,2.32.09,0,1.71.92,4.02.91,1.45,0,3.43-.97,3.51-.97,6.07-.09,9.77-1.9,9.94-2.23-6.67-2.07-6.14-1.8-9.14-1.78Z"/><path class="cls-23" d="m98.18,193.29l-20.8-12.1-6-3.5-7.24-4.22-6.02-3.5-7.2-4.18-6.02-3.5-15.35-8.93c4.8-5.1,9.85-7.29,12.82-8.21-.02.15-.02.31-.02.46,0,4.31,3.39,8.14,8.66,10.58,2.15,1,4.6,1.77,7.28,2.23,1.7.31,3.48.49,5.34.54.32.02.66.02.98.02,1.66,0,3.28-.11,4.83-.32,9.85-1.32,17.25-6.57,17.38-12.88,1.03.4,2.18.92,3.41,1.61,2.06,1.14,4.33,2.7,6.57,4.88,1.49,1.43,2.98,3.13,4.37,5.14,1.89,2.72,3.64,5.99,5.1,9.92h-8.84c1.49,6.75,2.41,15.1,2.41,25.45"/><path class="cls-12" d="m79.56,0l6.4,3.34h0c-13.55-4.14-27.5-1.25-33.91.57-2.33.51-3.64,1.17-3.64,1.17.57-.01,1.14.02,1.72.03,1.96.11,5.12.52,6.99,1.94-2.81-1.15-7.67-1.56-15.82,1.59-1.14.44-2.19.91-3.17,1.39-3.46,1.51-10.4,4.5-23.71,10.16,0,0,4.39,1.7,9.63,2.28-2.51,2.92-5.1,5.42-9.43,6.75-11.33,3.47-14.61-.98-14.61-.98,0,0,4.92,7.8,13.64,7.82,1.41,0,1.55-.03,1.55-.03,0,.02-3.26,8.36-3.88,14.6-.64,6.37,1.36,10.72,1.97,22.64.53,10.18,3.4,4.97,6.83,12.47,1.16,2.52,1.2,5.35,1.2,5.35,1.27.3,4.6-6.11,2.21-17.25-1.56-7.23,6.13-34.63,24.68-29.29,11.34,3.27,14.21,9.92,22.69,4.01,7.32-5.09,17.54-8.02,25.17-3.99,7.64,4.04,11.95,13.1,10.61,27.56-1.69,18.46,1.49,18.33,1.49,18.33.96,0-.06-4.92,3.12-8.3,3.18-3.38,8.02-14.8,8.02-26.18C122.68.02,79.56,0,79.56,0Z"/><path class="cls-21" d="m58.29,158.42l-7.37,7.38-6.02-3.5,6.11-6.11c2.15,1,4.6,1.77,7.28,2.23Z"/><path class="cls-21" d="m90.23,147.38l-26.09,26.09-6.02-3.5,11.33-11.33c9.85-1.32,17.25-6.57,17.38-12.88,1.03.4,2.18.92,3.41,1.61Z"/><path class="cls-21" d="m101.18,157.4l-23.79,23.79-6-3.5,25.42-25.43c1.49,1.43,2.98,3.13,4.37,5.14Z"/><path class="cls-25" d="m55.2,76.26c-.48,1.69-1.04,3.2-1.66,4.56-12.53-8.21-24.72-3.56-31.63.6-.46-1.66-.55-2.83-.55-2.83-.08-.64.63-1.58.63-1.58,1.9-1.74.4-3.32.4-3.32-1.27-1.66-.63-2.69-.63-2.69,1.11-9.26,17.96-7.2,17.96-7.2,8.26.13,11.96,1.44,13.61,2.6.85.6,1.24,1.67.95,2.67,0,.01,0,.03-.01.04-.35,1.22-.15,2.52.49,3.62,0,.01.02.03.02.04.61,1.06.75,2.32.41,3.5Z"/><path class="cls-27" d="m53.54,80.82c-6.66,14.76-20.07,11.62-20.07,11.62-7.69-1.2-10.53-7.32-11.55-11.01,6.9-4.16,19.1-8.81,31.63-.6Z"/><path class="cls-26" d="m69.68,76.25c.48,1.69,1.04,3.2,1.66,4.56,12.53-8.21,24.72-3.56,31.63.6.46-1.66.55-2.83.55-2.83.08-.64-.63-1.58-.63-1.58-1.9-1.74-.4-3.32-.4-3.32,1.27-1.66.63-2.69.63-2.69-1.11-9.26-17.97-7.2-17.97-7.2-8.26.13-11.96,1.44-13.61,2.6-.85.6-1.24,1.67-.95,2.67,0,.01,0,.03.01.04.35,1.22.15,2.52-.49,3.62,0,.01-.02.03-.02.04-.61,1.06-.75,2.32-.41,3.5Z"/><path class="cls-27" d="m71.33,80.82c6.66,14.76,20.07,11.62,20.07,11.62,7.69-1.2,10.53-7.32,11.55-11.01-6.9-4.16-19.1-8.81-31.63-.6Z"/><path class="cls-6" d="m56.97,68.86s-.71-6.89-21.45-6.41c0,0-17.01-1.62-15.98,13.71,0,0-.32,13.99,12.98,17.55,0,0,14.24,2.85,20.73-9.73,0,0,5.06-8.78,3.72-15.11Zm-1.78,7.4c-5.73,19.94-21.73,16.18-21.73,16.18-11.16-1.74-12.11-13.85-12.11-13.85-.08-.64.63-1.58.63-1.58,1.9-1.74.4-3.32.4-3.32-1.27-1.66-.63-2.69-.63-2.69,1.11-9.26,17.96-7.2,17.96-7.2,8.26.13,11.96,1.44,13.61,2.6.85.6,1.24,1.67.95,2.67,0,.01,0,.03-.01.04-.35,1.22-.15,2.52.49,3.62,0,.01.02.03.02.04.61,1.06.75,2.32.41,3.5Z"/><path class="cls-6" d="m52.94,62.76s-14.09-4.67-27.22-.71c0,0-3.25.87-5.46,4.67,0,0-1.19,2.29-4.04,2.77,0,0-.95,6.25,0,7.52,0,0,1.66.08,2.45,3.4,0,0,2.37,14.64,17.17,14.8,0,0,17.25,2.53,22.71-20.73,0,0,2.53-9.26-5.62-11.71Zm.32,21.21c-6.49,12.58-20.73,9.73-20.73,9.73-13.3-3.56-12.98-17.55-12.98-17.55-1.03-15.33,15.98-13.71,15.98-13.71,20.73-.47,21.45,6.41,21.45,6.41,1.34,6.33-3.72,15.11-3.72,15.11Z"/><rect class="cls-6" x="58.28" y="69.21" width="4.15" height="1.7"/><path class="cls-6" d="m62.43,58.76c-13.69-.51-27.18.84-27.18.84l-.47,1.54,1.66-.68c3.01-.75,23.56-.85,26-.86v-.84Z"/><path class="cls-6" d="m71.62,83.97c6.49,12.58,20.73,9.73,20.73,9.73,13.29-3.56,12.98-17.55,12.98-17.55,1.03-15.33-15.98-13.71-15.98-13.71-20.73-.47-21.45,6.41-21.45,6.41-1.35,6.33,3.72,15.11,3.72,15.11Zm-1.53-11.21s.02-.03.02-.04c.64-1.1.83-2.4.49-3.62,0-.01,0-.03-.01-.04-.29-1,.1-2.07.95-2.67,1.66-1.16,5.35-2.47,13.61-2.6,0,0,16.86-2.06,17.97,7.2,0,0,.63,1.03-.63,2.69,0,0-1.5,1.58.4,3.32,0,0,.71.95.63,1.58,0,0-.95,12.11-12.11,13.85,0,0-16,3.76-21.73-16.18-.34-1.17-.19-2.44.41-3.5Z"/><path class="cls-6" d="m66.32,74.47c5.46,23.27,22.71,20.73,22.71,20.73,14.8-.16,17.17-14.8,17.17-14.8.79-3.32,2.45-3.4,2.45-3.4.95-1.27,0-7.52,0-7.52-2.85-.47-4.04-2.77-4.04-2.77-2.21-3.8-5.46-4.67-5.46-4.67-13.14-3.96-27.22.71-27.22.71-8.15,2.45-5.62,11.71-5.62,11.71Zm1.58-5.62s.71-6.88,21.45-6.41c0,0,17.01-1.62,15.98,13.71,0,0,.32,13.99-12.98,17.55,0,0-14.24,2.85-20.73-9.73,0,0-5.06-8.78-3.72-15.11Z"/><rect class="cls-6" x="62.44" y="69.21" width="4.15" height="1.7"/><path class="cls-6" d="m62.44,58.75c13.69-.51,27.18.84,27.18.84l.47,1.54-1.66-.68c-3.01-.75-23.56-.85-26-.86v-.84Z"/></svg>