<?xml version="1.0" encoding="UTF-8"?><svg id="Layer_1" xmlns="http://www.w3.org/2000/svg" xmlns:xlink="http://www.w3.org/1999/xlink" viewBox="0 0 123.11 197.13"><defs><style>.cls-1{fill:none;}.cls-2{clip-path:url(#clippath);}.cls-3{fill:#f1dab4;}.cls-4{fill:#e4c59e;}.cls-5{fill:#f3dab4;}.cls-6{fill:#fff;}.cls-7{fill:#7f401b;}.cls-8{fill:#c3977d;}.cls-9{fill:#b9730d;}.cls-10{fill:#b48d76;}.cls-11{fill:#8f530a;}.cls-12{fill:#c1967d;}.cls-13{fill:#cba686;}.cls-14{fill:#c49d80;}.cls-15{fill:#c5997d;}.cls-16{fill:#e1bd9d;}.cls-17{fill:#d7ad88;}.cls-18{fill:#dbbb9a;}.cls-19{fill:#e1c7a3;}.cls-20{fill:#e2a358;}.cls-21{fill:#231c08;}.cls-22{fill:#452320;}.cls-23{fill:#463216;}.cls-24{fill:#4c2912;}</style><clipPath id="clippath"><rect class="cls-1" x="52.51" y="128.36" width="25.11" height="14.85"/></clipPath></defs><path class="cls-4" d="m64.96,113.11v84.02H19.66c-.74-.29-1.11-.45-1.11-.45,0-4.56.28-8.67.8-12.4.68-5.08,1.78-9.46,3.16-13.2.49-1.35,1.01-2.61,1.58-3.81,5.86-12.6,14.9-16.95,19.42-18.39.06-.03.12-.05.18-.06,1.6-.49,2.58-.61,2.58-.61.17,0,.32-.02.49-.03.61-.09,1.18-.38,1.69-.84.69-.6,1.29-1.49,1.83-2.62.69-1.46,1.27-3.35,1.73-5.53.2-.84.34-1.7.49-2.62.21-1.55.43-3.18.63-4.88.06-1.03.18-2.03.29-3.1.4-5.14.51-10.78.51-16.1,0,0,6.09.63,11.02.63Z"/><path class="cls-3" d="m111.56,196.68s-.4.15-1.07.45h-45.53v-84.02h.12c4.9,0,11.05-.63,11.05-.63,0,5.3.11,10.84.52,15.98.11,1.01.21,2.04.29,3.04.18,1.78.41,3.44.66,4.99v.05c.08.71.21,1.34.34,2,.45,2.18.98,4.11,1.64,5.65.6,1.43,1.32,2.53,2.13,3.22.28.25.57.43.87.57.38.17.78.25,1.21.25,0,0,1.09.14,2.86.71.46.15.97.32,1.5.54,4.82,1.9,12.6,6.57,17.85,17.82.55,1.2,1.09,2.46,1.58,3.81,1.38,3.75,2.49,8.12,3.18,13.2.49,3.73.78,7.84.78,12.4Z"/><g class="cls-2"><path class="cls-14" d="m77.61,136.33v.04c-1.14,1.76-4.98,6.84-12.57,6.84h-.07c-7.19-.04-11.39-5.26-12.46-6.8.22-1.54.44-3.16.63-4.85.07-.99.18-2.02.29-3.09,3.5.88,7.34,1.43,11.39,1.51h.15c4.2-.07,8.07-.66,11.69-1.62.11.99.22,2.02.3,3.01.18,1.76.41,3.42.66,4.96"/></g><path class="cls-17" d="m64.45,17.36c-48,0-48.26,40.25-46.12,66.6-3.28-6.25-13.05-4.34-12.24,5.51.77,9.48,14.73,14.32,14.34,13.27,7.27,19.49,26.51,34.18,44.02,34.18h.37V17.36h-.37"/><path class="cls-10" d="m9.15,85.32c2.36-3.82,6.05-2.17,6.93-1.32.96.92,1.73,2.09,1.14,4.34-.33,1.29-1.66,1.4-1.36,3.31.37,2.17,1.36,2.28,1.95,2.79.55.48,1.25.85,1.59,1.76.37.92.41,1.87.22,2.72-.37,1.54-2.62.29-4.13-.37-1-.48-4.17-3.16-4.98-4.04-1.99-2.28-2.95-6.69-1.36-9.19"/><path class="cls-16" d="m64.71,17.36c48,0,48.26,40.25,46.15,66.6,3.28-6.25,13.01-4.34,12.2,5.51-.74,9.48-14.72,14.32-14.34,13.27-7.08,19.49-26.51,34.18-44.02,34.18h-.26l-.11-119.57h.37"/><path class="cls-10" d="m120.01,85.32c-2.36-3.82-6.01-2.17-6.93-1.32-.96.92-1.7,2.09-1.14,4.34.33,1.29,1.66,1.4,1.36,3.31-.37,2.17-1.36,2.28-1.92,2.79-.55.48-1.29.85-1.62,1.76-.33.92-.41,1.87-.22,2.72.37,1.54,2.62.29,4.13-.37,1.03-.48,4.17-3.16,4.98-4.04,2.03-2.28,2.95-6.69,1.36-9.19"/><path class="cls-4" d="m64.07,28.71c-15.78,0-27.35,4.59-34.32,13.64-9.77,12.68-9.4,32.01-5.82,45.91,1.11,4.26,1.7,15.69,2.43,19.88,3.43,18.78,24.11,28.78,37.71,28.78h.37V28.71h-.22"/><path class="cls-3" d="m98.36,42.39c-6.93-9.01-18.36-13.6-33.92-13.67v108.21c15.56-.18,34.17-11.14,37.34-28.78.77-4.19,1.33-15.62,2.43-19.88,3.61-13.86,3.98-33.15-5.86-45.87"/><path class="cls-1" d="m62.52,113.8c-.22-.04-.42-.08-.59-.11.2.04.4.08.59.11Z"/><path class="cls-1" d="m61.7,117.69c-.14-.03-.27-.06-.36-.08.12.03.24.05.36.08Z"/><path class="cls-8" d="m61.92,117.74c-.08-.02-.15-.03-.23-.05.07.02.14.03.23.05Z"/><path class="cls-8" d="m61.34,117.61c-.07-.02-.13-.04-.2-.06h0s.08.02.21.06Z"/><path class="cls-16" d="m55.28,103.7c-.18-3.74,6.85-1.37,9.16-1.25,1.83.09,7.4-1.18,7.88-.85,3.28,2.22-3.47,6.68-8,6.68-1.21,0-8.94-2.33-9.05-4.58Z"/><path class="cls-1" d="m21.41,62.44c-.43,1.43-.73,3-.93,4.67,0,0,.63-2.64,2.03-6.54-.6.83-1,1.5-1.1,1.87Z"/><path class="cls-23" d="m51.04,28.98l-.2.2.03.07c.07-.1.1-.2.17-.27Z"/><path class="cls-1" d="m62.66,115.66c-.22-.04-.43-.08-.61-.12.21.04.41.09.61.12Z"/><path class="cls-1" d="m61.82,115.49c-.14-.03-.28-.06-.37-.09.12.03.24.06.37.09Z"/><path class="cls-12" d="m62.06,115.54c-.08-.02-.15-.03-.23-.05.08.02.14.03.23.05Z"/><path class="cls-12" d="m61.45,115.41c-.07-.02-.14-.04-.21-.06h0s.08.03.21.06Z"/><path class="cls-6" d="m30.01,70.95s3.66,15.07,9.95,16.3c6.29,1.23,13.09-1.22,13.09-1.22,0,0,.65-17.71-2.57-20.02-3.22-2.32-10.63-5.68-20.47,4.94Z"/><path class="cls-18" d="m53.06,85.98s-.14.04-.47.18c-.08-5.43-.58-12.89-2.59-14.32-2.99-2.2-9.74-5.28-18.75,3.17-.82-2.33-1.23-4.1-1.23-4.1,9.86-10.64,17.28-7.29,20.47-4.96,3.22,2.32,2.57,20.05,2.57,20.05Z"/><ellipse class="cls-24" cx="43.15" cy="78.31" rx="6.19" ry="6.21"/><path class="cls-7" d="m42.86,82.44c-1.79-.15-3.16-1.96-3-3.95.16-1.99,1.81-3.54,3.6-3.39,1.79.15,3.16,1.95,3,3.94-.16,1.99-1.81,3.55-3.6,3.4Z"/><path class="cls-21" d="m43.01,81.73c-1.24-.11-2.53-1.47-2.4-3.16.14-1.69,1.63-2.83,2.88-2.73,1.24.11,2.53,1.48,2.39,3.17-.14,1.69-1.63,2.83-2.87,2.72Z"/><path class="cls-6" d="m42.01,77.57c-.05.61-.68,1.05-1.39,1-.72-.06-1.26-.61-1.21-1.21.05-.61.67-1.06,1.39-1,.72.06,1.26.6,1.21,1.21Z"/><path class="cls-6" d="m46.02,81.09c-.03.3-.34.53-.69.5-.36-.03-.63-.3-.61-.61.03-.3.34-.53.69-.5.36.03.63.3.61.61Z"/><path class="cls-1" d="m62.76,117.44c-.22-.04-.43-.08-.61-.12.21.04.41.09.61.12Z"/><path class="cls-1" d="m61.92,117.27c-.14-.03-.28-.06-.37-.09.12.03.24.06.37.09Z"/><path class="cls-12" d="m62.15,117.32c-.08-.02-.15-.03-.23-.05.08.02.14.03.23.05Z"/><path class="cls-12" d="m61.55,117.19c-.07-.02-.14-.04-.21-.06h0s.08.02.21.06Z"/><path class="cls-1" d="m62.52,117.02c-.24-.04-.46-.08-.65-.12.22.05.44.09.65.12Z"/><path class="cls-1" d="m61.62,116.84c-.15-.03-.3-.07-.4-.09.13.03.26.06.4.09Z"/><path class="cls-8" d="m61.87,116.9c-.08-.02-.17-.03-.25-.05.08.02.15.03.25.05Z"/><path class="cls-8" d="m61.23,116.75c-.08-.02-.15-.04-.22-.06h0s.09.03.23.06Z"/><path class="cls-1" d="m62.34,116.39c-.24-.04-.46-.08-.65-.12.22.05.44.09.65.12Z"/><path class="cls-1" d="m61.44,116.21c-.15-.03-.3-.07-.4-.09.13.03.26.06.4.09Z"/><path class="cls-8" d="m61.69,116.27c-.08-.02-.17-.03-.25-.05.08.02.15.03.25.05Z"/><path class="cls-8" d="m61.04,116.12c-.08-.02-.15-.04-.22-.06h0s.09.03.23.06Z"/><path class="cls-1" d="m62.89,116.3c-.23-.04-.44-.08-.63-.12.21.05.42.09.63.12Z"/><path class="cls-1" d="m62.02,116.13c-.14-.03-.29-.06-.38-.09.13.03.25.06.38.09Z"/><path class="cls-8" d="m62.26,116.18c-.08-.02-.16-.03-.24-.05.08.02.15.03.24.05Z"/><path class="cls-8" d="m61.64,116.04c-.07-.02-.14-.04-.21-.06h0s.08.03.22.06Z"/><path class="cls-6" d="m99.25,70.43s-3.66,15.07-9.95,16.3c-6.29,1.23-13.09-1.22-13.09-1.22,0,0-.65-17.71,2.57-20.02,3.22-2.32,10.63-5.68,20.47,4.94Z"/><path class="cls-18" d="m76.2,85.47s.14.04.47.18c.08-5.43.58-12.89,2.59-14.32,2.99-2.2,9.74-5.28,18.75,3.17.82-2.33,1.23-4.1,1.23-4.1-9.86-10.64-17.28-7.29-20.47-4.96-3.22,2.32-2.57,20.05-2.57,20.05Z"/><path class="cls-24" d="m79.93,77.8c0,3.43,2.77,6.21,6.19,6.21s6.19-2.78,6.19-6.21-2.77-6.21-6.19-6.21-6.19,2.78-6.19,6.21Z"/><path class="cls-7" d="m86.4,81.93c1.79-.15,3.16-1.96,3-3.95-.16-1.99-1.81-3.54-3.6-3.39-1.79.15-3.16,1.95-3,3.94.16,1.99,1.81,3.55,3.6,3.4Z"/><path class="cls-21" d="m86.25,81.21c1.24-.11,2.53-1.47,2.4-3.16-.14-1.69-1.63-2.83-2.88-2.73-1.24.11-2.53,1.48-2.39,3.17.14,1.69,1.63,2.83,2.87,2.72Z"/><path class="cls-6" d="m87.25,77.06c.05.61.68,1.05,1.39,1,.72-.06,1.26-.61,1.21-1.21-.05-.61-.67-1.06-1.39-1-.72.06-1.26.6-1.21,1.21Z"/><path class="cls-6" d="m83.24,80.58c.03.3.34.53.69.5.36-.03.63-.3.61-.61-.03-.3-.34-.53-.69-.5-.36.03-.63.3-.61.61Z"/><path d="m56.82,70.71c-.05-.07-1.19-1.81-3.52-3.61-1.46-1.12-2.89-1.98-4.38-2.62-1.81-.76-3.75-1.3-5.63-1.56-1.7-.19-3.59-.14-5.8.16-1.68.32-3.32.82-4.71,1.44-.99.34-1.78.82-2.41,1.21-.24.15-.46.28-.68.4l-3,1.89,3.46-.82c.16-.04.34-.09.52-.14.72-.19,1.61-.43,2.65-.58.24-.04.49-.09.75-.14.44-.09.89-.18,1.36-.2.52-.04,1.07-.07,1.63-.11l.73-.05c1.92-.02,3.54.12,4.97.45,1.57.27,3.19.78,4.67,1.47,1.4.67,2.74,1.34,3.79,2.11,2.11,1.42,3.29,2.6,3.3,2.61h0c.29.29.68.44,1.07.44.28,0,.57-.08.82-.25.7-.46.89-1.4.45-2.08l-.03-.05Z"/><path d="m99.87,66.12c-.2-.11-.42-.24-.66-.39-.63-.39-1.41-.87-2.38-1.2-1.42-.63-3.06-1.13-4.76-1.45-2.18-.29-4.07-.35-5.78-.15-1.87.26-3.82.8-5.63,1.56-1.46.63-2.94,1.51-4.38,2.62-2.29,1.76-3.43,3.47-3.51,3.6l-.02.03c-.39.6-.3,1.4.2,1.9.28.29.66.45,1.06.45h0c.4,0,.78-.16,1.06-.45h.01c.11-.12,1.25-1.24,3.3-2.62,1.03-.76,2.37-1.43,3.77-2.1,1.49-.69,3.1-1.2,4.7-1.48,1.42-.33,3.04-.47,4.93-.45l.76.05c.55.04,1.09.08,1.62.11.46.02.91.11,1.35.2.25.05.5.1.75.14,1.05.15,1.94.39,2.65.58.19.05.36.1.53.14l3.46.82-3.03-1.91Z"/><path class="cls-1" d="m61.7,119.23c-.23-.04-.45-.08-.64-.12.22.05.43.09.64.12Z"/><path class="cls-1" d="m60.82,119.05c-.15-.03-.29-.07-.39-.09.13.03.26.06.39.09Z"/><path class="cls-15" d="m61.07,119.11c-.08-.02-.16-.03-.24-.05.08.02.15.03.24.05Z"/><path class="cls-15" d="m60.44,118.96c-.07-.02-.14-.04-.22-.06h0s.08.03.22.06Z"/><path class="cls-5" d="m55.57,122.21c-.18-2.42,6.73.51,9,.58,1.81.06,7.25-.36,7.75-.55,3.8-1.43-.21,4.05-7.86,4.34-3.51.14-8.78-2.9-8.88-4.36Z"/><path class="cls-19" d="m78.06,117.54c-1.88-.09-3.8,1.48-6.06,1.24-.09-.05-.14-.05-.23-.05-.52-.09-1.03,0-1.6.14-.7.15-1.41.43-2.07.66-1.13.37-2.4.66-3.7.56h0s-.05,0-.07,0-.05,0-.07,0h0c-1.31.09-2.58-.2-3.7-.57-.66-.23-1.37-.52-2.07-.66-.56-.14-1.08-.23-1.6-.14-.1,0-.14,0-.23.05-2.26.24-4.18-1.33-6.06-1.24-.52.05-1.27-.09-1.69-.09.09.05.19.09.28.14,5.35,2.61,9.96,7.51,15.07,7.35h.15c5.11.16,9.72-4.74,15.07-7.35.1-.05.19-.09.28-.14-.42,0-1.17.14-1.69.09Z"/><path class="cls-13" d="m79.63,117.39h0s-5.44-2.1-9.3-.87c0,0-1.44.56-2.93.91-.91.35-2.01.46-3.07.41h0c-.81-.03-1.59-.14-2.22-.25-.21-.03-.42-.08-.64-.12-.09-.02-.16-.03-.24-.05-.13-.03-.26-.06-.39-.09-.14-.03-.22-.06-.22-.06h0c-1.24-.34-2.3-.75-2.3-.75-3.87-1.23-9.3.87-9.3.87h0c-.07.03-.12.06-.12.06.42,0,1.17.14,1.69.09,1.87-.09,3.8,1.48,6.06,1.24.09-.05.14-.05.23-.05.52-.09,1.03,0,1.6.14.7.15,1.41.43,2.07.66,1.13.37,2.4.66,3.7.56h0s.05,0,.07,0,.05,0,.07,0h0c1.31.09,2.58-.2,3.7-.57.66-.23,1.37-.52,2.07-.66.56-.14,1.08-.23,1.6-.14.1,0,.14,0,.23.05,2.26.24,4.18-1.33,6.06-1.24.52.05,1.27-.09,1.69-.09,0,0-.05-.02-.12-.06Z"/><path class="cls-13" d="m55.2,118.67c.1.02,10.19,3.11,18.08.07l-.91-.61h-10.66l-6.5.55Z"/><path class="cls-9" d="m104.3,184.28c.03,5.76.25,10.16.43,12.85H25.5c.18-2.7.35-7.08.38-12.85h-6.52c.68-5.08,1.78-9.46,3.16-13.2.49-1.35,1.01-2.61,1.58-3.81,5.86-12.6,14.9-16.95,19.42-18.39-.09-.17-.18-.34-.26-.49.91-.2,1.43-.26,1.43-.26.95,0,1.77-.35,2.5-.95,0,0,0-.03.03-.03.25-.23.49-.51.74-.8.09.06.28.32.43.83.02.05.05.09.08.15.46,1.11,1.89,4.11,3.99,7.29,3.02,4.57,7.48,9.5,12.51,9.58.05.02.09.02.14.02,4.3,0,8.15-3.53,11.08-7.4,2.92-3.84,4.93-8,5.54-9.42.03-.08.06-.15.09-.21.17-.51.35-.77.46-.83.23.29.48.57.72.8.03,0,.03.03.03.03.72.6,1.57.95,2.49.95,0,0,.54.06,1.44.25-.09.17-.18.35-.29.54.46.15.97.32,1.5.54,4.82,1.9,12.6,6.57,17.85,17.82.55,1.2,1.09,2.46,1.58,3.81,1.38,3.75,2.49,8.12,3.18,13.2h-6.48Z"/><path class="cls-20" d="m45.87,152.83l-15.49,15.49-6.28-1.04c5.86-12.6,14.9-16.95,19.42-18.39.61,1.2,1.41,2.56,2.35,3.94Z"/><path class="cls-20" d="m106.02,167.27l-6.2,1.04-15.49-15.49c.92-1.37,1.7-2.73,2.33-3.91.46.15.97.32,1.5.54,4.82,1.9,12.6,6.57,17.85,17.82Z"/><path class="cls-6" d="m38.52,160.17s8.13,5.93,16.68-1.88l2.45,2.53s-10.83,10.02-22.22,2.43l3.09-3.09Z"/><path class="cls-6" d="m91.74,160.22s-8.13,5.93-16.68-1.88l-2.45,2.53s10.83,10.02,22.22,2.43l-3.09-3.09Z"/><path class="cls-22" d="m110.04,98.59l-2.03,1.5s-12.86,28.9-23.72,21.54l-.04.14c-.54-1.68-1.33-3.12-2.31-4.19-3.07-4.52-9.27-7.62-16.45-7.62-6.61,0-12.39,2.63-15.66,6.58-1.46,1.01-2.65,2.78-3.4,4.97v-.02c-10.86,7.36-22.87-21.39-22.87-21.39l-2.03-1.5-.05,4.59c4.04,17.53,21,29.39,27.78,33.51.56.49,1.16.9,1.8,1.13.3.16.64.31.97.46.02.01.05.03.05.03h0c3.37,1.49,8.11,2.43,13.4,2.43,5.64,0,10.68-1.07,14.08-2.74l-.09.31s25.53-13.08,30.61-35.13l-.05-4.59Zm-35.54,36.14c0-.06.03-.12.03-.17,0-1.74-4.13-3.14-9.24-3.14s-9.23,1.41-9.23,3.14c0,.03,0,.05,0,.07-1.81-.45-3.42-1.03-4.76-1.7-.71-1.75-1.15-3.82-1.15-6.06v-.02c0-1.19.55-2.31,1.45-3.09,2.71-2.33,6.42-3.98,10.62-4.55,1.06-.14,2.15-.22,3.26-.22s2.2.08,3.26.22c3.82.52,7.21,1.93,9.82,3.93,1.15.88,1.85,2.26,1.85,3.7v.02c0,2.34-.46,4.5-1.24,6.3-1.35.62-2.93,1.15-4.69,1.57Z"/><path class="cls-22" d="m80.18,0l6.44,3.37c-13.66-4.18-27.71-1.26-34.18.57-2.35.52-3.67,1.18-3.67,1.18.57-.01,1.15.02,1.73.03,1.97.11,5.17.52,7.05,1.96-2.84-1.16-7.74-1.57-15.95,1.61-1.15.44-2.2.92-3.19,1.41-3.49,1.52-10.48,4.54-23.9,10.24,0,0,4.43,1.72,9.7,2.3-2.53,2.95-5.14,5.47-9.51,6.81-11.42,3.5-14.73-.99-14.73-.99,0,0,4.95,7.87,13.75,7.89,1.42,0,1.56-.03,1.57-.04-.01.03-3.3,8.45-3.93,14.73-.65,6.42,1.37,10.82,1.99,22.84.54,10.27,3.43,5.01,6.88,12.58,1.17,2.54,1.21,5.39,1.21,5.39,1.28.3,4.63-6.16,2.22-17.4-1.57-7.29,6.18-34.93,24.88-29.54,2.63.76,4.79,1.7,6.69,2.62,4.55,2.28,41.92,22.22,28.28,54.17,0,0,14.28-22.42,11.79-46.11,1.89,5.38,3.24,12.88,3.42,23.39,0,0,7.24-14.76,3.7-29.37,4.03,5,6,12.65,5.04,23.11-1.71,18.62,1.5,18.49,1.5,18.49.96,0-.07-4.96,3.14-8.38,3.21-3.41,8.09-14.92,8.09-26.41C123.65.02,80.18,0,80.18,0Z"/><path class="cls-22" d="m41.46,120.14s.17.17.41.4c.23.23.6.52,1.11.82,0,0,.01,0,.02.01.5.28,1.14.56,1.94.77,2.73.85,9.5-1.04,19.68-1.9,0,0,12.18,4.13,19.18,2.22,1-.19,1.91-.55,2.69-1.1,1.62-1.14,2.7-3.11,2.87-6.27,0,0-4.17,7.15-10.67.82,0,0-7.47-9.76-14.08-5.86-6.59-3.91-14.07,5.86-14.07,5.86-6.49,6.32-10.67-.82-10.67-.82.12,2.27.63,3.82,1.54,5.01l.05.05Z"/><path class="cls-11" d="m56.3,169.33v19.9c-2.33-.91-4.55-2.14-6.6-3.73v-12.68c.55-.13.85-.16.85-.16.13,0,.24-.01.37-.03,1.08-.17,1.96-1.11,2.67-2.61.1-.21.2-.44.29-.68h2.41Z"/><path class="cls-11" d="m68.11,169.33v21.64c-2.2.16-4.42.07-6.59-.3v-21.34h6.59Z"/><path class="cls-11" d="m79.93,172.81v14.36c-2.09,1.27-4.31,2.23-6.6,2.87v-20.71h2.41c.03.09.07.19.1.27.62,1.45,1.38,2.46,2.28,2.86.29.14.59.2.92.2,0,0,.31.05.87.16Z"/></svg>