<?xml version="1.0" encoding="UTF-8"?><svg id="Layer_1" xmlns="http://www.w3.org/2000/svg" xmlns:xlink="http://www.w3.org/1999/xlink" viewBox="0 0 123.01 206.15"><defs><style>.cls-1{fill:none;}.cls-2{clip-path:url(#clippath);}.cls-3{fill:#f1dab4;}.cls-4{fill:#e4c59e;}.cls-5{fill:#f3dab4;}.cls-6{fill:#fff;}.cls-7{fill:#7f401b;}.cls-8{fill:#c3977d;}.cls-9{fill:#b48d76;}.cls-10{fill:#c1967d;}.cls-11{fill:#ce210f;}.cls-12{fill:#c49d80;}.cls-13{fill:#c5997d;}.cls-14{fill:#e1bd9d;}.cls-15{fill:#dbdb00;}.cls-16{fill:#e0bc9b;}.cls-17{fill:#d7ad88;}.cls-18{fill:#dbbb9a;}.cls-19{fill:#25211a;}.cls-20{fill:#231c08;}.cls-21{fill:#413935;}.cls-22{fill:#463216;}.cls-23{fill:#393b36;}.cls-24{fill:#4c2912;}</style><clipPath id="clippath"><rect class="cls-1" x="52.4" y="137.6" width="25.11" height="14.8"/></clipPath></defs><path class="cls-4" d="m64.86,122.39v83.76H19.55c-.74-.29-1.11-.44-1.11-.44,0-10.69,1.57-19.03,3.96-25.53,5.77-15.69,16.32-20.67,21.18-22.17,1.59-.49,2.58-.61,2.58-.61.17,0,.33-.02.5-.04,1.43-.23,2.58-1.47,3.51-3.45.69-1.47,1.27-3.34,1.74-5.51.19-.85.33-1.7.48-2.62.22-1.55.44-3.17.63-4.87.07-1.03.18-2.03.29-3.1.4-5.12.52-10.73.52-16.05,0,0,6.08.63,11.02.63Z"/><path class="cls-3" d="m111.46,205.71s-.41.15-1.07.44h-45.53v-83.76h.11c4.9,0,11.06-.63,11.06-.63,0,5.27.11,10.81.51,15.93.11,1,.22,2.03.29,3.02.19,1.77.41,3.43.67,4.98v.03c.07.7.22,1.33.33,1.99.45,2.18.99,4.1,1.64,5.63.81,1.91,1.8,3.25,3.01,3.77.38.17.79.26,1.21.26,0,0,1.74.21,4.36,1.24,5.33,2.09,14.29,7.57,19.44,21.55,2.39,6.5,3.96,14.84,3.96,25.53Z"/><g class="cls-2"><path class="cls-12" d="m77.51,145.55v.04c-1.14,1.76-4.98,6.82-12.57,6.82h-.07c-7.19-.04-11.39-5.24-12.46-6.78.22-1.54.44-3.15.63-4.84.07-.99.18-2.02.29-3.08,3.5.88,7.34,1.43,11.39,1.5h.15c4.2-.07,8.07-.66,11.69-1.61.11.99.22,2.02.3,3,.18,1.76.41,3.41.66,4.95"/></g><path class="cls-17" d="m64.35,26.94c-48,0-48.26,40.12-46.12,66.39-3.28-6.23-13.05-4.32-12.24,5.5.77,9.45,14.73,14.27,14.34,13.23,7.27,19.43,26.51,34.08,44.02,34.08h.37V26.94h-.37"/><path class="cls-9" d="m9.05,94.69c2.36-3.81,6.05-2.16,6.93-1.32.96.92,1.73,2.09,1.14,4.32-.33,1.28-1.66,1.39-1.36,3.3.37,2.16,1.36,2.27,1.95,2.78.55.48,1.25.84,1.59,1.76.37.92.41,1.87.22,2.71-.37,1.54-2.62.29-4.13-.37-1-.48-4.17-3.15-4.98-4.03-1.99-2.27-2.95-6.67-1.36-9.16"/><path class="cls-14" d="m64.6,26.94c48,0,48.26,40.12,46.15,66.39,3.28-6.23,13.01-4.32,12.2,5.5-.74,9.45-14.72,14.27-14.34,13.23-7.08,19.43-26.51,34.08-44.02,34.08h-.26l-.11-119.19h.37"/><path class="cls-9" d="m119.9,94.69c-2.36-3.81-6.01-2.16-6.93-1.32-.96.92-1.7,2.09-1.14,4.32.33,1.28,1.66,1.39,1.36,3.3-.37,2.16-1.36,2.27-1.92,2.78-.55.48-1.29.84-1.62,1.76-.33.92-.41,1.87-.22,2.71.37,1.54,2.62.29,4.13-.37,1.03-.48,4.17-3.15,4.98-4.03,2.03-2.27,2.95-6.67,1.36-9.16"/><path class="cls-4" d="m63.97,38.26c-15.78,0-27.35,4.58-34.32,13.59-9.77,12.64-9.4,31.91-5.82,45.76,1.11,4.25,1.7,15.65,2.43,19.82,3.43,18.72,24.11,28.69,37.71,28.69h.37V38.26h-.22"/><path class="cls-3" d="m98.25,51.89c-6.93-8.98-18.36-13.56-33.92-13.63v107.87c15.56-.18,34.17-11.1,37.34-28.69.77-4.18,1.33-15.57,2.43-19.82,3.61-13.81,3.98-33.05-5.86-45.73"/><path class="cls-1" d="m62.41,127.12c-.22-.04-.42-.08-.59-.11.2.04.4.08.59.11Z"/><path class="cls-1" d="m61.59,126.96c-.14-.03-.27-.06-.36-.08.12.03.24.05.36.08Z"/><path class="cls-8" d="m61.82,127.01c-.08-.02-.15-.03-.23-.05.07.02.14.03.23.05Z"/><path class="cls-8" d="m61.23,126.88c-.07-.02-.13-.04-.2-.06h0s.08.02.21.06Z"/><path class="cls-1" d="m21.31,71.89c-.43,1.43-.73,2.99-.93,4.66,0,0,.63-2.63,2.03-6.52-.6.83-1,1.5-1.1,1.86Z"/><path class="cls-22" d="m50.94,38.53l-.2.2.03.07c.07-.1.1-.2.17-.27Z"/><path class="cls-1" d="m62.56,124.94c-.22-.04-.43-.08-.61-.12.21.04.41.09.61.12Z"/><path class="cls-1" d="m61.72,124.77c-.14-.03-.28-.06-.37-.08.12.03.24.06.37.08Z"/><path class="cls-10" d="m61.95,124.82c-.08-.02-.15-.03-.23-.05.08.02.14.03.23.05Z"/><path class="cls-10" d="m61.35,124.69c-.07-.02-.14-.04-.21-.06h0s.08.02.21.06Z"/><path class="cls-16" d="m56.08,111.12c-.19-3.83,7.03-1.4,9.41-1.28,1.88.1,7.6-1.21,8.09-.87,3.37,2.27-3.57,6.84-8.21,6.84-1.24,0-9.18-2.38-9.29-4.69Z"/><path class="cls-6" d="m29.9,80.36s3.66,15.02,9.95,16.25c6.29,1.23,13.09-1.21,13.09-1.21,0,0,.65-17.65-2.57-19.96-3.22-2.32-10.63-5.66-20.47,4.92Z"/><path class="cls-18" d="m52.95,95.36s-.14.04-.47.18c-.08-5.42-.58-12.85-2.59-14.28-2.99-2.19-9.74-5.27-18.75,3.16-.82-2.33-1.23-4.09-1.23-4.09,9.86-10.61,17.28-7.27,20.47-4.95,3.22,2.32,2.57,19.99,2.57,19.99Z"/><circle class="cls-24" cx="43.04" cy="87.71" r="6.19" transform="translate(-18.09 11.5) rotate(-12.6)"/><path class="cls-7" d="m42.75,91.83c-1.79-.15-3.16-1.95-3-3.93.16-1.98,1.81-3.53,3.6-3.38,1.79.15,3.16,1.95,3,3.93-.16,1.98-1.81,3.54-3.6,3.39Z"/><path class="cls-20" d="m42.91,91.11c-1.24-.11-2.53-1.47-2.4-3.15.14-1.69,1.63-2.82,2.88-2.72,1.24.11,2.53,1.48,2.39,3.16-.14,1.68-1.63,2.82-2.87,2.72Z"/><path class="cls-6" d="m41.9,86.97c-.05.61-.68,1.05-1.39.99-.72-.06-1.26-.6-1.21-1.21.05-.61.67-1.05,1.39-1,.72.06,1.26.6,1.21,1.21Z"/><path class="cls-6" d="m45.91,90.48c-.03.3-.34.53-.69.5-.36-.03-.63-.3-.61-.6.03-.3.34-.53.69-.5.36.03.63.3.61.6Z"/><path class="cls-1" d="m62.66,126.71c-.22-.04-.43-.08-.61-.12.21.04.41.08.61.12Z"/><path class="cls-1" d="m61.82,126.55c-.14-.03-.28-.06-.37-.08.12.03.24.06.37.08Z"/><path class="cls-10" d="m62.05,126.59c-.08-.02-.15-.03-.23-.05.08.02.14.03.23.05Z"/><path class="cls-10" d="m61.45,126.46c-.07-.02-.14-.04-.21-.06h0s.08.02.21.06Z"/><path class="cls-1" d="m62.42,126.3c-.24-.04-.46-.08-.65-.12.22.05.44.09.65.12Z"/><path class="cls-1" d="m61.52,126.12c-.15-.03-.3-.07-.4-.09.13.03.26.06.4.09Z"/><path class="cls-8" d="m61.77,126.17c-.08-.02-.17-.03-.25-.05.08.02.15.03.25.05Z"/><path class="cls-8" d="m61.12,126.03c-.08-.02-.15-.04-.22-.06h0s.09.03.23.06Z"/><path class="cls-1" d="m62.23,125.67c-.24-.04-.46-.08-.65-.12.22.05.44.09.65.12Z"/><path class="cls-1" d="m61.33,125.49c-.15-.03-.3-.07-.4-.09.13.03.26.06.4.09Z"/><path class="cls-8" d="m61.58,125.54c-.08-.02-.17-.03-.25-.05.08.02.15.03.25.05Z"/><path class="cls-8" d="m60.94,125.4c-.08-.02-.15-.04-.22-.06h0s.09.03.23.06Z"/><path class="cls-1" d="m62.79,125.58c-.23-.04-.44-.08-.63-.12.21.05.42.09.63.12Z"/><path class="cls-1" d="m61.92,125.41c-.14-.03-.29-.06-.38-.09.13.03.25.06.38.09Z"/><path class="cls-8" d="m62.16,125.46c-.08-.02-.16-.03-.24-.05.08.02.15.03.24.05Z"/><path class="cls-8" d="m61.53,125.32c-.07-.02-.14-.04-.21-.06h0s.08.03.22.06Z"/><path class="cls-6" d="m99.15,79.85s-3.66,15.02-9.95,16.25c-6.29,1.23-13.09-1.21-13.09-1.21,0,0-.65-17.65,2.57-19.96,3.22-2.32,10.63-5.66,20.47,4.92Z"/><path class="cls-18" d="m76.1,94.84s.14.04.47.18c.08-5.41.58-12.85,2.59-14.28,2.99-2.19,9.74-5.27,18.75,3.16.82-2.33,1.23-4.09,1.23-4.09-9.86-10.61-17.28-7.27-20.47-4.95-3.22,2.32-2.57,19.99-2.57,19.99Z"/><path class="cls-24" d="m79.82,87.19c0,3.42,2.77,6.19,6.19,6.19s6.19-2.77,6.19-6.19-2.77-6.19-6.19-6.19-6.19,2.77-6.19,6.19Z"/><path class="cls-7" d="m86.29,91.32c1.79-.15,3.16-1.95,3-3.93-.16-1.98-1.81-3.53-3.6-3.38-1.79.15-3.16,1.95-3,3.93.16,1.98,1.81,3.54,3.6,3.39Z"/><path class="cls-20" d="m86.14,90.6c1.24-.11,2.53-1.47,2.4-3.15-.14-1.69-1.63-2.82-2.88-2.72-1.24.11-2.53,1.48-2.39,3.16.14,1.68,1.63,2.82,2.87,2.72Z"/><path class="cls-6" d="m87.15,86.45c.05.61.68,1.05,1.39.99.72-.06,1.26-.6,1.21-1.21-.05-.61-.67-1.05-1.39-1-.72.06-1.26.6-1.21,1.21Z"/><path class="cls-6" d="m83.14,89.97c.03.3.34.53.69.5.36-.03.63-.3.61-.6-.03-.3-.34-.53-.69-.5-.36.03-.63.3-.61.6Z"/><path d="m56.72,80.13c-.05-.07-1.19-1.81-3.52-3.6-1.46-1.12-2.89-1.97-4.38-2.61-1.81-.76-3.75-1.3-5.63-1.55-1.7-.19-3.59-.14-5.8.16-1.68.32-3.32.82-4.71,1.43-.99.34-1.78.82-2.41,1.21-.24.15-.46.28-.68.4l-3,1.89,3.46-.81c.16-.04.34-.09.52-.14.72-.19,1.61-.43,2.65-.58.24-.04.49-.08.75-.14.44-.09.89-.18,1.36-.2.52-.03,1.07-.07,1.63-.11l.73-.05c1.92-.02,3.54.12,4.97.45,1.57.27,3.19.78,4.67,1.46,1.4.67,2.74,1.33,3.79,2.1,2.11,1.41,3.29,2.59,3.3,2.6h0c.29.29.68.44,1.07.44.28,0,.57-.08.82-.24.7-.46.89-1.4.45-2.07l-.03-.05Z"/><path d="m99.76,75.55c-.2-.11-.42-.24-.66-.39-.63-.39-1.41-.87-2.38-1.2-1.42-.63-3.06-1.13-4.76-1.45-2.18-.29-4.07-.34-5.78-.15-1.87.26-3.82.79-5.63,1.55-1.46.63-2.94,1.5-4.38,2.61-2.29,1.76-3.43,3.46-3.51,3.59l-.02.03c-.39.6-.3,1.39.2,1.89.28.29.66.44,1.07.44h0c.4,0,.78-.16,1.06-.44h.01c.11-.12,1.25-1.24,3.3-2.61,1.03-.76,2.37-1.42,3.77-2.09,1.49-.69,3.1-1.2,4.7-1.47,1.42-.33,3.04-.47,4.93-.45l.76.05c.55.04,1.09.08,1.62.11.46.02.91.11,1.35.2.25.05.5.1.75.14,1.05.15,1.94.39,2.65.58.19.05.36.1.53.14l3.46.81-3.03-1.9Z"/><path class="cls-1" d="m63.17,128.22c-.22-.04-.42-.08-.59-.11.2.04.4.08.59.11Z"/><path class="cls-1" d="m62.35,128.06c-.14-.03-.27-.06-.36-.08.12.03.24.05.36.08Z"/><path class="cls-8" d="m62.57,128.11c-.08-.02-.15-.03-.23-.05.07.02.14.03.23.05Z"/><path class="cls-8" d="m61.99,127.98c-.07-.02-.13-.04-.2-.06h0s.08.02.21.06Z"/><path class="cls-1" d="m63.31,126.04c-.22-.04-.43-.08-.61-.12.21.04.41.09.61.12Z"/><path class="cls-1" d="m62.47,125.87c-.14-.03-.28-.06-.37-.08.12.03.24.06.37.08Z"/><path class="cls-10" d="m62.7,125.92c-.08-.02-.15-.03-.23-.05.08.02.14.03.23.05Z"/><path class="cls-10" d="m62.1,125.79c-.07-.02-.14-.04-.21-.06h0s.08.02.21.06Z"/><path class="cls-1" d="m63.41,127.81c-.22-.04-.43-.08-.61-.12.21.04.41.08.61.12Z"/><path class="cls-1" d="m62.57,127.65c-.14-.03-.28-.06-.37-.08.12.03.24.06.37.08Z"/><path class="cls-10" d="m62.8,127.69c-.08-.02-.15-.03-.23-.05.08.02.14.03.23.05Z"/><path class="cls-10" d="m62.2,127.56c-.07-.02-.14-.04-.21-.06h0s.08.02.21.06Z"/><path class="cls-1" d="m63.17,127.4c-.24-.04-.46-.08-.65-.12.22.05.44.09.65.12Z"/><path class="cls-1" d="m62.27,127.22c-.15-.03-.3-.07-.4-.09.13.03.26.06.4.09Z"/><path class="cls-8" d="m62.52,127.27c-.08-.02-.17-.03-.25-.05.08.02.15.03.25.05Z"/><path class="cls-8" d="m61.88,127.13c-.08-.02-.15-.04-.22-.06h0s.09.03.23.06Z"/><path class="cls-1" d="m62.99,126.77c-.24-.04-.46-.08-.65-.12.22.05.44.09.65.12Z"/><path class="cls-1" d="m62.09,126.59c-.15-.03-.3-.07-.4-.09.13.03.26.06.4.09Z"/><path class="cls-8" d="m62.34,126.64c-.08-.02-.17-.03-.25-.05.08.02.15.03.25.05Z"/><path class="cls-8" d="m61.69,126.5c-.08-.02-.15-.04-.22-.06h0s.09.03.23.06Z"/><path class="cls-1" d="m63.54,126.68c-.23-.04-.44-.08-.63-.12.21.05.42.09.63.12Z"/><path class="cls-1" d="m62.67,126.51c-.14-.03-.29-.06-.38-.09.13.03.25.06.38.09Z"/><path class="cls-8" d="m62.91,126.56c-.08-.02-.16-.03-.24-.05.08.02.15.03.24.05Z"/><path class="cls-8" d="m62.29,126.42c-.07-.02-.14-.04-.21-.06h0s.08.03.22.06Z"/><path class="cls-1" d="m61.19,133.05c-.22-.04-.43-.08-.6-.12.2.04.4.08.6.12Z"/><path class="cls-1" d="m60.35,132.89c-.14-.03-.28-.06-.37-.08.12.03.24.06.37.08Z"/><path class="cls-13" d="m60.58,132.94c-.08-.02-.15-.03-.23-.05.08.02.14.03.23.05Z"/><path class="cls-13" d="m59.99,132.8c-.07-.02-.14-.04-.21-.06h0s.08.02.21.06Z"/><path class="cls-1" d="m61.02,132.47c-.22-.04-.43-.08-.6-.12.21.04.4.08.6.12Z"/><path class="cls-1" d="m60.18,132.31c-.14-.03-.28-.06-.37-.08.12.03.24.06.37.08Z"/><path class="cls-13" d="m60.41,132.36c-.08-.02-.15-.03-.23-.05.08.02.14.03.23.05Z"/><path class="cls-13" d="m59.81,132.22c-.07-.02-.14-.04-.21-.06h0s.08.02.21.06Z"/><path class="cls-1" d="m61.53,132.39c-.22-.04-.41-.08-.58-.11.2.04.39.08.58.11Z"/><path class="cls-1" d="m60.72,132.23c-.13-.03-.27-.06-.35-.08.12.03.23.05.35.08Z"/><path class="cls-13" d="m60.94,132.28c-.07-.02-.15-.03-.22-.05.07.02.14.03.22.05Z"/><path class="cls-13" d="m60.37,132.15c-.07-.02-.13-.04-.2-.06h0s.08.02.21.06Z"/><path class="cls-5" d="m55.44,133.17c-.18-2.39,6.65.5,8.89.57,1.79.06,7.16-.35,7.66-.54,3.76-1.4-.21,3.99-7.77,4.27-3.47.14-8.68-2.85-8.78-4.3Z"/><path class="cls-21" d="m77.95,127.44c-4.33-.81-13.45.05-13.45.05-7.52,1.25-13.41-.08-13.45-.03-.18.02,6.01,8.22,13.35,7.85h0c7.34.38,13.73-7.85,13.56-7.87Z"/><path class="cls-19" d="m68.84,125.71c-1.95-.22-3.34,1.19-4.34,1.09-1.02.09-2.34-.81-4.3-.83-2.76-.03-4.11-.27-9.16,1.5.18.34,3.41,2.22,9.47,2.32.09,0,1.71.92,4.02.91,1.45,0,3.43-.97,3.51-.97,6.07-.09,9.77-1.9,9.94-2.23-6.67-2.07-6.14-1.8-9.14-1.78Z"/><path class="cls-11" d="m103.66,37.12c-.4-.38-.81-.75-1.22-1.12.54-3.29-1.33-7.6-11.41-11.3,0,0,3.18,2.89,5.63,6.87-5.32-3.57-10.79-6.12-14.58-7.68,12.21-5.88,22.63,4.51,22.63,4.51-5.66-16.61-25.61-9.09-30.99-6.7-.18-.07-.38-.14-.56-.21,14.53-15.6-9.45-18.12-9.45-18.12,17.44,4.71,5.93,14.11,3.29,16.05-.17-.05-.34-.1-.52-.15C66.53,2.68,45.46,0,45.46,0c17.69,6.1,9.42,16.49,7.88,18.22-.32.05-.62.09-.91.14-9.15-1.3-6.14-11.8-6.14-11.8-8.6,5.9-6.6,13.27-5.21,16.38-.02,0-.04.01-.06.02-.5.18-.99.37-1.45.56-2.91-.37-6.01-1.03-9.2-2.1,0,0,2.02,1.96,5.42,3.9-2.64,1.46-4.68,3.07-6.41,4.7-4.12.13-8.76-.23-13.76-1.5,0,0,4.1,3.37,10.21,5.25-.93,1.06-1.81,2.08-2.72,3.04-4,.91-8.65,1.46-13.89,1.17,0,0,3.74,1.9,8.96,2.84-1.08.61-2.29,1.12-3.68,1.52-11.25,3.27-14.52-.93-14.52-.93,0,0,4.89,7.36,13.56,7.38,1.4,0,1.54-.02,1.54-.02,0,.02-2.11,5.12-3.25,10.17-2.58.86-5.42,1.58-8.59,2.03,0,0,3.42.93,8.04,1.01-.02.18-.05.36-.07.54-.63,6,1.36,10.11,1.96,21.33.53,9.59,3.38,4.68,6.78,11.75,1.15,2.37,1.2,5.04,1.2,5.04,1.25.28,4.56-5.76,2.19-16.25-.69-3.01.43-9.73,3.48-15.86,0,0,.52-1.21,1.54-2.91h0c1.1-1.82,2.78-4.2,5.04-6.26,17.89-19.9,24.25-1.25,24.25-1.25v.07s4.6,9.91,16.43,11.45l31.87,4.14c.31,2.71.32,5.71,0,9.01-1.68,17.38,1.49,17.26,1.49,17.26.94,0-.07-4.63,3.09-7.82,3.16-3.19,7.98-13.94,7.98-24.67s-4.12-20.27-14.88-30.42Zm-23.43-12.21c.05-.03.11-.07.16-.11l1.09.91c-.37-.25-.8-.52-1.25-.8Z"/><path class="cls-15" d="m107.5,180.18c-5.15-13.98-14.11-19.46-19.44-21.55-.14,7.3-10.04,13.2-22.22,13.2-.33,0-.65,0-.98-.02-.06,0-.12,0-.18,0v4.16h-14.37c-6.66,0-12.66-4.03-15.17-10.2l-1.05-2.59c-4.2,3.37-8.62,8.67-11.68,17.01h8.93c-1.49,6.77-2.41,15.12-2.41,25.45,0,0,.29.14.85.52h70.44c.57-.39.85-.52.85-.52,0-10.35-.92-18.7-2.42-25.45h8.84Z"/><path class="cls-23" d="m64.68,171.8v4.16h-14.69c-6.47,0-12.29-3.92-14.73-9.91l-1.17-2.88c3.7-2.98,7.23-4.47,9.5-5.16-.02.14-.02.31-.02.46,0,7.14,9.35,12.97,21.11,13.32Z"/><path class="cls-23" d="m64.68,171.8v4.16h15.29c6.47,0,12.29-3.92,14.73-9.91l1.17-2.88c-3.7-2.98-7.23-4.47-9.5-5.16.02.14.02.31.02.46,0,7.14-9.94,12.97-21.7,13.33Z"/><rect class="cls-23" x="53.02" y="179.79" width="21.09" height="4.13"/><rect class="cls-23" x="53.02" y="187.36" width="21.09" height="4.13"/><rect class="cls-23" x="53.02" y="194.92" width="21.09" height="4.13"/></svg>