<?xml version="1.0" encoding="UTF-8"?><svg id="Layer_1" xmlns="http://www.w3.org/2000/svg" xmlns:xlink="http://www.w3.org/1999/xlink" viewBox="0 0 118.77 193.64"><defs><style>.cls-1{fill:none;}.cls-2{clip-path:url(#clippath);}.cls-3{fill:#f6f5f5;}.cls-4{fill:#f1dab4;}.cls-5{fill:#e4c59e;}.cls-6{fill:#f3dab4;}.cls-7{fill:#fff;}.cls-8{fill:#6aa6ae;}.cls-9{fill:#7f401b;}.cls-10{fill:#c3977d;}.cls-11{fill:#b48d76;}.cls-12{fill:#c1967d;}.cls-13{fill:#cba686;}.cls-14{fill:#c75d51;}.cls-15{fill:#c49d80;}.cls-16{fill:#c5997d;}.cls-17{fill:#e1bd9d;}.cls-18{fill:#d7ad88;}.cls-19{fill:#dbbb9a;}.cls-20{fill:#e1c7a3;}.cls-21{fill:#ca0240;}.cls-22{fill:#231c08;}.cls-23{fill:#463216;}.cls-24{fill:#4c2912;}.cls-25{fill:#4a2040;}.cls-26{fill:#efefef;opacity:.55;}.cls-27{fill:#111714;opacity:.4;}</style><clipPath id="clippath"><rect class="cls-1" x="48.16" y="124.48" width="25.1" height="14.8"/></clipPath></defs><path class="cls-8" d="m30.96,150.64s-4.13-1.61-8.84-6.47c-4.87-4.71-6.47-8.84-6.47-8.84,0,0,2.69-1.3,6.18-2.83l11.97,11.97c-1.54,3.49-2.83,6.18-2.83,6.18Z"/><path class="cls-21" d="m33.8,144.46l-11.97-11.97c2.42-1.07,5.23-2.25,7.81-3.19l7.35,7.35c-.94,2.58-2.12,5.38-3.19,7.81Z"/><path class="cls-8" d="m93.27,150.64s4.13-1.61,8.84-6.47c4.87-4.71,6.47-8.84,6.47-8.84,0,0-2.69-1.3-6.18-2.83l-11.97,11.97c1.54,3.49,2.83,6.18,2.83,6.18Z"/><path class="cls-21" d="m90.44,144.46l11.97-11.97c-2.42-1.07-5.23-2.25-7.81-3.19l-7.35,7.35c.94,2.58,2.12,5.38,3.19,7.81Z"/><path class="cls-8" d="m26.32,122.71c0,8.98,7.25,16.26,16.19,16.26h38.59c8.94,0,16.19-7.28,16.19-16.26,0-7.21-4.68-13.33-11.15-15.46-1.83-4.56-5.85-7.73-10.53-7.73h-27.61c-4.67,0-8.7,3.17-10.53,7.73-6.47,2.13-11.15,8.24-11.15,15.46Z"/><path class="cls-5" d="m15.31,193.04c-.74-.29-1.11-.44-1.11-.44,0-10.69,1.57-19.03,3.96-25.53,5.77-15.69,16.32-20.67,21.18-22.17,1.59-.49,2.58-.61,2.58-.61.17,0,.33-.02.5-.04,1.43-.23,2.59-1.47,3.51-3.45.69-1.47,1.27-3.34,1.74-5.51.19-.85.33-1.7.48-2.62.22-1.55.44-3.17.63-4.87.07-1.03.18-2.03.29-3.1.4-5.12.52-10.73.52-16.05,0,0,6.08.63,11.02.63v83.76"/><path class="cls-4" d="m60.62,193.04v-83.76h.11c4.9,0,11.06-.63,11.06-.63,0,5.27.11,10.81.51,15.93.11,1,.22,2.03.29,3.02.19,1.77.41,3.43.67,4.98v.03c.07.7.22,1.33.33,1.99.45,2.18.99,4.1,1.64,5.63.81,1.91,1.8,3.25,3.01,3.77.38.17.79.26,1.21.26,0,0,1.74.21,4.36,1.24,5.33,2.09,14.29,7.57,19.44,21.55,2.39,6.5,3.96,14.84,3.96,25.53,0,0-.41.15-1.07.44"/><g class="cls-2"><path class="cls-15" d="m73.26,132.43v.04c-1.14,1.76-4.98,6.82-12.57,6.82h-.07c-7.19-.04-11.39-5.24-12.46-6.78.22-1.54.44-3.15.63-4.84.07-.99.18-2.02.29-3.08,3.5.88,7.34,1.43,11.39,1.5h.15c4.2-.07,8.07-.66,11.69-1.61.11.99.22,2.02.29,3,.18,1.76.41,3.41.66,4.95"/></g><path class="cls-18" d="m60.1,13.82C12.11,13.82,11.85,53.95,13.99,80.22c-3.28-6.23-13.05-4.32-12.24,5.5.77,9.45,14.73,14.27,14.34,13.23,7.27,19.43,26.51,34.08,44.02,34.08h.37V13.82h-.37"/><path class="cls-11" d="m4.81,81.57c2.36-3.81,6.05-2.16,6.93-1.32.96.92,1.73,2.09,1.14,4.32-.33,1.28-1.66,1.39-1.36,3.3.37,2.16,1.36,2.27,1.95,2.78.55.48,1.25.84,1.59,1.76.37.92.41,1.87.22,2.71-.37,1.54-2.62.29-4.13-.37-1-.48-4.17-3.15-4.98-4.03-1.99-2.27-2.95-6.67-1.36-9.16"/><path class="cls-17" d="m60.36,13.82c48,0,48.26,40.12,46.15,66.39,3.28-6.23,13.01-4.32,12.2,5.5-.74,9.45-14.72,14.27-14.34,13.23-7.08,19.43-26.51,34.08-44.02,34.08h-.26l-.11-119.19h.37"/><path class="cls-11" d="m115.66,81.57c-2.36-3.81-6.01-2.16-6.93-1.32-.96.92-1.7,2.09-1.14,4.32.33,1.28,1.66,1.39,1.36,3.3-.37,2.16-1.36,2.27-1.92,2.78-.55.48-1.29.84-1.62,1.76-.33.92-.41,1.87-.22,2.71.37,1.54,2.62.29,4.13-.37,1.03-.48,4.17-3.15,4.98-4.03,2.03-2.27,2.95-6.67,1.36-9.16"/><path class="cls-5" d="m59.73,25.15c-15.78,0-27.35,4.58-34.32,13.59-9.77,12.64-9.4,31.91-5.82,45.76,1.11,4.25,1.7,15.65,2.43,19.82,3.43,18.72,24.11,28.69,37.71,28.69h.37V25.15h-.22"/><path class="cls-4" d="m94.01,38.78c-6.93-8.98-18.36-13.56-33.92-13.63v107.87c15.56-.18,34.17-11.1,37.34-28.69.77-4.18,1.33-15.57,2.43-19.82,3.61-13.81,3.98-33.05-5.86-45.73"/><path class="cls-1" d="m58.17,109.97c-.22-.04-.42-.08-.59-.11.2.04.4.08.59.11Z"/><path class="cls-1" d="m57.35,113.85c-.14-.03-.27-.06-.36-.08.12.03.24.05.36.08Z"/><path class="cls-10" d="m57.58,113.9c-.08-.02-.15-.03-.23-.05.07.02.14.03.23.05Z"/><path class="cls-10" d="m56.99,113.77c-.07-.02-.13-.04-.2-.06h0s.08.02.21.06Z"/><path class="cls-17" d="m51.19,99.9c-.18-3.73,6.85-1.36,9.16-1.25,1.83.09,7.4-1.17,7.88-.85,3.28,2.21-3.47,6.66-8,6.66-1.21,0-8.94-2.32-9.05-4.57Z"/><path class="cls-1" d="m17.06,58.77c-.43,1.43-.73,2.99-.93,4.66,0,0,.63-2.63,2.03-6.52-.6.83-1,1.5-1.1,1.86Z"/><path class="cls-23" d="m46.69,25.42l-.2.2.03.07c.07-.1.1-.2.17-.27Z"/><path class="cls-1" d="m58.32,111.82c-.22-.04-.43-.08-.61-.12.21.04.41.09.61.12Z"/><path class="cls-1" d="m57.48,111.66c-.14-.03-.28-.06-.37-.08.12.03.24.06.37.08Z"/><path class="cls-12" d="m57.71,111.71c-.08-.02-.15-.03-.23-.05.08.02.14.03.23.05Z"/><path class="cls-12" d="m57.11,111.57c-.07-.02-.14-.04-.21-.06h0s.08.02.21.06Z"/><path class="cls-7" d="m25.66,67.25s3.66,15.02,9.95,16.25c6.29,1.23,13.09-1.21,13.09-1.21,0,0,.65-17.65-2.57-19.96-3.22-2.32-10.63-5.66-20.47,4.92Z"/><path class="cls-19" d="m48.71,82.24s-.14.04-.47.18c-.08-5.41-.58-12.85-2.59-14.28-2.99-2.19-9.74-5.27-18.75,3.16-.82-2.33-1.23-4.09-1.23-4.09,9.86-10.61,17.28-7.27,20.47-4.95,3.22,2.32,2.57,19.99,2.57,19.99Z"/><circle class="cls-24" cx="38.8" cy="74.59" r="6.19"/><path class="cls-9" d="m38.51,78.71c-1.79-.15-3.16-1.95-3-3.93.16-1.98,1.81-3.53,3.6-3.38,1.79.15,3.16,1.95,3,3.93-.16,1.98-1.81,3.54-3.6,3.39Z"/><path class="cls-22" d="m38.67,78c-1.24-.11-2.53-1.47-2.4-3.15.14-1.69,1.63-2.82,2.88-2.72,1.24.11,2.53,1.48,2.39,3.16-.14,1.68-1.63,2.82-2.87,2.72Z"/><path class="cls-7" d="m37.66,73.85c-.05.61-.68,1.05-1.39.99-.72-.06-1.26-.6-1.21-1.21.05-.61.67-1.05,1.39-1,.72.06,1.26.6,1.21,1.21Z"/><path class="cls-7" d="m41.67,77.36c-.03.3-.34.53-.69.5-.36-.03-.63-.3-.61-.6.03-.3.34-.53.69-.5.36.03.63.3.61.6Z"/><path class="cls-1" d="m58.42,113.6c-.22-.04-.43-.08-.61-.12.21.04.41.09.61.12Z"/><path class="cls-1" d="m57.57,113.43c-.14-.03-.28-.06-.37-.08.12.03.24.06.37.08Z"/><path class="cls-12" d="m57.81,113.48c-.08-.02-.15-.03-.23-.05.08.02.14.03.23.05Z"/><path class="cls-12" d="m57.21,113.35c-.07-.02-.14-.04-.21-.06h0s.08.02.21.06Z"/><path class="cls-1" d="m58.18,113.18c-.24-.04-.46-.08-.65-.12.22.05.44.09.65.12Z"/><path class="cls-1" d="m57.28,113c-.15-.03-.3-.07-.4-.09.13.03.26.06.4.09Z"/><path class="cls-10" d="m57.53,113.06c-.08-.02-.17-.03-.25-.05.08.02.15.03.25.05Z"/><path class="cls-10" d="m56.88,112.91c-.08-.02-.15-.04-.22-.06h0s.09.03.23.06Z"/><path class="cls-1" d="m57.99,112.55c-.24-.04-.46-.08-.65-.12.22.05.44.09.65.12Z"/><path class="cls-1" d="m57.09,112.37c-.15-.03-.3-.07-.4-.09.13.03.26.06.4.09Z"/><path class="cls-10" d="m57.34,112.43c-.08-.02-.17-.03-.25-.05.08.02.15.03.25.05Z"/><path class="cls-10" d="m56.7,112.28c-.08-.02-.15-.04-.22-.06h0s.09.03.23.06Z"/><path class="cls-1" d="m58.55,112.46c-.23-.04-.44-.08-.63-.12.21.05.42.09.63.12Z"/><path class="cls-1" d="m57.67,112.29c-.14-.03-.29-.06-.38-.09.13.03.25.06.38.09Z"/><path class="cls-10" d="m57.92,112.34c-.08-.02-.16-.03-.24-.05.08.02.15.03.24.05Z"/><path class="cls-10" d="m57.29,112.2c-.07-.02-.14-.04-.21-.06h0s.08.03.22.06Z"/><path class="cls-7" d="m94.9,66.74s-3.66,15.02-9.95,16.25c-6.29,1.23-13.09-1.21-13.09-1.21,0,0-.65-17.65,2.57-19.96,3.22-2.32,10.63-5.66,20.47,4.92Z"/><path class="cls-19" d="m71.86,81.73s.14.04.47.18c.08-5.41.58-12.85,2.59-14.28,2.99-2.19,9.74-5.27,18.75,3.16.82-2.33,1.23-4.09,1.23-4.09-9.86-10.61-17.28-7.27-20.47-4.95-3.22,2.32-2.57,19.99-2.57,19.99Z"/><path class="cls-24" d="m75.58,74.08c0,3.42,2.77,6.19,6.19,6.19s6.19-2.77,6.19-6.19-2.77-6.19-6.19-6.19-6.19,2.77-6.19,6.19Z"/><path class="cls-9" d="m82.05,78.2c1.79-.15,3.16-1.95,3-3.93-.16-1.98-1.81-3.53-3.6-3.38-1.79.15-3.16,1.95-3,3.93.16,1.98,1.81,3.54,3.6,3.39Z"/><path class="cls-22" d="m81.9,77.48c1.24-.11,2.53-1.47,2.4-3.15-.14-1.69-1.63-2.82-2.88-2.72-1.24.11-2.53,1.48-2.39,3.16.14,1.68,1.63,2.82,2.87,2.72Z"/><path class="cls-7" d="m82.91,73.34c.05.61.68,1.05,1.39.99.72-.06,1.26-.6,1.21-1.21-.05-.61-.67-1.05-1.39-1-.72.06-1.26.6-1.21,1.21Z"/><path class="cls-7" d="m78.9,76.85c.03.3.34.53.69.5.36-.03.63-.3.61-.6-.03-.3-.34-.53-.69-.49-.36.03-.63.3-.61.6Z"/><path d="m52.48,67.01c-.05-.07-1.19-1.81-3.52-3.6-1.46-1.12-2.89-1.97-4.38-2.61-1.81-.76-3.75-1.3-5.63-1.55-1.7-.19-3.59-.14-5.79.16-1.68.32-3.32.82-4.71,1.43-.99.34-1.78.82-2.41,1.21-.24.15-.46.28-.68.4l-3,1.89,3.46-.81c.16-.04.34-.09.52-.14.72-.19,1.61-.43,2.65-.58.24-.04.49-.09.75-.14.44-.09.89-.18,1.36-.2.52-.04,1.07-.07,1.63-.11l.73-.05c1.92-.02,3.54.12,4.97.45,1.57.27,3.19.78,4.67,1.46,1.4.67,2.74,1.33,3.79,2.1,2.11,1.41,3.29,2.59,3.3,2.6h0c.29.29.68.44,1.07.44.28,0,.57-.08.82-.24.7-.46.89-1.4.45-2.07l-.03-.05Z"/><path d="m95.52,62.44c-.2-.11-.42-.24-.66-.39-.63-.39-1.41-.87-2.38-1.2-1.42-.63-3.06-1.13-4.76-1.45-2.18-.29-4.07-.34-5.78-.15-1.87.26-3.82.79-5.63,1.55-1.46.63-2.94,1.5-4.38,2.61-2.29,1.76-3.43,3.46-3.51,3.59l-.02.03c-.39.59-.3,1.39.2,1.89.28.29.66.44,1.07.44h0c.4,0,.78-.16,1.06-.44h.01c.11-.12,1.25-1.24,3.3-2.61,1.03-.76,2.37-1.42,3.77-2.09,1.49-.69,3.1-1.2,4.7-1.47,1.42-.33,3.04-.47,4.93-.45l.76.05c.55.04,1.09.08,1.62.11.46.02.91.11,1.35.2.25.05.5.1.75.14,1.05.15,1.94.39,2.65.58.19.05.36.1.53.14l3.46.81-3.03-1.9Z"/><path class="cls-1" d="m57.36,115.38c-.23-.04-.45-.08-.64-.12.22.05.43.09.64.12Z"/><path class="cls-1" d="m56.48,115.21c-.15-.03-.29-.07-.39-.09.13.03.26.06.39.09Z"/><path class="cls-16" d="m56.72,115.26c-.08-.02-.16-.03-.24-.05.08.02.15.03.24.05Z"/><path class="cls-16" d="m56.09,115.12c-.07-.02-.14-.04-.22-.06h0s.08.03.22.06Z"/><path class="cls-6" d="m51.23,118.36c-.18-2.42,6.73.51,9,.58,1.81.06,7.25-.36,7.75-.55,3.8-1.42-.21,4.04-7.86,4.32-3.51.14-8.78-2.89-8.88-4.35Z"/><path class="cls-20" d="m73.72,113.7c-1.88-.09-3.8,1.47-6.06,1.23-.09-.05-.14-.05-.23-.05-.52-.09-1.03,0-1.6.14-.7.15-1.41.43-2.07.66-1.13.37-2.4.66-3.7.56h0s-.05,0-.07,0-.05,0-.07,0h0c-1.31.09-2.58-.2-3.7-.57-.66-.23-1.37-.51-2.07-.66-.56-.14-1.08-.23-1.6-.14-.1,0-.14,0-.23.05-2.26.24-4.18-1.32-6.06-1.23-.52.05-1.27-.09-1.69-.09.09.05.19.09.28.14,5.35,2.61,9.96,7.49,15.07,7.33h.15c5.11.16,9.72-4.73,15.07-7.33.1-.05.19-.09.28-.14-.42,0-1.17.14-1.69.09Z"/><path class="cls-13" d="m75.29,113.55h0s-5.44-2.09-9.3-.87c0,0-1.44.56-2.93.9-.91.35-2.01.46-3.07.41h0c-.81-.03-1.59-.14-2.22-.25-.21-.03-.42-.08-.64-.12-.09-.02-.16-.03-.24-.05-.13-.03-.26-.06-.39-.09-.14-.03-.22-.06-.22-.06h0c-1.24-.34-2.3-.75-2.3-.75-3.87-1.23-9.3.87-9.3.87h0c-.07.03-.12.06-.12.06.42,0,1.17.14,1.69.09,1.88-.09,3.8,1.47,6.06,1.23.09-.05.14-.05.23-.05.52-.09,1.03,0,1.6.14.7.15,1.41.43,2.07.66,1.13.37,2.4.66,3.7.56h0s.05,0,.07,0,.05,0,.07,0h0c1.31.09,2.58-.2,3.7-.57.66-.23,1.37-.51,2.07-.66.56-.14,1.08-.23,1.6-.14.1,0,.14,0,.23.05,2.26.24,4.18-1.32,6.06-1.23.52.05,1.27-.09,1.69-.09,0,0-.05-.02-.12-.06Z"/><path class="cls-13" d="m50.85,114.83c.1.02,10.19,3.1,18.08.07l-.91-.61h-10.66l-6.5.54Z"/><path class="cls-14" d="m13.66,193.64c.01-2.6.11-5.07.28-7.41.26-3.64.7-6.97,1.29-10.01,5.99-31.16,27.04-32.71,27.04-32.71l18.07,12.16,18.5-12.21c18.24,4.21,24.9,20.01,27.26,32.76.69,3.72,1.01,7.17,1.15,10.01.21,4.47-.03,7.41-.03,7.41"/><path class="cls-3" d="m66.15,193.63l10.97-21.57-3.08-3.3c.04-.11.07-.21.1-.32.04-.12.08-.24.12-.36.04-.14.09-.28.13-.42.04-.11.08-.23.11-.35.04-.13.09-.27.13-.4.04-.11.07-.23.11-.34.04-.14.1-.29.14-.44.03-.09.06-.17.09-.26.05-.16.1-.31.15-.47.03-.08.05-.16.07-.23.27-.83.54-1.64.8-2.42.01-.03.02-.07.03-.1.06-.19.12-.37.18-.55.01-.04.02-.07.04-.11.06-.19.12-.37.18-.55,0-.03.02-.06.03-.09.06-.18.12-.37.18-.55,0-.03.02-.06.03-.08.06-.19.12-.37.18-.56,0-.02.01-.03.02-.05.4-1.21.79-2.36,1.15-3.42t0,0c.06-.17.12-.35.18-.52,0,0,0-.01,0-.02.47-1.37.9-2.58,1.27-3.62.05-.15.11-.29.16-.43,0,0,0,0,0-.01.04-.12.09-.24.13-.36h0c.18-.48.35-.92.49-1.29.13-.33.25-.61.35-.86.17-.39.31-.66.41-.8.07-.1.13-.14.16-.1,0,0-3.99-10.33-7.02-13-.24,2.49-2.57,9.5-7.39,13.55-3.19,2.68-5.36,4.41-5.94,5.4h-.04c-.57-.99-2.74-2.72-5.93-5.4-4.82-4.05-7.15-11.06-7.39-13.55-3.02,2.67-7.02,13-7.02,13,.03-.04.08,0,.16.1.1.14.23.41.4.8.1.24.22.53.35.86.15.38.31.81.49,1.29h0c.04.12.09.24.13.36,0,0,0,0,0,.01.05.14.11.28.16.43.37,1.04.8,2.25,1.27,3.62,0,0,0,.01,0,.02.06.17.12.34.18.52h0c.36,1.06.75,2.21,1.15,3.42,0,.02.01.03.02.05.06.18.12.37.18.56.01.03.02.06.03.08.06.18.12.37.18.55.01.03.02.06.03.09.06.18.12.37.18.55.01.04.02.07.04.11.06.18.12.37.18.55.01.03.02.06.03.1.26.79.53,1.6.8,2.42.02.08.05.15.07.23.05.15.1.31.15.47.03.09.06.18.09.26.05.15.1.29.14.44.04.11.07.23.11.34.04.13.09.27.13.4.04.12.08.23.11.35.04.14.09.28.14.42,0,.02.01.03.02.05l-1.55,1.56,9.65,23.94"/><circle class="cls-7" cx="15.04" cy="99.12" r="5.35"/><circle class="cls-7" cx="104.54" cy="99.12" r="5.35"/><path class="cls-8" d="m104.3,19.39c-4.71-4.36-10.67-5.92-10.67-5.92,0,0-13.17-6.55-23.21-11.22-10.04-4.67-26.35-.94-34.82,1.25-8.47,2.18-18.56,14.15-21.7,20.69C10.76,30.73,2.96,44.95.46,55.24c-2.51,10.29,5.92,20.27,11.18,22.4,3.42,1.39,3.64,9.38,3.64,9.38l3.74,1.64s-.3-.72-.66-1.9c.4,1.19.66,1.9.66,1.9,45.41-14.55,56.26-35.33,58.23-48.27.15-.45.27-.82.34-1.06.06-.05.12-.11.18-.16,2.85.66,7.56,2.33,13.4,6.64,5.93,4.38,13.24,10.44,13.24,23.55,0,4.38-1.97,17.13-1.97,17.13l1.97-1.39s0-4.94,5.63-8.04c4.48-2.47,5.63-10.88,5.63-14.35,0-23.22-6.65-38.94-11.36-43.31Z"/><polygon class="cls-25" points="40.46 148.7 45.85 169.69 49.71 166.51 40.46 148.7"/><polygon class="cls-25" points="81.19 148.7 77.12 172.06 74.15 168.44 81.19 148.7"/><path class="cls-27" d="m51.8,84.27c.16-.44.31-.88.46-1.33.83-2.55,1.26-5.16.79-7.85-.43-2.43-1.93-4.12-3.96-5.44-2.46-1.61-5.28-2.15-8.15-2.45-5.46-.56-10.89-.44-16.26.8-3.18.73-5.62,2.3-6.81,5.35h0s-.02.04-.04.12c-.02.05-.04.11-.06.16-.05.13-.08.25-.1.36-.09.33-.21.77-.3,1.28-.1.35-.15.72-.17,1.09-.07.6-.09,1.24-.04,1.88h0c.09,2.35.41,4.64,1.09,6.81,9.34-3.05,21.23-4.75,33.57-.79Z"/><path class="cls-27" d="m101.98,86.05c.9-2.47,1.31-5.09,1.42-7.8h0c.05-.64.02-1.28-.04-1.88-.01-.38-.07-.74-.17-1.09-.1-.51-.21-.95-.3-1.28-.02-.11-.05-.23-.1-.36-.02-.06-.04-.11-.06-.16-.03-.08-.04-.12-.04-.12h0c-1.19-3.05-3.63-4.62-6.81-5.35-5.37-1.24-10.8-1.36-16.26-.8-2.87.3-5.68.84-8.15,2.45-2.03,1.32-3.53,3.01-3.96,5.44-.47,2.69-.04,5.3.79,7.85.06.17.11.34.17.51,12.58-3.18,24.51-.77,33.53,2.6Z"/><path class="cls-27" d="m35.97,96.93c3.46-.34,6.65-1.42,9.46-3.47,3.25-2.37,5.07-5.63,6.37-9.19-12.34-3.95-24.23-2.26-33.57.79.7,2.25,1.77,4.38,3.36,6.34,3.67,4.51,8.62,6.08,14.37,5.52Z"/><path class="cls-26" d="m35.97,96.93c3.46-.34,6.65-1.42,9.46-3.47,3.25-2.37,5.07-5.63,6.37-9.19-12.34-3.95-24.23-2.26-33.57.79.7,2.25,1.77,4.38,3.36,6.34,3.67,4.51,8.62,6.08,14.37,5.52Z"/><path class="cls-27" d="m75.11,93.46c2.81,2.05,6,3.13,9.46,3.47,5.75.56,10.7-1.01,14.37-5.52,1.36-1.67,2.34-3.47,3.03-5.36-9.02-3.38-20.95-5.78-33.53-2.6,1.32,3.88,3.17,7.45,6.66,10.01Z"/><path class="cls-26" d="m75.11,93.46c2.81,2.05,6,3.13,9.46,3.47,5.75.56,10.7-1.01,14.37-5.52,1.36-1.67,2.34-3.47,3.03-5.36-9.02-3.38-20.95-5.78-33.53-2.6,1.32,3.88,3.17,7.45,6.66,10.01Z"/><path class="cls-3" d="m109.86,70.44c-.06-1.21-.16-1.34-1.41-1.62-.63-.14-1.26-.28-1.89-.42-3.37-.76-6.74-1.55-10.13-2.18-9.37-1.73-18.65-2.2-27.49,2.3-1.46.74-3.02.88-4.68.54-1.32-.27-2.65-.43-3.98-.44-1.33.02-2.67.17-3.98.44-1.66.34-3.22.2-4.68-.54-8.84-4.5-18.12-4.03-27.49-2.3-3.21.59-6.39,1.33-9.58,2.05-.81.18-1.63.37-2.44.55-1.24.27-1.34.4-1.41,1.62-.06,1.12-.14,2.25.98,3.01.07.05.1.13.16.2,1.27,1.44,2.2,2.98,2.71,4.76.16.55.28,1.12.35,1.72.24,1.93.67,3.81,1.31,5.63.66,1.87,1.53,3.66,2.66,5.35,2.85,4.28,6.91,6.9,12.08,7.51,8.39.99,15.24-1.77,20.08-8.67,1.11-1.58,2.09-3.23,2.93-4.94,1.13-2.3,2.02-4.72,2.61-7.25.1-.44.03-1-.15-1.42-.8-1.78-.2-3.13,1.74-3.58.71-.17,1.42-.26,2.12-.27.71.01,1.42.11,2.12.27,1.93.45,2.54,1.8,1.74,3.58-.19.42-.26.98-.15,1.42.51,2.2,1.24,4.31,2.17,6.33.93,2.04,2.06,4,3.37,5.86,4.83,6.89,11.68,9.66,20.08,8.67,5.17-.61,9.24-3.23,12.08-7.51.91-1.37,1.66-2.81,2.26-4.3.86-2.14,1.42-4.38,1.71-6.69.15-1.17.46-2.24.91-3.23.53-1.17,1.26-2.24,2.15-3.25.06-.06.09-.15.16-.2,1.12-.76,1.04-1.89.98-3.01Zm-57.6,12.5c-.15.45-.3.89-.46,1.33-1.3,3.56-3.13,6.82-6.37,9.19-2.81,2.05-6,3.13-9.46,3.47-5.75.56-10.7-1.01-14.37-5.52-1.59-1.96-2.67-4.09-3.36-6.34-.67-2.18-.99-4.46-1.09-6.81h0c-.05-.64-.02-1.28.04-1.88.01-.38.07-.74.17-1.09.1-.51.21-.95.3-1.28.02-.11.05-.23.1-.36.02-.06.04-.11.06-.16.03-.08.04-.12.04-.12h0c1.19-3.05,3.63-4.62,6.81-5.35,5.37-1.24,10.8-1.36,16.26-.8,2.87.3,5.68.84,8.15,2.45,2.03,1.32,3.53,3.01,3.96,5.44.47,2.69.04,5.3-.79,7.85Zm51.14-4.69c-.11,2.71-.52,5.33-1.42,7.8-.69,1.89-1.67,3.68-3.03,5.36-3.67,4.51-8.62,6.08-14.37,5.52-3.46-.34-6.65-1.42-9.46-3.47-3.49-2.55-5.34-6.13-6.66-10.01-.06-.17-.11-.34-.17-.51-.83-2.55-1.26-5.16-.79-7.85.43-2.43,1.93-4.12,3.96-5.44,2.46-1.61,5.28-2.15,8.15-2.45,5.46-.56,10.89-.44,16.26.8,3.18.73,5.62,2.3,6.81,5.35h0s.02.04.04.12c.02.05.04.11.06.16.05.13.08.25.1.36.09.33.21.77.3,1.28.1.35.15.72.17,1.09.07.6.09,1.24.05,1.88h0Z"/></svg>