<?xml version="1.0" encoding="UTF-8"?><svg id="Layer_1" xmlns="http://www.w3.org/2000/svg" xmlns:xlink="http://www.w3.org/1999/xlink" viewBox="0 0 164.21 190.47"><defs><style>.cls-1{fill:none;}.cls-2{clip-path:url(#clippath);}.cls-3{fill:#f4b335;}.cls-4{fill:#f1dab4;}.cls-5{fill:#e4c59e;}.cls-6{fill:#f3dab4;}.cls-7{fill:#fff;}.cls-8{fill:#7f401b;}.cls-9{fill:#a2121c;}.cls-10{fill:#c3977d;}.cls-11{fill:#b48d76;}.cls-12{fill:#8e9c16;}.cls-13{fill:#c1967d;}.cls-14{fill:#cba686;}.cls-15{fill:#c49d80;}.cls-16{fill:#c5997d;}.cls-17{fill:#e1bd9d;}.cls-18{fill:#acbc3a;}.cls-19{fill:#d7ad88;}.cls-20{fill:#dbbb9a;}.cls-21{fill:#e1c7a3;}.cls-22{fill:#231c08;}.cls-23{fill:#452320;}.cls-24{fill:#463216;}.cls-25{fill:#4c2912;}.cls-26{opacity:.69;}.cls-26,.cls-27{fill:#1b1d16;}.cls-27{opacity:.86;}</style><clipPath id="clippath"><rect class="cls-1" x="67.99" y="121.7" width="25.11" height="14.85"/></clipPath></defs><path class="cls-9" d="m47.68,46.46c-.79.83-23.55-15.82-35.5,12.16-7.73,18.09,20.77,52.89-12.18,58.77,4.19-.9,12.6-1.73,16.98-5.08-16.11,10.78-5.82,25.69,2.29,37.32-8.28-18.11,18.05-23.34,19.43-40.78,2.26,3.2,3.78,7.17,3.25,11.08,11.29-13.84-3.79-26.55-2.05-41.42.96-8.23,7.78-32.04,7.78-32.04Z"/><path class="cls-9" d="m116.12,42.14c.81.88,26.19-14.27,37.76,14.46,7.48,18.58-24.97,51.49,10.33,59.51-4.48-1.17-13.53-2.56-18.09-6.18,16.88,11.82,5.05,26.04-4.26,37.13,9.81-17.55-18.38-24.5-19.02-42.01-2.6,3.05-4.43,6.92-4.05,10.86-11.53-14.56,5.37-26.28,4.2-41.25-.65-8.28-6.86-32.52-6.86-32.52Z"/><path class="cls-5" d="m34.04,190.03c0-10.73,1.57-19.09,3.96-25.61,5.77-15.74,16.32-20.74,21.18-22.24,1.59-.5,2.58-.61,2.58-.61.17,0,.33-.02.5-.04,1.43-.23,2.59-1.47,3.51-3.46.69-1.47,1.27-3.35,1.74-5.53.19-.85.33-1.7.48-2.63.22-1.55.44-3.18.63-4.88.07-1.04.18-2.03.29-3.11.4-5.14.52-10.77.52-16.1,0,0,6.08.63,11.02.63v84.02"/><path class="cls-4" d="m80.45,190.47v-84.02h.11c4.9,0,11.06-.63,11.06-.63,0,5.29.11,10.84.51,15.98.11,1,.22,2.03.29,3.03.19,1.78.41,3.44.67,4.99v.03c.07.71.22,1.33.33,2,.45,2.19.99,4.11,1.64,5.65.81,1.92,1.8,3.26,3.01,3.79.38.17.79.26,1.21.26,0,0,1.74.21,4.36,1.24,5.33,2.09,14.29,7.59,19.44,21.62,2.39,6.52,3.96,14.88,3.96,25.61"/><g class="cls-2"><path class="cls-15" d="m93.09,129.68v.04c-1.14,1.76-4.98,6.84-12.57,6.84h-.07c-7.19-.04-11.39-5.26-12.46-6.8.22-1.54.44-3.16.63-4.85.07-.99.18-2.02.29-3.09,3.5.88,7.34,1.43,11.39,1.51h.15c4.2-.07,8.07-.66,11.69-1.62.11.99.22,2.02.3,3.01.18,1.76.41,3.42.66,4.96"/></g><path class="cls-19" d="m79.93,10.7c-48,0-48.26,40.25-46.12,66.6-3.28-6.25-13.05-4.34-12.24,5.51.77,9.48,14.73,14.32,14.34,13.27,7.27,19.49,26.51,34.18,44.02,34.18h.37V10.7h-.37"/><path class="cls-11" d="m24.63,78.66c2.36-3.82,6.05-2.17,6.93-1.32.96.92,1.73,2.09,1.14,4.34-.33,1.29-1.66,1.4-1.36,3.31.37,2.17,1.36,2.28,1.95,2.79.55.48,1.25.85,1.59,1.76.37.92.41,1.87.22,2.72-.37,1.54-2.62.29-4.13-.37-1-.48-4.17-3.16-4.98-4.04-1.99-2.28-2.95-6.69-1.36-9.19"/><path class="cls-17" d="m80.19,10.7c48,0,48.26,40.25,46.15,66.6,3.28-6.25,13.01-4.34,12.2,5.51-.74,9.48-14.72,14.32-14.34,13.27-7.08,19.49-26.51,34.18-44.02,34.18h-.26l-.11-119.57h.37"/><path class="cls-11" d="m135.49,78.66c-2.36-3.82-6.01-2.17-6.93-1.32-.96.92-1.7,2.09-1.14,4.34.33,1.29,1.66,1.4,1.36,3.31-.37,2.17-1.36,2.28-1.92,2.79-.55.48-1.29.85-1.62,1.76-.33.92-.41,1.87-.22,2.72.37,1.54,2.62.29,4.13-.37,1.03-.48,4.17-3.16,4.98-4.04,2.03-2.28,2.95-6.69,1.36-9.19"/><path class="cls-5" d="m79.55,22.06c-15.78,0-27.35,4.59-34.32,13.64-9.77,12.68-9.4,32.01-5.82,45.91,1.11,4.26,1.7,15.69,2.43,19.88,3.43,18.78,24.11,28.78,37.71,28.78h.37V22.06h-.22"/><path class="cls-4" d="m113.84,35.73c-6.93-9.01-18.36-13.6-33.92-13.67v108.21c15.56-.18,34.17-11.14,37.34-28.78.77-4.19,1.33-15.62,2.43-19.88,3.61-13.86,3.98-33.15-5.86-45.87"/><path class="cls-1" d="m78,107.14c-.22-.04-.42-.08-.59-.11.2.04.4.08.59.11Z"/><path class="cls-1" d="m77.18,111.03c-.14-.03-.27-.06-.36-.08.12.03.24.05.36.08Z"/><path class="cls-10" d="m77.41,111.08c-.08-.02-.15-.03-.23-.05.07.02.14.03.23.05Z"/><path class="cls-10" d="m76.82,110.95c-.07-.02-.13-.04-.2-.06h0s.08.02.21.06Z"/><path class="cls-17" d="m70.76,97.04c-.18-3.74,6.85-1.37,9.16-1.25,1.83.09,7.4-1.18,7.88-.85,3.28,2.22-3.47,6.68-8,6.68-1.21,0-8.94-2.33-9.05-4.58Z"/><path class="cls-1" d="m36.89,55.78c-.43,1.43-.73,3-.93,4.67,0,0,.63-2.64,2.03-6.54-.6.83-1,1.5-1.1,1.87Z"/><path class="cls-24" d="m66.52,22.33l-.2.2.03.07c.07-.1.1-.2.17-.27Z"/><path class="cls-1" d="m78.15,109c-.22-.04-.43-.08-.61-.12.21.04.41.09.61.12Z"/><path class="cls-1" d="m77.3,108.84c-.14-.03-.28-.06-.37-.09.12.03.24.06.37.09Z"/><path class="cls-13" d="m77.54,108.89c-.08-.02-.15-.03-.23-.05.08.02.14.03.23.05Z"/><path class="cls-13" d="m76.93,108.75c-.07-.02-.14-.04-.21-.06h0s.08.02.21.06Z"/><path class="cls-7" d="m45.49,64.29s3.66,15.07,9.95,16.3c6.29,1.23,13.09-1.22,13.09-1.22,0,0,.65-17.71-2.57-20.02-3.22-2.32-10.63-5.68-20.47,4.94Z"/><path class="cls-20" d="m68.54,79.33s-.14.04-.47.18c-.08-5.43-.58-12.89-2.59-14.32-2.99-2.2-9.74-5.28-18.75,3.17-.82-2.33-1.23-4.1-1.23-4.1,9.86-10.64,17.28-7.29,20.47-4.96,3.22,2.32,2.57,20.05,2.57,20.05Z"/><ellipse class="cls-25" cx="58.63" cy="71.65" rx="6.19" ry="6.21"/><path class="cls-8" d="m58.34,75.79c-1.79-.15-3.16-1.96-3-3.95.16-1.99,1.81-3.54,3.6-3.39,1.79.15,3.16,1.95,3,3.94-.16,1.99-1.81,3.55-3.6,3.4Z"/><path class="cls-22" d="m58.5,75.07c-1.24-.11-2.53-1.48-2.4-3.16.14-1.69,1.63-2.83,2.88-2.73,1.24.11,2.53,1.48,2.39,3.17-.14,1.69-1.63,2.83-2.87,2.72Z"/><path class="cls-7" d="m57.49,70.91c-.05.61-.68,1.05-1.39,1-.72-.06-1.26-.61-1.21-1.21.05-.61.67-1.06,1.39-1,.72.06,1.26.6,1.21,1.21Z"/><path class="cls-7" d="m61.5,74.44c-.03.3-.34.53-.69.5-.36-.03-.63-.3-.61-.61.03-.3.34-.53.69-.5.36.03.63.3.61.61Z"/><path class="cls-1" d="m78.24,110.78c-.22-.04-.43-.08-.61-.12.21.04.41.09.61.12Z"/><path class="cls-1" d="m77.4,110.61c-.14-.03-.28-.06-.37-.09.12.03.24.06.37.09Z"/><path class="cls-13" d="m77.63,110.66c-.08-.02-.15-.03-.23-.05.08.02.14.03.23.05Z"/><path class="cls-13" d="m77.03,110.53c-.07-.02-.14-.04-.21-.06h0s.08.03.21.06Z"/><path class="cls-1" d="m78.01,110.36c-.24-.04-.46-.08-.65-.12.22.05.44.09.65.12Z"/><path class="cls-1" d="m77.1,110.19c-.15-.03-.3-.07-.4-.09.13.03.26.06.4.09Z"/><path class="cls-10" d="m77.35,110.24c-.08-.02-.17-.03-.25-.05.08.02.15.03.25.05Z"/><path class="cls-10" d="m76.71,110.09c-.08-.02-.15-.04-.22-.06h0s.09.03.23.06Z"/><path class="cls-1" d="m77.82,109.73c-.24-.04-.46-.08-.65-.12.22.05.44.09.65.12Z"/><path class="cls-1" d="m76.92,109.56c-.15-.03-.3-.07-.4-.09.13.03.26.06.4.09Z"/><path class="cls-10" d="m77.17,109.61c-.08-.02-.17-.03-.25-.05.08.02.15.03.25.05Z"/><path class="cls-10" d="m76.52,109.46c-.08-.02-.15-.04-.22-.06h0s.09.03.23.06Z"/><path class="cls-1" d="m78.37,109.64c-.23-.04-.44-.08-.63-.12.21.05.42.09.63.12Z"/><path class="cls-1" d="m77.5,109.47c-.14-.03-.29-.06-.38-.09.13.03.25.06.38.09Z"/><path class="cls-10" d="m77.74,109.52c-.08-.02-.16-.03-.24-.05.08.02.15.03.24.05Z"/><path class="cls-10" d="m77.12,109.38c-.07-.02-.14-.04-.21-.06h0s.08.03.22.06Z"/><path class="cls-7" d="m114.73,63.78s-3.66,15.07-9.95,16.3c-6.29,1.23-13.09-1.22-13.09-1.22,0,0-.65-17.71,2.57-20.02,3.22-2.32,10.63-5.68,20.47,4.94Z"/><path class="cls-20" d="m91.68,78.81s.14.04.47.18c.08-5.43.58-12.89,2.59-14.32,2.99-2.2,9.74-5.28,18.75,3.16.82-2.33,1.23-4.1,1.23-4.1-9.86-10.64-17.28-7.29-20.47-4.96-3.22,2.32-2.57,20.05-2.57,20.05Z"/><path class="cls-25" d="m95.41,71.14c0,3.43,2.77,6.21,6.19,6.21s6.19-2.78,6.19-6.21-2.77-6.21-6.19-6.21-6.19,2.78-6.19,6.21Z"/><path class="cls-8" d="m101.88,75.27c1.79-.15,3.16-1.96,3-3.95-.16-1.99-1.81-3.54-3.6-3.39-1.79.15-3.16,1.95-3,3.94.16,1.99,1.81,3.55,3.6,3.4Z"/><path class="cls-22" d="m101.73,74.56c1.24-.11,2.53-1.47,2.4-3.16-.14-1.69-1.63-2.83-2.88-2.73-1.24.11-2.53,1.48-2.39,3.17.14,1.69,1.63,2.83,2.87,2.72Z"/><path class="cls-7" d="m102.73,70.4c.05.61.68,1.05,1.39,1,.72-.06,1.26-.61,1.21-1.21-.05-.61-.67-1.06-1.39-1-.72.06-1.26.6-1.21,1.21Z"/><path class="cls-7" d="m98.72,73.92c.03.3.34.53.69.5.36-.03.63-.3.61-.61-.03-.3-.34-.53-.69-.5-.36.03-.63.3-.61.61Z"/><path d="m72.3,64.05c-.05-.07-1.19-1.81-3.52-3.61-1.46-1.12-2.89-1.98-4.38-2.62-1.81-.76-3.75-1.3-5.63-1.56-1.7-.19-3.59-.14-5.8.16-1.68.32-3.32.82-4.71,1.44-.99.34-1.78.82-2.41,1.21-.24.15-.46.28-.68.4l-3,1.89,3.46-.82c.16-.04.34-.09.52-.14.72-.19,1.61-.43,2.65-.58.24-.04.49-.09.75-.14.44-.09.89-.18,1.36-.2.52-.04,1.07-.07,1.63-.11l.73-.05c1.92-.02,3.54.12,4.97.45,1.57.27,3.19.78,4.67,1.47,1.4.67,2.74,1.34,3.79,2.11,2.11,1.42,3.29,2.6,3.3,2.61h0c.29.29.68.44,1.07.44.28,0,.57-.08.82-.25.7-.46.89-1.4.45-2.08l-.03-.05Z"/><path d="m115.35,59.47c-.2-.11-.42-.24-.66-.39-.63-.39-1.41-.87-2.38-1.2-1.42-.63-3.06-1.13-4.76-1.45-2.18-.29-4.07-.35-5.78-.15-1.87.26-3.82.8-5.63,1.56-1.46.63-2.94,1.51-4.38,2.62-2.29,1.76-3.43,3.47-3.51,3.6l-.02.03c-.39.6-.3,1.4.2,1.9.28.29.66.45,1.06.45h0c.4,0,.78-.16,1.06-.45h.01c.11-.12,1.25-1.24,3.3-2.62,1.03-.76,2.37-1.43,3.77-2.1,1.49-.69,3.1-1.2,4.7-1.48,1.42-.33,3.04-.47,4.93-.45l.76.05c.55.04,1.09.08,1.62.11.46.02.91.11,1.35.2.25.05.5.1.75.14,1.05.15,1.94.39,2.65.58.19.05.36.1.53.14l3.46.82-3.03-1.91Z"/><path class="cls-1" d="m77.18,112.57c-.23-.04-.45-.08-.64-.12.22.05.43.09.64.12Z"/><path class="cls-1" d="m76.31,112.4c-.15-.03-.29-.07-.39-.09.13.03.26.06.39.09Z"/><path class="cls-16" d="m76.55,112.45c-.08-.02-.16-.03-.24-.05.08.02.15.03.24.05Z"/><path class="cls-16" d="m75.92,112.31c-.07-.02-.14-.04-.22-.06h0s.08.03.22.06Z"/><path class="cls-6" d="m71.05,115.56c-.18-2.42,6.73.51,9,.58,1.81.06,7.25-.36,7.75-.55,3.8-1.43-.21,4.05-7.86,4.34-3.51.14-8.78-2.9-8.88-4.36Z"/><path class="cls-21" d="m93.54,110.89c-1.88-.09-3.8,1.48-6.06,1.24-.09-.05-.14-.05-.23-.05-.52-.09-1.03,0-1.6.14-.7.15-1.41.43-2.07.66-1.13.37-2.4.66-3.7.56h0s-.05,0-.07,0-.05,0-.07,0h0c-1.31.09-2.58-.2-3.7-.57-.66-.23-1.37-.52-2.07-.66-.56-.14-1.08-.23-1.6-.14-.1,0-.14,0-.23.05-2.26.24-4.18-1.33-6.06-1.24-.52.05-1.27-.09-1.69-.09.09.05.19.09.28.14,5.35,2.61,9.96,7.51,15.07,7.35h.15c5.11.16,9.72-4.74,15.07-7.35.1-.05.19-.09.28-.14-.42,0-1.17.14-1.69.09Z"/><path class="cls-14" d="m95.12,110.74h0s-5.44-2.1-9.3-.87c0,0-1.44.56-2.93.91-.91.35-2.01.46-3.07.41h0c-.81-.03-1.59-.14-2.22-.25-.21-.03-.42-.08-.64-.12-.09-.02-.16-.03-.24-.05-.13-.03-.26-.06-.39-.09-.14-.03-.22-.06-.22-.06h0c-1.24-.34-2.3-.75-2.3-.75-3.87-1.23-9.3.87-9.3.87h0c-.07.03-.12.06-.12.06.42,0,1.17.14,1.69.09,1.87-.09,3.8,1.48,6.06,1.24.09-.05.14-.05.23-.05.52-.09,1.03,0,1.6.14.7.15,1.41.43,2.07.66,1.13.37,2.4.66,3.7.56h0s.05,0,.07,0,.05,0,.07,0h0c1.31.09,2.58-.2,3.7-.57.66-.23,1.37-.52,2.07-.66.56-.14,1.08-.23,1.6-.14.1,0,.14,0,.23.05,2.26.24,4.18-1.33,6.06-1.24.52.05,1.27-.09,1.69-.09,0,0-.05-.02-.12-.06Z"/><path class="cls-14" d="m70.68,112.02c.1.02,10.19,3.11,18.08.07l-.91-.61h-10.66l-6.5.55Z"/><path class="cls-3" d="m120.22,190.47c-.19-2.7-.39-7.09-.42-12.85h8.44c.19-8.29-2.56-15.33-4.55-19.29-5.76,6.63-22.27,11.42-41.75,11.42-21.39,0-39.2-5.78-43.13-13.42-1.67,3.84-6.03,14.5-5.96,21.29h8.53c-.03,5.76-.21,10.15-.39,12.85"/><path class="cls-23" d="m81.93,169.75c19.48,0,35.99-4.79,41.75-11.42-1.09-2.18-1.95-3.44-1.95-3.44-2.31-3.18-4.84-5.6-7.34-7.43-.2-.19-.44-.35-.65-.52-3.29-2.38-6.43-3.72-8.75-4.48-.46-.16-.87-.29-1.25-.42-1.69-.47-2.74-.56-2.74-.56-.93,0-1.77-.35-2.49-.96,0,0,0-.03-.04-.03-.24-.23-.49-.5-.72-.79-.11.07-.28.33-.46.83-.48,1.16-2.55,5.59-5.63,9.64-2.94,3.87-6.79,7.39-11.08,7.39-8.79,0-15.78-14.77-16.72-17.03-.17-.5-.35-.76-.44-.83-.25.29-.49.56-.74.79-.03,0-.03.03-.03.03-.73.6-1.55.96-2.49.96,0,0-1.1.13-2.89.63-.39.1-.81.23-1.25.39-1.9.65-4.34,1.7-6.92,3.34-.57.36-1.14.75-1.72,1.17-.21.13-.45.29-.66.5-1.78,1.32-3.57,2.95-5.3,4.94-.67.76-1.33,1.57-1.97,2.45,0,0-.25.53-.64,1.44,3.93,7.65,21.74,13.42,43.13,13.42Z"/><path class="cls-9" d="m135.24,38.95h0c-5.48-21.96-28.08-29.93-28.08-29.93l1.96,4.45L88.54,0s1.55,2.72,5.14,7.55c-2.64-1.44-6.17-3-10.87-4.45-10.98-3.38-18.08.38-18.08.38,0,0,5.72-.19,8.53,2-2.77-1.17-7.54-1.56-15.51,1.64-.49.2-.98.4-1.44.62-2.88-.41-5.93-1.12-9.09-2.27,0,0,1.99,2.12,5.35,4.23-2.61,1.58-4.63,3.33-6.34,5.1-4.07.13-8.65-.25-13.59-1.63,0,0,4.05,3.66,10.09,5.69-.91,1.15-1.78,2.25-2.69,3.29-3.95.99-8.54,1.59-13.72,1.27,0,0,3.68,2.06,8.85,3.07-1.07.66-2.26,1.22-3.63,1.66-11.12,3.55-14.34-1.01-14.34-1.01,0,0,4.83,7.97,13.4,8,1.38,0,1.52-.03,1.53-.03,0,.02-2.09,5.56-3.21,11.04-2.55.93-5.37,1.71-8.5,2.19,0,0,3.38,1,7.95,1.1-.02.19-.05.39-.07.58-.63,6.51,1.34,10.96,1.94,23.12.52,10.4,3.34,5.07,6.7,12.74,1.13,2.57,1.18,5.46,1.18,5.46,1.25.3,4.51-6.25,2.17-17.62-.68-3.26.43-10.55,3.44-17.2h0s1.84-3.33,5.16-6.65c1.6-1.77,3.25-3.2,4.94-4.36-10.6,21.94-6.15,63.68-6.15,63.68,1.81-45.32,33.96-64.55,33.96-64.55.17-.06.35-.13.52-.19-9.96,17.37-10.45,43.14-10.45,43.14,22.1-67.87,50-28.22,50-28.22h0c.1.96.17,1.92.22,2.84h0c.3,2.94.31,6.19,0,9.77-1.67,18.85,1.47,18.72,1.47,18.72.54,0,.43-1.69.86-3.78.02-.03,19.9-20.6,10.98-47.96Z"/><polygon class="cls-18" points="65.47 165.76 80 179.34 80 166.47 65.47 165.76"/><polygon class="cls-12" points="94.37 165.76 79.85 179.34 79.85 166.47 94.37 165.76"/><path class="cls-27" d="m133.39,69.8c-2.08,1.8-2.77,4.29-2.77,4.29-.68,4.89-1.74,8.83-3,12-.02,0-.05-.01-.07-.02-.32-.08-.64-.17-.97-.24-.19-.05-.39-.1-.59-.14-.13-.03-.26-.06-.39-.09-.02,0-.04-.01-.06-.02-.69-.16-1.39-.31-2.09-.46-.26-.05-.53-.11-.8-.16-.27-.05-.53-.1-.8-.15-.27-.05-.54-.1-.81-.14-.49-.08-.99-.16-1.49-.24-.06-.01-.12-.02-.18-.03-.2-.03-.4-.06-.6-.08-.27-.04-.54-.07-.81-.11-.19-.02-.38-.05-.57-.07-.15-.02-.3-.03-.44-.05-.3-.03-.59-.06-.89-.09-.12-.01-.23-.02-.35-.03-.25-.02-.49-.05-.74-.06-.27-.02-.53-.05-.8-.06-.18-.02-.36-.03-.54-.04-.37-.02-.75-.05-1.12-.06-.31-.02-.63-.03-.94-.04-.03,0-.06,0-.08,0-.35-.02-.7-.02-1.04-.03h-.05c-.37,0-.74,0-1.1,0-.24,0-.48,0-.72,0-.16,0-.32,0-.48,0-.12,0-.25,0-.37,0-.19,0-.39,0-.59.02-.22,0-.43.01-.65.02-.3.01-.6.03-.89.04-.46.03-.91.06-1.37.1-.18.01-.35.03-.53.04-.16.01-.32.03-.49.04-.03,0-.07,0-.1,0-.19.02-.39.04-.59.06-.15.02-.3.03-.45.05-.04,0-.08,0-.13.01-.22.02-.44.05-.66.08-.63.08-1.26.17-1.89.27-.19.03-.39.06-.59.1-.08.01-.16.02-.25.04-.16.03-.32.05-.47.08-.15.03-.3.06-.46.08-.31.06-.61.12-.92.18-.46.09-.92.19-1.39.3-.18.04-.37.08-.55.13-.11.02-.22.05-.33.08-.21.05-.42.1-.62.15-.25.06-.5.13-.75.2-.78.21-1.56.43-2.34.67-.23.07-.46.14-.69.22-.15.05-.31.1-.46.15-.1.03-.2.06-.3.1-.29.1-.59.2-.88.3-.32.11-.65.23-.97.35-1.9-3.24-2.9-5.91-2.9-5.91-.61-1.63-1.36-2.6-2.1-3.16-.29-1.83-.42-3.54-.42-5.16,0-.37,0-.74.02-1.1,2.64-.8,5.47-3.4,5.47-3.4,21.2-12.68,44.88-4.57,44.88-4.57,1.8.76,1.04,5.54,1.04,5.54Z"/><path class="cls-26" d="m127.63,86.09c-4.85,12.26-12.59,13-12.59,13-11.5,2.56-18.63-1.87-18.63-1.87-3.96-2.18-7-6.24-9.02-9.67.32-.12.65-.24.97-.35.3-.11.59-.21.88-.3.1-.03.2-.07.3-.1.15-.05.31-.1.46-.15.23-.08.46-.15.69-.22.78-.24,1.56-.47,2.34-.67.25-.07.5-.13.75-.2.21-.05.42-.1.62-.15.11-.03.22-.05.33-.08.18-.05.37-.09.55-.13.47-.11.93-.21,1.39-.3.31-.06.62-.12.92-.18.15-.03.31-.06.46-.08.16-.03.32-.06.47-.08.08-.02.17-.03.25-.04.19-.03.39-.07.59-.1.63-.1,1.26-.19,1.89-.27.22-.03.44-.06.66-.08.04,0,.09,0,.13-.01.15-.02.3-.03.45-.05.2-.02.39-.04.59-.06.03,0,.07,0,.1,0,.16-.02.33-.03.49-.04.18-.02.35-.03.53-.04.46-.04.92-.07,1.37-.1.3-.02.6-.03.89-.04.22,0,.43-.02.65-.02.2,0,.39-.01.59-.02.12,0,.25,0,.37,0,.16,0,.32,0,.48,0,.24,0,.48,0,.72,0,.37,0,.74,0,1.1,0h.05c.35,0,.7.01,1.04.03.03,0,.05,0,.08,0,.31,0,.63.02.94.04.38.01.75.04,1.12.06.18.01.36.03.54.04.27.02.53.04.8.06.25.02.49.04.74.06.12,0,.24.02.35.03.3.03.59.06.89.09.15.02.3.03.44.05.19.02.38.05.57.07.27.03.54.07.81.11.2.03.4.06.6.08.06,0,.12.02.18.03.5.07,1,.15,1.49.24.27.05.54.1.81.14.27.05.54.1.8.15.27.05.53.1.8.16.7.14,1.4.29,2.09.46.02,0,.04,0,.06.02.13.03.26.06.39.09.2.05.39.1.59.14.32.08.65.16.97.24.02,0,.05.01.07.02Z"/><path class="cls-27" d="m79.94,77.76c0,.09-.02.18-.03.27-.95.42-2.04,1.41-2.86,3.61,0,0-1.13,3.03-3.28,6.54,0,0-.02,0-.02,0-.3-.11-.59-.21-.88-.31-.25-.08-.51-.17-.76-.25-.15-.05-.3-.1-.46-.15l-.24-.07c-.78-.24-1.56-.47-2.34-.67-.25-.07-.5-.13-.76-.2-.21-.05-.42-.1-.62-.15-.11-.03-.22-.05-.33-.08-.18-.05-.37-.09-.55-.13-.47-.11-.93-.21-1.39-.3-.31-.06-.62-.12-.92-.18-.15-.03-.31-.06-.46-.08-.16-.03-.32-.06-.47-.08-.08-.02-.16-.03-.24-.04-.2-.03-.39-.06-.58-.1-.64-.1-1.26-.19-1.89-.27-.22-.03-.44-.06-.66-.08-.04,0-.08,0-.13-.01-.15-.02-.3-.03-.45-.05-.2-.02-.39-.04-.59-.06-.03,0-.07,0-.1,0-.17-.02-.33-.03-.49-.04-.18-.02-.35-.03-.53-.04-.46-.04-.92-.07-1.37-.1-.3-.02-.59-.03-.89-.04-.22-.01-.43-.02-.65-.02-.2,0-.39-.01-.59-.02-.12,0-.25,0-.37,0-.16,0-.32,0-.48,0-.24,0-.48,0-.72,0-.37,0-.74,0-1.1,0h-.05c-.35,0-.69.01-1.04.03-.03,0-.05,0-.08,0-.31,0-.63.02-.94.04-.38.01-.75.04-1.12.06-.18.01-.36.02-.54.04-.27.02-.53.04-.8.06-.25.02-.49.04-.74.06-.12,0-.24.02-.35.03-.3.03-.59.06-.89.09-.15.02-.3.03-.45.05-.19.02-.38.05-.57.07-.27.03-.54.07-.81.11-.2.03-.4.06-.6.08-.06,0-.12.02-.18.03-.5.07-1,.15-1.49.24-.27.05-.54.1-.81.14-.27.05-.53.1-.8.15-.27.05-.53.1-.8.16-.7.14-1.4.29-2.09.46-.06.02-.13.03-.2.05-.09.02-.17.04-.26.06-.2.05-.39.1-.59.14-.32.08-.65.16-.97.24-.07.02-.14.04-.22.06-1.43-3.33-2.66-7.58-3.41-13.01,0,0-.69-2.49-2.77-4.29,0,0-.76-4.78,1.04-5.54,0,0,23.69-8.1,44.88,4.57,0,0,3.22,2.95,6,3.54,0,.02,0,.04,0,.06.11,1.67.07,3.44-.13,5.33Z"/><path class="cls-26" d="m73.78,88.18c-2.01,3.29-4.92,7-8.64,9.04,0,0-7.13,4.43-18.63,1.87,0,0-7.31-.7-12.17-11.99.07-.02.15-.04.22-.06.32-.08.64-.17.97-.24.19-.05.39-.1.59-.14.09-.02.17-.04.26-.06.06-.02.13-.03.2-.05.69-.16,1.39-.31,2.09-.46.27-.05.53-.11.8-.16.27-.05.53-.1.8-.15.27-.05.54-.1.81-.14.49-.08.99-.16,1.49-.24.06-.01.12-.02.18-.03.2-.03.4-.06.6-.08.27-.04.54-.07.81-.11.19-.02.38-.05.57-.07.15-.02.3-.03.45-.05.3-.03.59-.06.89-.09.12-.01.23-.02.35-.03.25-.02.49-.05.74-.06.27-.02.53-.05.8-.06.18-.02.36-.03.54-.04.37-.02.75-.05,1.12-.06.31-.02.63-.03.94-.04.03,0,.06,0,.08,0,.35-.02.69-.02,1.04-.03h.05c.37,0,.74,0,1.1,0,.24,0,.48,0,.72,0,.16,0,.32,0,.48,0,.12,0,.25,0,.37,0,.2,0,.39,0,.59.02.22,0,.43.01.65.02.3.01.59.03.89.04.46.03.91.06,1.37.1.18.01.35.03.53.04.16.01.32.03.49.04.03,0,.07,0,.1,0,.2.02.39.04.59.06.15.02.3.03.45.05.04,0,.08,0,.13.01.22.03.44.05.66.08.63.08,1.26.17,1.89.27.19.03.39.06.58.1.08.01.16.02.24.04.16.03.32.05.47.08.15.03.3.05.46.08.31.06.62.12.92.18.46.09.92.19,1.39.3.18.04.37.08.55.13.11.02.22.05.33.08.21.05.41.1.62.15.25.06.5.13.76.2.78.21,1.56.43,2.34.67l.24.07c.15.05.3.1.46.15.25.08.51.16.76.25.29.1.59.2.88.31,0,0,.02,0,.02,0Z"/><path class="cls-7" d="m132.35,64.26s-23.69-8.1-44.88,4.57c0,0-2.83,2.6-5.47,3.4-.41.13-.82.21-1.21.23h0c-.23-.01-.46-.04-.7-.1-2.78-.58-6-3.54-6-3.54-21.2-12.68-44.88-4.57-44.88-4.57-1.8.76-1.04,5.54-1.04,5.54,2.08,1.8,2.77,4.29,2.77,4.29.76,5.43,1.98,9.68,3.41,13.01,4.86,11.29,12.17,11.99,12.17,11.99,11.5,2.56,18.63-1.87,18.63-1.87,3.72-2.04,6.63-5.75,8.64-9.04,2.15-3.51,3.28-6.54,3.28-6.54.82-2.21,1.91-3.19,2.86-3.61.3-.14.59-.21.86-.25h0c.47.07,1.04.26,1.62.71.74.56,1.49,1.52,2.1,3.16,0,0,1,2.67,2.9,5.91h0c2.02,3.44,5.06,7.5,9.02,9.68,0,0,7.13,4.43,18.63,1.87,0,0,7.74-.74,12.59-13,1.25-3.17,2.31-7.11,3-12,0,0,.69-2.49,2.77-4.29,0,0,.76-4.78-1.04-5.54Zm-60.7,23.22c-.13.24-.23.41-.27.49-.02.04-.04.08-.06.12-6.85,13.66-24.35,8.84-26.18,8.3-.1-.03-.2-.06-.29-.1-4.1-1.74-6.81-5.93-8.48-9.68-1.53-3.41-2.2-6.46-2.31-6.99-.01-.06-.03-.12-.04-.17-1.28-4.52-.77-7.74.38-10,1.45-2.85,4.28-4.74,7.45-5.1,20.18-2.29,31.07,6.51,31.07,6.51,5.01,4.12.05,14.18-1.27,16.63Zm55.88-8.04c-.02.06-.03.11-.04.17-.1.48-.66,3-1.88,5.99-1.63,3.98-4.44,8.78-8.91,10.68-.09.04-.19.07-.29.1-1.83.55-19.33,5.36-26.18-8.3-.02-.04-.04-.08-.06-.12-.08-.14-.31-.55-.62-1.17-1.65-3.25-5.55-12.14-.91-15.96,0,0,10.89-8.8,31.07-6.51,3.17.36,6,2.26,7.45,5.1,1.15,2.26,1.67,5.48.38,10Z"/></svg>