<?xml version="1.0" encoding="UTF-8"?><svg id="Layer_1" xmlns="http://www.w3.org/2000/svg" xmlns:xlink="http://www.w3.org/1999/xlink" viewBox="0 0 128.03 201.86"><defs><style>.cls-1{fill:none;}.cls-2{clip-path:url(#clippath);}.cls-3{fill:#fff;}.cls-4{fill:#fdfdfd;}.cls-5{fill:#932e26;}.cls-6{fill:#7f401b;}.cls-7{fill:#995b59;}.cls-8{fill:#c3977d;}.cls-9{fill:#c36b70;}.cls-10{fill:#b83d33;}.cls-11{fill:#a4c307;}.cls-12{fill:#c1967d;}.cls-13{fill:#c5997d;}.cls-14{fill:#e36250;}.cls-15{fill:#d77a77;}.cls-16{fill:#231c08;}.cls-17{fill:#111208;}.cls-18{fill:#6e4443;}.cls-19{fill:#463216;}.cls-20{fill:#593735;}.cls-21{fill:#845050;}.cls-22{fill:#4c2912;}.cls-23{fill:#7b2b23;}</style><clipPath id="clippath"><rect class="cls-1" x="57.42" y="133.68" width="25.11" height="14.8"/></clipPath></defs><path class="cls-17" d="m46.59,120.79c-.7-.56-13.5-9.04-13.5-9.04.88,5.27,1.53,7.44.25,11.01-1.16,3.22-3.37,4.47-4.6,5.6-1.23,1.13-3.72,1.98-4.59,1.98s-1.87-.17-1.87-.17c0,0,2.03,1.21,7.13.97,2.14-.1,3.5-.68,4.38-1.34-1.01,1.75-1.96,4.25-.89,6.57,3.85,8.44-1.29,11.19-1.29,11.19,0,0,4.55-.49,7.16-2.96.01.06,0,.15.02.2,1.16,4.22,4.21,4.69,4.21,4.69,0,0-1.93-.35-1.56-4.27.1-1.04,1.11-1.46,2.37-2.16.49,3.79,2.08,7.65-1.21,9.23,0,0,5.56-1.19,6.58-4.74.18-.65.28-1.25.38-1.86.09.33.2.64.27,1,.79,4.52-2.41,8.91-2.41,8.91,0,0,11.55-1.32,11.63-6.24.01-.74.15-3.75.51-4.88.35-1.13,1.05-6.78,1.05-6.78,0,0-13.32-16.37-14.03-16.93Z"/><path class="cls-17" d="m91.76,120.79c.71-.56,13.5-9.04,13.5-9.04-.88,5.27-1.54,7.44-.25,11.01,1.16,3.22,3.37,4.47,4.6,5.6,1.23,1.13,3.72,1.98,4.6,1.98s1.87-.17,1.87-.17c0,0-2.03,1.21-7.13.97-2.14-.1-3.5-.68-4.38-1.34,1.01,1.75,1.96,4.25.89,6.57-3.85,8.44,1.29,11.19,1.29,11.19,0,0-4.55-.49-7.16-2.96,0,.06,0,.15-.02.2-1.16,4.22-4.21,4.69-4.21,4.69,0,0,1.93-.35,1.56-4.27-.1-1.04-1.11-1.46-2.37-2.16-.49,3.79-2.08,7.65,1.21,9.23,0,0-5.56-1.19-6.58-4.74-.18-.65-.28-1.25-.38-1.86-.09.33-.21.64-.27,1-.79,4.52,2.41,8.91,2.41,8.91,0,0-11.55-1.32-11.63-6.24,0-.74-.15-3.75-.5-4.88-.36-1.13-1.06-6.78-1.06-6.78,0,0,13.32-16.37,14.02-16.93Z"/><path class="cls-21" d="m69.89,118.48v83.38H24.57c-.74-.29-1.11-.45-1.11-.45,0-5.23.37-9.92,1.06-14.06.34-2.13.75-4.11,1.24-5.99.49-1.92,1.04-3.7,1.66-5.36.81-2.21,1.72-4.21,2.72-6,3.12-5.76,6.91-9.56,10.42-12.05,1.8-1.26,3.52-2.19,5.02-2.89,1.15-.52,2.18-.89,3.02-1.15.98-.29,1.72-.45,2.15-.54.28-.05.43-.06.43-.06.17,0,.34-.02.51-.03,1.41-.23,2.58-1.47,3.52-3.44.69-1.46,1.26-3.32,1.73-5.5.18-.84.34-1.67.48-2.59.23-1.55.44-3.16.63-4.85.08-1.03.18-2.03.29-3.09.4-5.1.52-10.7.52-15.98,0,0,6.08.63,11.02.63Z"/><path class="cls-7" d="m116.49,201.41s-.41.15-1.07.45h-45.53v-83.38h.11c4.9,0,11.07-.63,11.07-.63,0,5.25.11,10.76.51,15.86.11,1.01.23,2.04.29,3.02.2,1.77.41,3.41.68,4.96v.03c.06.71.22,1.34.32,1.98.46,2.18,1,4.08,1.66,5.62.81,1.89,1.8,3.22,2.99,3.76.38.17.8.25,1.21.25,0,0,.26.03.74.14.75.14,2.03.46,3.62,1.09.46.18.95.38,1.46.61,1.35.61,2.86,1.44,4.42,2.5,3.62,2.49,7.6,6.35,10.85,12.34.98,1.8,1.9,3.79,2.72,6,.61,1.66,1.17,3.44,1.66,5.36.49,1.9.92,3.93,1.26,6.09.66,4.13,1.04,8.76,1.04,13.95Z"/><g class="cls-2"><path class="cls-20" d="m82.53,141.63v.04c-1.14,1.76-4.98,6.82-12.57,6.82h-.07c-7.19-.04-11.39-5.24-12.46-6.78.22-1.54.44-3.15.63-4.84.07-.99.18-2.02.29-3.08,3.5.88,7.34,1.43,11.39,1.5h.15c4.2-.07,8.07-.66,11.69-1.61.11.99.22,2.02.3,3,.18,1.76.41,3.41.66,4.95"/></g><path class="cls-18" d="m69.37,23.03c-48,0-48.26,40.12-46.12,66.39-3.28-6.23-13.05-4.32-12.24,5.5.77,9.45,14.73,14.27,14.34,13.23,7.27,19.43,26.51,34.08,44.02,34.08h.37V23.03h-.37"/><path class="cls-21" d="m69.63,23.03c48,0,48.26,40.12,46.15,66.39,3.28-6.23,13.01-4.32,12.2,5.5-.74,9.45-14.72,14.27-14.34,13.23-7.08,19.43-26.51,34.08-44.02,34.08h-.26l-.11-119.19h.37"/><path class="cls-21" d="m68.99,34.35c-15.78,0-27.35,4.58-34.32,13.59-9.77,12.64-9.4,31.91-5.82,45.76,1.11,4.25,1.7,15.65,2.43,19.82,3.43,18.72,24.11,28.69,37.71,28.69h.37V34.35h-.22"/><path class="cls-7" d="m103.28,47.98c-6.93-8.98-18.36-13.56-33.92-13.63v107.87c15.56-.18,34.17-11.1,37.34-28.69.77-4.18,1.33-15.57,2.43-19.82,3.61-13.81,3.98-33.05-5.86-45.73"/><path class="cls-19" d="m55.96,34.62l-.2.2.03.07c.07-.1.1-.2.17-.27Z"/><path class="cls-3" d="m34.93,76.45s3.66,15.02,9.95,16.25c6.29,1.23,13.09-1.21,13.09-1.21,0,0,.65-17.65-2.57-19.96-3.22-2.32-10.63-5.66-20.47,4.92Z"/><path class="cls-3" d="m104.17,75.94s-3.66,15.02-9.95,16.25c-6.29,1.23-13.09-1.21-13.09-1.21,0,0-.65-17.65,2.57-19.96,3.22-2.32,10.63-5.66,20.47,4.92Z"/><path class="cls-20" d="m14.07,90.78c2.36-3.81,6.05-2.16,6.93-1.32.96.92,1.73,2.09,1.14,4.32-.33,1.28-1.66,1.39-1.36,3.3.37,2.16,1.36,2.27,1.95,2.78.55.48,1.25.84,1.59,1.76.37.92.41,1.87.22,2.71-.37,1.54-2.62.29-4.13-.37-1-.48-4.17-3.15-4.98-4.03-1.99-2.27-2.95-6.67-1.36-9.16"/><path class="cls-20" d="m124.92,90.78c-2.36-3.81-6.01-2.16-6.93-1.32-.96.92-1.7,2.09-1.14,4.32.33,1.28,1.66,1.39,1.36,3.3-.37,2.16-1.36,2.27-1.92,2.78-.55.48-1.29.84-1.62,1.76s-.41,1.87-.22,2.71c.37,1.54,2.62.29,4.13-.37,1.03-.48,4.17-3.15,4.98-4.03,2.03-2.27,2.95-6.67,1.36-9.16"/><path class="cls-1" d="m26.33,67.97c-.43,1.43-.73,2.99-.93,4.66,0,0,.63-2.63,2.03-6.52-.6.83-1,1.5-1.1,1.86Z"/><path class="cls-20" d="m57.97,91.44s-.14.04-.47.18c-.08-5.42-.58-12.85-2.59-14.28-2.99-2.19-9.74-5.27-18.75,3.16-.82-2.33-1.23-4.09-1.23-4.09,9.86-10.61,17.28-7.27,20.47-4.95,3.22,2.32,2.57,19.99,2.57,19.99Z"/><circle class="cls-22" cx="48.06" cy="83.79" r="6.19"/><path class="cls-6" d="m47.78,87.91c-1.79-.15-3.16-1.95-3-3.93.16-1.98,1.81-3.53,3.6-3.38,1.79.15,3.16,1.95,3,3.93-.16,1.98-1.81,3.54-3.6,3.39Z"/><path class="cls-16" d="m47.93,87.2c-1.24-.11-2.53-1.47-2.4-3.15.14-1.69,1.63-2.82,2.88-2.72,1.24.11,2.53,1.48,2.39,3.16-.14,1.68-1.63,2.82-2.87,2.72Z"/><path class="cls-20" d="m81.12,90.93s.14.04.47.18c.08-5.41.58-12.85,2.59-14.28,2.99-2.19,9.74-5.27,18.75,3.16.82-2.33,1.23-4.09,1.23-4.09-9.86-10.61-17.28-7.27-20.47-4.95-3.22,2.32-2.57,19.99-2.57,19.99Z"/><path class="cls-22" d="m84.84,83.28c0,3.42,2.77,6.19,6.19,6.19s6.19-2.77,6.19-6.19-2.77-6.19-6.19-6.19-6.19,2.77-6.19,6.19Z"/><path class="cls-6" d="m91.32,87.4c1.79-.15,3.16-1.95,3-3.93-.16-1.98-1.81-3.53-3.6-3.38-1.79.15-3.16,1.95-3,3.93.16,1.98,1.81,3.54,3.6,3.39Z"/><path class="cls-16" d="m91.16,86.69c1.24-.11,2.53-1.47,2.4-3.15-.14-1.69-1.63-2.82-2.88-2.72-1.24.11-2.53,1.48-2.39,3.16.14,1.68,1.63,2.82,2.87,2.72Z"/><path d="m61.74,76.21c-.05-.07-1.19-1.81-3.52-3.6-1.46-1.12-2.89-1.97-4.38-2.61-1.81-.76-3.75-1.3-5.63-1.55-1.7-.19-3.59-.14-5.8.16-1.68.32-3.32.82-4.71,1.43-.99.34-1.78.82-2.41,1.21-.24.15-.46.28-.68.4l-3,1.89,3.46-.81c.16-.04.34-.09.52-.14.72-.19,1.61-.43,2.65-.58.24-.04.49-.08.75-.14.44-.09.89-.18,1.36-.2.52-.04,1.07-.07,1.63-.11l.73-.05c1.92-.02,3.54.12,4.97.45,1.57.27,3.19.78,4.67,1.46,1.4.67,2.74,1.33,3.79,2.1,2.11,1.41,3.29,2.59,3.3,2.6h0c.29.29.68.44,1.07.44.28,0,.57-.08.82-.24.7-.46.89-1.4.45-2.07l-.03-.05Z"/><path d="m104.79,71.64c-.2-.11-.42-.24-.66-.39-.63-.39-1.41-.87-2.38-1.2-1.42-.63-3.06-1.13-4.76-1.45-2.18-.29-4.07-.34-5.78-.15-1.87.26-3.82.79-5.63,1.55-1.46.63-2.94,1.5-4.38,2.61-2.29,1.76-3.43,3.46-3.52,3.59l-.02.03c-.39.6-.3,1.39.2,1.89.28.29.66.44,1.07.44h0c.4,0,.78-.16,1.06-.44h.01c.11-.12,1.25-1.24,3.3-2.61,1.03-.76,2.37-1.42,3.77-2.09,1.49-.69,3.1-1.2,4.7-1.47,1.42-.33,3.04-.47,4.93-.45l.76.05c.55.04,1.09.08,1.62.11.46.02.91.11,1.35.2.25.05.5.1.75.14,1.05.15,1.94.39,2.65.58.19.05.36.1.53.14l3.46.81-3.03-1.9Z"/><path class="cls-3" d="m46.92,83.05c-.05.61-.68,1.05-1.39.99-.72-.06-1.26-.6-1.21-1.21.05-.61.67-1.05,1.39-1,.72.06,1.26.6,1.21,1.21Z"/><path class="cls-3" d="m50.94,86.57c-.03.3-.34.53-.69.5-.36-.03-.63-.3-.61-.6.03-.3.34-.53.69-.5.36.03.63.3.61.6Z"/><path class="cls-3" d="m92.17,82.54c.05.61.68,1.05,1.39.99.72-.06,1.26-.6,1.21-1.21-.05-.61-.67-1.05-1.39-1-.72.06-1.26.6-1.21,1.21Z"/><path class="cls-3" d="m88.16,86.06c.03.3.34.53.69.5.36-.03.63-.3.61-.6-.03-.3-.34-.53-.69-.49-.36.03-.63.3-.61.6Z"/><path class="cls-10" d="m110.34,187.89c.03,6.28.23,11.05.41,13.97h-40.95v-5.31h9.7c1.23,0,2.24-1,2.24-2.24s-1.01-2.23-2.24-2.23h-9.7v-4.99h9.7c1.23,0,2.24-1.01,2.24-2.24s-1.01-2.24-2.24-2.24h-9.7v-4.99h9.7c1.23,0,2.24-1.01,2.24-2.24s-1.01-2.24-2.24-2.24h-9.7v-8.64h.09c5.74-.05,12.37-2.93,19.57-11.04.75.14,2.03.46,3.62,1.09.46.18.95.38,1.46.61,1.35.61,2.86,1.44,4.42,2.5,3.62,2.49,7.6,6.35,10.85,12.34.98,1.8,1.9,3.79,2.72,6,.61,1.66,1.17,3.44,1.66,5.36h-11.79c-.03,1.52,7.95,2.98,7.95,4.36v2.16h-.02Z"/><path class="cls-14" d="m69.8,164.5v37.36H29.69c.2-2.92.4-7.69.43-13.97h.02v-2.16c0-1.38,7.21-3.02,7.21-4.54l-11.57.18c.49-1.92,1.04-3.7,1.66-5.36.81-2.21,1.72-4.21,2.72-6,3.12-5.76,6.91-9.56,10.42-12.05,1.8-1.26,3.52-2.19,5.02-2.89,1.15-.52,2.18-.89,3.02-1.15.98-.29,1.72-.45,2.15-.54,3.7,4.67,10.36,11.13,19.03,11.11Z"/><path class="cls-1" d="m67.44,125.14c-.22-.04-.42-.08-.59-.11.2.04.4.08.59.11Z"/><path class="cls-1" d="m66.62,124.98c-.14-.03-.27-.06-.36-.08.12.03.24.05.36.08Z"/><path class="cls-8" d="m66.84,125.03c-.08-.02-.15-.03-.23-.05.07.02.14.03.23.05Z"/><path class="cls-8" d="m66.26,124.9c-.07-.02-.13-.04-.2-.06h0s.08.02.21.06Z"/><path class="cls-1" d="m67.58,122.96c-.22-.04-.43-.08-.61-.12.21.04.41.09.61.12Z"/><path class="cls-1" d="m66.74,122.79c-.14-.03-.28-.06-.37-.08.12.03.24.06.37.08Z"/><path class="cls-12" d="m66.97,122.84c-.08-.02-.15-.03-.23-.05.08.02.14.03.23.05Z"/><path class="cls-12" d="m66.37,122.71c-.07-.02-.14-.04-.21-.06h0s.08.02.21.06Z"/><path class="cls-20" d="m59.98,112.02c-.19-3.83,7.03-1.4,9.41-1.28,1.88.1,7.6-1.21,8.09-.87,3.37,2.27-3.57,6.84-8.21,6.84-1.24,0-9.18-2.38-9.29-4.69Z"/><path class="cls-1" d="m67.68,124.73c-.22-.04-.43-.08-.61-.12.21.04.41.09.61.12Z"/><path class="cls-1" d="m66.84,124.56c-.14-.03-.28-.06-.37-.08.12.03.24.06.37.08Z"/><path class="cls-12" d="m67.07,124.61c-.08-.02-.15-.03-.23-.05.08.02.14.03.23.05Z"/><path class="cls-12" d="m66.47,124.48c-.07-.02-.14-.04-.21-.06h0s.08.02.21.06Z"/><path class="cls-1" d="m67.44,124.31c-.24-.04-.46-.08-.65-.12.22.05.44.09.65.12Z"/><path class="cls-1" d="m66.54,124.14c-.15-.03-.3-.07-.4-.09.13.03.26.06.4.09Z"/><path class="cls-8" d="m66.79,124.19c-.08-.02-.17-.03-.25-.05.08.02.15.03.25.05Z"/><path class="cls-8" d="m66.15,124.04c-.08-.02-.15-.04-.22-.06h0s.09.03.23.06Z"/><path class="cls-1" d="m67.26,123.68c-.24-.04-.46-.08-.65-.12.22.05.44.09.65.12Z"/><path class="cls-1" d="m66.36,123.51c-.15-.03-.3-.07-.4-.09.13.03.26.06.4.09Z"/><path class="cls-8" d="m66.6,123.56c-.08-.02-.17-.03-.25-.05.08.02.15.03.25.05Z"/><path class="cls-8" d="m65.96,123.42c-.08-.02-.15-.04-.22-.06h0s.09.03.23.06Z"/><path class="cls-1" d="m67.81,123.59c-.23-.04-.44-.08-.63-.12.21.05.42.09.63.12Z"/><path class="cls-1" d="m66.94,123.42c-.14-.03-.29-.06-.38-.09.13.03.25.06.38.09Z"/><path class="cls-8" d="m67.18,123.47c-.08-.02-.16-.03-.24-.05.08.02.15.03.24.05Z"/><path class="cls-8" d="m66.56,123.34c-.07-.02-.14-.04-.21-.06h0s.08.03.22.06Z"/><path class="cls-1" d="m65.46,129.97c-.22-.04-.43-.08-.6-.12.2.04.4.08.6.12Z"/><path class="cls-1" d="m64.62,129.81c-.14-.03-.28-.06-.37-.08.12.03.24.06.37.08Z"/><path class="cls-13" d="m64.85,129.86c-.08-.02-.15-.03-.23-.05.08.02.14.03.23.05Z"/><path class="cls-13" d="m64.25,129.72c-.07-.02-.14-.04-.21-.06h0s.08.02.21.06Z"/><path class="cls-1" d="m65.28,129.39c-.22-.04-.43-.08-.6-.12.21.04.4.08.6.12Z"/><path class="cls-1" d="m64.45,129.22c-.14-.03-.28-.06-.37-.08.12.03.24.06.37.08Z"/><path class="cls-13" d="m64.68,129.27c-.08-.02-.15-.03-.23-.05.08.02.14.03.23.05Z"/><path class="cls-13" d="m64.08,129.14c-.07-.02-.14-.04-.21-.06h0s.08.02.21.06Z"/><path class="cls-1" d="m65.8,129.31c-.22-.04-.41-.08-.58-.11.2.04.39.08.58.11Z"/><path class="cls-1" d="m64.99,129.15c-.13-.03-.27-.06-.35-.08.12.03.23.05.35.08Z"/><path class="cls-13" d="m65.21,129.19c-.07-.02-.15-.03-.22-.05.07.02.14.03.22.05Z"/><path class="cls-13" d="m64.64,129.07c-.07-.02-.13-.04-.2-.06h0s.08.02.21.06Z"/><path class="cls-21" d="m60.18,130.98c-.18-2.39,6.65.5,8.89.57,1.79.06,7.16-.35,7.66-.54,3.76-1.4-.21,3.99-7.77,4.27-3.47.14-8.68-2.85-8.78-4.3Z"/><path class="cls-9" d="m82.69,125.25c-4.33-.81-13.45.05-13.45.05-7.52,1.25-13.41-.08-13.45-.03-.18.02,6.01,8.22,13.35,7.85h0c7.34.38,13.73-7.85,13.56-7.87Z"/><path class="cls-15" d="m73.59,123.52c-1.95-.22-3.34,1.19-4.34,1.09-1.02.09-2.34-.81-4.3-.83-2.76-.03-4.11-.27-9.16,1.5.18.34,3.41,2.22,9.47,2.32.09,0,1.71.92,4.02.91,1.45,0,3.43-.97,3.51-.97,6.07-.09,9.77-1.9,9.94-2.23-6.67-2.07-6.14-1.8-9.14-1.78Z"/><path class="cls-4" d="m57.48,151.37c0,1.06-1.01,1.92-2.25,1.92s-2.26-.86-2.26-1.92,1.01-1.92,2.26-1.92,2.25.86,2.25,1.92Z"/><path class="cls-11" d="m59.66,154.71c0,1.06-1.01,1.92-2.26,1.92s-2.25-.86-2.25-1.92,1.01-1.92,2.25-1.92,2.26.86,2.26,1.92Z"/><path class="cls-4" d="m62.39,157.78c0,1.06-1.01,1.92-2.26,1.92s-2.26-.86-2.26-1.92,1.01-1.92,2.26-1.92,2.26.86,2.26,1.92Z"/><path class="cls-11" d="m65.81,160.26c0,1.06-1.01,1.92-2.25,1.92s-2.26-.86-2.26-1.92,1.01-1.92,2.26-1.92,2.25.86,2.25,1.92Z"/><ellipse class="cls-4" cx="67.76" cy="161.69" rx="2.26" ry="1.92"/><path class="cls-11" d="m72.27,159.04c1.25,0,2.26.86,2.26,1.92s-1.01,1.92-2.26,1.92-2.25-.86-2.25-1.92,1.01-1.92,2.25-1.92Z"/><path class="cls-4" d="m76.19,157.18c1.25,0,2.26.86,2.26,1.92s-1.01,1.92-2.26,1.92-2.25-.86-2.25-1.92,1.01-1.92,2.25-1.92Z"/><path class="cls-11" d="m79.8,154.86c1.25,0,2.26.86,2.26,1.92s-1.01,1.92-2.26,1.92-2.25-.86-2.25-1.92,1.01-1.92,2.25-1.92Z"/><path class="cls-4" d="m82.71,151.94c1.25,0,2.26.86,2.26,1.92s-1.01,1.92-2.26,1.92-2.25-.86-2.25-1.92,1.01-1.92,2.25-1.92Z"/><path class="cls-11" d="m84.39,148.36c1.25,0,2.26.86,2.26,1.92s-1.01,1.92-2.26,1.92-2.25-.86-2.25-1.92,1.01-1.92,2.25-1.92Z"/><path class="cls-17" d="m110.9,23.13c-11.5-12.24-28.41-18.18-28.41-18.18l4.69,4.42c-2.81-2.16-7.8-5.16-16.15-7.8-11.88-3.76-19.58.43-19.58.43,0,0,6.2-.21,9.24,2.23-3-1.29-8.17-1.74-16.79,1.83-16.9,7-16.6,19.53-28.36,23.38-12.04,3.95-15.53-1.12-15.53-1.12,0,0,5.22,8.87,14.5,8.89,1.5,0,1.65-.03,1.66-.04-.02.04-3.48,9.52-4.15,16.59-.68,7.23,1.44,12.18,2.1,25.72.57,11.57,3.62,5.64,7.25,14.17,1.23,2.86,1.28,6.08,1.28,6.08,1.35.33,4.89-6.95,2.35-19.6-1.09-5.41,2.09-20.79,10.04-28.9-4.74,17.85,2.06,28.61,2.06,28.61.25-18.41,7.86-23.4,15.8-32.42,1.22.44-1.05-.49,0,0-11.31,20.47-3.77,47.01-3.77,47.01-.45-22.61,18.61-37.74,24.5-41.87.55-.33,1.12-.7,1.72-1.15,3.24-2.41,7.01-4.38,10.91-5.54,2.59,5.29,4.3,11.78,3.05,18.96,0,0,5.55-8.88,4.9-19.44,4.8,5.1,13.31,16.36,10.91,30.18,0,0,5.95-9.5,4.81-20.54,2.98,5.54,4.32,13.21,3.47,23.14-1.81,20.98,1.58,20.82,1.58,20.82,1.01,0-.07-5.58,3.31-9.43,3.38-3.85,8.54-16.81,8.54-29.75s-4.41-24.45-15.91-36.69Z"/><path class="cls-23" d="m81.74,175.38c0,1.23-1.01,2.24-2.24,2.24h-9.7v-4.48h9.7c1.23,0,2.24,1.01,2.24,2.24Z"/><path class="cls-5" d="m69.8,173.14v4.48h-9.69c-1.24,0-2.24-1.01-2.24-2.24s1-2.24,2.24-2.24h9.69Z"/><path class="cls-23" d="m81.74,184.85c0,1.23-1.01,2.24-2.24,2.24h-9.7v-4.48h9.7c1.23,0,2.24,1.01,2.24,2.24Z"/><path class="cls-5" d="m69.8,182.61v4.48h-9.69c-1.24,0-2.24-1.01-2.24-2.24s1-2.24,2.24-2.24h9.69Z"/><path class="cls-23" d="m81.74,194.31c0,1.24-1.01,2.24-2.24,2.24h-9.7v-4.47h9.7c1.23,0,2.24,1,2.24,2.23Z"/><path class="cls-5" d="m69.8,192.08v4.47h-9.69c-1.24,0-2.24-1-2.24-2.24s1-2.23,2.24-2.23h9.69Z"/></svg>