<?xml version="1.0" encoding="UTF-8"?><svg id="Layer_1" xmlns="http://www.w3.org/2000/svg" xmlns:xlink="http://www.w3.org/1999/xlink" viewBox="0 0 127.05 201.63"><defs><style>.cls-1{fill:none;}.cls-2{clip-path:url(#clippath);}.cls-3{fill:#f1dab4;}.cls-4{fill:#e4c59e;}.cls-5{fill:#e55b2f;}.cls-6{fill:#f3dab4;}.cls-7{fill:#fff;}.cls-8{fill:#7f401b;}.cls-9{fill:#c3977d;}.cls-10{fill:#c36b70;}.cls-11{fill:#b48d76;}.cls-12{fill:#be350f;}.cls-13{fill:#c1967d;}.cls-14{fill:#c49d80;}.cls-15{fill:#c5997d;}.cls-16{fill:#e1bd9d;}.cls-17{fill:#e0bc9b;}.cls-18{fill:#d7ad88;}.cls-19{fill:#dbbb9a;}.cls-20{fill:#d77a77;}.cls-21{fill:#231c08;}.cls-22{fill:#463216;}.cls-23{fill:#393b36;}.cls-24{fill:#4c2912;}.cls-25{fill:url(#Névtelen_színátmenet_2);}.cls-25,.cls-26{opacity:.66;}.cls-26{fill:url(#Névtelen_színátmenet_2-2);}.cls-27{fill:url(#Névtelen_színátmenet_2-3);}.cls-27,.cls-28{opacity:.62;}.cls-28{fill:url(#Névtelen_színátmenet_2-4);}</style><clipPath id="clippath"><rect class="cls-1" x="55.66" y="133.07" width="25.11" height="14.8"/></clipPath><linearGradient id="Névtelen_színátmenet_2" x1="44.2" y1="116.39" x2="41.67" y2="42" gradientUnits="userSpaceOnUse"><stop offset="0" stop-color="#fff"/><stop offset="1" stop-color="#4889b0"/></linearGradient><linearGradient id="Névtelen_színátmenet_2-2" x1="95.02" y1="114.37" x2="92.49" y2="40.19" xlink:href="#Névtelen_színátmenet_2"/><linearGradient id="Névtelen_színátmenet_2-3" x1="43.02" y1="102.52" x2="43.86" y2="76.44" xlink:href="#Névtelen_színátmenet_2"/><linearGradient id="Névtelen_színátmenet_2-4" x1="93.59" y1="104.61" x2="94.44" y2="78.33" xlink:href="#Névtelen_színátmenet_2"/></defs><path class="cls-4" d="m21.72,201.18c0-10.68,1.57-19.03,3.94-25.53,1.95-5.3,4.44-9.36,7.08-12.49,5.17-6.16,10.9-8.69,14.12-9.69,1.58-.49,2.58-.61,2.58-.61.17,0,.32-.02.49-.03,1.01-.17,1.89-.84,2.64-1.93.32-.45.6-.95.87-1.52.69-1.46,1.27-3.35,1.73-5.51.18-.84.34-1.69.49-2.61.21-1.55.43-3.18.61-4.88.08-1.03.18-2.03.31-3.09.4-5.13.51-10.74.51-16.06,0,0,6.09.63,11.02.63v83.76"/><path class="cls-3" d="m68.12,201.63v-83.76h.11c4.91,0,11.07-.63,11.07-.63,0,5.28.11,10.81.52,15.93.11,1,.21,2.03.29,3.02.18,1.78.4,3.44.66,4.99v.03c.08.71.21,1.34.34,2,.45,2.18.98,4.1,1.64,5.63.32.77.68,1.44,1.06,2,.58.84,1.23,1.46,1.95,1.78.38.17.78.25,1.21.25,0,0,1.73.21,4.34,1.24,3.01,1.18,7.15,3.42,11.13,7.64.02.02.03.05.06.08,3.07,3.28,6.02,7.77,8.26,13.83,2.39,6.49,3.96,14.84,3.96,25.53"/><g class="cls-2"><path class="cls-14" d="m80.77,141.02v.04c-1.14,1.76-4.98,6.82-12.57,6.82h-.07c-7.19-.04-11.39-5.24-12.46-6.78.22-1.54.44-3.15.63-4.84.07-.99.18-2.02.3-3.08,3.5.88,7.34,1.43,11.39,1.5h.15c4.2-.07,8.07-.66,11.69-1.61.11.99.22,2.02.29,3,.18,1.76.41,3.41.66,4.95"/></g><path class="cls-18" d="m67.61,22.41c-48,0-48.26,40.12-46.12,66.39-3.28-6.23-13.05-4.32-12.24,5.5.77,9.45,14.73,14.27,14.34,13.23,7.27,19.43,26.51,34.08,44.02,34.08h.37V22.41h-.37"/><path class="cls-11" d="m12.31,90.16c2.36-3.81,6.05-2.16,6.93-1.32.96.92,1.73,2.09,1.14,4.32-.33,1.28-1.66,1.39-1.36,3.3.37,2.16,1.36,2.27,1.95,2.78.55.48,1.25.84,1.59,1.76.37.92.41,1.87.22,2.71-.37,1.54-2.62.29-4.13-.37-1-.48-4.17-3.15-4.98-4.03-1.99-2.27-2.95-6.67-1.36-9.16"/><path class="cls-16" d="m67.87,22.41c48,0,48.26,40.12,46.15,66.39,3.28-6.23,13.01-4.32,12.2,5.5-.74,9.45-14.72,14.27-14.34,13.23-7.08,19.43-26.51,34.08-44.02,34.08h-.26l-.11-119.19h.37"/><path class="cls-11" d="m123.16,90.16c-2.36-3.81-6.01-2.16-6.93-1.32-.96.92-1.7,2.09-1.14,4.32.33,1.28,1.66,1.39,1.36,3.3-.37,2.16-1.36,2.27-1.92,2.78-.55.48-1.29.84-1.62,1.76-.33.92-.41,1.87-.22,2.71.37,1.54,2.62.29,4.13-.37,1.03-.48,4.17-3.15,4.98-4.03,2.03-2.27,2.95-6.67,1.36-9.16"/><path class="cls-4" d="m67.23,33.74c-15.78,0-27.35,4.58-34.32,13.59-9.77,12.64-9.4,31.91-5.82,45.76,1.11,4.25,1.7,15.65,2.43,19.82,3.43,18.72,24.11,28.69,37.71,28.69h.37V33.74h-.22"/><path class="cls-3" d="m101.51,47.37c-6.93-8.98-18.36-13.56-33.92-13.63v107.87c15.56-.18,34.17-11.1,37.34-28.69.77-4.18,1.33-15.57,2.43-19.82,3.61-13.81,3.98-33.05-5.86-45.73"/><path class="cls-1" d="m65.67,122.6c-.22-.04-.42-.08-.59-.11.2.04.4.08.59.11Z"/><path class="cls-1" d="m64.86,122.44c-.14-.03-.27-.06-.36-.08.12.03.24.05.36.08Z"/><path class="cls-9" d="m65.08,122.48c-.08-.02-.15-.03-.23-.05.07.02.14.03.23.05Z"/><path class="cls-9" d="m64.5,122.35c-.07-.02-.13-.04-.2-.06h0s.08.02.21.06Z"/><path class="cls-1" d="m24.57,67.36c-.43,1.43-.73,2.99-.93,4.66,0,0,.63-2.63,2.03-6.52-.6.83-1,1.5-1.1,1.86Z"/><path class="cls-22" d="m54.2,34l-.2.2.03.07c.07-.1.1-.2.17-.27Z"/><path class="cls-1" d="m65.82,120.41c-.22-.04-.43-.08-.61-.12.21.04.41.08.61.12Z"/><path class="cls-1" d="m64.98,120.25c-.14-.03-.28-.06-.37-.08.12.03.24.06.37.08Z"/><path class="cls-13" d="m65.21,120.3c-.08-.02-.15-.03-.23-.05.08.02.14.03.23.05Z"/><path class="cls-13" d="m64.61,120.16c-.07-.02-.14-.04-.21-.06h0s.08.02.21.06Z"/><path class="cls-17" d="m58.22,109.15c-.19-3.83,7.03-1.4,9.41-1.28,1.88.1,7.6-1.21,8.09-.87,3.37,2.27-3.57,6.84-8.21,6.84-1.24,0-9.18-2.38-9.29-4.69Z"/><path class="cls-7" d="m33.17,75.84s3.66,15.02,9.95,16.25c6.29,1.23,13.09-1.21,13.09-1.21,0,0,.65-17.65-2.57-19.96-3.22-2.32-10.63-5.66-20.47,4.92Z"/><path class="cls-19" d="m56.21,90.83s-.14.04-.47.18c-.08-5.41-.58-12.85-2.59-14.28-2.99-2.19-9.74-5.27-18.75,3.16-.82-2.33-1.23-4.09-1.23-4.09,9.86-10.61,17.28-7.27,20.47-4.95,3.22,2.32,2.57,19.99,2.57,19.99Z"/><circle class="cls-24" cx="46.3" cy="83.18" r="6.19" transform="translate(-28.73 24.59) rotate(-22.91)"/><path class="cls-8" d="m46.02,87.3c-1.79-.15-3.16-1.95-3-3.93.16-1.98,1.81-3.53,3.6-3.38,1.79.15,3.16,1.95,3,3.93-.16,1.98-1.81,3.54-3.6,3.39Z"/><path class="cls-21" d="m46.17,86.58c-1.24-.11-2.53-1.47-2.4-3.15.14-1.69,1.63-2.82,2.88-2.72,1.24.11,2.53,1.48,2.39,3.16-.14,1.68-1.63,2.82-2.87,2.72Z"/><path class="cls-7" d="m45.16,82.44c-.05.61-.68,1.05-1.39.99-.72-.06-1.26-.6-1.21-1.21.05-.61.67-1.05,1.39-1,.72.06,1.26.6,1.21,1.21Z"/><path class="cls-7" d="m49.18,85.95c-.03.3-.34.53-.69.5-.36-.03-.63-.3-.61-.6.03-.3.34-.53.69-.49.36.03.63.3.61.6Z"/><path class="cls-1" d="m65.92,122.18c-.22-.04-.43-.08-.61-.12.21.04.41.09.61.12Z"/><path class="cls-1" d="m65.08,122.02c-.14-.03-.28-.06-.37-.08.12.03.24.06.37.08Z"/><path class="cls-13" d="m65.31,122.07c-.08-.02-.15-.03-.23-.05.08.02.14.03.23.05Z"/><path class="cls-13" d="m64.71,121.93c-.07-.02-.14-.04-.21-.06h0s.08.02.21.06Z"/><path class="cls-1" d="m65.68,121.77c-.24-.04-.46-.08-.65-.12.22.05.44.09.65.12Z"/><path class="cls-1" d="m64.78,121.59c-.15-.03-.3-.07-.4-.09.13.03.26.06.4.09Z"/><path class="cls-9" d="m65.03,121.64c-.08-.02-.17-.03-.25-.05.08.02.15.03.25.05Z"/><path class="cls-9" d="m64.38,121.5c-.08-.02-.15-.04-.22-.06h0s.09.03.23.06Z"/><path class="cls-1" d="m65.5,121.14c-.24-.04-.46-.08-.65-.12.22.05.44.09.65.12Z"/><path class="cls-1" d="m64.6,120.96c-.15-.03-.3-.07-.4-.09.13.03.26.06.4.09Z"/><path class="cls-9" d="m64.84,121.02c-.08-.02-.17-.03-.25-.05.08.02.15.03.25.05Z"/><path class="cls-9" d="m64.2,120.87c-.08-.02-.15-.04-.22-.06h0s.09.03.23.06Z"/><path class="cls-1" d="m66.05,121.05c-.23-.04-.44-.08-.63-.12.21.05.42.09.63.12Z"/><path class="cls-1" d="m65.18,120.88c-.14-.03-.29-.06-.38-.09.13.03.25.06.38.09Z"/><path class="cls-9" d="m65.42,120.93c-.08-.02-.16-.03-.24-.05.08.02.15.03.24.05Z"/><path class="cls-9" d="m64.8,120.79c-.07-.02-.14-.04-.21-.06h0s.08.03.22.06Z"/><path class="cls-7" d="m102.41,75.33s-3.66,15.02-9.95,16.25c-6.29,1.23-13.09-1.21-13.09-1.21,0,0-.65-17.65,2.57-19.96,3.22-2.32,10.63-5.66,20.47,4.92Z"/><path class="cls-19" d="m79.36,90.32s.14.04.47.18c.08-5.41.58-12.85,2.59-14.28,2.99-2.19,9.74-5.27,18.75,3.16.82-2.33,1.23-4.09,1.23-4.09-9.86-10.61-17.28-7.27-20.47-4.95-3.22,2.32-2.57,19.99-2.57,19.99Z"/><path class="cls-24" d="m83.08,82.67c0,3.42,2.77,6.19,6.19,6.19s6.19-2.77,6.19-6.19-2.77-6.19-6.19-6.19-6.19,2.77-6.19,6.19Z"/><path class="cls-8" d="m89.56,86.79c1.79-.15,3.16-1.95,3-3.93-.16-1.98-1.81-3.53-3.6-3.38-1.79.15-3.16,1.95-3,3.93.16,1.98,1.81,3.54,3.6,3.39Z"/><path class="cls-21" d="m89.4,86.07c1.24-.11,2.53-1.47,2.4-3.15-.14-1.69-1.63-2.82-2.88-2.72-1.24.11-2.53,1.48-2.39,3.16.14,1.68,1.63,2.82,2.87,2.72Z"/><path class="cls-7" d="m90.41,81.93c.05.61.68,1.05,1.39.99.72-.06,1.26-.6,1.21-1.21-.05-.61-.67-1.05-1.39-1-.72.06-1.26.6-1.21,1.21Z"/><path class="cls-7" d="m86.4,85.44c.03.3.34.53.69.5.36-.03.63-.3.61-.6-.03-.3-.34-.53-.69-.49-.36.03-.63.3-.61.6Z"/><path d="m59.98,75.6c-.05-.07-1.19-1.81-3.52-3.6-1.46-1.12-2.89-1.97-4.38-2.61-1.81-.76-3.75-1.3-5.63-1.55-1.7-.19-3.59-.14-5.8.16-1.68.32-3.32.82-4.71,1.43-.99.34-1.78.82-2.41,1.21-.24.15-.46.28-.68.4l-3,1.89,3.46-.81c.16-.04.34-.09.52-.14.72-.19,1.61-.43,2.65-.58.24-.04.49-.09.75-.14.44-.09.89-.18,1.36-.2.52-.03,1.07-.07,1.63-.11l.73-.05c1.92-.02,3.54.12,4.97.45,1.57.27,3.19.78,4.67,1.46,1.4.67,2.74,1.33,3.79,2.1,2.11,1.41,3.29,2.59,3.3,2.6h0c.29.29.68.44,1.07.44.28,0,.57-.08.82-.24.7-.46.89-1.4.45-2.07l-.03-.05Z"/><path d="m103.03,71.03c-.2-.11-.42-.24-.66-.39-.63-.39-1.41-.87-2.38-1.2-1.42-.63-3.06-1.13-4.76-1.45-2.18-.29-4.07-.34-5.78-.15-1.87.26-3.82.79-5.63,1.55-1.46.63-2.94,1.5-4.38,2.61-2.29,1.76-3.43,3.46-3.51,3.59l-.02.03c-.39.59-.3,1.39.2,1.89.28.29.66.44,1.06.44h0c.4,0,.78-.16,1.06-.44h.01c.11-.12,1.25-1.24,3.3-2.61,1.03-.76,2.37-1.42,3.77-2.09,1.49-.69,3.1-1.2,4.7-1.47,1.42-.33,3.04-.47,4.93-.45l.76.05c.55.04,1.09.08,1.62.11.46.02.91.11,1.35.2.25.05.5.1.75.14,1.04.15,1.94.39,2.65.58.19.05.36.1.53.14l3.46.81-3.03-1.9Z"/><path class="cls-1" d="m63.7,127.43c-.22-.04-.43-.08-.6-.12.2.04.4.08.6.12Z"/><path class="cls-1" d="m62.86,127.26c-.14-.03-.28-.06-.37-.08.12.03.24.06.37.08Z"/><path class="cls-15" d="m63.09,127.31c-.08-.02-.15-.03-.23-.05.08.02.14.03.23.05Z"/><path class="cls-15" d="m62.49,127.18c-.07-.02-.14-.04-.21-.06h0s.08.02.21.06Z"/><path class="cls-1" d="m63.52,126.84c-.22-.04-.43-.08-.6-.12.21.04.4.08.6.12Z"/><path class="cls-1" d="m62.69,126.68c-.14-.03-.28-.06-.37-.08.12.03.24.06.37.08Z"/><path class="cls-15" d="m62.92,126.73c-.08-.02-.15-.03-.23-.05.08.02.14.03.23.05Z"/><path class="cls-15" d="m62.32,126.59c-.07-.02-.14-.04-.21-.06h0s.08.02.21.06Z"/><path class="cls-1" d="m64.04,126.76c-.22-.04-.41-.08-.58-.11.2.04.39.08.58.11Z"/><path class="cls-1" d="m63.23,126.6c-.13-.03-.27-.06-.35-.08.12.03.23.05.35.08Z"/><path class="cls-15" d="m63.45,126.65c-.07-.02-.15-.03-.22-.05.07.02.14.03.22.05Z"/><path class="cls-15" d="m62.87,126.52c-.07-.02-.13-.04-.2-.06h0s.08.02.21.06Z"/><path class="cls-6" d="m58.42,128.44c-.18-2.39,6.65.5,8.89.57,1.79.06,7.16-.35,7.66-.54,3.76-1.4-.21,3.99-7.77,4.27-3.47.14-8.68-2.85-8.78-4.3Z"/><path class="cls-10" d="m80.93,122.7c-4.33-.81-13.45.05-13.45.05-7.52,1.25-13.41-.08-13.45-.03-.18.02,6.01,8.22,13.35,7.85h0c7.34.38,13.73-7.85,13.56-7.87Z"/><path class="cls-20" d="m71.83,120.97c-1.95-.22-3.34,1.19-4.34,1.09-1.02.09-2.34-.81-4.3-.83-2.76-.03-4.11-.27-9.16,1.5.18.34,3.41,2.22,9.47,2.32.09,0,1.71.92,4.02.91,1.45,0,3.43-.97,3.51-.97,6.07-.09,9.77-1.9,9.94-2.23-6.67-2.07-6.14-1.8-9.14-1.78Z"/><path class="cls-5" d="m28.46,201.63v-20.03c-.02-.55-.03-1.11-.03-1.63,0-.49.02-.98.02-1.46.26-7.44,2.39-12.37,4.3-15.35,5.17-6.16,10.9-8.69,14.12-9.69,1.58-.49,2.58-.61,2.58-.61.17,0,.32-.02.49-.03,1.01-.17,1.89-.84,2.64-1.93,1.77,5.62,7.72,22.47,15.55,22.95,4.71.29,10.12-5.37,15.69-23.01.58.84,1.23,1.46,1.95,1.78.38.17.78.25,1.21.25,0,0,1.73.21,4.34,1.24,3.01,1.18,7.15,3.42,11.13,7.64.02.02.03.05.06.08,1.47,1.92,4.88,6.71,4.88,10.33v29.47"/><path class="cls-5" d="m107.39,178.5v13.2H28.46v-10.12c-.02-.55-.03-1.11-.03-1.63,0-.49.02-.98.02-1.46h78.94Z"/><path class="cls-23" d="m125.44,44.38s0-.04,0-.07c-1.42-19.63-25.8-41.62-25.8-41.62v1.75c-.45,4.46-.13.26.72,4.92C91.65,1.5,82.69,0,82.69,0l.45,1.35c.74,3.35,2.09,2.21,3.77,5.41-2.87-.79-4.68-1.06-4.68-1.06,0,0-31.13-9.29-54.88,21.07-3.34,1.23-7.27,2.67-12.02,4.41,0,0,3.3,1.09,7.65,1.76-.91,1.43-1.8,2.94-2.68,4.5-1.38.8-2.89,1.51-4.77,2-12.05,3.18-15.54-.9-15.54-.9,0,0,5.23,7.14,14.51,7.16,1.5,0,1.65-.02,1.66-.03-.01.03-3.48,7.66-4.14,13.37-.68,5.83,1.45,9.82,2.1,20.72.19,3.04.64,4.58,1.28,5.51,1.34,1.93,3.52,1.27,5.97,5.9,1.23,2.3,1.28,4.9,1.28,4.9,0,0,.1.07.26.12.77.23,2.97.04,3.08-9.68,0,0-9.3-36.54,9.08-43.27l-2.08,6.83s35.26-16.98,58.75,39.07c0,0-4.56-32.81-32.23-45.89,2.73.5,5.48,1.08,8.22,1.69,1.74.39,3.49.85,5.23,1.35,7.44,4.9,15.62,12.86,23.61,25.69,0,0-3.68-11.5-14.46-22.37,2.69,1.16,5.35,2.44,7.93,3.97,9.15,5.45,20.95,12.4,23.41,24.82,0,.02,0,.04,0,.05-.36,3.34-.52,6.02-.55,8.18-.11,8.94,2.1,8.86,2.1,8.86,1.02,0-.07-4.5,3.31-7.6.93-.85,2-2.28,3.05-4.09,2.78-4.77,5.48-12.33,5.48-19.88.52-7.42-.07-13.88-1.42-19.56Z"/><path class="cls-12" d="m24.71,178.5h4.9s13-19.97,28.12-14.87l-5.15-12.74s-21.88,3.59-27.86,27.61Z"/><path class="cls-12" d="m111.73,178.5h-4.86s-12.91-19.97-27.92-14.87l5.12-12.74s21.73,3.59,27.67,27.61Z"/><path class="cls-25" d="m33.64,105.32c4.48,1.35,22.2,3.3,27.69-11.8-13.25-5.27-25.99-2.76-35.77,1.41,2.16,8.22,6.39,9.85,8.07,10.39Z"/><path class="cls-26" d="m104.15,105.32c-4.48,1.35-22.2,3.3-27.69-11.8,13.25-5.27,25.99-2.76,35.77,1.41-2.16,8.22-6.39,9.85-8.07,10.39Z"/><path class="cls-27" d="m61.33,93.51c.21-.57.4-1.17.57-1.79.12-.42.23-.84.33-1.29.92-4.06.69-7.32-.12-10.19-.77-2.81-8.76-4.5-12.22-5-3.42-.38-8.49-.69-14.18,0-7.03.88-11.99,1.56-11.34,11.94.11,1.67.29,3.17.51,4.54.19,1.17.42,2.23.68,3.2,9.78-4.17,22.52-6.68,35.77-1.41Z"/><path class="cls-28" d="m76.45,93.51c-.21-.57-.4-1.17-.57-1.79-.12-.42-.23-.84-.33-1.29-.92-4.06-.69-7.32.12-10.19.77-2.81,8.76-4.5,12.22-5,3.42-.38,8.49-.69,14.18,0,7.03.88,11.99,1.56,11.34,11.94-.11,1.67-.29,3.17-.51,4.54-.19,1.17-.42,2.23-.68,3.2-9.78-4.17-22.52-6.68-35.77-1.41Z"/><path class="cls-7" d="m118.21,75.3c-.28-.59-5.59-1.35-12.49-2.05-5.83-.53-15.24-.18-18.91.35-1.53.23-4.27.76-7.01,1.53-3.02.82-6.04,1.94-7.29,2.23-1.21.25-2.16.37-3.16.32v-.02c-.08,0-.15,0-.22.01-.08,0-.15,0-.23-.01-.08,0-.15,0-.23.01-.07,0-.15,0-.22-.01v.02c-1,.05-1.95-.06-3.16-.32-1.25-.29-4.27-1.41-7.29-2.23-2.74-.76-5.48-1.29-7.01-1.53-3.68-.53-13.08-.88-18.91-.35-6.91.7-12.22,1.47-12.49,2.05-.17.41-.59,5.75-.03,6.28.56.59,2.5,1.7,2.98,3.58.15.64.48,2.62,1.01,5.11.17.81.74,1.38,1.38,1.38.84,0,1.49-.97,1.37-2.06-.08-.7-.14-1.43-.19-2.2-.59-9.74,3.89-10.38,10.24-11.21,5.14-.65,9.72-.35,12.81,0,3.12.47,10.34,2.05,11.04,4.69.73,2.7.94,5.75.1,9.56h0c-.13.61.21,1.21.69,1.21h2.26c.31-1.03.59-2.11.8-3.26.52-2.99,1.28-4.75,2.57-5.28.51-.16,1.27-.31,2.06-.34.08,0,.15-.01.23-.01s.15,0,.23.01c.79.03,1.56.18,2.06.34,1.28.53,2.05,2.29,2.57,5.28.21,1.15.49,2.23.8,3.26h2.26c.47,0,.82-.59.69-1.2h0c-.83-3.83-.62-6.88.1-9.58.69-2.64,7.91-4.22,11.04-4.69,3.09-.35,7.67-.65,12.81,0,6.35.82,10.83,1.47,10.24,11.21-.05.77-.11,1.5-.19,2.2-.12,1.09.53,2.06,1.37,2.06.64,0,1.2-.57,1.38-1.38.53-2.49.86-4.47,1.01-5.11.49-1.88,2.43-2.99,2.98-3.58.56-.53.14-5.87-.03-6.28Z"/></svg>