<?xml version="1.0" encoding="UTF-8"?><svg id="Layer_1" xmlns="http://www.w3.org/2000/svg" xmlns:xlink="http://www.w3.org/1999/xlink" viewBox="0 0 123.61 195.42"><defs><style>.cls-1{fill:none;}.cls-2{clip-path:url(#clippath);}.cls-3{fill:#f4ad23;}.cls-4{fill:#f1dab4;}.cls-5{fill:#f5b435;}.cls-6{fill:#e4c59e;}.cls-7{fill:#f3dab4;}.cls-8{fill:#fff;}.cls-9{fill:#7f401b;}.cls-10{fill:#c3977d;}.cls-11{fill:#b48d76;}.cls-12{fill:#8ebce3;}.cls-13{fill:#c1967d;}.cls-14{fill:#cba686;}.cls-15{fill:#c49d80;}.cls-16{fill:#c5997d;}.cls-17{fill:#e1bd9d;}.cls-18{fill:#d7ad88;}.cls-19{fill:#dbbb9a;}.cls-20{fill:#e1c7a3;}.cls-21{fill:#231c08;}.cls-22{fill:#552623;}.cls-23{fill:#463216;}.cls-24{fill:#2e332f;}.cls-25{fill:#4c2912;}.cls-26{opacity:.42;}</style><clipPath id="clippath"><rect class="cls-1" x="46.46" y="126.65" width="25.11" height="14.85"/></clipPath></defs><path class="cls-8" d="m60.53,186.14s-.03,0-.04,0c.01,0,.03,0,.04,0Z"/><path class="cls-3" d="m61.26,86.21c-.93.68-20.43-19.68-37.08,5.78-10.77,16.47,11.23,55.71-22.24,55.75,4.28-.15,12.71.49,17.6-2.04-17.74,7.81-10.21,24.28-4.25,37.15-5-19.28,21.85-19.84,26.24-36.77,1.67,3.54,2.47,7.72,1.27,11.48,13.53-11.66.9-26.81,5.21-41.15,2.38-7.93,13.25-30.19,13.25-30.19Z"/><path class="cls-3" d="m54.3,85.78c.99.68,22.26-19.85,40.06,5.49,11.51,16.39-12.6,55.82,23.6,55.6-4.62-.12-13.76.59-19.02-1.91,19.13,7.67,10.84,24.21,4.3,37.13,5.56-19.33-23.47-19.68-28.09-36.58-1.84,3.56-2.74,7.75-1.48,11.5-14.54-11.55-.75-26.81-5.29-41.13-2.51-7.92-14.09-30.1-14.09-30.1Z"/><path class="cls-6" d="m58.92,111.39v84.02H13.62c-.75-.29-1.12-.45-1.12-.45,0-10.71,1.58-19.08,3.96-25.6,2.82-7.67,6.78-12.8,10.67-16.21,4.05-3.58,8.03-5.26,10.51-6.03t.03-.02c1.58-.48,2.55-.6,2.55-.6.18,0,.34-.02.51-.05,1.43-.23,2.58-1.47,3.52-3.45.69-1.47,1.26-3.36,1.73-5.53.18-.84.34-1.7.48-2.62.23-1.57.45-3.19.63-4.9.08-1.03.18-2.03.31-3.1.4-5.14.51-10.76.51-16.1,0,0,6.09.63,11.02.63Z"/><path class="cls-4" d="m105.52,194.97s-.4.15-1.07.45h-45.53v-84.02h.11c4.91,0,11.07-.63,11.07-.63,0,5.3.11,10.85.51,15.99.12,1,.23,2.03.31,3.02.18,1.78.4,3.45.66,5v.03c.08.71.21,1.34.34,2,.45,2.19.98,4.11,1.64,5.65.81,1.92,1.8,3.27,3.01,3.79.38.17.78.26,1.21.26,0,0,.84.11,2.24.51.6.18,1.32.41,2.1.74,2.44.95,5.65,2.64,8.9,5.51,3.85,3.41,7.75,8.5,10.55,16.1,2.39,6.52,3.96,14.89,3.96,25.6Z"/><g class="cls-2"><path class="cls-15" d="m71.57,134.63v.04c-1.14,1.76-4.98,6.84-12.57,6.84h-.07c-7.19-.04-11.39-5.26-12.46-6.8.22-1.54.44-3.16.63-4.85.07-.99.18-2.02.29-3.09,3.5.88,7.34,1.43,11.39,1.51h.15c4.2-.07,8.07-.66,11.69-1.62.11.99.22,2.02.29,3.01.18,1.76.41,3.42.66,4.96"/></g><path class="cls-18" d="m58.4,15.65C10.41,15.65,10.15,55.9,12.29,82.25c-3.28-6.25-13.05-4.34-12.24,5.51.77,9.48,14.73,14.32,14.34,13.27,7.27,19.49,26.51,34.18,44.02,34.18h.37V15.65h-.37"/><path class="cls-11" d="m3.11,83.61c2.36-3.82,6.05-2.17,6.93-1.32.96.92,1.73,2.09,1.14,4.34-.33,1.29-1.66,1.4-1.36,3.31.37,2.17,1.36,2.28,1.95,2.79.55.48,1.25.85,1.59,1.76.37.92.41,1.87.22,2.72-.37,1.54-2.62.29-4.13-.37-1-.48-4.17-3.16-4.98-4.04-1.99-2.28-2.95-6.69-1.36-9.19"/><path class="cls-17" d="m58.66,15.65c48,0,48.26,40.25,46.15,66.6,3.28-6.25,13.01-4.34,12.2,5.51-.74,9.48-14.72,14.32-14.34,13.27-7.08,19.49-26.51,34.18-44.02,34.18h-.26l-.11-119.57h.37"/><path class="cls-11" d="m113.96,83.61c-2.36-3.82-6.01-2.17-6.93-1.32-.96.92-1.7,2.09-1.14,4.34.33,1.29,1.66,1.4,1.36,3.31-.37,2.17-1.36,2.28-1.92,2.79-.55.48-1.29.85-1.62,1.76s-.41,1.87-.22,2.72c.37,1.54,2.62.29,4.13-.37,1.03-.48,4.17-3.16,4.98-4.04,2.03-2.28,2.95-6.69,1.36-9.19"/><path class="cls-6" d="m58.03,27.01c-15.78,0-27.35,4.59-34.32,13.64-9.77,12.68-9.4,32.01-5.82,45.91,1.11,4.26,1.7,15.69,2.43,19.88,3.43,18.78,24.11,28.78,37.71,28.78h.37V27.01h-.22"/><path class="cls-4" d="m92.31,40.68c-6.93-9.01-18.36-13.6-33.92-13.67v108.21c15.56-.18,34.17-11.14,37.34-28.78.77-4.19,1.33-15.62,2.43-19.88,3.61-13.86,3.98-33.15-5.86-45.87"/><path class="cls-1" d="m56.47,112.09c-.22-.04-.42-.08-.59-.11.2.04.4.08.59.11Z"/><path class="cls-1" d="m55.65,115.98c-.14-.03-.27-.06-.36-.08.12.03.24.05.36.08Z"/><path class="cls-10" d="m55.88,116.03c-.08-.02-.15-.03-.23-.05.07.02.14.03.23.05Z"/><path class="cls-10" d="m55.29,115.9c-.07-.02-.13-.04-.2-.06h0s.08.02.21.06Z"/><path class="cls-17" d="m49.24,101.99c-.18-3.74,6.85-1.37,9.16-1.25,1.83.09,7.4-1.18,7.88-.85,3.28,2.22-3.47,6.68-8,6.68-1.21,0-8.94-2.33-9.05-4.58Z"/><path class="cls-1" d="m15.37,60.73c-.43,1.43-.73,3-.93,4.67,0,0,.63-2.64,2.03-6.54-.6.83-1,1.5-1.1,1.87Z"/><path class="cls-23" d="m45,27.28l-.2.2.03.07c.07-.1.1-.2.17-.27Z"/><path class="cls-1" d="m56.62,113.95c-.22-.04-.43-.08-.61-.12.21.04.41.09.61.12Z"/><path class="cls-1" d="m55.78,113.79c-.14-.03-.28-.06-.37-.09.12.03.24.06.37.09Z"/><path class="cls-13" d="m56.01,113.84c-.08-.02-.15-.03-.23-.05.08.02.14.03.23.05Z"/><path class="cls-13" d="m55.41,113.7c-.07-.02-.14-.04-.21-.06h0s.08.02.21.06Z"/><path class="cls-8" d="m23.96,69.24s3.66,15.07,9.95,16.3c6.29,1.23,13.09-1.22,13.09-1.22,0,0,.65-17.71-2.57-20.02-3.22-2.32-10.63-5.68-20.47,4.94Z"/><path class="cls-19" d="m47.01,84.28s-.14.04-.47.18c-.08-5.43-.58-12.89-2.59-14.32-2.99-2.2-9.74-5.28-18.75,3.17-.82-2.33-1.23-4.1-1.23-4.1,9.86-10.64,17.28-7.29,20.47-4.96,3.22,2.32,2.57,20.05,2.57,20.05Z"/><ellipse class="cls-25" cx="37.1" cy="76.6" rx="6.19" ry="6.21"/><path class="cls-9" d="m36.81,80.74c-1.79-.15-3.16-1.96-3-3.95.16-1.99,1.81-3.54,3.6-3.39,1.79.15,3.16,1.95,3,3.94-.16,1.99-1.81,3.55-3.6,3.4Z"/><path class="cls-21" d="m36.97,80.02c-1.24-.11-2.53-1.48-2.4-3.16.14-1.69,1.63-2.83,2.88-2.73,1.24.11,2.53,1.48,2.39,3.17-.14,1.69-1.63,2.83-2.87,2.72Z"/><path class="cls-8" d="m35.96,75.86c-.05.61-.68,1.05-1.39,1-.72-.06-1.26-.61-1.21-1.21.05-.61.67-1.06,1.39-1,.72.06,1.26.6,1.21,1.21Z"/><path class="cls-8" d="m39.97,79.39c-.03.3-.34.53-.69.5-.36-.03-.63-.3-.61-.61.03-.3.34-.53.69-.5.36.03.63.3.61.61Z"/><path class="cls-1" d="m56.72,115.73c-.22-.04-.43-.08-.61-.12.21.04.41.09.61.12Z"/><path class="cls-1" d="m55.88,115.56c-.14-.03-.28-.06-.37-.09.12.03.24.06.37.09Z"/><path class="cls-13" d="m56.11,115.61c-.08-.02-.15-.03-.23-.05.08.02.14.03.23.05Z"/><path class="cls-13" d="m55.51,115.48c-.07-.02-.14-.04-.21-.06h0s.08.03.21.06Z"/><path class="cls-1" d="m56.48,115.31c-.24-.04-.46-.08-.65-.12.22.05.44.09.65.12Z"/><path class="cls-1" d="m55.58,115.14c-.15-.03-.3-.07-.4-.09.13.03.26.06.4.09Z"/><path class="cls-10" d="m55.83,115.19c-.08-.02-.17-.03-.25-.05.08.02.15.03.25.05Z"/><path class="cls-10" d="m55.18,115.04c-.08-.02-.15-.04-.22-.06h0s.09.03.23.06Z"/><path class="cls-1" d="m56.29,114.68c-.24-.04-.46-.08-.65-.12.22.05.44.09.65.12Z"/><path class="cls-1" d="m55.39,114.5c-.15-.03-.3-.07-.4-.09.13.03.26.06.4.09Z"/><path class="cls-10" d="m55.64,114.56c-.08-.02-.17-.03-.25-.05.08.02.15.03.25.05Z"/><path class="cls-10" d="m55,114.41c-.08-.02-.15-.04-.22-.06h0s.09.03.23.06Z"/><path class="cls-1" d="m56.85,114.59c-.23-.04-.44-.08-.63-.12.21.05.42.09.63.12Z"/><path class="cls-1" d="m55.98,114.42c-.14-.03-.29-.06-.38-.09.13.03.25.06.38.09Z"/><path class="cls-10" d="m56.22,114.47c-.08-.02-.16-.03-.24-.05.08.02.15.03.24.05Z"/><path class="cls-10" d="m55.59,114.33c-.07-.02-.14-.04-.21-.06h0s.08.03.22.06Z"/><path class="cls-8" d="m93.2,68.73s-3.66,15.07-9.95,16.3c-6.29,1.23-13.09-1.22-13.09-1.22,0,0-.65-17.71,2.57-20.02,3.22-2.32,10.63-5.68,20.47,4.94Z"/><path class="cls-19" d="m70.16,83.76s.14.04.47.18c.08-5.43.58-12.89,2.59-14.32,2.99-2.2,9.74-5.28,18.75,3.16.82-2.33,1.23-4.1,1.23-4.1-9.86-10.64-17.28-7.29-20.47-4.96-3.22,2.32-2.57,20.05-2.57,20.05Z"/><path class="cls-25" d="m73.88,76.09c0,3.43,2.77,6.21,6.19,6.21s6.19-2.78,6.19-6.21-2.77-6.21-6.19-6.21-6.19,2.78-6.19,6.21Z"/><path class="cls-9" d="m80.35,80.22c1.79-.15,3.16-1.96,3-3.95-.16-1.99-1.81-3.54-3.6-3.39-1.79.15-3.16,1.95-3,3.94.16,1.99,1.81,3.55,3.6,3.4Z"/><path class="cls-21" d="m80.2,79.51c1.24-.11,2.53-1.47,2.4-3.16-.14-1.69-1.63-2.83-2.88-2.73-1.24.11-2.53,1.48-2.39,3.17.14,1.69,1.63,2.83,2.87,2.72Z"/><path class="cls-8" d="m81.21,75.35c.05.61.68,1.05,1.39,1,.72-.06,1.26-.61,1.21-1.21-.05-.61-.67-1.06-1.39-1-.72.06-1.26.6-1.21,1.21Z"/><path class="cls-8" d="m77.2,78.87c.03.3.34.53.69.5.36-.03.63-.3.61-.61-.03-.3-.34-.53-.69-.5-.36.03-.63.3-.61.61Z"/><path class="cls-5" d="m50.78,64.39c-.05-.07-1.19-1.81-3.52-3.61-1.46-1.12-2.89-1.98-4.38-2.62-1.81-.76-3.75-1.3-5.63-1.56-1.7-.19-3.59-.14-5.8.16-1.68.32-3.32.82-4.71,1.44-.99.34-1.78.82-2.41,1.21-.24.15-.46.28-.68.4l-3,1.89,3.46-.82c.16-.04.34-.09.52-.14.72-.19,1.61-.43,2.65-.58.24-.04.49-.09.75-.14.44-.09.89-.18,1.36-.2.52-.04,1.07-.07,1.63-.11l.73-.05c1.92-.02,3.54.12,4.97.45,1.57.27,3.19.78,4.67,1.47,1.4.67,2.74,1.34,3.79,2.11,2.11,1.42,3.29,2.6,3.3,2.61h0c.29.29.68.44,1.07.44.28,0,.57-.08.82-.25.7-.46.89-1.4.45-2.08l-.03-.05Z"/><path class="cls-5" d="m93.82,59.81c-.2-.11-.42-.24-.66-.39-.63-.39-1.41-.87-2.38-1.2-1.42-.63-3.06-1.13-4.76-1.45-2.18-.29-4.07-.35-5.78-.15-1.87.26-3.82.8-5.63,1.56-1.46.63-2.94,1.51-4.38,2.62-2.29,1.76-3.43,3.47-3.51,3.6l-.02.03c-.39.6-.3,1.4.2,1.9.28.29.66.45,1.06.45h0c.4,0,.78-.16,1.06-.45h.01c.11-.12,1.25-1.24,3.3-2.62,1.03-.76,2.37-1.43,3.77-2.1,1.49-.69,3.1-1.2,4.7-1.48,1.42-.33,3.04-.47,4.93-.45l.76.05c.55.04,1.09.08,1.62.11.46.02.91.11,1.35.2.25.05.5.1.75.14,1.05.15,1.94.39,2.65.58.19.05.36.1.53.14l3.46.82-3.03-1.91Z"/><path class="cls-1" d="m55.66,117.52c-.23-.04-.45-.08-.64-.12.22.05.43.09.64.12Z"/><path class="cls-1" d="m54.78,117.35c-.15-.03-.29-.07-.39-.09.13.03.26.06.39.09Z"/><path class="cls-16" d="m55.02,117.4c-.08-.02-.16-.03-.24-.05.08.02.15.03.24.05Z"/><path class="cls-16" d="m54.39,117.26c-.07-.02-.14-.04-.22-.06h0s.08.03.22.06Z"/><path class="cls-7" d="m49.53,120.51c-.18-2.42,6.73.51,8.99.58,1.81.06,7.25-.36,7.75-.55,3.8-1.43-.21,4.05-7.86,4.34-3.51.14-8.78-2.9-8.88-4.36Z"/><path class="cls-20" d="m72.02,115.84c-1.88-.09-3.8,1.48-6.06,1.24-.09-.05-.14-.05-.23-.05-.52-.09-1.03,0-1.6.14-.7.15-1.41.43-2.07.66-1.13.37-2.4.66-3.7.56h0s-.05,0-.07,0-.05,0-.07,0h0c-1.31.09-2.58-.2-3.7-.57-.66-.23-1.37-.52-2.07-.66-.56-.14-1.08-.23-1.6-.14-.1,0-.14,0-.23.05-2.26.24-4.18-1.33-6.06-1.24-.52.05-1.27-.09-1.69-.09.09.05.19.09.28.14,5.35,2.61,9.96,7.51,15.07,7.35h.15c5.11.16,9.72-4.74,15.07-7.35.1-.05.19-.09.28-.14-.42,0-1.17.14-1.69.09Z"/><path class="cls-14" d="m73.59,115.69h0s-5.44-2.1-9.3-.87c0,0-1.44.56-2.93.91-.91.35-2.01.46-3.07.41h0c-.81-.03-1.59-.14-2.22-.25-.21-.03-.42-.08-.64-.12-.09-.02-.16-.03-.24-.05-.13-.03-.26-.06-.39-.09-.14-.03-.22-.06-.22-.06h0c-1.24-.34-2.3-.75-2.3-.75-3.87-1.23-9.3.87-9.3.87h0c-.07.03-.12.06-.12.06.42,0,1.17.14,1.69.09,1.87-.09,3.8,1.48,6.06,1.24.09-.05.14-.05.23-.05.52-.09,1.03,0,1.6.14.7.15,1.41.43,2.07.66,1.13.37,2.4.66,3.7.56h0s.05,0,.07,0,.05,0,.07,0h0c1.31.09,2.58-.2,3.7-.57.66-.23,1.37-.52,2.07-.66.56-.14,1.08-.23,1.6-.14.1,0,.14,0,.23.05,2.26.24,4.18-1.33,6.06-1.24.52.05,1.27-.09,1.69-.09,0,0-.05-.02-.12-.06Z"/><path class="cls-14" d="m49.15,116.97c.1.02,10.19,3.11,18.08.07l-.91-.61h-10.66l-6.5.55Z"/><path class="cls-22" d="m105.52,194.93s-.4.16-1.08.46H13.53c-.75-.3-1.12-.46-1.12-.46,0-10.96,1.58-19.51,3.96-26.18,2.83-7.85,6.79-13.09,10.68-16.58,5.45,10.34,16.82,27.61,31.82,27.44,9.46-.11,20.36-7.16,32.13-27.33,3.86,3.48,7.76,8.7,10.56,16.47,2.4,6.67,3.96,15.23,3.96,26.18Z"/><path class="cls-8" d="m48.68,159.09l-11.14-13.11s-.02.02-.03.02c-2.49.78-6.47,2.51-10.52,6.17,4.7,8.92,13.8,22.96,25.82,26.56v-16.39c-1.52-.78-2.93-1.85-4.13-3.25Z"/><path class="cls-8" d="m90.94,152.28c-3.26-2.94-6.47-4.66-8.91-5.63-.78-.33-1.51-.57-2.1-.75l-10.96,13.11c-1.12,1.34-2.44,2.39-3.85,3.17v16.32c7.89-2.65,16.59-10.38,25.82-26.21Z"/><path class="cls-5" d="m109.06,42.37c-1.01-3.41-2.05-6.04-2.05-6.06,0,0,.15.03,1.56.03,8.7-.02,13.6-7.77,13.6-7.77,0,0-3.28,4.42-14.57.98-11.03-3.36-10.75-14.32-26.6-20.44-8.12-3.13-12.96-2.72-15.77-1.58,2.84-2.15,8.69-1.96,8.69-1.96,0,0-7.21-3.66-18.36-.38-7.83,2.31-12.52,4.94-15.15,6.83l4.39-3.86s-3.11,1.02-7.52,3.09c2.99-5.36,8.54-11.24,8.54-11.24-14.12,4.85-25.82,22.31-25.82,22.31,1.12-6.58,3.59-12.61,3.59-12.61C-.5,26.25,3.24,56.12,3.24,56.12c0,11.31,4.83,22.64,8,26.01,3.17,3.37,2.16,8.25,3.11,8.25,0,0,1.91.06,1.97-8.47.09-1.09.28-2.42.71-3.59,0,0,2.94-47.67,38.46-33.81,0,0,14.38,5.72,25.58,6.62,8.33.67,15.17,6.49,16.97,14.08.85,3.61,1.07,6.8.66,8.65-2.37,11.06.94,17.43,2.21,17.13,0,0,.05-2.81,1.2-5.31,3.41-7.46,6.27-2.28,6.8-12.39.42-8.12,1.49-12.7,1.92-16.82,2.7,1.99,6.74,3.4,12.78,3.52,0,0-8.54-2.44-14.56-17.63Z"/><path class="cls-24" d="m104.88,67.01c-17.54-6.8-28.79-2.59-28.79-2.59-6.43,1.95-9.78,5.19-11.5,8.34h0s-1.68-1.43-1.68-1.43c-.47-.4-1.06-.61-1.67-.61h-8.75c-.61,0-1.2.22-1.67.61l-1.68,1.43h0c-1.71-3.15-5.07-6.39-11.5-8.34,0,0-11.25-4.21-28.79,2.59-.51.2-.85.7-.85,1.26v5.3c0,.3.1.59.29.83.53.71,1.67,2.89,2.32,8.92,0,0,2.5,14.88,19.76,16.51,0,0,15.85,1.52,20.31-18.13,0,0,.68-3.15-.63-6.89l1.22-1.55c.45-.57,1.13-.9,1.86-.9h7.48c.72,0,1.41.33,1.86.9l1.22,1.55c-1.31,3.74-.63,6.89-.63,6.89,4.45,19.66,20.31,18.13,20.31,18.13,17.27-1.63,19.76-16.51,19.76-16.51.65-6.02,1.79-8.21,2.32-8.92.18-.24.29-.53.29-.83v-5.3c0-.55-.34-1.06-.85-1.26Zm-57.9,16.95s-2.06,13.36-16.61,13.68c0,0-15.42,0-17.05-18.03,0,0,.54-14.88,17.05-13.25,0,0,19.44,2.39,16.61,17.59Zm36.38,13.68c-14.55-.33-16.61-13.68-16.61-13.68-2.82-15.2,16.61-17.59,16.61-17.59,16.51-1.63,17.05,13.25,17.05,13.25-1.63,18.03-17.05,18.03-17.05,18.03Z"/><g class="cls-26"><path class="cls-12" d="m30.37,66.37c-16.51-1.63-17.05,13.25-17.05,13.25.17,1.81.46,3.43.88,4.9,3.68,13.13,16.17,13.13,16.17,13.13,14.55-.33,16.61-13.68,16.61-13.68.04-.22.07-.43.11-.64,2.17-14.63-16.72-16.95-16.72-16.95Z"/><path class="cls-12" d="m83.36,66.37s-18.89,2.32-16.72,16.95c.03.21.07.42.11.64,0,0,2.06,13.36,16.61,13.68,0,0,12.48,0,16.17-13.13.42-1.46.72-3.09.88-4.9,0,0-.54-14.88-17.05-13.25Z"/></g></svg>