<?xml version="1.0" encoding="UTF-8"?><svg id="Layer_1" xmlns="http://www.w3.org/2000/svg" xmlns:xlink="http://www.w3.org/1999/xlink" viewBox="0 0 515.87 833.37"><defs><style>.cls-1{fill:none;}.cls-2{clip-path:url(#clippath);}.cls-3{fill:#fff;}.cls-4{fill:#e66113;}.cls-5{fill:#7f401b;}.cls-6{fill:#c3977d;}.cls-7{fill:#b4b800;}.cls-8{fill:#c1967d;}.cls-9{fill:#c5997d;}.cls-10{fill:#231c08;}.cls-11{fill:#421423;}.cls-12{fill:#6f3d46;}.cls-13{fill:#463216;}.cls-14{fill:#5c2a32;}.cls-15{fill:#653037;}.cls-16{fill:#4c2912;}.cls-17{fill:#5f1833;}</style><clipPath id="clippath"><rect class="cls-1" x="185.78" y="558.07" width="100.39" height="59.44"/></clipPath></defs><path class="cls-12" d="m235.59,496.99v336.35H54.47c-3.01-1.17-4.48-1.78-4.48-1.78,0-42.89,6.32-76.38,15.84-102.49,11.29-30.72,27.13-51.25,42.66-64.89,16.2-14.32,32.1-21.08,42.04-24.15q.06,0,.12-.06c6.32-1.9,10.19-2.4,10.19-2.4.74,0,1.35-.06,2.03-.18,5.71-.92,10.31-5.9,14.06-13.83,2.76-5.9,5.03-13.46,6.94-22.12.74-3.38,1.35-6.82,1.9-10.51.92-6.27,1.78-12.78,2.52-19.6.31-4.12.74-8.11,1.23-12.41,1.6-20.58,2.03-43.07,2.03-64.46,0,0,24.37,2.52,44.07,2.52Z"/><path class="cls-15" d="m421.94,831.56s-1.6.61-4.3,1.78h-182.05v-336.35h.43c19.64,0,44.25-2.52,44.25-2.52,0,21.2.43,43.44,2.03,64.03.49,3.99.92,8.11,1.23,12.1.74,7.13,1.6,13.83,2.64,20.03v.12c.31,2.83.86,5.35,1.35,7.99,1.78,8.79,3.93,16.47,6.57,22.61,3.25,7.68,7.18,13.09,12.03,15.18,1.53.68,3.13,1.04,4.85,1.04,0,0,3.38.43,8.96,2.03,2.39.74,5.28,1.66,8.41,2.95,9.76,3.81,22.59,10.57,35.6,22.06,15.41,13.64,31,34.04,42.17,64.46,9.58,26.11,15.84,59.6,15.84,102.49Z"/><g class="cls-2"><path class="cls-17" d="m286.17,590v.15c-4.57,7.06-19.9,27.37-50.27,27.37h-.3c-28.74-.15-45.55-21.04-49.82-27.22.88-6.18,1.77-12.65,2.51-19.42.3-3.97.74-8.09,1.18-12.36,14,3.53,29.33,5.74,45.55,6.03h.59c16.8-.29,32.28-2.65,46.73-6.47.44,3.97.88,8.09,1.18,12.07.74,7.06,1.62,13.68,2.65,19.86"/></g><path class="cls-15" d="m233.54,113.72c-191.93,0-192.96,161.11-184.41,266.61-13.12-25.01-52.18-17.36-48.94,22.07,3.1,37.96,58.9,57.31,57.34,53.12,29.06,78.02,105.99,136.84,176.01,136.84h1.47V113.72h-1.47"/><path class="cls-11" d="m12.43,385.77c9.43-15.3,24.17-8.68,27.71-5.3,3.83,3.68,6.93,8.39,4.57,17.36-1.33,5.15-6.63,5.59-5.45,13.24,1.47,8.68,5.45,9.12,7.81,11.18,2.21,1.91,5.01,3.39,6.34,7.06,1.47,3.68,1.62,7.5.88,10.89-1.47,6.18-10.47,1.18-16.51-1.47-3.98-1.91-16.66-12.65-19.9-16.18-7.96-9.12-11.79-26.78-5.45-36.78"/><path class="cls-14" d="m234.57,113.72c191.93,0,192.96,161.11,184.56,266.61,13.12-25.01,52.04-17.36,48.79,22.07-2.95,37.96-58.87,57.32-57.34,53.12-28.31,78.02-105.99,136.84-176.01,136.84h-1.03l-.44-478.63h1.47"/><path class="cls-12" d="m232.03,159.18c-63.09,0-109.38,18.39-137.24,54.59-39.06,50.76-37.59,128.16-23.29,183.77,4.42,17.07,6.78,62.83,9.73,79.6,13.71,75.19,96.41,115.21,150.8,115.21h1.47V159.18h-.88"/><path class="cls-15" d="m369.12,213.92c-27.71-36.05-73.41-54.44-135.62-54.74v433.17c62.21-.73,136.65-44.58,149.33-115.21,3.1-16.77,5.31-62.53,9.73-79.6,14.45-55.47,15.92-132.72-23.44-183.63"/><path class="cls-1" d="m222.53,515.37c-.54-.12-1.09-.24-1.44-.33.48.12.95.22,1.44.33Z"/><path class="cls-6" d="m223.44,515.56c-.3-.07-.6-.12-.9-.19.3.07.56.12.9.19Z"/><path class="cls-6" d="m221.1,515.04c-.28-.07-.53-.15-.8-.23h-.03s.31.1.83.23Z"/><path class="cls-11" d="m196.89,459.37c-.73-14.97,27.38-5.47,36.65-5,7.32.38,29.6-4.72,31.51-3.41,13.11,8.87-13.88,26.75-31.98,26.75-4.82,0-35.74-9.31-36.18-18.34Z"/><path class="cls-1" d="m61.44,294.2c-1.73,5.74-2.93,12.02-3.72,18.7,0,0,2.53-10.55,8.11-26.17-2.39,3.34-3.99,6.01-4.39,7.48Z"/><path class="cls-13" d="m179.92,160.26l-.8.8.13.27c.27-.4.4-.8.66-1.07Z"/><path class="cls-3" d="m95.82,328.25s14.64,60.32,39.78,65.25c25.14,4.92,52.34-4.86,52.34-4.86,0,0,2.6-70.89-10.27-80.16-12.86-9.3-42.51-22.75-81.86,19.77Z"/><path class="cls-7" d="m187.98,388.45s-.58.17-1.87.71c-.32-21.74-2.32-51.61-10.36-57.33-11.95-8.79-38.94-21.16-74.99,12.67-3.28-9.35-4.92-16.43-4.92-16.43,39.42-42.6,69.09-29.18,81.86-19.87,12.89,9.3,10.29,80.25,10.29,80.25Z"/><ellipse class="cls-16" cx="148.35" cy="357.73" rx="24.74" ry="24.85"/><path class="cls-5" d="m147.21,374.28c-7.15-.59-12.63-7.83-11.98-15.79.64-7.96,7.23-14.19,14.38-13.59,7.15.59,12.62,7.82,11.99,15.78-.65,7.96-7.24,14.2-14.39,13.6Z"/><path class="cls-10" d="m147.82,371.41c-4.97-.42-10.13-5.9-9.59-12.65.56-6.77,6.53-11.34,11.5-10.93,4.98.42,10.12,5.93,9.57,12.68-.55,6.76-6.53,11.32-11.49,10.91Z"/><path class="cls-3" d="m143.79,354.76c-.21,2.44-2.7,4.22-5.56,3.99-2.86-.24-5.02-2.43-4.83-4.85.21-2.45,2.69-4.23,5.55-4,2.87.23,5.03,2.41,4.84,4.86Z"/><path class="cls-3" d="m159.84,368.87c-.11,1.21-1.35,2.11-2.77,1.99-1.44-.11-2.51-1.21-2.42-2.43.1-1.21,1.35-2.11,2.77-1.99,1.44.11,2.52,1.2,2.42,2.42Z"/><path class="cls-1" d="m226.79,514.36c-.9-.16-1.71-.32-2.43-.47.83.18,1.63.34,2.43.47Z"/><path class="cls-1" d="m223.43,513.69c-.56-.13-1.12-.25-1.48-.34.49.13.98.22,1.48.34Z"/><path class="cls-8" d="m224.36,513.89c-.31-.07-.62-.13-.93-.2.3.07.57.12.93.2Z"/><path class="cls-3" d="m372.7,326.2s-14.64,60.32-39.78,65.25c-25.14,4.92-52.35-4.86-52.35-4.86,0,0-2.6-70.89,10.27-80.16,12.86-9.3,42.51-22.75,81.86,19.77Z"/><path class="cls-7" d="m280.54,386.39s.58.17,1.87.71c.32-21.74,2.32-51.61,10.36-57.33,11.95-8.79,38.94-21.16,74.99,12.67,3.28-9.35,4.92-16.43,4.92-16.43-39.42-42.6-69.09-29.18-81.86-19.87-12.89,9.3-10.29,80.25-10.29,80.25Z"/><path class="cls-16" d="m295.42,355.68c0,13.72,11.08,24.85,24.74,24.85s24.74-11.12,24.74-24.85-11.08-24.85-24.74-24.85-24.74,11.12-24.74,24.85Z"/><path class="cls-5" d="m321.31,372.22c7.15-.59,12.63-7.83,11.98-15.79-.64-7.96-7.23-14.19-14.38-13.59-7.14.59-12.62,7.82-11.99,15.78.65,7.96,7.24,14.2,14.39,13.6Z"/><path class="cls-10" d="m320.69,369.35c4.97-.42,10.13-5.9,9.59-12.65-.56-6.77-6.53-11.34-11.5-10.93-4.98.42-10.12,5.93-9.58,12.68.55,6.76,6.53,11.32,11.49,10.91Z"/><path class="cls-3" d="m324.72,352.7c.21,2.44,2.7,4.22,5.56,3.99,2.86-.24,5.02-2.43,4.83-4.85-.21-2.45-2.69-4.23-5.55-4-2.87.23-5.03,2.41-4.84,4.86Z"/><path class="cls-3" d="m308.68,366.81c.11,1.21,1.35,2.11,2.77,1.99,1.44-.11,2.51-1.21,2.42-2.43-.1-1.21-1.35-2.11-2.77-1.99-1.44.11-2.52,1.2-2.42,2.42Z"/><path d="m203.04,321.15c-.19-.29-4.75-7.26-14.08-14.44-5.84-4.5-11.57-7.93-17.51-10.48-7.22-3.05-15-5.2-22.53-6.24-6.81-.76-14.36-.56-23.17.63-6.73,1.29-13.29,3.29-18.85,5.76-3.97,1.37-7.11,3.3-9.63,4.85-.96.59-1.84,1.13-2.73,1.61l-12.01,7.58,13.84-3.26c.64-.16,1.34-.35,2.09-.55,2.86-.76,6.43-1.71,10.6-2.33.98-.14,1.97-.34,2.99-.55,1.74-.35,3.54-.71,5.43-.8,2.1-.14,4.27-.3,6.5-.46l2.91-.21c7.66-.1,14.14.49,19.89,1.82,6.28,1.09,12.75,3.13,18.67,5.88,5.59,2.69,10.96,5.35,15.14,8.44,8.45,5.67,13.16,10.39,13.2,10.44h0c1.16,1.18,2.71,1.78,4.27,1.78,1.13,0,2.28-.32,3.27-.98,2.78-1.83,3.57-5.6,1.79-8.32l-.1-.18Z"/><path d="m375.17,302.79c-.79-.42-1.67-.96-2.64-1.56-2.52-1.55-5.65-3.48-9.51-4.8-5.68-2.51-12.24-4.52-19.05-5.82-8.73-1.18-16.29-1.38-23.13-.62-7.49,1.03-15.27,3.18-22.5,6.23-5.86,2.52-11.74,6.04-17.5,10.48-9.16,7.05-13.71,13.89-14.05,14.42l-.09.12c-1.54,2.39-1.21,5.59.79,7.6,1.14,1.15,2.65,1.78,4.26,1.78h0c1.61,0,3.12-.64,4.25-1.79l.05-.05c.44-.44,5.01-4.93,13.21-10.42,4.12-3.04,9.49-5.71,15.07-8.39,5.95-2.76,12.41-4.8,18.77-5.91,5.67-1.31,12.15-1.89,19.72-1.8l3.05.22c2.22.16,4.37.31,6.48.46,1.86.09,3.66.45,5.4.8,1.01.2,2.01.4,2.98.55,4.18.62,7.74,1.56,10.61,2.33.75.2,1.45.39,2.11.55l13.83,3.26-12.11-7.64Z"/><path class="cls-1" d="m222.56,521.52c-.94-.16-1.79-.33-2.55-.49.86.19,1.7.36,2.55.49Z"/><path class="cls-1" d="m219.04,520.83c-.58-.13-1.17-.26-1.54-.36.51.13,1.02.23,1.54.36Z"/><path class="cls-9" d="m220.01,521.03c-.32-.07-.65-.13-.97-.21.32.07.6.13.97.21Z"/><path class="cls-9" d="m217.5,520.47c-.3-.08-.57-.16-.86-.24h-.03s.33.1.9.24Z"/><path class="cls-15" d="m198.04,533.48c-.73-9.7,26.9,2.03,35.97,2.31,7.24.25,28.98-1.44,30.98-2.21,15.2-5.71-.83,16.21-31.43,17.37-14.02.56-35.1-11.59-35.52-17.47Z"/><path class="cls-11" d="m287.97,514.78c-7.5-.37-15.2,5.9-24.22,4.95-.37-.18-.55-.18-.93-.18-2.07-.37-4.13,0-6.38.55-2.8.59-5.63,1.73-8.27,2.66-4.51,1.47-9.59,2.65-14.81,2.25v.04c-.11,0-.18-.03-.29-.03s-.18.03-.29.03v-.04c-5.23.41-10.31-.77-14.81-2.25-2.64-.92-5.46-2.06-8.27-2.66-2.25-.55-4.31-.92-6.38-.55-.38,0-.57,0-.94.18-9.02.96-16.72-5.32-24.22-4.95-2.07.18-5.08-.37-6.77-.37.37.18.75.37,1.14.55,21.38,10.46,39.82,30.07,60.25,29.44h.58c20.42.63,38.87-18.98,60.25-29.44.39-.18.77-.37,1.14-.55-1.69,0-4.69.55-6.77.37Z"/><path class="cls-11" d="m294.26,514.18h0s-21.74-8.41-37.2-3.47c0,0-5.76,2.25-11.72,3.63-3.63,1.42-8.02,1.83-12.28,1.66h0c-3.25-.13-6.34-.54-8.88-.99-.84-.13-1.68-.3-2.55-.49-.37-.08-.65-.14-.97-.21-.52-.12-1.03-.22-1.54-.36-.56-.14-.9-.23-.9-.23h.03c-4.94-1.36-9.19-3.02-9.19-3.02-15.46-4.93-37.2,3.47-37.2,3.47h0c-.3.14-.49.23-.49.23,1.69,0,4.69.55,6.77.37,7.5-.37,15.2,5.9,24.22,4.95.37-.18.55-.18.94-.18,2.07-.37,4.13,0,6.38.55,2.81.59,5.63,1.73,8.27,2.66,4.51,1.47,9.59,2.65,14.81,2.25v.04c.11,0,.18-.03.29-.03s.18.03.29.03v-.04c5.23.41,10.31-.77,14.81-2.25,2.64-.92,5.46-2.06,8.27-2.66,2.25-.55,4.31-.92,6.38-.55.39,0,.57,0,.94.18,9.02.96,16.72-5.32,24.22-4.95,2.07.18,5.08-.37,6.77-.37,0,0-.18-.09-.48-.23Z"/><path class="cls-11" d="m196.55,519.3c.4.1,40.73,12.43,72.28.27l-3.64-2.45h-42.64l-26,2.19Z"/><path class="cls-3" d="m242.05,796.23c-.05,0-.1,0-.16,0,.05,0,.11,0,.16,0Z"/><path class="cls-3" d="m234.42,744.21c52.2,0,95.7-42.36,105.45-98.52-10.19-4.93-18.54-7.08-29.86-7.77-.24-.02.8.03-.68,2.85-26.5,41.42-52.35,53.77-74.83,52.19-42.64-3-73.19-56.13-73.19-56.13-11.34.69-22.14,3.99-32.34,8.92,9.77,56.14,53.26,98.46,105.45,98.46Z"/><path class="cls-4" d="m430.46,746.37s-5.55-11.31-15.47-26.62c-8.9-13.74-21.31-30.7-36.52-45.74-11.42-11.29-24.4-21.45-38.6-28.32-9.75,56.16-53.25,98.52-105.45,98.52s-95.67-42.33-105.44-98.46c-11.49,5.56-22.2,13.23-31.91,21.96-17.67,15.88-32.08,35.05-42.21,50.5-10.56,16.1-16.47,28.16-16.47,28.16l22.7,7.98,31.99,11.18s-11.17,30.25-11.76,67.83h306.22c-.6-37.58-11.77-67.83-11.77-67.83l32.02-11.18,22.68-7.98Z"/><path class="cls-11" d="m455.69,385.77c-9.43-15.3-24.03-8.68-27.71-5.3-3.83,3.68-6.78,8.39-4.57,17.36,1.33,5.15,6.63,5.59,5.45,13.24-1.47,8.68-5.45,9.12-7.66,11.18-2.21,1.91-5.16,3.39-6.49,7.06-1.33,3.68-1.62,7.5-.88,10.89,1.47,6.18,10.47,1.18,16.51-1.47,4.13-1.91,16.66-12.65,19.9-16.18,8.11-9.12,11.79-26.78,5.45-36.78"/><path class="cls-3" d="m515.87,275.5s-36.44-11.2-62.17-80.96c-4.32-15.65-8.73-27.75-8.73-27.75,0,0,.62.06,6.63.06,37.13-.08,58.04-35.68,58.04-35.68,0,0-13.99,20.3-62.18,4.49-47.07-15.45-45.87-65.76-113.53-93.85-34.63-14.36-55.32-12.49-67.3-7.24,12.15-9.9,37.07-9.02,37.07-9.02,0,0-30.79-16.82-78.36-1.73-33.43,10.61-53.44,22.68-64.67,31.34l18.74-17.74s-13.27,4.69-32.08,14.18C160.12,26.99,183.79,0,183.79,0c-60.3,22.29-110.21,102.46-110.21,102.46,4.78-30.24,15.32-57.9,15.32-57.9C-13.99,120.54,2.02,257.71,2.02,257.71c0,51.91,20.61,103.95,34.17,119.42,13.54,15.45,9.19,37.87,13.25,37.87,0,0,8.15.29,8.42-38.88.99-13.22,5.22-34.46,22.48-28.1.93.4,1.86.84,2.78,1.21.15.09.33.13.51.23h.02c86.61,34.34,130.86-52.69,130.86-52.69,0,0,26.48-55.81,56.1-76.26,8.73-6.04,20.13-10.63,33.97-14.89,78.91-24.37,111.62,100.6,104.99,133.58-10.14,50.79,4.01,80.04,9.41,78.66,0,0,.22-12.91,5.12-24.38,14.55-34.25,26.79-10.46,29.03-56.89,1.81-37.27,6.37-58.33,8.18-77.25,11.55,9.14,28.79,15.62,54.56,16.17Z"/></svg>