<?xml version="1.0" encoding="UTF-8"?><svg id="Layer_1" xmlns="http://www.w3.org/2000/svg" xmlns:xlink="http://www.w3.org/1999/xlink" viewBox="0 0 133.96 211.42"><defs><style>.cls-1{fill:none;}.cls-2{clip-path:url(#clippath);}.cls-3{fill:#fab915;}.cls-4{fill:#010101;}.cls-5{fill:#fff;}.cls-6{fill:#7e3a22;}.cls-7{fill:#824b50;}.cls-8{fill:#6b3e44;}.cls-9{fill:#bd917a;}.cls-10{fill:#a53e68;}.cls-11{fill:#221a11;}.cls-12{fill:#432d1b;}.cls-13{fill:#975559;}.cls-14{fill:#563137;}.cls-15{fill:#482315;}.cls-16{fill:#7a2048;}</style><clipPath id="clippath"><rect class="cls-1" x="49.53" y="143.25" width="25.11" height="14.8"/></clipPath></defs><path class="cls-7" d="m61.99,128.04v83.38H16.68c-.74-.29-1.11-.45-1.11-.45,0-5.23.37-9.92,1.06-14.06.34-2.13.75-4.11,1.24-5.99.49-1.92,1.04-3.7,1.66-5.36.81-2.21,1.72-4.21,2.72-6,3.12-5.76,6.91-9.56,10.42-12.05,1.8-1.26,3.52-2.19,5.02-2.89,1.15-.52,2.18-.89,3.02-1.15.98-.29,1.72-.45,2.15-.54.28-.05.43-.06.43-.06.17,0,.34-.02.51-.03,1.41-.23,2.58-1.47,3.52-3.44.69-1.46,1.26-3.32,1.73-5.5.18-.84.34-1.67.48-2.59.23-1.55.45-3.16.63-4.85.08-1.03.18-2.03.29-3.09.4-5.1.52-10.7.52-15.98,0,0,6.08.63,11.02.63Z"/><path class="cls-13" d="m108.59,210.98s-.41.15-1.07.45h-45.53v-83.38h.11c4.9,0,11.07-.63,11.07-.63,0,5.25.11,10.76.51,15.86.11,1.01.23,2.04.29,3.02.2,1.77.41,3.41.68,4.96v.03c.06.71.21,1.34.32,1.98.46,2.18,1,4.08,1.66,5.62.81,1.89,1.8,3.22,2.99,3.76.38.17.8.25,1.21.25,0,0,.26.03.74.14.75.14,2.03.46,3.62,1.09.46.18.95.38,1.46.61,1.35.61,2.86,1.44,4.42,2.5,3.62,2.49,7.6,6.35,10.85,12.34.98,1.8,1.9,3.79,2.72,6,.61,1.66,1.17,3.44,1.66,5.36.49,1.9.92,3.93,1.26,6.09.66,4.13,1.04,8.76,1.04,13.95Z"/><g class="cls-2"><path class="cls-14" d="m74.64,151.2v.04c-1.14,1.76-4.98,6.82-12.57,6.82h-.07c-7.19-.04-11.39-5.24-12.46-6.78.22-1.54.44-3.15.63-4.84.07-.99.18-2.02.29-3.08,3.5.88,7.34,1.43,11.39,1.5h.15c4.2-.07,8.07-.66,11.69-1.61.11.99.22,2.02.29,3,.18,1.76.41,3.41.66,4.95"/></g><path class="cls-8" d="m61.47,32.6c-48,0-48.26,40.12-46.12,66.39-3.28-6.23-13.05-4.32-12.24,5.5.77,9.45,14.73,14.27,14.34,13.23,7.27,19.43,26.51,34.08,44.02,34.08h.37V32.6h-.37"/><path class="cls-7" d="m61.73,32.6c48,0,48.26,40.12,46.15,66.39,3.28-6.23,13.01-4.32,12.2,5.5-.74,9.45-14.72,14.27-14.34,13.23-7.08,19.43-26.51,34.08-44.02,34.08h-.26l-.11-119.19h.37"/><path class="cls-7" d="m61.1,43.92c-15.78,0-27.35,4.58-34.32,13.59-9.77,12.64-9.4,31.91-5.82,45.76,1.11,4.25,1.7,15.65,2.43,19.82,3.43,18.72,24.11,28.69,37.71,28.69h.37V43.92h-.22"/><path class="cls-13" d="m95.38,57.55c-6.93-8.98-18.36-13.56-33.92-13.63v107.87c15.56-.18,34.17-11.1,37.34-28.69.77-4.18,1.33-15.57,2.43-19.82,3.61-13.81,3.98-33.05-5.86-45.73"/><path class="cls-12" d="m48.07,44.19l-.2.2.03.07c.07-.1.1-.2.17-.27Z"/><path class="cls-5" d="m27.03,86.02s3.66,15.02,9.95,16.25c6.29,1.23,13.09-1.21,13.09-1.21,0,0,.65-17.65-2.57-19.96-3.22-2.32-10.63-5.66-20.47,4.92Z"/><path class="cls-5" d="m96.27,85.51s-3.66,15.02-9.95,16.25c-6.29,1.23-13.09-1.21-13.09-1.21,0,0-.65-17.65,2.57-19.96,3.22-2.32,10.63-5.66,20.47,4.92Z"/><path class="cls-14" d="m6.18,100.34c2.36-3.81,6.05-2.16,6.93-1.32.96.92,1.73,2.09,1.14,4.32-.33,1.28-1.66,1.39-1.36,3.3.37,2.16,1.36,2.27,1.95,2.78.55.48,1.25.84,1.59,1.76.37.92.41,1.87.22,2.71-.37,1.54-2.62.29-4.13-.37-1-.48-4.17-3.15-4.98-4.03-1.99-2.27-2.95-6.67-1.36-9.16"/><path class="cls-14" d="m117.03,100.34c-2.36-3.81-6.01-2.16-6.93-1.32-.96.92-1.7,2.09-1.14,4.32.33,1.28,1.66,1.39,1.36,3.3-.37,2.16-1.36,2.27-1.92,2.78-.55.48-1.29.84-1.62,1.76-.33.92-.41,1.87-.22,2.71.37,1.54,2.62.29,4.13-.37,1.03-.48,4.17-3.15,4.98-4.03,2.03-2.27,2.95-6.67,1.36-9.16"/><path class="cls-1" d="m18.44,77.54c-.43,1.43-.73,2.99-.93,4.66,0,0,.63-2.63,2.03-6.52-.6.83-1,1.5-1.1,1.86Z"/><path class="cls-14" d="m50.08,101.01s-.14.04-.47.18c-.08-5.41-.58-12.85-2.59-14.28-2.99-2.19-9.74-5.27-18.75,3.16-.82-2.33-1.23-4.09-1.23-4.09,9.86-10.61,17.28-7.27,20.47-4.95,3.22,2.32,2.57,19.99,2.57,19.99Z"/><circle class="cls-15" cx="40.17" cy="93.36" r="6.19"/><path class="cls-6" d="m39.88,97.48c-1.79-.15-3.16-1.95-3-3.93.16-1.98,1.81-3.53,3.6-3.38,1.79.15,3.16,1.95,3,3.93-.16,1.98-1.81,3.54-3.6,3.39Z"/><path class="cls-11" d="m40.04,96.77c-1.24-.11-2.53-1.47-2.4-3.15.14-1.69,1.63-2.82,2.88-2.72,1.24.11,2.53,1.48,2.39,3.16-.14,1.68-1.63,2.82-2.87,2.72Z"/><path class="cls-14" d="m73.23,100.5s.14.04.47.18c.08-5.41.58-12.85,2.59-14.28,2.99-2.19,9.74-5.27,18.75,3.16.82-2.33,1.23-4.09,1.23-4.09-9.86-10.61-17.28-7.27-20.47-4.95-3.22,2.32-2.57,19.99-2.57,19.99Z"/><path class="cls-15" d="m76.95,92.85c0,3.42,2.77,6.19,6.19,6.19s6.19-2.77,6.19-6.19-2.77-6.19-6.19-6.19-6.19,2.77-6.19,6.19Z"/><path class="cls-6" d="m83.42,96.97c1.79-.15,3.16-1.95,3-3.93-.16-1.98-1.81-3.53-3.6-3.38-1.79.15-3.16,1.95-3,3.93.16,1.98,1.81,3.54,3.6,3.39Z"/><path class="cls-11" d="m83.27,96.26c1.24-.11,2.53-1.47,2.4-3.15-.14-1.69-1.63-2.82-2.88-2.72-1.24.11-2.53,1.48-2.39,3.16.14,1.68,1.63,2.82,2.87,2.72Z"/><path class="cls-4" d="m53.85,85.78c-.05-.07-1.19-1.81-3.52-3.6-1.46-1.12-2.89-1.97-4.38-2.61-1.81-.76-3.75-1.3-5.63-1.55-1.7-.19-3.59-.14-5.79.16-1.68.32-3.32.82-4.71,1.43-.99.34-1.78.82-2.41,1.21-.24.15-.46.28-.68.4l-3,1.89,3.46-.81c.16-.04.34-.09.52-.14.72-.19,1.61-.43,2.65-.58.24-.04.49-.09.75-.14.44-.09.89-.18,1.36-.2.52-.03,1.07-.07,1.63-.11l.73-.05c1.92-.02,3.54.12,4.97.45,1.57.27,3.19.78,4.67,1.46,1.4.67,2.74,1.33,3.79,2.1,2.11,1.41,3.29,2.59,3.3,2.6h0c.29.29.68.44,1.07.44.28,0,.57-.08.82-.24.7-.46.89-1.4.45-2.07l-.03-.05Z"/><path class="cls-4" d="m96.89,81.21c-.2-.11-.42-.24-.66-.39-.63-.39-1.41-.87-2.38-1.2-1.42-.63-3.06-1.13-4.76-1.45-2.18-.29-4.07-.34-5.78-.15-1.87.26-3.82.79-5.63,1.55-1.46.63-2.94,1.5-4.38,2.61-2.29,1.76-3.43,3.46-3.51,3.59l-.02.03c-.39.59-.3,1.39.2,1.89.28.29.66.44,1.07.44h0c.4,0,.78-.16,1.06-.44h.01c.11-.12,1.25-1.24,3.3-2.61,1.03-.76,2.37-1.42,3.77-2.09,1.49-.69,3.1-1.2,4.7-1.47,1.42-.33,3.04-.47,4.93-.45l.76.05c.55.04,1.09.08,1.62.11.46.02.91.11,1.35.2.25.05.5.1.75.14,1.05.15,1.94.39,2.65.58.19.05.36.1.53.14l3.46.81-3.03-1.9Z"/><path class="cls-5" d="m39.03,92.62c-.05.61-.68,1.05-1.39.99-.72-.06-1.26-.6-1.21-1.21.05-.61.67-1.05,1.39-1,.72.06,1.26.6,1.21,1.21Z"/><path class="cls-5" d="m43.04,96.13c-.03.3-.34.53-.69.5-.36-.03-.63-.3-.61-.6.03-.3.34-.53.69-.5.36.03.63.3.61.6Z"/><path class="cls-5" d="m84.28,92.11c.05.61.68,1.05,1.39.99.72-.06,1.26-.6,1.21-1.21-.05-.61-.67-1.05-1.39-1-.72.06-1.26.6-1.21,1.21Z"/><path class="cls-5" d="m80.27,95.62c.03.3.34.53.69.5.36-.03.63-.3.61-.6-.03-.3-.34-.53-.69-.49-.36.03-.63.3-.61.6Z"/><path class="cls-16" d="m101.92,179.57H22.25c3.12-5.76,6.91-9.56,10.42-12.05,1.8-1.26,3.52-2.19,5.02-2.89,1.15-.52,2.18-.89,3.02-1.15.98-.29,1.72-.45,2.15-.54,3.71,4.68,10.41,11.17,19.13,11.11,5.74-.05,12.37-2.93,19.57-11.04.75.14,2.03.46,3.62,1.09.46.18.95.38,1.46.61,1.35.61,2.86,1.44,4.42,2.5,3.62,2.49,7.6,6.35,10.85,12.34Z"/><path class="cls-16" d="m21.8,211.42h81.06c-.19-2.92-.39-7.69-.41-13.97H22.23c-.04,6.28-.24,11.05-.42,13.97Z"/><path class="cls-10" d="m106.29,190.93h-3.81c-.03,1.52-.03,2.98-.03,4.36v2.16H22.24v-2.16c0-1.38-.02-2.84-.03-4.36h-4.33c.49-1.92,1.04-3.7,1.66-5.36.81-2.21,1.72-4.21,2.72-6h79.66c.98,1.8,1.9,3.79,2.72,6,.61,1.66,1.17,3.44,1.66,5.36Z"/><path class="cls-14" d="m52.09,118.52c-.19-3.83,7.03-1.4,9.41-1.28,1.88.1,7.6-1.21,8.09-.87,3.37,2.27-3.57,6.84-8.21,6.84-1.24,0-9.18-2.38-9.29-4.69Z"/><path class="cls-1" d="m57.56,136.47c-.22-.04-.43-.08-.6-.12.21.04.4.08.6.12Z"/><path class="cls-9" d="m56.96,136.35c-.08-.02-.15-.03-.23-.05.08.02.14.03.23.05Z"/><path class="cls-13" d="m52.52,137.13c-.18-2.41,6.73.51,9,.58,1.81.06,7.25-.36,7.75-.55,3.8-1.42-.21,4.04-7.86,4.32-3.51.14-8.78-2.89-8.88-4.35Z"/><path class="cls-7" d="m75.02,132.48c-1.88-.09-3.8,1.47-6.06,1.23-.09-.05-.14-.05-.23-.05-.52-.09-1.03,0-1.6.14-.7.15-1.41.43-2.07.66-1.13.37-2.4.66-3.7.56h0s-.05,0-.07,0-.05,0-.07,0h0c-1.31.09-2.58-.2-3.7-.57-.66-.23-1.37-.51-2.07-.66-.56-.14-1.08-.23-1.6-.14-.1,0-.14,0-.23.05-2.26.24-4.18-1.32-6.06-1.23-.52.05-1.27-.09-1.69-.09.09.05.19.09.28.14,5.35,2.61,9.96,7.49,15.07,7.33h.15c5.11.16,9.72-4.73,15.07-7.33.1-.05.19-.09.28-.14-.42,0-1.17.14-1.69.09Z"/><path class="cls-14" d="m76.59,132.33h0s-5.44-2.09-9.3-.87c0,0-1.44.56-2.93.9-.91.35-2.01.46-3.07.41h0c-.81-.03-1.59-.14-2.22-.25-.21-.03-.42-.08-.64-.12-.09-.02-.16-.03-.24-.05-.13-.03-.26-.06-.39-.09-.14-.03-.22-.06-.22-.06h0c-1.24-.34-2.3-.75-2.3-.75-3.87-1.23-9.3.87-9.3.87h0c-.07.03-.12.06-.12.06.42,0,1.17.14,1.69.09,1.52-.07,3.07.92,4.8,1.18.69.19,3.29.88,6.62,1.19.72.15,1.47.23,2.24.17h0s.05,0,.07,0,.05,0,.07,0h0c.4.02.8,0,1.19-.03,2.53-.03,5.21-.38,7.68-1.33h-.02c1.73-.27,3.29-1.27,4.8-1.19.52.05,1.27-.09,1.69-.09,0,0-.05-.02-.12-.06Z"/><path class="cls-3" d="m133.96,30.25s-3.69,5.41-16.41,1.19c-12.42-4.11-12.11-17.5-29.96-24.98-9.14-3.83-14.6-3.33-17.76-1.93,3.2-2.63,9.78-2.4,9.78-2.4,0,0-8.12-4.47-20.68-.46-8.82,2.83-14.1,6.04-17.07,8.34l4.95-4.72s-17.86,6.35-30.01,19.43C4.66,37.8,0,50.1,0,63.93s5.44,27.68,9.01,31.79c3.58,4.11,2.43,10.08,3.5,10.08,0,0,2.15.08,2.22-10.35.26-3.52,1.38-9.17,5.93-7.48.24.1.49.22.73.32.04.02.09.04.13.06h0c22.86,9.14,34.53-14.03,34.53-14.03,0,0,6.99-14.86,14.81-20.3,2.3-1.61,5.32-2.83,8.96-3.96,20.82-6.49,29.46,26.79,27.71,35.56-2.68,13.52,1.06,21.31,2.49,20.94,0,0,.05-3.43,1.35-6.49,3.84-9.12,7.07-2.78,7.66-15.14.69-14.47,2.94-19.76,2.22-27.5-.71-7.56-4.37-17.7-4.38-17.73,0,0,.17.04,1.75.04,9.8-.02,15.32-9.5,15.32-9.5Z"/></svg>