<?xml version="1.0" encoding="UTF-8"?><svg id="Layer_1" xmlns="http://www.w3.org/2000/svg" xmlns:xlink="http://www.w3.org/1999/xlink" viewBox="0 0 124.4 200.01"><defs><style>.cls-1{fill:none;}.cls-2{clip-path:url(#clippath);}.cls-3{fill:#f4b335;}.cls-4{fill:#f1dab4;}.cls-5{fill:#e4c59e;}.cls-6{fill:#f3dab4;}.cls-7{fill:#fff;}.cls-8{fill:#7f401b;}.cls-9{fill:#c3977d;}.cls-10{fill:#b69cc6;}.cls-11{fill:#b48d76;}.cls-12{fill:#c1967d;}.cls-13{fill:#cba686;}.cls-14{fill:#c49d80;}.cls-15{fill:#c5997d;}.cls-16{fill:#e1bd9d;}.cls-17{fill:#d7ad88;}.cls-18{fill:#dbbb9a;}.cls-19{fill:#e1c7a3;}.cls-20{fill:#ca0240;}.cls-21{fill:#e08c00;}.cls-22{fill:#231c08;}.cls-23{fill:#463216;}.cls-24{fill:#4b9084;}.cls-25{fill:#4c2912;}.cls-26{fill:#755a92;}</style><clipPath id="clippath"><rect class="cls-1" x="50.82" y="131.24" width="25.11" height="14.85"/></clipPath></defs><path class="cls-5" d="m16.87,199.56c0-10.73,1.57-19.09,3.96-25.61,5.77-15.74,16.32-20.74,21.18-22.24,1.59-.5,2.58-.61,2.58-.61.17,0,.33-.02.5-.04,1.43-.23,2.59-1.47,3.51-3.46.69-1.47,1.27-3.35,1.74-5.53.19-.85.33-1.7.48-2.63.22-1.55.44-3.18.63-4.88.07-1.04.18-2.03.29-3.11.4-5.14.52-10.77.52-16.1,0,0,6.08.63,11.02.63v84.02"/><path class="cls-4" d="m63.28,200.01v-84.02h.11c4.9,0,11.06-.63,11.06-.63,0,5.29.11,10.84.51,15.98.11,1,.22,2.03.29,3.03.19,1.78.41,3.44.67,4.99v.03c.07.71.22,1.33.33,2,.45,2.19.99,4.11,1.64,5.65.81,1.92,1.8,3.26,3.01,3.79.38.17.79.26,1.21.26,0,0,1.74.21,4.36,1.24,5.33,2.09,14.29,7.59,19.44,21.62,2.39,6.52,3.96,14.88,3.96,25.61"/><g class="cls-2"><path class="cls-14" d="m75.93,139.21v.04c-1.14,1.76-4.98,6.84-12.57,6.84h-.07c-7.19-.04-11.39-5.26-12.46-6.8.22-1.54.44-3.16.63-4.85.07-.99.18-2.02.3-3.09,3.5.88,7.34,1.43,11.39,1.51h.15c4.2-.07,8.07-.66,11.69-1.62.11.99.22,2.02.29,3.01.18,1.76.41,3.42.66,4.96"/></g><path class="cls-17" d="m62.77,20.23c-48,0-48.26,40.25-46.12,66.6-3.28-6.25-13.05-4.34-12.24,5.51.77,9.48,14.73,14.32,14.34,13.27,7.27,19.49,26.51,34.18,44.02,34.18h.37V20.23h-.37"/><path class="cls-11" d="m7.47,88.2c2.36-3.82,6.05-2.17,6.93-1.32.96.92,1.73,2.09,1.14,4.34-.33,1.29-1.66,1.4-1.36,3.31.37,2.17,1.36,2.28,1.95,2.79.55.48,1.25.85,1.59,1.76.37.92.41,1.87.22,2.72-.37,1.54-2.62.29-4.13-.37-1-.48-4.17-3.16-4.98-4.04-1.99-2.28-2.95-6.69-1.36-9.19"/><path class="cls-16" d="m63.03,20.23c48,0,48.26,40.25,46.15,66.6,3.28-6.25,13.01-4.34,12.2,5.51-.74,9.48-14.72,14.32-14.34,13.27-7.08,19.49-26.51,34.18-44.02,34.18h-.26l-.11-119.57h.37"/><path class="cls-11" d="m118.32,88.2c-2.36-3.82-6.01-2.17-6.93-1.32-.96.92-1.7,2.09-1.14,4.34.33,1.29,1.66,1.4,1.36,3.31-.37,2.17-1.36,2.28-1.92,2.79-.55.48-1.29.85-1.62,1.76-.33.92-.41,1.87-.22,2.72.37,1.54,2.62.29,4.13-.37,1.03-.48,4.17-3.16,4.98-4.04,2.03-2.28,2.95-6.69,1.36-9.19"/><path class="cls-5" d="m62.39,31.59c-15.78,0-27.35,4.59-34.32,13.64-9.77,12.68-9.4,32.01-5.82,45.91,1.11,4.26,1.7,15.69,2.43,19.88,3.43,18.78,24.11,28.78,37.71,28.78h.37V31.59h-.22"/><path class="cls-4" d="m96.68,45.26c-6.93-9.01-18.36-13.6-33.92-13.67v108.21c15.56-.18,34.17-11.14,37.34-28.78.77-4.19,1.33-15.62,2.43-19.88,3.61-13.86,3.98-33.15-5.86-45.87"/><path class="cls-1" d="m60.83,116.68c-.22-.04-.42-.08-.59-.11.2.04.4.08.59.11Z"/><path class="cls-1" d="m60.02,120.57c-.14-.03-.27-.06-.36-.08.12.03.24.05.36.08Z"/><path class="cls-9" d="m60.24,120.62c-.08-.02-.15-.03-.23-.05.07.02.14.03.23.05Z"/><path class="cls-9" d="m59.66,120.49c-.07-.02-.13-.04-.2-.06h0s.08.02.21.06Z"/><path class="cls-16" d="m53.6,106.58c-.18-3.74,6.85-1.37,9.16-1.25,1.83.09,7.4-1.18,7.88-.85,3.28,2.22-3.47,6.68-8,6.68-1.21,0-8.94-2.33-9.05-4.58Z"/><path class="cls-1" d="m19.73,65.32c-.43,1.43-.73,3-.93,4.67,0,0,.63-2.64,2.03-6.54-.6.83-1,1.5-1.1,1.87Z"/><path class="cls-23" d="m49.36,31.86l-.2.2.03.07c.07-.1.1-.2.17-.27Z"/><path class="cls-1" d="m60.98,118.54c-.22-.04-.43-.08-.61-.12.21.04.41.09.61.12Z"/><path class="cls-1" d="m60.14,118.37c-.14-.03-.28-.06-.37-.09.12.03.24.06.37.09Z"/><path class="cls-12" d="m60.37,118.42c-.08-.02-.15-.03-.23-.05.08.02.14.03.23.05Z"/><path class="cls-12" d="m59.77,118.29c-.07-.02-.14-.04-.21-.06h0s.08.02.21.06Z"/><path class="cls-7" d="m28.33,73.83s3.66,15.07,9.95,16.3c6.29,1.23,13.09-1.22,13.09-1.22,0,0,.65-17.71-2.57-20.02-3.22-2.32-10.63-5.68-20.47,4.94Z"/><path class="cls-18" d="m51.37,88.86s-.14.04-.47.18c-.08-5.43-.58-12.89-2.59-14.32-2.99-2.2-9.74-5.28-18.75,3.17-.82-2.33-1.23-4.1-1.23-4.1,9.86-10.64,17.28-7.29,20.47-4.96,3.22,2.32,2.57,20.05,2.57,20.05Z"/><path class="cls-25" d="m47.65,81.19c0,3.43-2.77,6.21-6.19,6.21s-6.19-2.78-6.19-6.21,2.77-6.21,6.19-6.21,6.19,2.78,6.19,6.21Z"/><path class="cls-8" d="m41.18,85.32c-1.79-.15-3.16-1.96-3-3.95.16-1.99,1.81-3.54,3.6-3.39,1.79.15,3.16,1.95,3,3.94-.16,1.99-1.81,3.55-3.6,3.4Z"/><path class="cls-22" d="m41.33,84.61c-1.24-.11-2.53-1.48-2.4-3.16.14-1.69,1.63-2.83,2.88-2.73,1.24.11,2.53,1.48,2.39,3.17-.14,1.69-1.63,2.83-2.87,2.72Z"/><path class="cls-7" d="m40.32,80.45c-.05.61-.68,1.05-1.39,1-.72-.06-1.26-.61-1.21-1.21.05-.61.67-1.06,1.39-1,.72.06,1.26.6,1.21,1.21Z"/><path class="cls-7" d="m44.34,83.97c-.03.3-.34.53-.69.5-.36-.03-.63-.3-.61-.61.03-.3.34-.53.69-.5.36.03.63.3.61.61Z"/><path class="cls-1" d="m61.08,120.32c-.22-.04-.43-.08-.61-.12.21.04.41.09.61.12Z"/><path class="cls-1" d="m60.24,120.15c-.14-.03-.28-.06-.37-.09.12.03.24.06.37.09Z"/><path class="cls-12" d="m60.47,120.2c-.08-.02-.15-.03-.23-.05.08.02.14.03.23.05Z"/><path class="cls-12" d="m59.87,120.07c-.07-.02-.14-.04-.21-.06h0s.08.03.21.06Z"/><path class="cls-1" d="m60.84,119.9c-.24-.04-.46-.08-.65-.12.22.05.44.09.65.12Z"/><path class="cls-1" d="m59.94,119.72c-.15-.03-.3-.07-.4-.09.13.03.26.06.4.09Z"/><path class="cls-9" d="m60.19,119.77c-.08-.02-.17-.03-.25-.05.08.02.15.03.25.05Z"/><path class="cls-9" d="m59.55,119.63c-.08-.02-.15-.04-.22-.06h0s.09.03.23.06Z"/><path class="cls-1" d="m60.66,119.27c-.24-.04-.46-.08-.65-.12.22.05.44.09.65.12Z"/><path class="cls-1" d="m59.76,119.09c-.15-.03-.3-.07-.4-.09.13.03.26.06.4.09Z"/><path class="cls-9" d="m60,119.14c-.08-.02-.17-.03-.25-.05.08.02.15.03.25.05Z"/><path class="cls-9" d="m59.36,119c-.08-.02-.15-.04-.22-.06h0s.09.03.23.06Z"/><path class="cls-1" d="m61.21,119.18c-.23-.04-.44-.08-.63-.12.21.05.42.09.63.12Z"/><path class="cls-1" d="m60.34,119.01c-.14-.03-.29-.06-.38-.09.13.03.25.06.38.09Z"/><path class="cls-9" d="m60.58,119.06c-.08-.02-.16-.03-.24-.05.08.02.15.03.24.05Z"/><path class="cls-9" d="m59.96,118.92c-.07-.02-.14-.04-.21-.06h0s.08.03.22.06Z"/><path class="cls-7" d="m97.57,73.31s-3.66,15.07-9.95,16.3c-6.29,1.23-13.09-1.22-13.09-1.22,0,0-.65-17.71,2.57-20.02,3.22-2.32,10.63-5.68,20.47,4.94Z"/><path class="cls-18" d="m74.52,88.35s.14.04.47.18c.08-5.43.58-12.89,2.59-14.32,2.99-2.2,9.74-5.28,18.75,3.16.82-2.33,1.23-4.1,1.23-4.1-9.86-10.64-17.28-7.29-20.47-4.96-3.22,2.32-2.57,20.05-2.57,20.05Z"/><path class="cls-25" d="m78.24,80.68c0,3.43,2.77,6.21,6.19,6.21s6.19-2.78,6.19-6.21-2.77-6.21-6.19-6.21-6.19,2.78-6.19,6.21Z"/><path class="cls-8" d="m84.72,84.81c1.79-.15,3.16-1.96,3-3.95-.16-1.99-1.81-3.54-3.6-3.39-1.79.15-3.16,1.95-3,3.94.16,1.99,1.81,3.55,3.6,3.4Z"/><path class="cls-22" d="m84.56,84.09c1.24-.11,2.53-1.47,2.4-3.16-.14-1.69-1.63-2.83-2.88-2.73-1.24.11-2.53,1.48-2.39,3.17.14,1.69,1.63,2.83,2.87,2.72Z"/><path class="cls-7" d="m85.57,79.93c.05.61.68,1.05,1.39,1,.72-.06,1.26-.61,1.21-1.21-.05-.61-.67-1.06-1.39-1-.72.06-1.26.6-1.21,1.21Z"/><path class="cls-7" d="m81.56,83.46c.03.3.34.53.69.5.36-.03.63-.3.61-.61-.03-.3-.34-.53-.69-.5-.36.03-.63.3-.61.61Z"/><path d="m55.14,73.59c-.05-.07-1.19-1.81-3.52-3.61-1.46-1.12-2.89-1.98-4.38-2.62-1.81-.76-3.75-1.3-5.63-1.56-1.7-.19-3.59-.14-5.8.16-1.68.32-3.32.82-4.71,1.44-.99.34-1.78.82-2.41,1.21-.24.15-.46.28-.68.4l-3,1.89,3.46-.82c.16-.04.34-.09.52-.14.72-.19,1.61-.43,2.65-.58.24-.04.49-.09.75-.14.44-.09.89-.18,1.36-.2.52-.04,1.07-.07,1.63-.11l.73-.05c1.92-.02,3.54.12,4.97.45,1.57.27,3.19.78,4.67,1.47,1.4.67,2.74,1.34,3.79,2.11,2.11,1.42,3.29,2.6,3.3,2.61h0c.29.29.68.44,1.07.44.28,0,.57-.08.82-.25.7-.46.89-1.4.45-2.08l-.03-.05Z"/><path d="m98.19,69c-.2-.11-.42-.24-.66-.39-.63-.39-1.41-.87-2.38-1.2-1.42-.63-3.06-1.13-4.76-1.45-2.18-.29-4.07-.35-5.78-.15-1.87.26-3.82.8-5.63,1.56-1.46.63-2.94,1.51-4.38,2.62-2.29,1.76-3.43,3.47-3.51,3.6l-.02.03c-.39.6-.3,1.4.2,1.9.28.29.66.45,1.06.45h0c.4,0,.78-.16,1.06-.45h.01c.11-.12,1.25-1.24,3.3-2.62,1.03-.76,2.37-1.43,3.77-2.1,1.49-.69,3.1-1.2,4.7-1.48,1.42-.33,3.04-.47,4.93-.45l.76.05c.55.04,1.09.08,1.62.11.46.02.91.11,1.35.2.25.05.5.1.75.14,1.05.15,1.94.39,2.65.58.19.05.36.1.53.14l3.46.82-3.03-1.91Z"/><path class="cls-1" d="m60.02,122.11c-.23-.04-.45-.08-.64-.12.22.05.43.09.64.12Z"/><path class="cls-1" d="m59.14,121.93c-.15-.03-.29-.07-.39-.09.13.03.26.06.39.09Z"/><path class="cls-15" d="m59.38,121.98c-.08-.02-.16-.03-.24-.05.08.02.15.03.24.05Z"/><path class="cls-15" d="m58.76,121.84c-.07-.02-.14-.04-.22-.06h0s.08.03.22.06Z"/><path class="cls-6" d="m53.89,125.09c-.18-2.42,6.73.51,9,.58,1.81.06,7.25-.36,7.75-.55,3.8-1.43-.21,4.05-7.86,4.34-3.51.14-8.78-2.9-8.88-4.36Z"/><path class="cls-19" d="m76.38,120.42c-1.88-.09-3.8,1.48-6.06,1.24-.09-.05-.14-.05-.23-.05-.52-.09-1.03,0-1.6.14-.7.15-1.41.43-2.07.66-1.13.37-2.4.66-3.7.56h0s-.05,0-.07,0-.05,0-.07,0h0c-1.31.09-2.58-.2-3.7-.57-.66-.23-1.37-.52-2.07-.66-.56-.14-1.08-.23-1.6-.14-.1,0-.14,0-.23.05-2.26.24-4.18-1.33-6.06-1.24-.52.05-1.27-.09-1.69-.09.09.05.19.09.28.14,5.35,2.61,9.96,7.51,15.07,7.35h.15c5.11.16,9.72-4.74,15.07-7.35.1-.05.19-.09.28-.14-.42,0-1.17.14-1.69.09Z"/><path class="cls-13" d="m77.95,120.27h0s-5.44-2.1-9.3-.87c0,0-1.44.56-2.93.91-.91.35-2.01.46-3.07.41h0c-.81-.03-1.59-.14-2.22-.25-.21-.03-.42-.08-.64-.12-.09-.02-.16-.03-.24-.05-.13-.03-.26-.06-.39-.09-.14-.03-.22-.06-.22-.06h0c-1.24-.34-2.3-.75-2.3-.75-3.87-1.23-9.3.87-9.3.87h0c-.07.03-.12.06-.12.06.42,0,1.17.14,1.69.09,1.88-.09,3.8,1.48,6.06,1.24.09-.05.14-.05.23-.05.52-.09,1.03,0,1.6.14.7.15,1.41.43,2.07.66,1.13.37,2.4.66,3.7.56h0s.05,0,.07,0,.05,0,.07,0h0c1.31.09,2.58-.2,3.7-.57.66-.23,1.37-.52,2.07-.66.56-.14,1.08-.23,1.6-.14.1,0,.14,0,.23.05,2.26.24,4.18-1.33,6.06-1.24.52.05,1.27-.09,1.69-.09,0,0-.05-.02-.12-.06Z"/><path class="cls-13" d="m53.52,121.55c.1.02,10.19,3.11,18.08.07l-.91-.61h-10.66l-6.5.55Z"/><path class="cls-24" d="m23.81,200.01c.18-2.72.37-7.09.4-12.86h-8.53c-.08-8.4,6.6-22.72,6.6-22.72.64-.89,1.29-1.67,1.98-2.44l25.42,24.73-24.45,13.29"/><polygon class="cls-21" points="24.26 161.98 49.68 186.72 24.26 161.99 24.26 161.98"/><polyline class="cls-21" points="25.22 200.01 49.68 186.72 63.34 200.01"/><path class="cls-26" d="m100.05,159.32l-16.62,9.04-8.92-8.67c3.07-4.05,5.14-8.47,5.62-9.64.18-.49.35-.75.46-.81.23.29.48.55.72.78.05,0,.05.03.05.03.72.61,1.55.97,2.49.97,0,0,1.04.09,2.73.55.38.14.8.26,1.26.43,2.3.75,5.45,2.1,8.73,4.47.22.17.46.34.66.52.94.69,1.89,1.47,2.82,2.33Z"/><path class="cls-3" d="m63.34,200.01l-13.66-13.29,33.74-18.34,19.31,18.79h-.09c.03,5.76.23,10.15.43,12.85"/><path class="cls-20" d="m83.41,168.38l-33.74,18.34-25.42-24.74c1.75-2,3.51-3.61,5.3-4.93.05-.05.09-.09.14-.11.17-.17.37-.29.52-.4.58-.41,1.17-.8,1.73-1.17,2.58-1.64,5.02-2.69,6.92-3.35.45-.15.86-.29,1.24-.38,1.8-.51,2.9-.63,2.9-.63.94,0,1.77-.35,2.49-.95,0,0,0-.03.03-.03.23-.21.48-.49.71-.77t.03-.03c.06.03.12.11.2.25l.02.03c.08.14.15.32.23.55.94,2.26,7.94,17.04,16.72,17.02.2,0,.4-.02.6-.03,4.04-.31,7.67-3.67,10.48-7.35l8.9,8.67Z"/><path class="cls-7" d="m101.15,22.42c-10.49-11.86-25.92-17.62-25.92-17.62l4.27,4.28c-2.56-2.09-7.11-5-14.73-7.57-10.84-3.64-17.86.42-17.86.42,0,0,5.66-.21,8.43,2.16-2.73-1.26-7.45-1.69-15.32,1.77-15.42,6.78-15.14,18.93-25.87,22.65-10.98,3.82-14.16-1.08-14.16-1.08,0,0,4.76,8.59,13.23,8.62,1.37,0,1.51-.03,1.51-.04,0,.04-3.17,9.22-3.78,16.08-.62,7.01,1.32,11.81,1.92,24.92.51,11.22,3.3,5.47,6.62,13.74,1.12,2.77,1.17,5.89,1.17,5.89,1.23.32,4.45-6.73,2.14-18.99-1.51-7.96,5.94-38.13,23.93-32.24,1.73.56,3.24,1.23,4.62,1.91-17.17,18.25-6.53,44.2-6.53,44.2-.35-18.45,11.91-31.75,19.01-37.89-4.23,10.81-.42,22.11-.42,22.11.86-18.6,19.09-28.79,19.09-28.79l-1.4-3.15c4.2-.88,8.42-.55,12.04,1.62,7.41,4.44,11.58,14.42,10.29,30.34-1.65,20.33,1.44,20.18,1.44,20.18.92,0-.07-5.41,3.02-9.14,3.08-3.73,7.78-16.29,7.78-28.83s-4.02-23.69-14.51-35.56Z"/><path class="cls-10" d="m111.07,187.15h-8.35l-19.29-18.79,16.62-9.04c1.55,1.44,3.07,3.12,4.51,5.11,0,0,6.8,9.87,6.51,22.72Z"/><line class="cls-1" x1="124.4" y1="146.09" x2="100.05" y2="159.32"/><line class="cls-1" x1="83.43" y1="168.36" x2="83.41" y2="168.38"/></svg>