<?xml version="1.0" encoding="UTF-8"?><svg id="Layer_1" xmlns="http://www.w3.org/2000/svg" xmlns:xlink="http://www.w3.org/1999/xlink" viewBox="0 0 122.88 194.02"><defs><style>.cls-1{fill:none;}.cls-2{clip-path:url(#clippath);}.cls-3{fill:#f1dab4;}.cls-4{fill:#e4c59e;}.cls-5{fill:#fff;}.cls-6{fill:#7f401b;}.cls-7{fill:#c3977d;}.cls-8{fill:#8c548e;}.cls-9{fill:#c36b70;}.cls-10{fill:#b48d76;}.cls-11{fill:#c1967d;}.cls-12{fill:#c49d80;}.cls-13{fill:#c5997d;}.cls-14{fill:#e1bd9d;}.cls-15{fill:#e0bc9b;}.cls-16{fill:#d7ad88;}.cls-17{fill:#d77a77;}.cls-18{fill:#231c08;}.cls-19{fill:#111208;}.cls-20{fill:#4c2912;}.cls-21{fill:#7b4d7d;}</style><clipPath id="clippath"><rect class="cls-1" x="48.77" y="122.06" width="26.35" height="15.54"/></clipPath></defs><path class="cls-19" d="m38.24,106.59c-.74-.59-14.17-9.49-14.17-9.49.92,5.54,1.61,7.8.26,11.56-1.21,3.38-3.54,4.69-4.83,5.87-1.29,1.19-3.91,2.08-4.82,2.08s-1.97-.18-1.97-.18c0,0,2.14,1.27,7.48,1.01,2.25-.1,3.68-.71,4.6-1.41-1.06,1.83-2.05,4.46-.93,6.9,4.04,8.86-1.35,11.75-1.35,11.75,0,0,4.78-.51,7.52-3.1.01.06,0,.15.02.21,1.21,4.43,4.42,4.93,4.42,4.93,0,0-2.02-.36-1.64-4.48.11-1.1,1.16-1.53,2.49-2.27.51,3.98,2.18,8.03-1.27,9.69,0,0,5.84-1.25,6.91-4.97.19-.68.3-1.31.39-1.95.1.35.22.67.28,1.04.83,4.75-2.53,9.35-2.53,9.35,0,0,12.12-1.38,12.21-6.55.01-.77.16-3.94.53-5.12.37-1.19,1.1-7.11,1.1-7.11,0,0-13.98-17.18-14.72-17.78Z"/><path class="cls-19" d="m85.64,106.59c.74-.59,14.17-9.49,14.17-9.49-.92,5.54-1.61,7.8-.27,11.56,1.22,3.38,3.54,4.69,4.83,5.87,1.29,1.19,3.91,2.08,4.82,2.08s1.96-.18,1.96-.18c0,0-2.13,1.27-7.48,1.01-2.25-.1-3.67-.71-4.6-1.41,1.06,1.83,2.05,4.46.93,6.9-4.04,8.86,1.35,11.75,1.35,11.75,0,0-4.78-.51-7.52-3.1,0,.06,0,.15-.02.21-1.22,4.43-4.42,4.93-4.42,4.93,0,0,2.02-.36,1.64-4.48-.1-1.1-1.16-1.53-2.48-2.27-.52,3.98-2.18,8.03,1.27,9.69,0,0-5.84-1.25-6.91-4.97-.19-.68-.3-1.31-.39-1.95-.1.35-.22.67-.28,1.04-.83,4.75,2.53,9.35,2.53,9.35,0,0-12.12-1.38-12.21-6.55,0-.77-.16-3.94-.53-5.12-.37-1.19-1.11-7.11-1.11-7.11,0,0,13.99-17.18,14.72-17.78Z"/><path class="cls-4" d="m61.84,106.11v87.91H14.28c-.77-.31-1.16-.47-1.16-.47,0-4.24.24-8.14.68-11.7.13-1.16.29-2.27.47-3.35.34-2.05.74-3.98,1.21-5.78.52-2.14,1.13-4.12,1.8-5.96.15-.37.27-.74.42-1.1.16-.4.32-.79.48-1.18.16-.39.32-.76.5-1.13.32-.76.68-1.47,1.03-2.16.61-1.19,1.26-2.32,1.93-3.37.18-.29.35-.56.53-.82.87-1.29,1.77-2.48,2.69-3.56.26-.29.52-.6.77-.87.26-.29.52-.56.77-.84.26-.26.53-.53.79-.77.26-.26.52-.5.77-.72.52-.48,1.05-.93,1.56-1.34.24-.19.48-.39.73-.55,2.27-1.74,4.43-2.93,6.3-3.75.26-.11.52-.23.77-.34.81-.32,1.53-.58,2.18-.77,1.68-.53,2.71-.64,2.71-.64.19,0,.35-.02.53-.05,1.5-.24,2.71-1.55,3.69-3.61.73-1.55,1.32-3.51,1.82-5.78.19-.9.35-1.79.5-2.76.24-1.63.47-3.34.66-5.11.08-1.08.19-2.13.31-3.25.44-5.38.55-11.26.55-16.84,0,0,6.38.66,11.57.66Z"/><path class="cls-3" d="m110.76,193.55s-.42.16-1.13.47h-47.79v-87.91h.11c5.16,0,11.62-.66,11.62-.66,0,5.53.11,11.34.53,16.72.13,1.05.24,2.13.32,3.17.19,1.85.42,3.59.69,5.22v.03c.08.74.23,1.4.35,2.09.47,2.29,1.03,4.3,1.72,5.91.85,2.01,1.89,3.42,3.16,3.96.39.18.82.27,1.27.27,0,0,1.82.21,4.56,1.29,1.45.56,3.16,1.37,4.98,2.51.37.23.76.48,1.13.74.31.19.61.42.92.64.16.11.34.24.5.39.11.06.21.14.31.23.56.44,1.14.92,1.72,1.45.23.19.44.4.66.61.26.23.5.47.76.74.18.16.34.32.5.5.34.35.69.74,1.03,1.14.18.19.35.39.52.6.77.9,1.53,1.89,2.26,2.96.32.45.61.92.92,1.4.61.98,1.21,2.03,1.79,3.14.71,1.39,1.39,2.87,2.01,4.46.14.35.29.73.42,1.1.68,1.84,1.29,3.82,1.82,5.96.47,1.8.87,3.74,1.19,5.78.18,1.08.34,2.19.47,3.35.44,3.56.68,7.46.68,11.7Z"/><g class="cls-2"><path class="cls-12" d="m75.12,130.41v.04c-1.2,1.85-5.22,7.15-13.2,7.15h-.08c-7.55-.04-11.96-5.5-13.08-7.12.23-1.62.46-3.31.66-5.08.08-1.04.19-2.12.31-3.23,3.68.92,7.7,1.5,11.96,1.58h.15c4.41-.08,8.47-.69,12.27-1.69.12,1.04.23,2.12.31,3.15.19,1.85.43,3.58.7,5.19"/></g><path class="cls-16" d="m61.31,5.91C10.92,5.91,10.65,48.02,12.9,75.6c-3.44-6.54-13.7-4.54-12.85,5.77.81,9.92,15.46,14.98,15.05,13.88,7.63,20.39,27.82,35.77,46.2,35.77h.39V5.91h-.39"/><path class="cls-10" d="m3.26,77.02c2.48-4,6.35-2.27,7.27-1.38,1.01.96,1.82,2.19,1.2,4.54-.35,1.35-1.74,1.46-1.43,3.46.39,2.27,1.43,2.38,2.05,2.92.58.5,1.32.88,1.66,1.85.39.96.43,1.96.23,2.85-.39,1.62-2.75.31-4.33-.38-1.04-.5-4.37-3.31-5.22-4.23-2.09-2.38-3.1-7-1.43-9.62"/><path class="cls-14" d="m61.58,5.91c50.38,0,50.65,42.11,48.45,69.69,3.44-6.54,13.66-4.54,12.81,5.77-.77,9.92-15.45,14.98-15.05,13.88-7.43,20.39-27.82,35.77-46.2,35.77h-.27l-.12-125.11h.39"/><path class="cls-10" d="m119.62,77.02c-2.48-4-6.31-2.27-7.27-1.38-1.01.96-1.78,2.19-1.2,4.54.35,1.35,1.74,1.46,1.43,3.46-.39,2.27-1.43,2.38-2.01,2.92-.58.5-1.35.88-1.7,1.85-.35.96-.43,1.96-.23,2.85.39,1.62,2.75.31,4.33-.38,1.08-.5,4.37-3.31,5.22-4.23,2.13-2.38,3.1-7,1.43-9.62"/><path class="cls-4" d="m60.91,17.79c-16.56,0-28.71,4.81-36.03,14.27-10.25,13.27-9.87,33.5-6.11,48.04,1.16,4.46,1.78,16.42,2.55,20.81,3.6,19.65,25.31,30.11,39.59,30.11h.39V17.79h-.23"/><path class="cls-3" d="m96.9,32.1c-7.27-9.42-19.27-14.23-35.6-14.31v113.23c16.33-.19,35.87-11.65,39.2-30.11.81-4.38,1.39-16.35,2.55-20.81,3.79-14.5,4.18-34.69-6.15-48"/><path class="cls-1" d="m59.28,111.07c-.23-.04-.44-.08-.62-.12.21.05.42.09.62.12Z"/><path class="cls-1" d="m58.42,110.9c-.14-.03-.29-.06-.38-.09.13.03.25.06.38.09Z"/><path class="cls-7" d="m58.65,110.95c-.08-.02-.16-.03-.24-.05.08.02.15.03.24.05Z"/><path class="cls-7" d="m58.04,110.81c-.07-.02-.14-.04-.21-.06h0s.08.03.22.06Z"/><path class="cls-1" d="m16.13,53.09c-.45,1.5-.77,3.14-.98,4.89,0,0,.66-2.76,2.13-6.84-.63.87-1.05,1.57-1.15,1.95Z"/><path class="cls-1" d="m59.43,108.77c-.24-.04-.45-.08-.64-.12.22.05.43.09.64.12Z"/><path class="cls-1" d="m58.55,108.6c-.15-.03-.29-.07-.39-.09.13.03.26.06.39.09Z"/><path class="cls-11" d="m58.79,108.65c-.08-.02-.16-.03-.24-.05.08.02.15.03.24.05Z"/><path class="cls-11" d="m58.16,108.51c-.08-.02-.14-.04-.22-.06h0s.08.03.23.06Z"/><path class="cls-15" d="m51.45,96.15c-.2-4.02,7.38-1.47,9.88-1.34,1.97.1,7.98-1.27,8.5-.91,3.53,2.38-3.74,7.18-8.62,7.18-1.3,0-9.64-2.5-9.75-4.92Z"/><path class="cls-5" d="m25.15,61.99s3.84,15.77,10.44,17.06c6.6,1.29,13.74-1.27,13.74-1.27,0,0,.68-18.53-2.7-20.95-3.38-2.43-11.16-5.95-21.49,5.17Z"/><path class="cls-21" d="m49.35,77.72s-.15.04-.49.19c-.08-5.68-.61-13.49-2.72-14.99-3.14-2.3-10.22-5.53-19.69,3.31-.86-2.44-1.29-4.29-1.29-4.29,10.35-11.14,18.14-7.63,21.49-5.19,3.38,2.43,2.7,20.98,2.7,20.98Z"/><circle class="cls-20" cx="38.94" cy="69.69" r="6.49"/><path class="cls-6" d="m38.64,74.02c-1.88-.15-3.32-2.05-3.14-4.13.17-2.08,1.9-3.71,3.77-3.55,1.88.15,3.31,2.04,3.15,4.13-.17,2.08-1.9,3.71-3.78,3.55Z"/><path class="cls-18" d="m38.8,73.27c-1.31-.11-2.66-1.54-2.52-3.31.15-1.77,1.71-2.96,3.02-2.86,1.31.11,2.66,1.55,2.51,3.31-.14,1.77-1.71,2.96-3.02,2.85Z"/><path class="cls-5" d="m37.75,68.91c-.05.64-.71,1.1-1.46,1.04-.75-.06-1.32-.63-1.27-1.27.05-.64.71-1.11,1.46-1.05.75.06,1.32.63,1.27,1.27Z"/><path class="cls-5" d="m41.96,72.6c-.03.32-.35.55-.73.52-.38-.03-.66-.32-.64-.63.03-.32.35-.55.73-.52.38.03.66.31.64.63Z"/><path class="cls-1" d="m59.53,110.63c-.24-.04-.45-.08-.64-.12.22.05.43.09.64.12Z"/><path class="cls-1" d="m58.65,110.46c-.15-.03-.29-.07-.39-.09.13.03.26.06.39.09Z"/><path class="cls-11" d="m58.89,110.51c-.08-.02-.16-.03-.24-.05.08.02.15.03.24.05Z"/><path class="cls-11" d="m58.26,110.37c-.07-.02-.14-.04-.22-.06h0s.08.03.23.06Z"/><path class="cls-1" d="m59.28,110.2c-.25-.04-.48-.09-.69-.13.23.05.46.1.69.13Z"/><path class="cls-1" d="m58.34,110.01c-.16-.04-.31-.07-.42-.1.14.04.27.06.42.1Z"/><path class="cls-7" d="m58.6,110.07c-.09-.02-.17-.04-.26-.06.09.02.16.03.26.06Z"/><path class="cls-7" d="m57.92,109.91c-.08-.02-.15-.04-.23-.06h0s.09.03.24.06Z"/><path class="cls-1" d="m59.09,109.54c-.25-.04-.48-.09-.69-.13.23.05.46.1.69.13Z"/><path class="cls-1" d="m58.14,109.35c-.16-.04-.31-.07-.42-.1.14.04.27.06.42.1Z"/><path class="cls-7" d="m58.4,109.41c-.09-.02-.17-.04-.26-.06.09.02.16.03.26.06Z"/><path class="cls-7" d="m57.73,109.26c-.08-.02-.15-.04-.23-.07h0s.09.03.24.07Z"/><path class="cls-1" d="m59.67,109.44c-.24-.04-.47-.09-.66-.13.22.05.44.09.66.13Z"/><path class="cls-1" d="m58.76,109.26c-.15-.03-.3-.07-.4-.09.13.03.27.06.4.09Z"/><path class="cls-7" d="m59.01,109.32c-.08-.02-.17-.03-.25-.05.08.02.16.03.25.05Z"/><path class="cls-7" d="m58.35,109.17c-.08-.02-.15-.04-.22-.06h0s.09.03.23.06Z"/><path class="cls-5" d="m97.83,61.45s-3.84,15.77-10.44,17.06c-6.6,1.29-13.74-1.27-13.74-1.27,0,0-.68-18.53,2.7-20.95,3.38-2.43,11.16-5.95,21.49,5.17Z"/><path class="cls-21" d="m73.64,77.18s.15.04.49.19c.08-5.68.61-13.49,2.72-14.99,3.14-2.3,10.22-5.53,19.69,3.31.86-2.44,1.29-4.29,1.29-4.29-10.35-11.14-18.14-7.63-21.49-5.19-3.38,2.43-2.7,20.98-2.7,20.98Z"/><path class="cls-20" d="m77.55,69.15c0,3.59,2.91,6.49,6.49,6.49s6.49-2.91,6.49-6.49-2.91-6.49-6.49-6.49-6.49,2.91-6.49,6.49Z"/><path class="cls-6" d="m84.35,73.48c1.88-.15,3.32-2.05,3.14-4.13-.17-2.08-1.9-3.71-3.77-3.55-1.88.15-3.31,2.04-3.15,4.13.17,2.08,1.9,3.71,3.78,3.55Z"/><path class="cls-18" d="m84.18,72.73c1.31-.11,2.66-1.54,2.52-3.31-.15-1.77-1.71-2.96-3.02-2.86-1.31.11-2.66,1.55-2.51,3.31.14,1.77,1.71,2.96,3.02,2.85Z"/><path class="cls-5" d="m85.24,68.38c.05.64.71,1.1,1.46,1.04.75-.06,1.32-.63,1.27-1.27-.05-.64-.71-1.11-1.46-1.05-.75.06-1.32.63-1.27,1.27Z"/><path class="cls-5" d="m81.03,72.07c.03.32.35.55.73.52.38-.03.66-.32.64-.63-.03-.32-.35-.55-.73-.52-.38.03-.66.31-.64.63Z"/><path d="m53.3,61.73c-.05-.08-1.25-1.9-3.7-3.77-1.53-1.18-3.04-2.07-4.6-2.74-1.9-.8-3.94-1.36-5.91-1.63-1.79-.2-3.77-.15-6.08.17-1.77.34-3.49.86-4.95,1.51-1.04.36-1.87.86-2.53,1.27-.25.16-.48.3-.72.42l-3.15,1.98,3.63-.85c.17-.04.35-.09.55-.14.75-.2,1.69-.45,2.78-.61.26-.04.52-.09.78-.14.46-.09.93-.19,1.42-.21.55-.04,1.12-.08,1.71-.12l.76-.06c2.01-.03,3.71.13,5.22.48,1.65.28,3.35.82,4.9,1.54,1.47.7,2.88,1.4,3.97,2.21,2.22,1.48,3.45,2.72,3.47,2.73h0c.3.31.71.47,1.12.47.3,0,.6-.08.86-.26.73-.48.94-1.46.47-2.18l-.03-.05Z"/><path d="m98.48,56.94c-.21-.11-.44-.25-.69-.41-.66-.41-1.48-.91-2.5-1.26-1.49-.66-3.21-1.18-5-1.52-2.29-.31-4.28-.36-6.07-.16-1.97.27-4.01.83-5.91,1.63-1.54.66-3.08,1.58-4.59,2.74-2.4,1.84-3.6,3.63-3.69,3.77l-.02.03c-.41.62-.32,1.46.21,1.99.3.3.7.47,1.12.47h0c.42,0,.82-.17,1.12-.47h.01c.12-.13,1.32-1.3,3.47-2.74,1.08-.79,2.49-1.49,3.95-2.19,1.56-.72,3.26-1.25,4.93-1.54,1.49-.34,3.19-.49,5.18-.47l.8.06c.58.04,1.15.08,1.7.12.49.02.96.12,1.42.21.27.05.53.11.78.14,1.1.16,2.03.41,2.78.61.2.05.38.1.55.14l3.63.85-3.18-2Z"/><path class="cls-1" d="m57.2,116.14c-.23-.04-.45-.08-.63-.12.22.05.42.09.63.12Z"/><path class="cls-1" d="m56.32,115.96c-.15-.03-.29-.07-.38-.09.13.03.25.06.38.09Z"/><path class="cls-13" d="m56.56,116.01c-.08-.02-.16-.03-.24-.05.08.02.15.03.24.05Z"/><path class="cls-13" d="m55.94,115.87c-.07-.02-.14-.04-.22-.06h0s.08.03.22.06Z"/><path class="cls-1" d="m57.02,115.52c-.23-.04-.45-.08-.64-.12.22.05.42.09.64.12Z"/><path class="cls-1" d="m56.14,115.35c-.15-.03-.29-.07-.38-.09.13.03.25.06.38.09Z"/><path class="cls-13" d="m56.38,115.4c-.08-.02-.16-.03-.24-.05.08.02.15.03.24.05Z"/><path class="cls-13" d="m55.76,115.26c-.07-.02-.14-.04-.22-.06h0s.08.03.22.06Z"/><path class="cls-1" d="m57.56,115.44c-.23-.04-.43-.08-.61-.12.21.04.41.09.61.12Z"/><path class="cls-1" d="m56.71,115.27c-.14-.03-.28-.06-.37-.09.12.03.25.06.37.09Z"/><path class="cls-13" d="m56.94,115.32c-.08-.02-.16-.03-.23-.05.08.02.14.03.23.05Z"/><path class="cls-13" d="m56.34,115.18c-.07-.02-.14-.04-.21-.06h0s.08.03.22.06Z"/><path class="cls-4" d="m51.67,117.2c-.19-2.51,6.98.52,9.33.6,1.88.06,7.52-.37,8.04-.57,3.94-1.47-.22,4.19-8.16,4.49-3.64.15-9.11-2.99-9.22-4.51Z"/><path class="cls-9" d="m75.29,111.18c-4.55-.85-14.12.06-14.12.06-7.9,1.31-14.08-.08-14.12-.03-.19.02,6.31,8.63,14.01,8.24h0c7.71.4,14.42-8.24,14.23-8.26Z"/><path class="cls-17" d="m65.74,109.36c-2.05-.23-3.51,1.25-4.56,1.14-1.07.1-2.46-.85-4.52-.87-2.9-.03-4.31-.28-9.61,1.57.19.36,3.58,2.33,9.94,2.44.09,0,1.8.97,4.22.95,1.52,0,3.6-1.02,3.68-1.02,6.37-.1,10.26-1.99,10.44-2.34-7.01-2.17-6.45-1.89-9.6-1.86Z"/><path class="cls-8" d="m110.08,181.85l-4.4,1.05c-2,.48-3.42,2.27-3.42,4.33v6.78H21.61v-6.78c0-2.06-1.42-3.85-3.43-4.33l-4.38-1.05c.15-1.16.29-2.27.48-3.35.32-2.05.72-3.98,1.21-5.78.5-2.14,1.11-4.12,1.8-5.96.13-.37.27-.74.4-1.1.18-.4.32-.79.5-1.18.14-.39.31-.76.5-1.13.31-.76.68-1.47,1.02-2.16.61-1.19,1.27-2.32,1.93-3.37.03-.06.08-.13.13-.19,9.05,7.94,37.98,27.55,81.57,2.03.27.5.56,1.02.84,1.53.71,1.39,1.39,2.87,2.01,4.46.13.35.29.72.42,1.1.68,1.84,1.29,3.82,1.8,5.96.48,1.8.89,3.74,1.21,5.78.18,1.08.32,2.19.45,3.35Z"/><path class="cls-19" d="m61.41,41.4c6.86,0,12.88-8.76,19.04-11.55V3.52c-5.74-2.25-12.21-3.52-19.55-3.52h-.3c-8.74,0-16.24,1.78-22.7,4.95v24.07c7.46-.27,14.73,12.11,22.78,12.39h.73Z"/></svg>