<?xml version="1.0" encoding="UTF-8"?><svg id="Layer_1" xmlns="http://www.w3.org/2000/svg" xmlns:xlink="http://www.w3.org/1999/xlink" viewBox="0 0 164.14 193.75"><defs><style>.cls-1{fill:none;}.cls-2{clip-path:url(#clippath);}.cls-3{fill:#f1dab4;}.cls-4{fill:#e4c59e;}.cls-5{fill:#f3dab4;}.cls-6{fill:#fff;}.cls-7{fill:#7f401b;}.cls-8{fill:#c3977d;}.cls-9{fill:#b48d76;}.cls-10{fill:#c1967d;}.cls-11{fill:#cba686;}.cls-12{fill:#c49d80;}.cls-13{fill:#c5997d;}.cls-14{fill:#e1bd9d;}.cls-15{fill:#d7ad88;}.cls-16{fill:#dbbb9a;}.cls-17{fill:#e1c7a3;}.cls-18{fill:#225a59;}.cls-19{fill:#231c08;}.cls-20{fill:#48878a;}.cls-21{fill:#463216;}.cls-22{fill:#4c2912;}.cls-23{fill:url(#Névtelen_színátmenet_11-2);}.cls-23,.cls-24,.cls-25{opacity:.54;}.cls-24{fill:#98cec8;}.cls-25{fill:url(#Névtelen_színátmenet_11);}</style><clipPath id="clippath"><rect class="cls-1" x="69.61" y="124.98" width="25.11" height="14.85"/></clipPath><linearGradient id="Névtelen_színátmenet_11" x1="106.46" y1="58.23" x2="106.68" y2="99.5" gradientUnits="userSpaceOnUse"><stop offset="0" stop-color="#fff"/><stop offset="1" stop-color="#74bdac"/></linearGradient><linearGradient id="Névtelen_színátmenet_11-2" x1="56.03" y1="58.5" x2="56.25" y2="99.76" xlink:href="#Névtelen_színátmenet_11"/></defs><path class="cls-4" d="m35.66,193.3c0-10.73,1.57-19.09,3.96-25.61,5.77-15.74,16.32-20.74,21.18-22.24,1.59-.5,2.58-.61,2.58-.61.17,0,.33-.02.5-.04,1.43-.23,2.59-1.47,3.51-3.46.69-1.47,1.27-3.35,1.74-5.53.19-.85.33-1.7.48-2.63.22-1.55.44-3.18.63-4.88.07-1.04.18-2.03.29-3.11.4-5.14.52-10.77.52-16.1,0,0,6.08.63,11.02.63v84.02"/><path class="cls-3" d="m82.07,193.75v-84.02h.11c4.9,0,11.06-.63,11.06-.63,0,5.29.11,10.84.51,15.98.11,1,.22,2.03.29,3.03.19,1.78.41,3.44.67,4.99v.03c.07.71.22,1.33.33,2,.45,2.19.99,4.11,1.64,5.65.81,1.92,1.8,3.26,3.01,3.79.38.17.79.26,1.21.26,0,0,1.74.21,4.36,1.24,5.33,2.09,14.29,7.59,19.44,21.62,2.39,6.52,3.96,14.88,3.96,25.61"/><g class="cls-2"><path class="cls-12" d="m94.72,132.95v.04c-1.14,1.76-4.98,6.84-12.57,6.84h-.07c-7.19-.04-11.39-5.26-12.46-6.8.22-1.54.44-3.16.63-4.85.07-.99.18-2.02.29-3.09,3.5.88,7.34,1.43,11.39,1.51h.15c4.2-.07,8.07-.66,11.69-1.62.11.99.22,2.02.3,3.01.18,1.76.41,3.42.66,4.96"/></g><path class="cls-15" d="m81.56,13.98c-48,0-48.26,40.25-46.12,66.6-3.28-6.25-13.05-4.34-12.24,5.51.77,9.48,14.73,14.32,14.34,13.27,7.27,19.49,26.51,34.18,44.02,34.18h.37V13.98h-.37"/><path class="cls-9" d="m26.26,81.94c2.36-3.82,6.05-2.17,6.93-1.32.96.92,1.73,2.09,1.14,4.34-.33,1.29-1.66,1.4-1.36,3.31.37,2.17,1.36,2.28,1.95,2.79.55.48,1.25.85,1.59,1.76.37.92.41,1.87.22,2.72-.37,1.54-2.62.29-4.13-.37-1-.48-4.17-3.16-4.98-4.04-1.99-2.28-2.95-6.69-1.36-9.19"/><path class="cls-14" d="m81.82,13.98c48,0,48.26,40.25,46.15,66.6,3.28-6.25,13.01-4.34,12.2,5.51-.74,9.48-14.72,14.32-14.34,13.27-7.08,19.49-26.51,34.18-44.02,34.18h-.26l-.11-119.57h.37"/><path class="cls-9" d="m137.11,81.94c-2.36-3.82-6.01-2.17-6.93-1.32-.96.92-1.7,2.09-1.14,4.34.33,1.29,1.66,1.4,1.36,3.31-.37,2.17-1.36,2.28-1.92,2.79-.55.48-1.29.85-1.62,1.76-.33.92-.41,1.87-.22,2.72.37,1.54,2.62.29,4.13-.37,1.03-.48,4.17-3.16,4.98-4.04,2.03-2.28,2.95-6.69,1.36-9.19"/><path class="cls-4" d="m81.18,25.33c-15.78,0-27.35,4.59-34.32,13.64-9.77,12.68-9.4,32.01-5.82,45.91,1.11,4.26,1.7,15.69,2.43,19.88,3.43,18.78,24.11,28.78,37.71,28.78h.37V25.33h-.22"/><path class="cls-3" d="m115.46,39.01c-6.93-9.01-18.36-13.6-33.92-13.67v108.21c15.56-.18,34.17-11.14,37.34-28.78.77-4.19,1.33-15.62,2.43-19.88,3.61-13.86,3.98-33.15-5.86-45.87"/><path class="cls-1" d="m79.62,110.42c-.22-.04-.42-.08-.59-.11.2.04.4.08.59.11Z"/><path class="cls-1" d="m78.81,114.31c-.14-.03-.27-.06-.36-.08.12.03.24.05.36.08Z"/><path class="cls-8" d="m79.03,114.36c-.08-.02-.15-.03-.23-.05.07.02.14.03.23.05Z"/><path class="cls-8" d="m78.45,114.23c-.07-.02-.13-.04-.2-.06h0s.08.02.21.06Z"/><path class="cls-14" d="m72.39,101.22c-.18-3.74,6.85-1.37,9.16-1.25,1.83.09,7.4-1.18,7.88-.85,3.28,2.22-3.47,6.68-8,6.68-1.21,0-8.94-2.33-9.05-4.58Z"/><path class="cls-1" d="m38.52,59.06c-.43,1.43-.73,3-.93,4.67,0,0,.63-2.64,2.03-6.54-.6.83-1,1.5-1.1,1.87Z"/><path class="cls-21" d="m68.15,25.6l-.2.2.03.07c.07-.1.1-.2.17-.27Z"/><path class="cls-1" d="m79.77,112.28c-.22-.04-.43-.08-.61-.12.21.04.41.09.61.12Z"/><path class="cls-1" d="m78.93,112.11c-.14-.03-.28-.06-.37-.09.12.03.24.06.37.09Z"/><path class="cls-10" d="m79.16,112.16c-.08-.02-.15-.03-.23-.05.08.02.14.03.23.05Z"/><path class="cls-10" d="m78.56,112.03c-.07-.02-.14-.04-.21-.06h0s.08.03.21.06Z"/><path class="cls-6" d="m47.12,67.57s3.66,15.07,9.95,16.3c6.29,1.23,13.09-1.22,13.09-1.22,0,0,.65-17.71-2.57-20.02-3.22-2.32-10.63-5.68-20.47,4.94Z"/><path class="cls-16" d="m70.16,82.6s-.14.04-.47.18c-.08-5.43-.58-12.89-2.59-14.32-2.99-2.2-9.74-5.28-18.75,3.17-.82-2.33-1.23-4.1-1.23-4.1,9.86-10.64,17.28-7.29,20.47-4.96,3.22,2.32,2.57,20.05,2.57,20.05Z"/><ellipse class="cls-22" cx="60.25" cy="74.93" rx="6.19" ry="6.21"/><path class="cls-7" d="m59.97,79.06c-1.79-.15-3.16-1.96-3-3.95.16-1.99,1.81-3.54,3.6-3.39,1.79.15,3.16,1.95,3,3.94-.16,1.99-1.81,3.55-3.6,3.4Z"/><path class="cls-19" d="m60.12,78.35c-1.24-.11-2.53-1.47-2.4-3.16.14-1.69,1.63-2.83,2.88-2.73,1.24.11,2.53,1.48,2.39,3.17-.14,1.69-1.63,2.83-2.87,2.72Z"/><path class="cls-6" d="m59.11,74.19c-.05.61-.68,1.05-1.39,1-.72-.06-1.26-.61-1.21-1.21.05-.61.67-1.06,1.39-1,.72.06,1.26.6,1.21,1.21Z"/><path class="cls-6" d="m63.13,77.71c-.03.3-.34.53-.69.5-.36-.03-.63-.3-.61-.61.03-.3.34-.53.69-.5.36.03.63.3.61.61Z"/><path class="cls-1" d="m79.87,114.06c-.22-.04-.43-.08-.61-.12.21.04.41.09.61.12Z"/><path class="cls-1" d="m79.03,113.89c-.14-.03-.28-.06-.37-.09.12.03.24.06.37.09Z"/><path class="cls-10" d="m79.26,113.94c-.08-.02-.15-.03-.23-.05.08.02.14.03.23.05Z"/><path class="cls-10" d="m78.66,113.81c-.07-.02-.14-.04-.21-.06h0s.08.02.21.06Z"/><path class="cls-1" d="m79.63,113.64c-.24-.04-.46-.08-.65-.12.22.05.44.09.65.12Z"/><path class="cls-1" d="m78.73,113.46c-.15-.03-.3-.07-.4-.09.13.03.26.06.4.09Z"/><path class="cls-8" d="m78.98,113.52c-.08-.02-.17-.03-.25-.05.08.02.15.03.25.05Z"/><path class="cls-8" d="m78.34,113.37c-.08-.02-.15-.04-.22-.06h0s.09.03.23.06Z"/><path class="cls-1" d="m79.45,113.01c-.24-.04-.46-.08-.65-.12.22.05.44.09.65.12Z"/><path class="cls-1" d="m78.55,112.83c-.15-.03-.3-.07-.4-.09.13.03.26.06.4.09Z"/><path class="cls-8" d="m78.79,112.89c-.08-.02-.17-.03-.25-.05.08.02.15.03.25.05Z"/><path class="cls-8" d="m78.15,112.74c-.08-.02-.15-.04-.22-.06h0s.09.03.23.06Z"/><path class="cls-1" d="m80,112.92c-.23-.04-.44-.08-.63-.12.21.05.42.09.63.12Z"/><path class="cls-1" d="m79.13,112.75c-.14-.03-.29-.06-.38-.09.13.03.25.06.38.09Z"/><path class="cls-8" d="m79.37,112.8c-.08-.02-.16-.03-.24-.05.08.02.15.03.24.05Z"/><path class="cls-8" d="m78.75,112.66c-.07-.02-.14-.04-.21-.06h0s.08.03.22.06Z"/><path class="cls-6" d="m116.36,67.05s-3.66,15.07-9.95,16.3c-6.29,1.23-13.09-1.22-13.09-1.22,0,0-.65-17.71,2.57-20.02,3.22-2.32,10.63-5.68,20.47,4.94Z"/><path class="cls-16" d="m93.31,82.09s.14.04.47.18c.08-5.43.58-12.89,2.59-14.32,2.99-2.2,9.74-5.28,18.75,3.17.82-2.33,1.23-4.1,1.23-4.1-9.86-10.64-17.28-7.29-20.47-4.96-3.22,2.32-2.57,20.05-2.57,20.05Z"/><path class="cls-22" d="m97.03,74.42c0,3.43,2.77,6.21,6.19,6.21s6.19-2.78,6.19-6.21-2.77-6.21-6.19-6.21-6.19,2.78-6.19,6.21Z"/><path class="cls-7" d="m103.51,78.55c1.79-.15,3.16-1.96,3-3.95-.16-1.99-1.81-3.54-3.6-3.39-1.79.15-3.16,1.95-3,3.94.16,1.99,1.81,3.55,3.6,3.4Z"/><path class="cls-19" d="m103.35,77.83c1.24-.11,2.53-1.47,2.4-3.16-.14-1.69-1.63-2.83-2.88-2.73-1.24.11-2.53,1.48-2.39,3.17.14,1.69,1.63,2.83,2.87,2.72Z"/><path class="cls-6" d="m104.36,73.68c.05.61.68,1.05,1.39,1,.72-.06,1.26-.61,1.21-1.21-.05-.61-.67-1.06-1.39-1-.72.06-1.26.6-1.21,1.21Z"/><path class="cls-6" d="m100.35,77.2c.03.3.34.53.69.5.36-.03.63-.3.61-.61-.03-.3-.34-.53-.69-.5-.36.03-.63.3-.61.61Z"/><path d="m73.93,67.33c-.05-.07-1.19-1.81-3.52-3.61-1.46-1.12-2.89-1.98-4.38-2.62-1.81-.76-3.75-1.3-5.63-1.56-1.7-.19-3.59-.14-5.8.16-1.68.32-3.32.82-4.71,1.44-.99.34-1.78.82-2.41,1.21-.24.15-.46.28-.68.4l-3,1.89,3.46-.82c.16-.04.34-.09.52-.14.72-.19,1.61-.43,2.65-.58.24-.04.49-.09.75-.14.44-.09.89-.18,1.36-.2.52-.04,1.07-.07,1.63-.11l.73-.05c1.92-.02,3.54.12,4.97.45,1.57.27,3.19.78,4.67,1.47,1.4.67,2.74,1.34,3.79,2.11,2.11,1.42,3.29,2.6,3.3,2.61h0c.29.29.68.44,1.07.44.28,0,.57-.08.82-.25.7-.46.89-1.4.45-2.08l-.03-.05Z"/><path d="m116.98,62.74c-.2-.11-.42-.24-.66-.39-.63-.39-1.41-.87-2.38-1.2-1.42-.63-3.06-1.13-4.76-1.45-2.18-.29-4.07-.35-5.78-.15-1.87.26-3.82.8-5.63,1.56-1.46.63-2.94,1.51-4.38,2.62-2.29,1.76-3.43,3.47-3.51,3.6l-.02.03c-.39.6-.3,1.4.2,1.9.28.29.66.45,1.06.45h0c.4,0,.78-.16,1.06-.45h.01c.11-.12,1.25-1.24,3.3-2.62,1.03-.76,2.37-1.43,3.77-2.1,1.49-.69,3.1-1.2,4.7-1.48,1.42-.33,3.04-.47,4.93-.45l.76.05c.55.04,1.09.08,1.62.11.46.02.91.11,1.35.2.25.05.5.1.75.14,1.05.15,1.94.39,2.65.58.19.05.36.1.53.14l3.46.82-3.03-1.91Z"/><path class="cls-1" d="m78.81,115.85c-.23-.04-.45-.08-.64-.12.22.05.43.09.64.12Z"/><path class="cls-1" d="m77.93,115.67c-.15-.03-.29-.07-.39-.09.13.03.26.06.39.09Z"/><path class="cls-13" d="m78.17,115.73c-.08-.02-.16-.03-.24-.05.08.02.15.03.24.05Z"/><path class="cls-13" d="m77.55,115.58c-.07-.02-.14-.04-.22-.06h0s.08.03.22.06Z"/><path class="cls-5" d="m72.68,118.83c-.18-2.42,6.73.51,9,.58,1.81.06,7.25-.36,7.75-.55,3.8-1.43-.21,4.05-7.86,4.34-3.51.14-8.78-2.9-8.88-4.36Z"/><path class="cls-17" d="m95.17,114.16c-1.88-.09-3.8,1.48-6.06,1.24-.09-.05-.14-.05-.23-.05-.52-.09-1.03,0-1.6.14-.7.15-1.41.43-2.07.66-1.13.37-2.4.66-3.7.56h0s-.05,0-.07,0-.05,0-.07,0h0c-1.31.09-2.58-.2-3.7-.57-.66-.23-1.37-.52-2.07-.66-.56-.14-1.08-.23-1.6-.14-.1,0-.14,0-.23.05-2.26.24-4.18-1.33-6.06-1.24-.52.05-1.27-.09-1.69-.09.09.05.19.09.28.14,5.35,2.61,9.96,7.51,15.07,7.35h.15c5.11.16,9.72-4.74,15.07-7.35.1-.05.19-.09.28-.14-.42,0-1.17.14-1.69.09Z"/><path class="cls-11" d="m96.74,114.01h0s-5.44-2.1-9.3-.87c0,0-1.44.56-2.93.91-.91.35-2.01.46-3.07.41h0c-.81-.03-1.59-.14-2.22-.25-.21-.03-.42-.08-.64-.12-.09-.02-.16-.03-.24-.05-.13-.03-.26-.06-.39-.09-.14-.03-.22-.06-.22-.06h0c-1.24-.34-2.3-.75-2.3-.75-3.87-1.23-9.3.87-9.3.87h0c-.07.03-.12.06-.12.06.42,0,1.17.14,1.69.09,1.87-.09,3.8,1.48,6.06,1.24.09-.05.14-.05.23-.05.52-.09,1.03,0,1.6.14.7.15,1.41.43,2.07.66,1.13.37,2.4.66,3.7.56h0s.05,0,.07,0,.05,0,.07,0h0c1.31.09,2.58-.2,3.7-.57.66-.23,1.37-.52,2.07-.66.56-.14,1.08-.23,1.6-.14.1,0,.14,0,.23.05,2.26.24,4.18-1.33,6.06-1.24.52.05,1.27-.09,1.69-.09,0,0-.05-.02-.12-.06Z"/><path class="cls-11" d="m72.31,115.29c.1.02,10.19,3.11,18.08.07l-.91-.61h-10.66l-6.5.55Z"/><path class="cls-18" d="m82.12,193.75l-39.08-38.03c-.67.76-1.33,1.57-1.97,2.45,0,0-6.69,14.33-6.61,22.73h8.53c-.03,5.76-.21,10.15-.39,12.85"/><path class="cls-18" d="m129.86,180.9c.3-12.85-6.5-22.73-6.5-22.73-2.31-3.18-4.84-5.6-7.34-7.43-.2-.19-.44-.35-.65-.52-3.29-2.38-6.43-3.72-8.75-4.48-.46-.16-.87-.29-1.25-.42-1.69-.47-2.74-.56-2.74-.56-.93,0-1.77-.35-2.49-.96,0,0,0-.03-.04-.03-.24-.23-.49-.5-.72-.79-.11.07-.28.33-.46.83-.48,1.16-2.55,5.59-5.63,9.64l28.22,27.46h8.34Z"/><path class="cls-20" d="m121.84,193.75c-.19-2.7-.39-7.09-.42-12.85h.1l-28.22-27.46c-2.94,3.87-6.79,7.39-11.08,7.39-8.79,0-15.78-14.77-16.72-17.03-.17-.5-.35-.76-.44-.83-.25.29-.49.57-.74.79-.03,0-.03.03-.03.03-.73.6-1.55.96-2.49.96,0,0-1.1.13-2.89.63-.39.1-.81.23-1.25.39-1.9.65-4.34,1.7-6.92,3.34-.57.36-1.14.75-1.72,1.17-.21.13-.45.29-.66.5-1.78,1.32-3.57,2.95-5.3,4.94l39.08,38.03"/><path d="m144.14,22.22c10.41,6.32,17.87-1.16,17.87-1.16-15.93-.7-15.81-9.47-15.81-9.47,3.03-4.47,10.1-1.39,10.1-1.39-6.81-16.43-25.29-.15-25.29-.15-3.89-4.96-8.55-3.49-8.55-3.49,5.81,3.35,5.79,8.61,4.57,12.7-5.77-5.62-12.34-8.92-19.62-11.31-3.03-.99-6.57-1.52-10.23-1.75l.81-.14s-.41-.09-1.14-.22v-.54c-5.22-.8-10.29-.99-14.77-.89-4.48-.1-9.55.09-14.76.89v.54c-.74.14-1.14.22-1.14.22l.8.14c-3.67.23-7.2.76-10.24,1.75-7.28,2.39-13.86,5.69-19.62,11.31-1.22-4.09-1.24-9.35,4.57-12.7,0,0-4.67-1.47-8.55,3.49,0,0-18.48-16.28-25.28.15,0,0,7.08-3.09,10.1,1.39,0,0,.12,8.78-15.81,9.47,0,0,7.46,7.49,17.87,1.16,0,0-3.13,16.92-19.99,14.65,0,0,9.26,10.99,25.31.1-.57,1.3-1.14,2.65-1.68,4.08-7.98,20.82-1.43,37.88.12,45.16,4.9,23.04,28.43,37.64,28.43,37.64,0,0-5.94-6.16-8.59-12.29-2.06-4.76-3.77-13.03-5.14-24.98-2.11-18.34,10.56-26.95,10.56-26.95,0,0-3.33,9.35-4.55,19.64-.89,7.43,2.25,13.63,4.06,16.5.35.65.75,1.24,1.21,1.74,0,0-6.37-18.56,14.51-27.77.25,5.47,4.22,9.46,4.22,9.46,0,0,0-1.1.24-2.83.03-.17.05-.36.09-.55h0c.36-2.26,1.14-5.41,2.78-8.59h0c4.36-8.4,14.81-17.09,39.98-10.7,10.22,2.33,18.12,11.82,13.66,38.34-.96,7.62-3.08,13.13-4.63,16.71-2.65,6.13-8.6,12.29-8.6,12.29,0,0,23.53-14.59,28.43-37.64,1.55-7.28,8.1-24.34.12-45.16-.55-1.42-1.11-2.78-1.68-4.08,16.06,10.9,25.31-.1,25.31-.1-16.86,2.27-20-14.65-20-14.65Z"/><path class="cls-25" d="m123.36,78.29c-.06.78-.15,1.59-.31,2.44-8.18-4.1-19.73-6.38-32.53,1.76-.39-1.34-.6-2.67-.7-3.88-.2-1.58-.26-3.48.11-5.29,1.01-8.55,15.93-8.87,18.05-8.87.17,0,.35,0,.52,0,1.87-.07,3.49,0,4.89.14.64.06,1.49.17,2.44.4,5.54,1.26,6.31,4.17,6.37,4.46.23.47.41,1,.53,1.57.75,2.58.85,5.07.63,7.29Z"/><path class="cls-23" d="m72.88,78.64h0c-.09.72-.21,1.37-.32,1.92-13.21-6.69-24.82-2.71-32.38,1.97-.36-1.23-.68-2.67-.84-4.24-.27-3.83.53-6.66.53-6.66.03-.22.07-.43.11-.64.15-.5.32-1.01.52-1.52,0,0,0,0,0-.02,1.29-2.7,4.1-3.92,6.4-4.46.7-.16,1.47-.29,2.34-.39.03,0,.05,0,.07,0,.68-.06,1.1-.06,1.1-.06,1.37-.07,2.65-.1,3.85-.08.07,0,.14,0,.2,0h.24c10.38.21,14.29,3.39,14.29,3.39,2.24,1.23,3.33,3.29,3.78,5.47,0,.01,0,.03,0,.04,0,0,.38,2.29.11,5.3Z"/><path class="cls-24" d="m123.05,80.72c-.36,1.96-1.05,4.06-2.26,6.1-.09.16-.14.25-.14.25-.03.04-.06.09-.09.13-.35.56-.74,1.11-1.17,1.65-.64.81-1.41,1.5-2.3,2.02-.65.39-1.53.83-2.63,1.22-5.23,2.07-11.22.9-14.13.09-.09-.02-.63-.14-1.41-.43-.23-.08-.36-.13-.36-.13-4.77-1.84-7.02-5.55-8.04-9.14,12.8-8.14,24.35-5.86,32.53-1.76Z"/><path class="cls-24" d="m72.55,80.56c-.14.69-.29,1.22-.37,1.5-.05.15-.07.24-.07.24-1.45,6.11-5.99,8.57-8.33,9.45,0,0,0,0,0,0-.3.1-.77.25-1.38.43,0,0-.01,0-.02,0s-.01,0-.01,0c-6.4,1.76-11.13,1-14.15-.11,0,0,0,0-.02,0-2.27-.91-4.39-2.44-6.04-4.87-.08-.12-.15-.25-.23-.38-.28-.5-.94-1.8-1.53-3.63-.07-.22-.14-.44-.21-.67,7.56-4.68,19.17-8.66,32.38-1.97Z"/><path class="cls-6" d="m130.32,65.89c-.13-.86-.75-1.57-1.59-1.8-17.35-4.85-30.86-2.01-30.86-2.01-7.23,1.26-10.35,5.44-10.35,5.44-2.06,2.19-6.17,1.26-6.17,1.26h0s-4.11.93-6.17-1.26c0,0-3.12-4.18-10.35-5.44,0,0-13.51-2.84-30.86,2.01-.84.23-1.45.94-1.59,1.8-.28,1.82-.52,4.84.8,5.61,0,0,2.65.53,2.65,4.25,0,0,2.06,12.21,4.51,14.86,0,0,3.32,6.1,14.53,5.77,0,0,15.34.64,18.32-7.83.39-1.12.95-2.42,1.39-3.52l2.56-7.36c.27-.78.75-1.47,1.42-1.96.64-.47,1.55-.85,2.79-.76h0c1.24-.08,2.15.29,2.79.76.66.49,1.15,1.18,1.42,1.96l2.56,7.36c.44,1.1,1,2.4,1.39,3.52,2.98,8.47,18.32,7.83,18.32,7.83,11.21.33,14.53-5.77,14.53-5.77,2.46-2.65,4.51-14.86,4.51-14.86,0-3.72,2.65-4.25,2.65-4.25,1.32-.77,1.08-3.79.8-5.61Zm-57.44,12.74h0c-.21,1.63-.55,2.91-.7,3.42-.01.04-.02.08-.03.11-.03.09-.04.13-.04.13-1.45,6.11-5.99,8.57-8.33,9.45,0,0,0,0,0,0-.2.07-.48.16-.82.26-.17.05-.36.11-.56.16,0,0-.01,0-.02,0h0s0,0,0,0c0,0-.01,0-.01,0-1.89.52-3.63.81-5.23.95-3.81.32-6.79-.28-8.92-1.05,0,0,0,0,0,0,0,0,0,0,0,0-.83-.33-1.65-.75-2.43-1.27-1.34-.89-2.57-2.06-3.62-3.6-.03-.05-.07-.11-.1-.16-.04-.07-.09-.14-.13-.21-.17-.32-.5-.95-.87-1.84-.22-.52-.44-1.12-.66-1.8-.07-.22-.14-.44-.21-.67,0,0,0,0,0,0-.36-1.24-.68-2.67-.84-4.25-.27-3.83.53-6.66.53-6.66.03-.22.07-.43.11-.64.15-.5.32-1.01.52-1.52,0,0,0,0,0-.03,1.29-2.7,4.1-3.91,6.4-4.46.7-.16,1.47-.29,2.33-.38.03,0,.05,0,.08,0,.68-.06,1.1-.06,1.1-.06,1.37-.07,2.65-.1,3.85-.08.07,0,.13,0,.2,0,0,0,.08,0,.24,0h0c10.38.21,14.29,3.39,14.29,3.39,2.24,1.23,3.33,3.29,3.78,5.46,0,.01,0,.03,0,.04,0,0,.38,2.29.11,5.3Zm50.49-.35c-.06.9-.19,1.86-.4,2.85-.02.09-.04.19-.06.28-.07.31-.15.62-.23.94-.02.07-.04.14-.06.21-.08.28-.17.56-.26.83-.02.06-.04.12-.06.18-.12.34-.25.67-.39,1.01-.01.03-.03.07-.05.1-.13.3-.26.59-.41.89-.04.08-.08.16-.12.24-.16.31-.33.63-.51.94,0,.02-.02.03-.03.05-.09.16-.14.25-.14.25-.02.04-.05.07-.07.11,0,0-.01.01-.02.02-.05.09-.11.17-.17.26-.31.47-.63.94-1,1.4-.16.2-.33.4-.51.58-.53.56-1.13,1.04-1.8,1.44-.53.31-1.22.67-2.05,1-.19.08-.38.15-.58.23-1.56.62-3.19.94-4.78,1.08-3.75.32-7.31-.42-9.35-.99-.03,0-.1-.02-.2-.05-.14-.03-.33-.09-.58-.17-.18-.06-.39-.13-.63-.22-.23-.08-.36-.13-.36-.13-.03-.01-.06-.03-.09-.04-.23-.09-.45-.18-.66-.28-.08-.04-.16-.07-.23-.11-.2-.1-.4-.2-.59-.3-.04-.02-.08-.04-.12-.06-.23-.12-.44-.25-.65-.39-.06-.04-.11-.07-.17-.11-.18-.12-.35-.23-.52-.35-.04-.03-.08-.05-.12-.08-.2-.15-.39-.3-.57-.45-.04-.03-.08-.07-.12-.1-.15-.13-.3-.27-.45-.41-.03-.03-.07-.07-.1-.1-.17-.17-.34-.34-.49-.51-.02-.03-.05-.05-.07-.08-.14-.15-.27-.31-.4-.47-.03-.04-.06-.07-.09-.11-.15-.18-.29-.37-.42-.56,0,0-.01-.02-.02-.02-.13-.18-.25-.37-.37-.56-.02-.03-.04-.06-.06-.1-.25-.4-.48-.82-.68-1.23,0-.02-.02-.03-.02-.05-.42-.87-.75-1.77-1-2.66h0c-.38-1.34-.59-2.67-.7-3.88-.2-1.58-.26-3.48.11-5.29,1.02-8.55,15.93-8.87,18.06-8.87.17,0,.35,0,.52,0,1.87-.07,3.49,0,4.88.14.64.06,1.49.17,2.44.4,5.54,1.26,6.31,4.18,6.37,4.46.23.48.41,1,.53,1.57.75,2.58.85,5.07.63,7.29Z"/><path class="cls-6" d="m149.45,42.28c-.2-2.4-10.68-9.04-16.77-11.39.08-1.02-.14-2.09-.71-3.03-.57-.95-1.4-1.58-2.29-1.9.4-6.99-1.12-20.03-3.08-21.18-2.61-1.51-9.37,6.7-9.37,6.7,0,0-9.62,3.51-9.37,6.69.2,2.41,10.68,9.04,16.77,11.39-.08,1.02.13,2.09.71,3.04.58.95,1.4,1.58,2.3,1.9-.4,6.99,1.12,20.02,3.08,21.16,2.6,1.51,9.37-6.69,9.37-6.69,0,0,9.62-3.51,9.37-6.7Z"/><path class="cls-6" d="m20.57,41.49c-.25-2.4,8.79-10.89,14.32-14.34-.27-.98-.26-2.08.13-3.12.38-1.04,1.07-1.82,1.89-2.3-1.71-6.79-2.68-19.88-.97-21.38,2.27-1.97,10.46,4.81,10.46,4.81,0,0,10.11,1.63,10.46,4.81.26,2.4-8.78,10.89-14.32,14.35.27.98.27,2.08-.12,3.12-.39,1.04-1.08,1.82-1.9,2.3,1.71,6.79,2.68,19.87.96,21.36-2.27,1.97-10.46-4.8-10.46-4.8,0,0-10.11-1.64-10.46-4.82Z"/></svg>