<?xml version="1.0" encoding="UTF-8"?><svg id="Layer_1" xmlns="http://www.w3.org/2000/svg" xmlns:xlink="http://www.w3.org/1999/xlink" viewBox="0 0 135.4 195.8"><defs><style>.cls-1{fill:none;}.cls-2{clip-path:url(#clippath);}.cls-3{fill:#053b1f;}.cls-4{fill:#6a1d17;}.cls-5{fill:#f1dab4;}.cls-6{fill:#e4c59e;}.cls-7{fill:#f3dab4;}.cls-8{fill:#fff;}.cls-9{fill:#7f401b;}.cls-10{fill:#862019;}.cls-11{fill:#c3977d;}.cls-12{fill:#c36b70;}.cls-13{fill:#b48d76;}.cls-14{fill:#a4c307;}.cls-15{fill:#c1967d;}.cls-16{fill:#ce210f;}.cls-17{fill:#c49d80;}.cls-18{fill:#c5997d;}.cls-19{fill:#e1bd9d;}.cls-20{fill:#e0bc9b;}.cls-21{fill:#d7ad88;}.cls-22{fill:#dbbb9a;}.cls-23{fill:#d77a77;}.cls-24{fill:#231c08;}.cls-25{fill:#961e16;}.cls-26{fill:#463216;}.cls-27{fill:#4c2912;}</style><clipPath id="clippath"><rect class="cls-1" x="55.07" y="127.1" width="25.11" height="14.8"/></clipPath></defs><polygon class="cls-3" points="24.84 111.13 10.35 105.35 15.16 110.53 0 109.72 14.42 113.22 0 119.27 11.28 118.24 3.33 126.55 14.61 121.74 10.35 133.83 19.05 124.33 22.93 135.42 22 123.08 28.26 129.14 28.99 123.04 24.84 111.13"/><path class="cls-14" d="m25.93,118.09c1.06,4.19,2.85,5.63,4.3,5.36,0,0,67.83-3.28,75.77.25.09.09.21.15.41.19,1.45.28,3.24-1.17,4.3-5.36,1.06-4.19.38-7.77-.15-6.56,0,0-45.93-6.79-85.12-.68l.16.41c-.3.93-.41,3.5.33,6.39Z"/><polygon class="cls-3" points="110.57 111.97 125.05 106.19 120.24 111.37 135.4 110.56 120.98 114.06 135.4 120.1 124.13 119.08 132.08 127.39 120.8 122.58 125.05 134.67 116.36 125.17 112.48 136.26 113.4 123.92 107.14 129.98 106.41 123.88 110.57 111.97"/><path class="cls-6" d="m67.53,111.9v83.75H22.24c-.75-.29-1.11-.45-1.11-.45,0-3.52.17-6.77.49-9.79.63-6.17,1.86-11.36,3.45-15.73,3.53-9.62,8.89-15.21,13.6-18.45.08-.05.15-.11.23-.15,2.89-1.93,5.54-2.99,7.37-3.56.61-.2,1.14-.34,1.53-.41.66-.15,1.03-.2,1.03-.2.08,0,.15,0,.23-.02.09,0,.18-.02.28-.03.89-.14,1.67-.68,2.35-1.53.43-.52.81-1.15,1.17-1.9.69-1.47,1.27-3.35,1.73-5.51.18-.86.34-1.7.49-2.62.21-1.55.43-3.18.61-4.87.08-1.03.18-2.03.31-3.1.4-5.13.51-10.73.51-16.04,0,0,6.09.63,11.02.63Z"/><path class="cls-5" d="m114.13,195.21s-.4.15-1.07.45h-45.53v-83.75h.11c4.91,0,11.07-.63,11.07-.63,0,5.26.11,10.81.52,15.93.11,1,.21,2.03.29,3.02.18,1.77.4,3.42.66,4.97v.03c.08.71.21,1.34.34,2,.45,2.18.98,4.1,1.64,5.63.31.72.64,1.37,1,1.92.6.89,1.26,1.53,2.01,1.86.38.17.78.26,1.21.26,0,0,.14.02.4.06.18.03.43.08.72.15.75.17,1.87.48,3.22,1.01,1.61.63,3.56,1.57,5.62,2.95.29.2.6.4.89.61,4.56,3.32,9.56,8.83,12.94,17.99,1.61,4.37,2.84,9.56,3.48,15.73.31,3.02.48,6.28.48,9.79Z"/><g class="cls-2"><path class="cls-17" d="m80.18,135.05v.04c-1.14,1.76-4.98,6.82-12.57,6.82h-.07c-7.19-.04-11.39-5.24-12.46-6.78.22-1.54.44-3.15.63-4.84.07-.99.18-2.02.3-3.08,3.5.88,7.34,1.43,11.39,1.5h.15c4.2-.07,8.07-.66,11.69-1.61.11.99.22,2.02.29,3,.18,1.76.41,3.41.66,4.95"/></g><path class="cls-21" d="m67.02,16.44c-48,0-48.26,40.12-46.12,66.39-3.28-6.23-13.05-4.32-12.24,5.5.77,9.45,14.73,14.27,14.34,13.23,7.27,19.43,26.51,34.08,44.02,34.08h.37V16.44h-.37"/><path class="cls-13" d="m11.72,84.19c2.36-3.81,6.05-2.16,6.93-1.32.96.92,1.73,2.09,1.14,4.32-.33,1.28-1.66,1.39-1.36,3.3.37,2.16,1.36,2.27,1.95,2.78.55.48,1.25.84,1.59,1.76.37.92.41,1.87.22,2.71-.37,1.54-2.62.29-4.13-.37-1-.48-4.17-3.15-4.98-4.03-1.99-2.27-2.95-6.67-1.36-9.16"/><path class="cls-19" d="m67.28,16.44c48,0,48.26,40.12,46.15,66.39,3.28-6.23,13.01-4.32,12.2,5.5-.74,9.45-14.72,14.27-14.34,13.23-7.08,19.43-26.51,34.08-44.02,34.08h-.26l-.11-119.19h.37"/><path class="cls-13" d="m122.57,84.19c-2.36-3.81-6.01-2.16-6.93-1.32-.96.92-1.7,2.09-1.14,4.32.33,1.28,1.66,1.39,1.36,3.3-.37,2.16-1.36,2.27-1.92,2.78-.55.48-1.29.84-1.62,1.76-.33.92-.41,1.87-.22,2.71.37,1.54,2.62.29,4.13-.37,1.03-.48,4.17-3.15,4.98-4.03,2.03-2.27,2.95-6.67,1.36-9.16"/><path class="cls-6" d="m66.64,27.76c-15.78,0-27.35,4.58-34.32,13.59-9.77,12.64-9.4,31.91-5.82,45.76,1.11,4.25,1.7,15.65,2.43,19.82,3.43,18.72,24.11,28.69,37.71,28.69h.37V27.76h-.22"/><path class="cls-5" d="m100.93,41.39c-6.93-8.98-18.36-13.56-33.92-13.63v107.87c15.56-.18,34.17-11.1,37.34-28.69.77-4.18,1.33-15.57,2.43-19.82,3.61-13.81,3.98-33.05-5.86-45.73"/><path class="cls-1" d="m65.09,116.63c-.22-.04-.42-.08-.59-.11.2.04.4.08.59.11Z"/><path class="cls-1" d="m64.27,116.47c-.14-.03-.27-.06-.36-.08.12.03.24.05.36.08Z"/><path class="cls-11" d="m64.49,116.51c-.08-.02-.15-.03-.23-.05.07.02.14.03.23.05Z"/><path class="cls-11" d="m63.91,116.38c-.07-.02-.13-.04-.2-.06h0s.08.02.21.06Z"/><path class="cls-1" d="m23.98,61.39c-.43,1.43-.73,2.99-.93,4.66,0,0,.63-2.63,2.03-6.52-.6.83-1,1.5-1.1,1.86Z"/><path class="cls-26" d="m53.61,28.03l-.2.2.03.07c.07-.1.1-.2.17-.27Z"/><path class="cls-1" d="m65.23,114.44c-.22-.04-.43-.08-.61-.12.21.04.41.09.61.12Z"/><path class="cls-1" d="m64.39,114.28c-.14-.03-.28-.06-.37-.08.12.03.24.06.37.08Z"/><path class="cls-15" d="m64.62,114.33c-.08-.02-.15-.03-.23-.05.08.02.14.03.23.05Z"/><path class="cls-15" d="m64.02,114.19c-.07-.02-.14-.04-.21-.06h0s.08.02.21.06Z"/><path class="cls-20" d="m57.63,103.5c-.19-3.83,7.03-1.4,9.41-1.28,1.88.1,7.6-1.21,8.09-.87,3.37,2.27-3.57,6.84-8.21,6.84-1.24,0-9.18-2.38-9.29-4.69Z"/><path class="cls-8" d="m32.58,69.87s3.66,15.02,9.95,16.25c6.29,1.23,13.09-1.21,13.09-1.21,0,0,.65-17.65-2.57-19.96-3.22-2.32-10.63-5.66-20.47,4.92Z"/><path class="cls-22" d="m55.63,84.86s-.14.04-.47.18c-.08-5.41-.58-12.85-2.59-14.28-2.99-2.19-9.74-5.27-18.75,3.16-.82-2.33-1.23-4.09-1.23-4.09,9.86-10.61,17.28-7.27,20.47-4.95,3.22,2.32,2.57,19.99,2.57,19.99Z"/><path class="cls-27" d="m51.9,77.21c0,3.42-2.77,6.19-6.19,6.19s-6.19-2.77-6.19-6.19,2.77-6.19,6.19-6.19,6.19,2.77,6.19,6.19Z"/><path class="cls-9" d="m45.43,81.33c-1.79-.15-3.16-1.95-3-3.93.16-1.98,1.81-3.53,3.6-3.38,1.79.15,3.16,1.95,3,3.93-.16,1.98-1.81,3.54-3.6,3.39Z"/><path class="cls-24" d="m45.58,80.61c-1.24-.11-2.53-1.47-2.4-3.15.14-1.69,1.63-2.82,2.88-2.72,1.24.11,2.53,1.48,2.39,3.16-.14,1.68-1.63,2.82-2.87,2.72Z"/><path class="cls-8" d="m44.57,76.47c-.05.61-.68,1.05-1.39.99-.72-.06-1.26-.6-1.21-1.21.05-.61.67-1.05,1.39-1,.72.06,1.26.6,1.21,1.21Z"/><path class="cls-8" d="m48.59,79.98c-.03.3-.34.53-.69.5-.36-.03-.63-.3-.61-.6.03-.3.34-.53.69-.5.36.03.63.3.61.6Z"/><path class="cls-1" d="m65.33,116.21c-.22-.04-.43-.08-.61-.12.21.04.41.09.61.12Z"/><path class="cls-1" d="m64.49,116.05c-.14-.03-.28-.06-.37-.08.12.03.24.06.37.08Z"/><path class="cls-15" d="m64.72,116.1c-.08-.02-.15-.03-.23-.05.08.02.14.03.23.05Z"/><path class="cls-15" d="m64.12,115.96c-.07-.02-.14-.04-.21-.06h0s.08.02.21.06Z"/><path class="cls-1" d="m65.09,115.8c-.24-.04-.46-.08-.65-.12.22.05.44.09.65.12Z"/><path class="cls-1" d="m64.19,115.62c-.15-.03-.3-.07-.4-.09.13.03.26.06.4.09Z"/><path class="cls-11" d="m64.44,115.67c-.08-.02-.17-.03-.25-.05.08.02.15.03.25.05Z"/><path class="cls-11" d="m63.8,115.53c-.08-.02-.15-.04-.22-.06h0s.09.03.23.06Z"/><path class="cls-1" d="m64.91,115.17c-.24-.04-.46-.08-.65-.12.22.05.44.09.65.12Z"/><path class="cls-1" d="m64.01,114.99c-.15-.03-.3-.07-.4-.09.13.03.26.06.4.09Z"/><path class="cls-11" d="m64.26,115.04c-.08-.02-.17-.03-.25-.05.08.02.15.03.25.05Z"/><path class="cls-11" d="m63.61,114.9c-.08-.02-.15-.04-.22-.06h0s.09.03.23.06Z"/><path class="cls-1" d="m65.46,115.08c-.23-.04-.44-.08-.63-.12.21.05.42.09.63.12Z"/><path class="cls-1" d="m64.59,114.91c-.14-.03-.29-.06-.38-.09.13.03.25.06.38.09Z"/><path class="cls-11" d="m64.83,114.96c-.08-.02-.16-.03-.24-.05.08.02.15.03.24.05Z"/><path class="cls-11" d="m64.21,114.82c-.07-.02-.14-.04-.21-.06h0s.08.03.22.06Z"/><path class="cls-8" d="m101.82,69.36s-3.66,15.02-9.95,16.25c-6.29,1.23-13.09-1.21-13.09-1.21,0,0-.65-17.65,2.57-19.96,3.22-2.32,10.63-5.66,20.47,4.92Z"/><path class="cls-22" d="m78.77,84.35s.14.04.47.18c.08-5.41.58-12.85,2.59-14.28,2.99-2.19,9.74-5.27,18.75,3.16.82-2.33,1.23-4.09,1.23-4.09-9.86-10.61-17.28-7.27-20.47-4.95-3.22,2.32-2.57,19.99-2.57,19.99Z"/><path class="cls-27" d="m82.49,76.7c0,3.42,2.77,6.19,6.19,6.19s6.19-2.77,6.19-6.19-2.77-6.19-6.19-6.19-6.19,2.77-6.19,6.19Z"/><path class="cls-9" d="m88.97,80.82c1.79-.15,3.16-1.95,3-3.93-.16-1.98-1.81-3.53-3.6-3.38-1.79.15-3.16,1.95-3,3.93.16,1.98,1.81,3.54,3.6,3.39Z"/><path class="cls-24" d="m88.81,80.1c1.24-.11,2.53-1.47,2.4-3.15-.14-1.69-1.63-2.82-2.88-2.72-1.24.11-2.53,1.48-2.39,3.16.14,1.68,1.63,2.82,2.87,2.72Z"/><path class="cls-8" d="m89.82,75.96c.05.61.68,1.05,1.39.99.72-.06,1.26-.6,1.21-1.21-.05-.61-.67-1.05-1.39-1-.72.06-1.26.6-1.21,1.21Z"/><path class="cls-8" d="m85.81,79.47c.03.3.34.53.69.5.36-.03.63-.3.61-.6-.03-.3-.34-.53-.69-.49-.36.03-.63.3-.61.6Z"/><path d="m59.39,69.63c-.05-.07-1.19-1.81-3.52-3.6-1.46-1.12-2.89-1.97-4.38-2.61-1.81-.76-3.75-1.3-5.63-1.55-1.7-.19-3.59-.14-5.8.16-1.68.32-3.32.82-4.71,1.43-.99.34-1.78.82-2.41,1.21-.24.15-.46.28-.68.4l-3,1.89,3.46-.81c.16-.04.34-.09.52-.14.72-.19,1.61-.43,2.65-.58.24-.04.49-.08.75-.14.44-.09.89-.18,1.36-.2.52-.04,1.07-.07,1.63-.11l.73-.05c1.92-.02,3.54.12,4.97.45,1.57.27,3.19.78,4.67,1.46,1.4.67,2.74,1.33,3.79,2.1,2.11,1.41,3.29,2.59,3.3,2.6h0c.29.29.68.44,1.07.44.28,0,.57-.08.82-.24.7-.46.89-1.4.45-2.07l-.03-.05Z"/><path d="m102.44,65.06c-.2-.11-.42-.24-.66-.39-.63-.39-1.41-.87-2.38-1.2-1.42-.63-3.06-1.13-4.76-1.45-2.18-.29-4.07-.34-5.78-.15-1.87.26-3.82.79-5.63,1.55-1.46.63-2.94,1.5-4.38,2.61-2.29,1.76-3.43,3.46-3.51,3.59l-.02.03c-.39.59-.3,1.39.2,1.89.28.29.66.44,1.06.44h0c.4,0,.78-.16,1.06-.44h.01c.11-.12,1.25-1.24,3.3-2.61,1.03-.76,2.37-1.42,3.77-2.09,1.49-.69,3.1-1.2,4.7-1.47,1.42-.33,3.04-.47,4.93-.45l.76.05c.55.04,1.09.08,1.62.11.46.02.91.11,1.35.2.25.05.5.1.75.14,1.05.15,1.94.39,2.65.58.19.05.36.1.53.14l3.46.81-3.03-1.9Z"/><path class="cls-1" d="m63.11,121.45c-.22-.04-.43-.08-.6-.12.2.04.4.08.6.12Z"/><path class="cls-1" d="m62.27,121.29c-.14-.03-.28-.06-.37-.08.12.03.24.06.37.08Z"/><path class="cls-18" d="m62.5,121.34c-.08-.02-.15-.03-.23-.05.08.02.14.03.23.05Z"/><path class="cls-18" d="m61.9,121.21c-.07-.02-.14-.04-.21-.06h0s.08.02.21.06Z"/><path class="cls-1" d="m62.94,120.87c-.22-.04-.43-.08-.6-.12.2.04.4.08.6.12Z"/><path class="cls-1" d="m62.1,120.71c-.14-.03-.28-.06-.37-.08.12.03.24.06.37.08Z"/><path class="cls-18" d="m62.33,120.76c-.08-.02-.15-.03-.23-.05.08.02.14.03.23.05Z"/><path class="cls-18" d="m61.73,120.62c-.07-.02-.14-.04-.21-.06h0s.08.02.21.06Z"/><path class="cls-1" d="m63.45,120.79c-.22-.04-.41-.08-.58-.11.2.04.39.08.58.11Z"/><path class="cls-1" d="m62.64,120.63c-.13-.03-.27-.06-.35-.08.12.03.23.05.35.08Z"/><path class="cls-18" d="m62.86,120.68c-.07-.02-.15-.03-.22-.05.07.02.14.03.22.05Z"/><path class="cls-18" d="m62.29,120.55c-.07-.02-.13-.04-.2-.06h0s.08.02.21.06Z"/><path class="cls-7" d="m57.84,122.47c-.18-2.39,6.65.5,8.89.57,1.79.06,7.16-.35,7.66-.54,3.76-1.4-.21,3.99-7.77,4.27-3.47.14-8.68-2.85-8.78-4.3Z"/><path class="cls-12" d="m80.34,116.73c-4.33-.81-13.45.05-13.45.05-7.52,1.25-13.41-.08-13.45-.03-.18.02,6.01,8.22,13.35,7.85h0c7.34.38,13.73-7.85,13.56-7.87Z"/><path class="cls-23" d="m71.24,115c-1.95-.22-3.34,1.19-4.34,1.09-1.02.09-2.34-.81-4.3-.83-2.76-.03-4.11-.27-9.16,1.5.18.34,3.41,2.22,9.47,2.32.09,0,1.71.92,4.02.91,1.45,0,3.43-.97,3.51-.97,6.07-.09,9.77-1.9,9.94-2.23-6.67-2.07-6.14-1.8-9.14-1.78Z"/><path class="cls-25" d="m101.24,168.77H34.64c1.23-3.21,2.46-6.89,3.32-11.9.29-1.72.54-3.58.72-5.63.08-.05.15-.11.23-.15,2.89-1.93,5.54-2.99,7.37-3.56.61-.2,1.14-.34,1.53-.41.66-.15,1.03-.2,1.03-.2.08,0,.15,0,.23-.02,1.58,3.15,3.59,6.74,5.99,9.98,3.5,4.77,7.77,8.73,12.48,9.23.14.03.28.03.41.05.14-.02.28-.02.4-.05,4.7-.49,8.98-4.45,12.48-9.23,2.38-3.19,4.39-6.77,5.96-9.9.18.03.43.08.72.15.75.17,1.87.48,3.22,1.01,1.61.63,3.56,1.57,5.62,2.95.29.2.6.4.89.61.18,1.87.41,3.59.69,5.17.86,5,2.09,8.69,3.32,11.9Z"/><path class="cls-4" d="m30,184.06c-.31,2.82-.6,8-.8,11.59-.02.05-.02.11-.02.15h28.38l.06-.15h20.63l.05.15h28.38v-.15c-.21-3.59-.51-8.76-.81-11.59-.09-.94-.23-1.81-.39-2.66H30.39c-.15.85-.29,1.72-.38,2.66Z"/><path class="cls-10" d="m34.64,168.77c-1.69,4.38-3.39,7.9-4.25,12.64h75.1c-.86-4.74-2.57-8.25-4.26-12.64H34.64Z"/><path class="cls-3" d="m105.43,21.39c-.39-.42-.79-.84-1.2-1.25.53-3.68-1.3-8.47-11.1-12.61,0,0,3.09,3.23,5.47,7.66-9.26-7.13-19.01-10.62-19.01-10.62l4.26,4.08c-2.55-1.99-7.1-4.77-14.7-7.21-10.81-3.48-17.8.39-17.8.39,0,0,5.63-.2,8.4,2.06-2.73-1.2-7.43-1.61-15.27,1.7-.48.2-.96.41-1.41.63-2.83-.42-5.84-1.15-8.95-2.34,0,0,1.96,2.19,5.27,4.35-2.56,1.63-4.55,3.42-6.24,5.24-4,.14-8.52-.26-13.38-1.68,0,0,3.99,3.76,9.93,5.85-.9,1.18-1.76,2.32-2.65,3.39-3.89,1.02-8.41,1.63-13.51,1.31,0,0,3.63,2.12,8.71,3.16-1.05.68-2.22,1.25-3.58,1.7-10.95,3.65-14.13-1.04-14.13-1.04,0,0,4.75,8.21,13.19,8.23,1.36,0,1.5-.03,1.5-.03,0,.02-2.05,5.71-3.16,11.35-2.51.96-5.29,1.76-8.36,2.26,0,0,3.33,1.03,7.83,1.13-.02.2-.05.4-.07.6-.62,6.7,1.32,11.28,1.91,23.79.52,10.7,3.29,5.22,6.6,13.11,1.12,2.64,1.16,5.62,1.16,5.62,1.23.31,4.44-6.43,2.13-18.13-.66-3.36.42-10.86,3.39-17.7h0s14.15-26.94,35.18-4.93c.15.16.31.32.47.47l.02.02h0s0,0,0,0h0s13.17,12.98,22.65,19.98c0,0-2.86-6.57-3.74-13.03l.43.06c6.02,5.62,11.05,13.57,12.32,24.77,0,0,8.34-8.99,9.8-19.82.16,2.58.13,5.36-.13,8.38-1.64,19.39,1.44,19.26,1.44,19.26.92,0-.07-5.16,3.01-8.72,3.07-3.56,7.76-15.56,7.76-27.52s-4.01-22.61-14.47-33.93Z"/><path class="cls-16" d="m49.06,146.89c1.58,3.15,3.59,6.74,5.99,9.98h-17.1c.29-1.72.54-3.58.72-5.63.08-.05.15-.11.23-.15,2.89-1.93,5.54-2.99,7.37-3.56.61-.2,1.14-.34,1.53-.41.66-.15,1.03-.2,1.03-.2.08,0,.15,0,.23-.02Z"/><path class="cls-16" d="m97.92,156.87h-17.1c2.38-3.19,4.39-6.77,5.96-9.9.18.03.43.08.72.15.75.17,1.87.48,3.22,1.01,1.61.63,3.56,1.57,5.62,2.95.29.2.6.4.89.61.18,1.87.41,3.59.69,5.17Z"/></svg>