<?xml version="1.0" encoding="UTF-8"?><svg id="Layer_1" xmlns="http://www.w3.org/2000/svg" xmlns:xlink="http://www.w3.org/1999/xlink" viewBox="0 0 123.79 197.59"><defs><style>.cls-1{fill:none;}.cls-2{clip-path:url(#clippath);}.cls-3{fill:#f4b335;}.cls-4{fill:#f1dab4;}.cls-5{fill:#e4c59e;}.cls-6{fill:#f3dab4;}.cls-7{fill:#fff;}.cls-8{fill:#fdfdfd;}.cls-9{fill:#6aa6ae;}.cls-10{fill:#7f401b;}.cls-11{fill:#c3977d;}.cls-12{fill:#bb0b24;}.cls-13{fill:#c36b70;}.cls-14{fill:#b48d76;}.cls-15{fill:#8f6faa;}.cls-16{fill:#d88d90;}.cls-17{fill:#c1967d;}.cls-18{fill:#c49d80;}.cls-19{fill:#c5997d;}.cls-20{fill:#e1bd9d;}.cls-21{fill:#e0bc9b;}.cls-22{fill:#d7ad88;}.cls-23{fill:#dbbb9a;}.cls-24{fill:#d77a77;}.cls-25{fill:#231c08;}.cls-26{fill:#463216;}.cls-27{fill:#4c4543;}.cls-28{fill:#4c2912;}</style><clipPath id="clippath"><rect class="cls-1" x="53.18" y="129.04" width="25.11" height="14.8"/></clipPath></defs><path class="cls-5" d="m65.64,113.84v83.75H20.33c-.74-.29-1.11-.44-1.11-.44,0-5.34.4-10.12,1.09-14.34.32-1.95.71-3.79,1.15-5.51.49-2.04,1.07-3.93,1.72-5.68.14-.35.26-.71.4-1.04.15-.38.31-.75.46-1.12.15-.37.31-.72.48-1.07.31-.72.64-1.4.98-2.06.58-1.14,1.2-2.21,1.84-3.21.17-.28.34-.54.51-.78.83-1.23,1.69-2.36,2.56-3.39.25-.28.49-.57.74-.83.25-.28.49-.54.74-.8.25-.25.51-.51.75-.74.25-.25.49-.48.74-.69.49-.46,1-.89,1.49-1.27,2.41-1.93,4.73-3.24,6.69-4.1.25-.11.49-.21.74-.32.77-.31,1.46-.55,2.07-.74,1.6-.51,2.58-.61,2.58-.61.18,0,.34-.02.51-.05,1.43-.23,2.58-1.47,3.52-3.44.69-1.47,1.26-3.35,1.73-5.51.18-.86.34-1.7.48-2.62.23-1.55.45-3.18.63-4.87.08-1.03.18-2.03.29-3.1.41-5.13.52-10.73.52-16.04,0,0,6.08.63,11.02.63Z"/><path class="cls-4" d="m112.24,197.15s-.4.15-1.07.44h-45.53v-83.75h.11c4.91,0,11.07-.63,11.07-.63,0,5.26.11,10.81.51,15.93.12,1,.23,2.03.31,3.02.18,1.77.4,3.42.66,4.97v.03c.08.71.21,1.34.34,2,.45,2.18.98,4.1,1.64,5.63.81,1.92,1.8,3.25,3.01,3.78.37.17.78.26,1.21.26,0,0,1.73.2,4.34,1.23,1.38.54,3.01,1.3,4.74,2.39.35.21.72.46,1.07.71.29.18.58.4.87.61.25.18.52.38.77.58.54.41,1.09.87,1.64,1.38.22.18.41.38.63.58.25.21.48.45.72.71.17.15.32.31.48.48.32.34.66.71.98,1.09.17.18.34.37.49.57.74.86,1.46,1.8,2.15,2.82.31.43.58.87.87,1.34.58.94,1.15,1.93,1.7,2.99.68,1.32,1.32,2.73,1.92,4.25.14.34.28.69.4,1.04.64,1.75,1.23,3.64,1.73,5.68.45,1.72.83,3.56,1.14,5.51.69,4.22,1.09,8.99,1.09,14.34Z"/><g class="cls-2"><path class="cls-18" d="m78.29,136.99v.04c-1.14,1.76-4.98,6.82-12.57,6.82h-.07c-7.19-.04-11.39-5.24-12.46-6.78.22-1.54.44-3.15.63-4.84.07-.99.18-2.02.29-3.08,3.5.88,7.34,1.43,11.39,1.5h.15c4.2-.07,8.07-.66,11.69-1.61.11.99.22,2.02.29,3,.18,1.76.41,3.41.66,4.95"/></g><path class="cls-22" d="m65.13,18.38c-48,0-48.26,40.12-46.12,66.39-3.28-6.23-13.05-4.32-12.24,5.5.77,9.45,14.73,14.27,14.34,13.23,7.27,19.43,26.51,34.08,44.02,34.08h.37V18.38h-.37"/><path class="cls-14" d="m9.83,86.13c2.36-3.81,6.05-2.16,6.93-1.32.96.92,1.73,2.09,1.14,4.32-.33,1.28-1.66,1.39-1.36,3.3.37,2.16,1.36,2.27,1.95,2.78.55.48,1.25.84,1.59,1.76.37.92.41,1.87.22,2.71-.37,1.54-2.62.29-4.13-.37-1-.48-4.17-3.15-4.98-4.03-1.99-2.27-2.95-6.67-1.36-9.16"/><path class="cls-20" d="m65.39,18.38c48,0,48.26,40.12,46.15,66.39,3.28-6.23,13.01-4.32,12.2,5.5-.74,9.45-14.72,14.27-14.34,13.23-7.08,19.43-26.51,34.08-44.02,34.08h-.26l-.11-119.19h.37"/><path class="cls-14" d="m120.68,86.13c-2.36-3.81-6.01-2.16-6.93-1.32-.96.92-1.7,2.09-1.14,4.32.33,1.28,1.66,1.39,1.36,3.3-.37,2.16-1.36,2.27-1.92,2.78-.55.48-1.29.84-1.62,1.76-.33.92-.41,1.87-.22,2.71.37,1.54,2.62.29,4.13-.37,1.03-.48,4.17-3.15,4.98-4.03,2.03-2.27,2.95-6.67,1.36-9.16"/><path class="cls-5" d="m64.75,29.71c-15.78,0-27.35,4.58-34.32,13.59-9.77,12.64-9.4,31.91-5.82,45.76,1.11,4.25,1.7,15.65,2.43,19.82,3.43,18.72,24.11,28.69,37.71,28.69h.37V29.71h-.22"/><path class="cls-4" d="m99.03,43.34c-6.93-8.98-18.36-13.56-33.92-13.63v107.87c15.56-.18,34.17-11.1,37.34-28.69.77-4.18,1.33-15.57,2.43-19.82,3.61-13.81,3.98-33.05-5.86-45.73"/><path class="cls-1" d="m63.19,118.57c-.22-.04-.42-.08-.59-.11.2.04.4.08.59.11Z"/><path class="cls-1" d="m62.37,118.41c-.14-.03-.27-.06-.36-.08.12.03.24.05.36.08Z"/><path class="cls-11" d="m62.6,118.45c-.08-.02-.15-.03-.23-.05.07.02.14.03.23.05Z"/><path class="cls-11" d="m62.02,118.32c-.07-.02-.13-.04-.2-.06h0s.08.02.21.06Z"/><path class="cls-1" d="m22.09,63.33c-.43,1.43-.73,2.99-.93,4.66,0,0,.63-2.63,2.03-6.52-.6.83-1,1.5-1.1,1.86Z"/><path class="cls-26" d="m51.72,29.97l-.2.2.03.07c.07-.1.1-.2.17-.27Z"/><path class="cls-1" d="m63.34,116.38c-.22-.04-.43-.08-.61-.12.21.04.41.09.61.12Z"/><path class="cls-1" d="m62.5,116.22c-.14-.03-.28-.06-.37-.08.12.03.24.06.37.08Z"/><path class="cls-17" d="m62.73,116.27c-.08-.02-.15-.03-.23-.05.08.02.14.03.23.05Z"/><path class="cls-17" d="m62.13,116.13c-.07-.02-.14-.04-.21-.06h0s.08.02.21.06Z"/><path class="cls-21" d="m55.74,104.36c-.19-3.83,7.03-1.4,9.41-1.28,1.88.1,7.6-1.21,8.09-.87,3.37,2.27-3.57,6.84-8.21,6.84-1.24,0-9.18-2.38-9.29-4.69Z"/><path class="cls-7" d="m30.69,71.81s3.66,15.02,9.95,16.25c6.29,1.23,13.09-1.21,13.09-1.21,0,0,.65-17.65-2.57-19.96-3.22-2.32-10.63-5.66-20.47,4.92Z"/><path class="cls-23" d="m53.73,86.8s-.14.04-.47.18c-.08-5.42-.58-12.85-2.59-14.28-2.99-2.19-9.74-5.27-18.75,3.16-.82-2.33-1.23-4.09-1.23-4.09,9.86-10.61,17.28-7.27,20.47-4.95,3.22,2.32,2.57,19.99,2.57,19.99Z"/><circle class="cls-28" cx="43.82" cy="79.15" r="6.19"/><path class="cls-10" d="m43.54,83.27c-1.79-.15-3.16-1.95-3-3.93.16-1.98,1.81-3.53,3.6-3.38,1.79.15,3.16,1.95,3,3.93-.16,1.98-1.81,3.54-3.6,3.39Z"/><path class="cls-25" d="m43.69,82.55c-1.24-.11-2.53-1.47-2.4-3.15.14-1.69,1.63-2.82,2.88-2.72,1.24.11,2.53,1.48,2.39,3.16-.14,1.68-1.63,2.82-2.87,2.72Z"/><path class="cls-7" d="m42.68,78.41c-.05.61-.68,1.05-1.39.99-.72-.06-1.26-.6-1.21-1.21.05-.61.67-1.05,1.39-1,.72.06,1.26.6,1.21,1.21Z"/><path class="cls-7" d="m46.69,81.92c-.03.3-.34.53-.69.5-.36-.03-.63-.3-.61-.6.03-.3.34-.53.69-.5.36.03.63.3.61.6Z"/><path class="cls-1" d="m63.44,118.15c-.22-.04-.43-.08-.61-.12.21.04.41.08.61.12Z"/><path class="cls-1" d="m62.6,117.99c-.14-.03-.28-.06-.37-.08.12.03.24.06.37.08Z"/><path class="cls-17" d="m62.83,118.04c-.08-.02-.15-.03-.23-.05.08.02.14.03.23.05Z"/><path class="cls-17" d="m62.23,117.9c-.07-.02-.14-.04-.21-.06h0s.08.02.21.06Z"/><path class="cls-1" d="m63.2,117.74c-.24-.04-.46-.08-.65-.12.22.05.44.09.65.12Z"/><path class="cls-1" d="m62.3,117.56c-.15-.03-.3-.07-.4-.09.13.03.26.06.4.09Z"/><path class="cls-11" d="m62.55,117.61c-.08-.02-.17-.03-.25-.05.08.02.15.03.25.05Z"/><path class="cls-11" d="m61.9,117.47c-.08-.02-.15-.04-.22-.06h0s.09.03.23.06Z"/><path class="cls-1" d="m63.02,117.11c-.24-.04-.46-.08-.65-.12.22.05.44.09.65.12Z"/><path class="cls-1" d="m62.11,116.93c-.15-.03-.3-.07-.4-.09.13.03.26.06.4.09Z"/><path class="cls-11" d="m62.36,116.99c-.08-.02-.17-.03-.25-.05.08.02.15.03.25.05Z"/><path class="cls-11" d="m61.72,116.84c-.08-.02-.15-.04-.22-.06h0s.09.03.23.06Z"/><path class="cls-1" d="m63.57,117.02c-.23-.04-.44-.08-.63-.12.21.05.42.09.63.12Z"/><path class="cls-1" d="m62.7,116.85c-.14-.03-.29-.06-.38-.09.13.03.25.06.38.09Z"/><path class="cls-11" d="m62.94,116.9c-.08-.02-.16-.03-.24-.05.08.02.15.03.24.05Z"/><path class="cls-11" d="m62.32,116.76c-.07-.02-.14-.04-.21-.06h0s.08.03.22.06Z"/><path class="cls-7" d="m99.93,71.3s-3.66,15.02-9.95,16.25c-6.29,1.23-13.09-1.21-13.09-1.21,0,0-.65-17.65,2.57-19.96,3.22-2.32,10.63-5.66,20.47,4.92Z"/><path class="cls-23" d="m76.88,86.29s.14.04.47.18c.08-5.41.58-12.85,2.59-14.28,2.99-2.19,9.74-5.27,18.75,3.16.82-2.33,1.23-4.09,1.23-4.09-9.86-10.61-17.28-7.27-20.47-4.95-3.22,2.32-2.57,19.99-2.57,19.99Z"/><path class="cls-28" d="m80.6,78.64c0,3.42,2.77,6.19,6.19,6.19s6.19-2.77,6.19-6.19-2.77-6.19-6.19-6.19-6.19,2.77-6.19,6.19Z"/><path class="cls-10" d="m87.08,82.76c1.79-.15,3.16-1.95,3-3.93-.16-1.98-1.81-3.53-3.6-3.38-1.79.15-3.16,1.95-3,3.93.16,1.98,1.81,3.54,3.6,3.39Z"/><path class="cls-25" d="m86.92,82.04c1.24-.11,2.53-1.47,2.4-3.15-.14-1.69-1.63-2.82-2.88-2.72-1.24.11-2.53,1.48-2.39,3.16.14,1.68,1.63,2.82,2.87,2.72Z"/><path class="cls-7" d="m87.93,77.9c.05.61.68,1.05,1.39.99.72-.06,1.26-.6,1.21-1.21-.05-.61-.67-1.05-1.39-1-.72.06-1.26.6-1.21,1.21Z"/><path class="cls-7" d="m83.92,81.41c.03.3.34.53.69.5.36-.03.63-.3.61-.6-.03-.3-.34-.53-.69-.5-.36.03-.63.3-.61.6Z"/><path d="m57.5,71.57c-.05-.07-1.19-1.81-3.52-3.6-1.46-1.12-2.89-1.97-4.38-2.61-1.81-.76-3.75-1.3-5.63-1.55-1.7-.19-3.59-.14-5.8.16-1.68.32-3.32.82-4.71,1.43-.99.34-1.78.82-2.41,1.21-.24.15-.46.28-.68.4l-3,1.89,3.46-.81c.16-.04.34-.09.52-.14.72-.19,1.61-.43,2.65-.58.24-.04.49-.08.75-.14.44-.09.89-.18,1.36-.2.52-.03,1.07-.07,1.63-.11l.73-.05c1.92-.02,3.54.12,4.97.45,1.57.27,3.19.78,4.67,1.46,1.4.67,2.74,1.33,3.79,2.1,2.11,1.41,3.29,2.59,3.3,2.6h0c.29.29.68.44,1.07.44.28,0,.57-.08.82-.24.7-.46.89-1.4.45-2.07l-.03-.05Z"/><path d="m100.55,67c-.2-.11-.42-.24-.66-.39-.63-.39-1.41-.87-2.38-1.2-1.42-.63-3.06-1.13-4.76-1.45-2.18-.29-4.07-.34-5.78-.15-1.87.26-3.82.79-5.63,1.55-1.46.63-2.94,1.5-4.38,2.61-2.29,1.76-3.43,3.46-3.52,3.59l-.02.03c-.39.6-.3,1.39.2,1.89.28.29.66.44,1.07.44h0c.4,0,.78-.16,1.06-.44h.01c.11-.12,1.25-1.24,3.3-2.61,1.03-.76,2.37-1.42,3.77-2.09,1.49-.69,3.1-1.2,4.7-1.47,1.42-.33,3.04-.47,4.93-.45l.76.05c.55.04,1.09.08,1.62.11.46.02.91.11,1.35.2.25.05.5.1.75.14,1.05.15,1.94.39,2.65.58.19.05.36.1.53.14l3.46.81-3.03-1.9Z"/><path class="cls-1" d="m61.21,123.4c-.22-.04-.43-.08-.6-.12.2.04.4.08.6.12Z"/><path class="cls-1" d="m60.38,123.23c-.14-.03-.28-.06-.37-.08.12.03.24.06.37.08Z"/><path class="cls-19" d="m60.61,123.28c-.08-.02-.15-.03-.23-.05.08.02.14.03.23.05Z"/><path class="cls-19" d="m60.01,123.15c-.07-.02-.14-.04-.21-.06h0s.08.02.21.06Z"/><path class="cls-1" d="m61.04,122.81c-.22-.04-.43-.08-.6-.12.21.04.4.08.6.12Z"/><path class="cls-1" d="m60.21,122.65c-.14-.03-.28-.06-.37-.08.12.03.24.06.37.08Z"/><path class="cls-19" d="m60.44,122.7c-.08-.02-.15-.03-.23-.05.08.02.14.03.23.05Z"/><path class="cls-19" d="m59.84,122.57c-.07-.02-.14-.04-.21-.06h0s.08.02.21.06Z"/><path class="cls-1" d="m61.56,122.73c-.22-.04-.41-.08-.58-.11.2.04.39.08.58.11Z"/><path class="cls-1" d="m60.75,122.57c-.13-.03-.27-.06-.35-.08.12.03.23.05.35.08Z"/><path class="cls-19" d="m60.97,122.62c-.07-.02-.15-.03-.22-.05.07.02.14.03.22.05Z"/><path class="cls-19" d="m60.39,122.49c-.07-.02-.13-.04-.2-.06h0s.08.02.21.06Z"/><path class="cls-6" d="m55.94,124.41c-.18-2.39,6.65.5,8.89.57,1.79.06,7.16-.35,7.66-.54,3.76-1.4-.21,3.99-7.77,4.27-3.47.14-8.68-2.85-8.78-4.3Z"/><path class="cls-13" d="m78.45,118.67c-4.33-.81-13.45.05-13.45.05-7.52,1.25-13.41-.08-13.45-.03-.18.02,6.01,8.22,13.35,7.85h0c7.34.38,13.73-7.85,13.56-7.87Z"/><path class="cls-24" d="m69.35,116.94c-1.95-.22-3.34,1.19-4.34,1.09-1.02.09-2.34-.81-4.3-.83-2.76-.03-4.11-.27-9.16,1.5.18.34,3.41,2.22,9.47,2.32.09,0,1.71.92,4.02.91,1.45,0,3.43-.97,3.51-.97,6.07-.09,9.77-1.9,9.94-2.23-6.67-2.07-6.14-1.8-9.14-1.78Z"/><path class="cls-27" d="m111.15,182.81h-6.97c-1.62,0-2.88,1.38-2.74,2.99.08.9.14,1.81.18,2.73.08,1.38.14,2.79.17,4.25.05,1.38.06,2.81.06,4.28,0,0-.28.14-.84.52H30.57c-.57-.38-.86-.52-.86-.52,0-1.47.02-2.9.06-4.28.03-1.46.09-2.87.17-4.25.05-.93.11-1.84.18-2.73.14-1.61-1.13-2.99-2.74-2.99h-7.06c.32-1.95.71-3.79,1.15-5.51h4.78c3.45,0,3.96-5.2.54-5.64-.21-.03-.42-.04-.64-.04h-2.96c.14-.35.26-.71.4-1.04.6-1.52,1.24-2.93,1.92-4.25,5.96-11.56,14.61-15.55,18.86-16.87,0,.15-.02.31-.02.46,0,3.88,2.76,7.38,7.18,9.81,1.27.72,2.69,1.34,4.21,1.84,1.49.51,3.09.91,4.76,1.18,1.64.29,3.36.46,5.14.51.32.02.64.02.98.02,1.37,0,2.7-.08,4.01-.21,1.43-.15,2.79-.4,4.11-.72,1.47-.34,2.89-.78,4.19-1.3,5.91-2.36,9.81-6.39,9.9-10.96,4.6,1.8,11.91,6.12,17.13,16.26.68,1.32,1.32,2.73,1.92,4.25.14.34.28.69.4,1.04h-2.87c-.22,0-.43.01-.64.04-3.42.44-2.91,5.64.54,5.64h4.71c.45,1.72.83,3.56,1.14,5.51Z"/><path class="cls-3" d="m49.6,150.42c0,1.57-1.27,2.84-2.84,2.84s-2.84-1.27-2.84-2.84,1.27-2.84,2.84-2.84,2.84,1.27,2.84,2.84Z"/><path class="cls-12" d="m52.35,155.36c0,1.57-1.27,2.84-2.84,2.84s-2.84-1.27-2.84-2.84,1.27-2.84,2.84-2.84,2.84,1.27,2.84,2.84Z"/><path class="cls-9" d="m55.78,159.89c0,1.57-1.27,2.84-2.84,2.84s-2.84-1.27-2.84-2.84,1.27-2.84,2.84-2.84,2.84,1.27,2.84,2.84Z"/><path class="cls-16" d="m60.09,163.56c0,1.57-1.27,2.84-2.84,2.84s-2.84-1.27-2.84-2.84,1.27-2.84,2.84-2.84,2.84,1.27,2.84,2.84Z"/><path class="cls-15" d="m65.39,165.67c0,1.57-1.27,2.84-2.84,2.84s-2.84-1.27-2.84-2.84,1.27-2.84,2.84-2.84,2.84,1.27,2.84,2.84Z"/><path class="cls-12" d="m68.22,161.76c1.57,0,2.84,1.27,2.84,2.84s-1.27,2.84-2.84,2.84-2.84-1.27-2.84-2.84,1.27-2.84,2.84-2.84Z"/><path class="cls-8" d="m73.16,159.01c1.57,0,2.84,1.27,2.84,2.84s-1.27,2.84-2.84,2.84-2.84-1.27-2.84-2.84,1.27-2.84,2.84-2.84Z"/><path class="cls-12" d="m77.7,155.58c1.57,0,2.84,1.27,2.84,2.84s-1.27,2.84-2.84,2.84-2.84-1.27-2.84-2.84,1.27-2.84,2.84-2.84Z"/><path class="cls-8" d="m81.37,151.27c1.57,0,2.84,1.27,2.84,2.84s-1.27,2.84-2.84,2.84-2.84-1.27-2.84-2.84,1.27-2.84,2.84-2.84Z"/><path class="cls-12" d="m83.48,145.97c1.57,0,2.84,1.27,2.84,2.84s-1.27,2.84-2.84,2.84-2.84-1.27-2.84-2.84,1.27-2.84,2.84-2.84Z"/><path class="cls-15" d="m110.15,92.21c.97,0-.07-5.2,3.17-8.79,3.24-3.58,8.17-15.66,8.17-27.71s-4.23-22.77-15.24-34.17c-11.02-11.4-27.22-16.93-27.22-16.93l7.45,6.83s-4.02-5.55-18.44-9.99c-11.38-3.5-18.76.4-18.76.4,0,0,7.5-.26,9.79,3.02.57.84,2.68,2.1,2.68,2.1,0,0-3.49-7.87-19.7-1.35-16.19,6.52-15.9,18.19-27.17,21.77-11.54,3.68-14.88-1.04-14.88-1.04,0,0,5.01,8.26,13.9,8.28,1.71,0,1.59-.04,1.59-.04,0,0-3.33,8.85-3.97,15.46-.65,6.74,1.38,11.35,2.01,23.96.54,10.78,3.47,5.25,6.95,13.2,1.18,2.66,1.23,5.66,1.23,5.66,1.29.31,4.68-6.47,2.25-18.25-1.58-7.65,6.25-36.64,25.14-30.99,11.55,3.46,14.47,10.5,23.11,4.25,7.45-5.39,17.86-8.49,25.64-4.23,7.78,4.27,12.16,13.86,10.8,29.16-1.73,19.54,1.51,19.39,1.51,19.39Z"/></svg>