<?xml version="1.0" encoding="UTF-8"?><svg id="Layer_1" xmlns="http://www.w3.org/2000/svg" xmlns:xlink="http://www.w3.org/1999/xlink" viewBox="0 0 131.06 209.13"><defs><style>.cls-1{fill:none;}.cls-2{clip-path:url(#clippath);}.cls-3{fill:#f1dab4;}.cls-4{fill:#e4c59e;}.cls-5{fill:#f3dab4;}.cls-6{fill:#fff;}.cls-7{fill:#7f401b;}.cls-8{fill:#c3977d;}.cls-9{fill:#c36b70;}.cls-10{fill:#b48d76;}.cls-11{fill:#b9556e;}.cls-12{fill:#c1967d;}.cls-13{fill:#e38700;}.cls-14{fill:#c49d80;}.cls-15{fill:#c5997d;}.cls-16{fill:#e1bd9d;}.cls-17{fill:#e0bc9b;}.cls-18{fill:#d7ad88;}.cls-19{fill:#dbbb9a;}.cls-20{fill:#d77a77;}.cls-21{fill:#231c08;}.cls-22{fill:#061e1c;}.cls-23{fill:#463216;}.cls-24{fill:#393b36;}.cls-25{fill:#4c2912;}.cls-26{fill:#601e2e;}</style><clipPath id="clippath"><rect class="cls-1" x="55.75" y="140.57" width="25.11" height="14.8"/></clipPath></defs><path class="cls-23" d="m54.29,41.5l-.2.2.03.07c.07-.1.1-.2.17-.27Z"/><path class="cls-4" d="m68.2,125.37v83.76H22.91c-.74-.31-1.11-.45-1.11-.45,0-7.67.8-14.12,2.15-19.56.52-2.15,1.14-4.14,1.81-5.97,1.58-4.31,3.52-7.81,5.6-10.65,5.53-7.52,12.05-10.44,15.58-11.53,1.6-.49,2.58-.61,2.58-.61.17,0,.32-.02.49-.05.78-.12,1.47-.55,2.1-1.23.52-.57.98-1.3,1.41-2.21.69-1.47,1.27-3.35,1.73-5.51.2-.84.34-1.7.49-2.62.21-1.55.43-3.16.63-4.87.06-1.03.17-2.03.29-3.1.4-5.13.51-10.73.51-16.04,0,0,6.09.63,11.02.63Z"/><path class="cls-3" d="m114.81,208.69s-.4.14-1.07.45h-45.53v-83.76h.12c4.9,0,11.05-.63,11.05-.63,0,5.28.11,10.81.52,15.93.11,1,.21,2.03.29,3.02.18,1.77.41,3.44.66,4.99v.03c.08.71.21,1.32.34,2,.44,2.18.98,4.08,1.64,5.62.44,1.04.94,1.92,1.52,2.58.44.55.94.97,1.49,1.2.38.18.78.26,1.21.26,0,0,1.73.21,4.36,1.24,5.33,2.09,14.29,7.57,19.43,21.55.68,1.83,1.29,3.82,1.81,5.97,1.35,5.43,2.15,11.88,2.15,19.56Z"/><g class="cls-2"><path class="cls-14" d="m80.86,148.52v.04c-1.14,1.76-4.98,6.82-12.57,6.82h-.07c-7.19-.04-11.39-5.24-12.46-6.78.22-1.54.44-3.15.63-4.84.07-.99.18-2.02.3-3.08,3.5.88,7.34,1.43,11.39,1.5h.15c4.2-.07,8.07-.66,11.69-1.61.11.99.22,2.02.29,3,.18,1.76.41,3.41.66,4.95"/></g><path class="cls-18" d="m67.7,29.91c-48,0-48.26,40.12-46.12,66.39-3.28-6.23-13.05-4.32-12.24,5.5.77,9.45,14.73,14.27,14.34,13.23,7.27,19.43,26.51,34.08,44.02,34.08h.37V29.91h-.37"/><path class="cls-10" d="m12.4,97.66c2.36-3.81,6.05-2.16,6.93-1.32.96.92,1.73,2.09,1.14,4.32-.33,1.28-1.66,1.39-1.36,3.3.37,2.16,1.36,2.27,1.95,2.78.55.48,1.25.84,1.59,1.76.37.92.41,1.87.22,2.71-.37,1.54-2.62.29-4.13-.37-1-.48-4.17-3.15-4.98-4.03-1.99-2.27-2.95-6.67-1.36-9.16"/><path class="cls-16" d="m67.95,29.91c48,0,48.26,40.12,46.15,66.39,3.28-6.23,13.01-4.32,12.2,5.5-.74,9.45-14.72,14.27-14.34,13.23-7.08,19.43-26.51,34.08-44.02,34.08h-.26l-.11-119.19h.37"/><path class="cls-10" d="m123.25,97.66c-2.36-3.81-6.01-2.16-6.93-1.32-.96.92-1.7,2.09-1.14,4.32.33,1.28,1.66,1.39,1.36,3.3-.37,2.16-1.36,2.27-1.92,2.78-.55.48-1.29.84-1.62,1.76-.33.92-.41,1.87-.22,2.71.37,1.54,2.62.29,4.13-.37,1.03-.48,4.17-3.15,4.98-4.03,2.03-2.27,2.95-6.67,1.36-9.16"/><path class="cls-4" d="m67.32,41.23c-15.78,0-27.35,4.58-34.32,13.59-9.77,12.64-9.4,31.91-5.82,45.76,1.11,4.25,1.7,15.65,2.43,19.82,3.43,18.72,24.11,28.69,37.71,28.69h.37V41.23h-.22"/><path class="cls-3" d="m101.6,54.87c-6.93-8.98-18.36-13.56-33.92-13.63v107.87c15.56-.18,34.17-11.1,37.34-28.69.77-4.18,1.33-15.57,2.43-19.82,3.61-13.81,3.98-33.05-5.86-45.73"/><path class="cls-1" d="m65.76,130.1c-.22-.04-.42-.08-.59-.11.2.04.4.08.59.11Z"/><path class="cls-1" d="m64.94,129.94c-.14-.03-.27-.06-.36-.08.12.03.24.05.36.08Z"/><path class="cls-8" d="m65.17,129.98c-.08-.02-.15-.03-.23-.05.07.02.14.03.23.05Z"/><path class="cls-8" d="m64.58,129.85c-.07-.02-.13-.04-.2-.06h0s.08.02.21.06Z"/><path class="cls-1" d="m24.66,74.86c-.43,1.43-.73,2.99-.93,4.66,0,0,.63-2.63,2.03-6.52-.6.83-1,1.5-1.1,1.86Z"/><path class="cls-1" d="m65.91,127.91c-.22-.04-.43-.08-.61-.12.21.04.41.09.61.12Z"/><path class="cls-1" d="m65.07,127.75c-.14-.03-.28-.06-.37-.08.12.03.24.06.37.08Z"/><path class="cls-12" d="m65.3,127.8c-.08-.02-.15-.03-.23-.05.08.02.14.03.23.05Z"/><path class="cls-12" d="m64.7,127.66c-.07-.02-.14-.04-.21-.06h0s.08.02.21.06Z"/><path class="cls-17" d="m59.43,114.09c-.19-3.83,7.03-1.4,9.41-1.28,1.88.1,7.6-1.21,8.09-.87,3.37,2.27-3.57,6.84-8.21,6.84-1.24,0-9.18-2.38-9.29-4.69Z"/><path class="cls-1" d="m66.01,129.68c-.22-.04-.43-.08-.61-.12.21.04.41.08.61.12Z"/><path class="cls-1" d="m65.17,129.52c-.14-.03-.28-.06-.37-.08.12.03.24.06.37.08Z"/><path class="cls-12" d="m65.4,129.57c-.08-.02-.15-.03-.23-.05.08.02.14.03.23.05Z"/><path class="cls-12" d="m64.8,129.43c-.07-.02-.14-.04-.21-.06h0s.08.02.21.06Z"/><path class="cls-1" d="m65.77,129.27c-.24-.04-.46-.08-.65-.12.22.05.44.09.65.12Z"/><path class="cls-1" d="m64.87,129.09c-.15-.03-.3-.07-.4-.09.13.03.26.06.4.09Z"/><path class="cls-8" d="m65.12,129.14c-.08-.02-.17-.03-.25-.05.08.02.15.03.25.05Z"/><path class="cls-8" d="m64.47,129c-.08-.02-.15-.04-.22-.06h0s.09.03.23.06Z"/><path class="cls-1" d="m65.58,128.64c-.24-.04-.46-.08-.65-.12.22.05.44.09.65.12Z"/><path class="cls-1" d="m64.68,128.46c-.15-.03-.3-.07-.4-.09.13.03.26.06.4.09Z"/><path class="cls-8" d="m64.93,128.51c-.08-.02-.17-.03-.25-.05.08.02.15.03.25.05Z"/><path class="cls-8" d="m64.29,128.37c-.08-.02-.15-.04-.22-.06h0s.09.03.23.06Z"/><path class="cls-1" d="m66.14,128.55c-.23-.04-.44-.08-.63-.12.21.05.42.09.63.12Z"/><path class="cls-1" d="m65.27,128.38c-.14-.03-.29-.06-.38-.09.13.03.25.06.38.09Z"/><path class="cls-8" d="m65.51,128.43c-.08-.02-.16-.03-.24-.05.08.02.15.03.24.05Z"/><path class="cls-8" d="m64.88,128.29c-.07-.02-.14-.04-.21-.06h0s.08.03.22.06Z"/><path class="cls-1" d="m63.78,134.93c-.22-.04-.43-.08-.6-.12.2.04.4.08.6.12Z"/><path class="cls-1" d="m62.95,134.76c-.14-.03-.28-.06-.37-.08.12.03.24.06.37.08Z"/><path class="cls-15" d="m63.18,134.81c-.08-.02-.15-.03-.23-.05.08.02.14.03.23.05Z"/><path class="cls-15" d="m62.58,134.68c-.07-.02-.14-.04-.21-.06h0s.08.02.21.06Z"/><path class="cls-1" d="m63.61,134.34c-.22-.04-.43-.08-.6-.12.2.04.4.08.6.12Z"/><path class="cls-1" d="m62.78,134.18c-.14-.03-.28-.06-.37-.08.12.03.24.06.37.08Z"/><path class="cls-15" d="m63.01,134.23c-.08-.02-.15-.03-.23-.05.08.02.14.03.23.05Z"/><path class="cls-15" d="m62.41,134.09c-.07-.02-.14-.04-.21-.06h0s.08.02.21.06Z"/><path class="cls-1" d="m64.12,134.26c-.22-.04-.41-.08-.58-.11.2.04.39.08.58.11Z"/><path class="cls-1" d="m63.32,134.1c-.13-.03-.27-.06-.35-.08.12.03.23.05.35.08Z"/><path class="cls-15" d="m63.54,134.15c-.07-.02-.15-.03-.22-.05.07.02.14.03.22.05Z"/><path class="cls-15" d="m62.96,134.02c-.07-.02-.13-.04-.2-.06h0s.08.02.21.06Z"/><path class="cls-5" d="m58.51,135.94c-.18-2.39,6.65.5,8.89.57,1.79.06,7.16-.35,7.66-.54,3.76-1.4-.21,3.99-7.77,4.27-3.47.14-8.68-2.85-8.78-4.3Z"/><path class="cls-9" d="m81.02,130.2c-4.33-.81-13.45.05-13.45.05-7.52,1.25-13.41-.08-13.45-.03-.18.02,6.01,8.22,13.35,7.85h0c7.34.38,13.73-7.85,13.56-7.87Z"/><path class="cls-20" d="m71.92,128.47c-1.95-.22-3.34,1.19-4.34,1.09-1.02.09-2.34-.81-4.3-.83-2.76-.03-4.11-.27-9.16,1.5.18.34,3.41,2.22,9.47,2.32.09,0,1.71.92,4.02.91,1.45,0,3.43-.97,3.51-.97,6.07-.09,9.77-1.9,9.94-2.23-6.67-2.07-6.14-1.8-9.14-1.78Z"/><path class="cls-6" d="m33.25,83.04s3.66,15.07,9.95,16.3c6.29,1.23,13.09-1.22,13.09-1.22,0,0,.65-17.71-2.57-20.02-3.22-2.32-10.63-5.68-20.47,4.94Z"/><path class="cls-19" d="m56.3,98.08s-.14.04-.47.18c-.08-5.43-.58-12.89-2.59-14.32-2.99-2.2-9.74-5.28-18.75,3.17-.82-2.33-1.23-4.1-1.23-4.1,9.86-10.64,17.28-7.29,20.47-4.96,3.22,2.32,2.57,20.05,2.57,20.05Z"/><ellipse class="cls-25" cx="46.39" cy="90.41" rx="6.19" ry="6.21"/><path class="cls-7" d="m46.1,94.54c-1.79-.15-3.16-1.96-3-3.95.16-1.99,1.81-3.54,3.6-3.39,1.79.15,3.16,1.95,3,3.94-.16,1.99-1.81,3.55-3.6,3.4Z"/><path class="cls-21" d="m46.26,93.82c-1.24-.11-2.53-1.47-2.4-3.16.14-1.69,1.63-2.83,2.88-2.73,1.24.11,2.53,1.48,2.39,3.17-.14,1.69-1.63,2.83-2.87,2.72Z"/><path class="cls-6" d="m45.25,86.59c-.05.61-.68,1.05-1.39,1-.72-.06-1.26-.61-1.21-1.21.05-.61.67-1.06,1.39-1,.72.06,1.26.6,1.21,1.21Z"/><path class="cls-6" d="m49.26,93.19c-.03.3-.34.53-.69.5-.36-.03-.63-.3-.61-.61.03-.3.34-.53.69-.5.36.03.63.3.61.61Z"/><path class="cls-6" d="m102.5,82.53s-3.66,15.07-9.95,16.3c-6.29,1.23-13.09-1.22-13.09-1.22,0,0-.65-17.71,2.57-20.02,3.22-2.32,10.63-5.68,20.47,4.94Z"/><path class="cls-19" d="m79.45,97.57s.14.04.47.18c.08-5.43.58-12.89,2.59-14.32,2.99-2.2,9.74-5.28,18.75,3.17.82-2.33,1.23-4.1,1.23-4.1-9.86-10.64-17.28-7.29-20.47-4.96-3.22,2.32-2.57,20.05-2.57,20.05Z"/><path class="cls-25" d="m83.17,89.89c0,3.43,2.77,6.21,6.19,6.21s6.19-2.78,6.19-6.21-2.77-6.21-6.19-6.21-6.19,2.78-6.19,6.21Z"/><path class="cls-7" d="m89.64,94.03c1.79-.15,3.16-1.96,3-3.95-.16-1.99-1.81-3.54-3.6-3.39-1.79.15-3.16,1.95-3,3.94.16,1.99,1.81,3.55,3.6,3.4Z"/><path class="cls-21" d="m89.49,93.31c1.24-.11,2.53-1.47,2.4-3.16-.14-1.69-1.63-2.83-2.88-2.73-1.24.11-2.53,1.48-2.39,3.17.14,1.69,1.63,2.83,2.87,2.72Z"/><path class="cls-6" d="m90.5,89.15c.05.61.68,1.05,1.39,1,.72-.06,1.26-.61,1.21-1.21-.05-.61-.67-1.06-1.39-1-.72.06-1.26.6-1.21,1.21Z"/><path class="cls-6" d="m86.49,92.68c.03.3.34.53.69.5.36-.03.63-.3.61-.61-.03-.3-.34-.53-.69-.5-.36.03-.63.3-.61.61Z"/><path d="m60.07,82.8c-.05-.07-1.19-1.81-3.52-3.61-1.46-1.12-2.89-1.98-4.38-2.62-1.81-.76-3.75-1.3-5.63-1.56-1.7-.19-3.59-.14-5.8.16-1.68.32-3.32.82-4.71,1.44-.99.34-1.78.82-2.41,1.21-.24.15-.46.28-.68.4l-3,1.89,3.46-.82c.16-.04.34-.09.52-.14.72-.19,1.61-.43,2.65-.58.24-.04.49-.09.75-.14.44-.09.89-.18,1.36-.2.52-.04,1.07-.07,1.63-.11l.73-.05c1.92-.02,3.54.12,4.97.45,1.57.27,3.19.78,4.67,1.47,1.4.67,2.74,1.34,3.79,2.11,2.11,1.42,3.29,2.6,3.3,2.61h0c.29.29.68.44,1.07.44.28,0,.57-.08.82-.24.7-.46.89-1.4.45-2.08l-.03-.05Z"/><path d="m103.11,78.22c-.2-.11-.42-.24-.66-.39-.63-.39-1.41-.87-2.38-1.2-1.42-.63-3.06-1.13-4.76-1.45-2.18-.29-4.07-.35-5.78-.15-1.87.26-3.82.8-5.63,1.56-1.46.63-2.94,1.51-4.38,2.62-2.29,1.76-3.43,3.47-3.51,3.6l-.02.03c-.39.6-.3,1.4.2,1.9.28.29.66.45,1.06.45h0c.4,0,.78-.16,1.06-.45h.01c.11-.12,1.25-1.24,3.3-2.62,1.03-.76,2.37-1.43,3.77-2.1,1.49-.69,3.1-1.2,4.7-1.48,1.42-.33,3.04-.47,4.93-.45l.76.05c.55.04,1.09.08,1.62.11.46.02.91.11,1.35.2.25.05.5.1.75.14,1.05.15,1.94.39,2.65.58.19.05.36.1.53.14l3.46.82-3.03-1.91Z"/><path class="cls-13" d="m131.06,28.54s-3.6,5.1-16.01,1.12c-1.82-.58-3.37-1.36-4.73-2.3-1.46-2.88-3.92-5.83-7.93-8.32-3.61-4.52-7.89-9.43-16.59-12.95-8.92-3.61-14.25-3.14-17.34-1.82,3.13-2.48,9.55-2.26,9.55-2.26,0,0-7.93-4.22-20.18-.43-8.61,2.66-13.76,5.69-16.65,7.86l4.83-4.45s-17.43,5.99-29.29,18.33C5.97,34.52,1.25,45.11.46,56.72c-.76,4.57-.46,8.67.12,12.85,0,0,3.37,9.37,1.4,28.8h0c-.73,7.86-1.98,14.38-1.98,18.29,0,22.91,15.11,41.89,12.78,64.96-1.54,15.21-7.72,27-7.72,27,0,0,7.08-10.41,9.98-20.17,2.89-9.76,1.93-27.33-2.9-41.33-3.4-9.86-3.44-21.01-2.16-31.07,4.96.42,9.93,11.19,9.93,11.19,1.14,3.17,2.32,6.16,3.2,9.06.83,2.95,1.59,5.73,1.97,8.38.23,1.33.35,2.61.43,3.83.14,1.24.18,2.4.17,3.52.09,2.2-.1,4.15-.16,5.77-.34,3.23-.53,5.08-.53,5.08,0,0,.18-.43.51-1.23.3-.83.87-2,1.37-3.59.43-1.59,1.12-3.51,1.45-5.82.45-2.29.76-4.94.69-7.85.07-4.04-.63-8.53-1.74-13.13-.4-1.64-.85-3.29-1.34-4.94-.12-.41-.24-.81-.36-1.22-.39-1.26-.76-2.52-1.13-3.79-4.19-18.1-1.92-32.56-.66-38.25,0,0,0,0,0-.01v-.02s.03-.12.07-.32c.02-.07.04-.16.06-.26.11-.45.28-1.14.52-1.99,0,0,0-.01,0-.02,1.63-5.8,6.32-18.66,14-9.39,2.04,2.16,7.15,7,13.23,8.43.82.29,1.63.56,2.43.79-5.91,8.7-6.73,17.27-6.73,17.27.27-.4.53-.76.79-1.15,12.55-18.34,24.63-20.98,32.09-20.28h0c.07,0,2,.09,4.76.52,3.4.53,8.04,1.58,11.93,3.64,2.44,1.29,4.58,2.97,5.94,5.16.78,1.25,1.3,2.67,1.47,4.28h0c.08,7.14,2.31,11.06,3.33,10.81,0,0,.05-3.24,1.32-6.13.66-1.51,1.3-2.57,1.91-3.36,1.22,1.65,2.2,3.31,2.35,5.18.29,3.5-.32,8.29-1.11,12.67-1.1,6.08-2.57,11.37-2.57,11.37l6.52-5.29c1.18-4.26,2.33-9.52,3.33-14.97,1.13-2.27,2-4.63,2.52-6.78.22-.9.37-1.76.46-2.55.05-.53.09-1.04.09-1.5,0-2.11-.19-4.14-.55-6.13.43-3.94.69-7.45.69-10.09,0-9.39-1.71-22.32-5.38-28.14-.34-.54-.65-1.02-.95-1.47-1.01-3.39-1.94-5.89-1.94-5.91.01,0,.16.04,1.71.04,9.56-.02,14.95-8.96,14.95-8.96Z"/><path class="cls-11" d="m89.14,160.31c.03.08-.53-.11-1.04-.41,0,0-9.4,24.29-17.74,28.75-.84.45-1.68.7-2.49.7-.81,0-1.64-.25-2.48-.7-8.28-4.45-17.6-28.57-17.6-28.57-.16.16-.26.25-.25.23-1.77.4-5.32,1.46-9.29,4.06,2.03,5.87,5.91,15.93,11.2,24.29,8.84,13.98,21.62,23.2,36.2,0,3.77-6.01,7.67-14.18,11.65-25-3.5-2.08-6.54-2.98-8.15-3.34Z"/><path class="cls-1" d="m86.2,187.72h-37.34c.19.31.38.63.58.94,1.55,2.46,3.23,4.76,5.02,6.77h26.2c1.64-1.86,3.3-4.09,4.98-6.77.19-.3.38-.63.57-.94Z"/><path class="cls-26" d="m38.24,164.37c-4.36,2.85-9.24,7.56-12.89,15.3h19.15c-2.8-5.79-4.93-11.45-6.26-15.3Z"/><path class="cls-26" d="m85.64,188.66c-1.69,2.68-3.35,4.91-4.98,6.77h35.29c-.25-1.65-.54-3.22-.88-4.72-.16-.71-.34-1.38-.51-2.05-.08-.32-.18-.62-.27-.94h-28.08c-.19.31-.38.64-.57.94Z"/><path class="cls-26" d="m97.29,163.65c-2.27,6.18-4.52,11.47-6.73,16.01h20.76c-3.97-8.42-9.4-13.26-14.03-16.01Z"/><path class="cls-26" d="m49.44,188.66c-.2-.31-.38-.62-.58-.94h-26.47c-.09.31-.18.61-.27.94-.18.67-.35,1.35-.51,2.05-.34,1.5-.63,3.08-.88,4.72h33.72c-1.78-2.01-3.46-4.32-5.02-6.77Z"/><path class="cls-26" d="m19.78,208.64s.4.17,1.15.48h94.84c.74-.31,1.14-.48,1.14-.48,0-1.78-.05-3.5-.14-5.15H19.91c-.09,1.65-.14,3.37-.14,5.15Z"/><path class="cls-22" d="m44.5,179.67h-19.15c-1.12,2.38-2.12,5.06-2.96,8.05h26.47c-1.59-2.6-3.05-5.34-4.36-8.05Z"/><path class="cls-22" d="m114.28,187.72c-.84-2.99-1.84-5.67-2.96-8.05h-20.76c-1.47,3.02-2.92,5.69-4.36,8.05h28.08Z"/><path class="cls-22" d="m80.65,195.43c-10.02,11.39-19,8.12-26.2,0H20.73c-.39,2.51-.67,5.18-.82,8.05h96.86c-.15-2.87-.44-5.55-.82-8.05h-35.29Z"/><path class="cls-24" d="m117.73,116.94c0,2.79-2.26,5.05-5.05,5.05s-5.05-2.26-5.05-5.05,2.26-5.05,5.05-5.05,5.05,2.26,5.05,5.05Z"/><rect class="cls-11" x="29.52" y="182.67" width="24.94" height="2.05"/><rect class="cls-11" x="83.82" y="182.67" width="24.94" height="2.05"/><rect class="cls-11" x="25.35" y="198.43" width="85.97" height="2.05"/></svg>