<?xml version="1.0" encoding="UTF-8"?><svg id="Layer_1" xmlns="http://www.w3.org/2000/svg" xmlns:xlink="http://www.w3.org/1999/xlink" viewBox="0 0 152.18 202.75"><defs><style>.cls-1{fill:none;}.cls-2{clip-path:url(#clippath);}.cls-3{fill:#f1dab4;}.cls-4{fill:#e4c59e;}.cls-5{fill:#f3dab4;}.cls-6{fill:#fff;}.cls-7{fill:#7f401b;}.cls-8{fill:#c3977d;}.cls-9{fill:#c36b70;}.cls-10{fill:#b48d76;}.cls-11{fill:#c1967d;}.cls-12{fill:#c49d80;}.cls-13{fill:#c5997d;}.cls-14{fill:#e1bd9d;}.cls-15{fill:#e0bc9b;}.cls-16{fill:#d7ad88;}.cls-17{fill:#dbbb9a;}.cls-18{fill:#d77a77;}.cls-19{fill:#231c08;}.cls-20{fill:#463216;}.cls-21{fill:#393b36;}.cls-22{fill:#4c2912;}.cls-23{fill:#4a2040;}.cls-24{fill:#ce210f;}.cls-24,.cls-25{fill-rule:evenodd;}.cls-25{fill:#801228;}</style><clipPath id="clippath"><rect class="cls-1" x="62.24" y="134.19" width="25.11" height="14.8"/></clipPath></defs><path class="cls-21" d="m20.68,86.53c.99-10.69,3.6-19.21,3.6-19.21,0,0,.08.08.22.23,3.14-10.45,8.36-16.1,8.36-16.1h0c2.54-3.53,6.14-7.24,10.55-10.9,9.03-7.49,14.71-5.95,22.18-5.73,0,0,.02.05.06.12,3.28-.65,20.94-3.89,31.44-.31,11.61,3.97,21.11,10.79,27.82,29.08,1.03,2.81,1.77,5.55,2.28,8.19,1.52,3.06,2.21,6.06,2.49,8.52l.18-.02s5.85,28.78,22.32,34.53c0,0-12.51,2.85-22.42-11.92-.23,2.93-.64,5.89-1.28,8.77.55,3.8,1.21,6.93,1.21,8.96,0,14.31-11.63,26.17-9.84,40.58,1.19,9.5,5.95,16.87,5.95,16.87,0,0-5.45-6.51-7.68-12.6-2.23-6.1-1.48-17.08,2.23-25.82,1.91-4.48,2.44-9.39,2.21-14.15-.32.43-.64.85-.98,1.26,0,0,.41-1.21.86-3.11-.21-2.36-.59-4.67-1.07-6.84-.08-.38-.17-.76-.26-1.13-.11-.44-.22-.84-.33-1.26-1.03,1.97-2.17,3.82-3.38,5.55-.08.23-.15.48-.23.7-.77,2.3-1.83,4.43-2.75,6.45-.9,2.03-1.82,3.93-2.52,5.78-.64,1.84-1.22,3.58-1.51,5.24-.18.83-.27,1.63-.33,2.39-.11.77-.14,1.5-.13,2.19-.07,1.38.08,2.59.12,3.61.26,2.01.41,3.18.41,3.18,0,0-.13-.27-.39-.77-.23-.52-.67-1.25-1.06-2.24-.33-1-.86-2.2-1.11-3.64-.35-1.43-.58-3.09-.54-4.91-.05-2.42.45-5.1,1.25-7.85-4.27,4.02-7.67,6.23-7.67,6.23,0,0,4.99-5.4,7.22-10.8,1.73-4.19,4.32-11.37,4.32-21.95,0-.49-.03-.98-.08-1.48-.15-.57-.28-1.15-.46-1.72-1.17-3.83-2.64-7.4-3.91-10.56-3.16-5.64-6.84-9.91-6.84-9.91,0,0,5.21,8.22,6.23,17.25,1.04,9.03-4.42,16.02-4.42,16.02,0,0,1.09-10.73-2.73-19.27-1.92-4.29-5.07-8.03-10.23-9.58,0,0,0,.01,0,.02,2.77,6.92-2.79,12.74-2.79,12.74,0,0-.02-1.74-.57-4.41-1.43-6.93-6.41-20.18-23.85-26.07l-.54.72-12.28,16.39c-.6.75-1.58,2-2.72,3.63-3.33,4.74-7.93,12.52-7.93,19.28,0,10.58,2.59,17.76,4.32,21.95,2.23,5.39,7.22,10.8,7.22,10.8,0,0-2.72-1.77-6.35-5.01.19,1.23.3,2.44.28,3.58.05,1.82-.19,3.47-.54,4.91-.25,1.44-.78,2.64-1.11,3.64-.39.99-.82,1.72-1.06,2.24-.26.5-.39.77-.39.77,0,0,.15-1.16.41-3.18.04-1.01.19-2.23.12-3.61,0-.69-.02-1.42-.13-2.19-.07-.76-.16-1.57-.33-2.39-.29-1.65-.87-3.4-1.51-5.24-.63-1.67-1.45-3.4-2.27-5.22-2.6-3.06-5.16-6.65-7.23-10.71-1.54,7.05-2.04,15.43,1.04,22.69,3.71,8.74,4.46,19.72,2.23,25.82-2.23,6.1-7.68,12.6-7.68,12.6,0,0,4.76-7.36,5.95-16.87,1.79-14.41-9.84-26.27-9.84-40.58,0-1.82.54-4.55,1.04-7.85-1.08-2.56-1.85-5.31-2.36-8.14C11.5,117.54,0,114.93,0,114.93c11.64-4.06,17.97-19.61,20.68-28.39Z"/><path class="cls-4" d="m28.29,202.31c0-10.69,1.57-19.03,3.96-25.53,5.77-15.69,16.32-20.67,21.18-22.17,1.59-.49,2.58-.61,2.58-.61.17,0,.33-.02.5-.04,1.43-.23,2.59-1.47,3.51-3.45.69-1.47,1.27-3.34,1.74-5.51.19-.85.33-1.7.48-2.62.22-1.55.44-3.17.63-4.87.07-1.03.18-2.03.29-3.1.4-5.12.52-10.73.52-16.05,0,0,6.08.63,11.02.63v83.76"/><path class="cls-3" d="m74.7,202.75v-83.76h.11c4.9,0,11.06-.63,11.06-.63,0,5.27.11,10.81.51,15.93.11,1,.22,2.03.29,3.02.19,1.77.41,3.43.67,4.98v.03c.07.7.22,1.33.33,1.99.45,2.18.99,4.1,1.64,5.63.81,1.91,1.8,3.25,3.01,3.77.38.17.79.26,1.21.26,0,0,1.74.21,4.36,1.24,5.33,2.09,14.29,7.57,19.44,21.55,2.39,6.5,3.96,14.84,3.96,25.53"/><g class="cls-2"><path class="cls-12" d="m87.34,142.15v.04c-1.14,1.76-4.98,6.82-12.57,6.82h-.07c-7.19-.04-11.39-5.24-12.46-6.78.22-1.54.44-3.15.63-4.84.07-.99.18-2.02.3-3.08,3.5.88,7.34,1.43,11.39,1.5h.15c4.2-.07,8.07-.66,11.69-1.61.11.99.22,2.02.3,3,.18,1.76.41,3.41.66,4.95"/></g><path class="cls-16" d="m74.18,23.54c-48,0-48.26,40.12-46.12,66.39-3.28-6.23-13.05-4.32-12.24,5.5.77,9.45,14.73,14.27,14.34,13.23,7.27,19.43,26.51,34.08,44.02,34.08h.37V23.54h-.37"/><path class="cls-10" d="m18.89,91.29c2.36-3.81,6.05-2.16,6.93-1.32.96.92,1.73,2.09,1.14,4.32-.33,1.28-1.66,1.39-1.36,3.3.37,2.16,1.36,2.27,1.95,2.78.55.48,1.25.84,1.59,1.76.37.92.41,1.87.22,2.71-.37,1.54-2.62.29-4.13-.37-1-.48-4.17-3.15-4.98-4.03-1.99-2.27-2.95-6.67-1.36-9.16"/><path class="cls-14" d="m74.44,23.54c48,0,48.26,40.12,46.15,66.39,3.28-6.23,13.01-4.32,12.2,5.5-.74,9.45-14.72,14.27-14.34,13.23-7.08,19.43-26.51,34.08-44.02,34.08h-.26l-.11-119.19h.37"/><path class="cls-10" d="m129.74,91.29c-2.36-3.81-6.01-2.16-6.93-1.32-.96.92-1.7,2.09-1.14,4.32.33,1.28,1.66,1.39,1.36,3.3-.37,2.16-1.36,2.27-1.92,2.78-.55.48-1.29.84-1.62,1.76-.33.92-.41,1.87-.22,2.71.37,1.54,2.62.29,4.13-.37,1.03-.48,4.17-3.15,4.98-4.03,2.03-2.27,2.95-6.67,1.36-9.16"/><path class="cls-4" d="m73.81,34.86c-15.78,0-27.35,4.58-34.32,13.59-9.77,12.64-9.4,31.91-5.82,45.76,1.11,4.25,1.7,15.65,2.43,19.82,3.43,18.72,24.11,28.69,37.71,28.69h.37V34.86h-.22"/><path class="cls-3" d="m108.09,48.49c-6.93-8.98-18.36-13.56-33.92-13.63v107.87c15.56-.18,34.17-11.1,37.34-28.69.77-4.18,1.33-15.57,2.43-19.82,3.61-13.81,3.98-33.05-5.86-45.73"/><path class="cls-1" d="m72.25,123.72c-.22-.04-.42-.08-.59-.11.2.04.4.08.59.11Z"/><path class="cls-1" d="m71.43,123.56c-.14-.03-.27-.06-.36-.08.12.03.24.05.36.08Z"/><path class="cls-8" d="m71.66,123.61c-.08-.02-.15-.03-.23-.05.07.02.14.03.23.05Z"/><path class="cls-8" d="m71.07,123.48c-.07-.02-.13-.04-.2-.06h0s.08.02.21.06Z"/><path class="cls-1" d="m31.14,68.48c-.43,1.43-.73,2.99-.93,4.66,0,0,.63-2.63,2.03-6.52-.6.83-1,1.5-1.1,1.86Z"/><path class="cls-20" d="m60.77,35.13l-.2.2.03.07c.07-.1.1-.2.17-.27Z"/><path class="cls-1" d="m72.4,121.54c-.22-.04-.43-.08-.61-.12.21.04.41.08.61.12Z"/><path class="cls-1" d="m71.56,121.37c-.14-.03-.28-.06-.37-.08.12.03.24.06.37.08Z"/><path class="cls-11" d="m71.79,121.42c-.08-.02-.15-.03-.23-.05.08.02.14.03.23.05Z"/><path class="cls-11" d="m71.19,121.29c-.07-.02-.14-.04-.21-.06h0s.08.02.21.06Z"/><path class="cls-15" d="m64.88,109.73c-.19-3.83,7.03-1.4,9.41-1.28,1.88.1,7.6-1.21,8.09-.87,3.37,2.27-3.57,6.84-8.21,6.84-1.24,0-9.18-2.38-9.29-4.69Z"/><path class="cls-6" d="m39.74,76.96s3.66,15.02,9.95,16.25c6.29,1.23,13.09-1.21,13.09-1.21,0,0,.65-17.65-2.57-19.96-3.22-2.32-10.63-5.66-20.47,4.92Z"/><path class="cls-17" d="m62.79,91.95s-.14.04-.47.18c-.08-5.42-.58-12.85-2.59-14.28-2.99-2.19-9.74-5.27-18.75,3.16-.82-2.33-1.23-4.09-1.23-4.09,9.86-10.61,17.28-7.27,20.47-4.95,3.22,2.32,2.57,19.99,2.57,19.99Z"/><circle class="cls-22" cx="52.88" cy="84.3" r="6.19"/><path class="cls-7" d="m52.59,88.42c-1.79-.15-3.16-1.95-3-3.93.16-1.98,1.81-3.53,3.6-3.38,1.79.15,3.16,1.95,3,3.93-.16,1.98-1.81,3.54-3.6,3.39Z"/><path class="cls-19" d="m52.75,87.71c-1.24-.11-2.53-1.47-2.4-3.15.14-1.69,1.63-2.82,2.88-2.72,1.24.11,2.53,1.48,2.39,3.16-.14,1.68-1.63,2.82-2.87,2.72Z"/><path class="cls-6" d="m51.74,83.56c-.05.61-.68,1.05-1.39.99-.72-.06-1.26-.6-1.21-1.21.05-.61.67-1.05,1.39-1,.72.06,1.26.6,1.21,1.21Z"/><path class="cls-6" d="m55.75,87.08c-.03.3-.34.53-.69.5-.36-.03-.63-.3-.61-.6.03-.3.34-.53.69-.5.36.03.63.3.61.6Z"/><path class="cls-1" d="m72.5,123.31c-.22-.04-.43-.08-.61-.12.21.04.41.08.61.12Z"/><path class="cls-1" d="m71.65,123.14c-.14-.03-.28-.06-.37-.08.12.03.24.06.37.08Z"/><path class="cls-11" d="m71.89,123.19c-.08-.02-.15-.03-.23-.05.08.02.14.03.23.05Z"/><path class="cls-11" d="m71.29,123.06c-.07-.02-.14-.04-.21-.06h0s.08.02.21.06Z"/><path class="cls-1" d="m72.26,122.89c-.24-.04-.46-.08-.65-.12.22.05.44.09.65.12Z"/><path class="cls-1" d="m71.36,122.72c-.15-.03-.3-.07-.4-.09.13.03.26.06.4.09Z"/><path class="cls-8" d="m71.61,122.77c-.08-.02-.17-.03-.25-.05.08.02.15.03.25.05Z"/><path class="cls-8" d="m70.96,122.62c-.08-.02-.15-.04-.22-.06h0s.09.03.23.06Z"/><path class="cls-1" d="m72.07,122.26c-.24-.04-.46-.08-.65-.12.22.05.44.09.65.12Z"/><path class="cls-1" d="m71.17,122.09c-.15-.03-.3-.07-.4-.09.13.03.26.06.4.09Z"/><path class="cls-8" d="m71.42,122.14c-.08-.02-.17-.03-.25-.05.08.02.15.03.25.05Z"/><path class="cls-8" d="m70.78,122c-.08-.02-.15-.04-.22-.06h0s.09.03.23.06Z"/><path class="cls-1" d="m72.63,122.17c-.23-.04-.44-.08-.63-.12.21.05.42.09.63.12Z"/><path class="cls-1" d="m71.75,122c-.14-.03-.29-.06-.38-.09.13.03.25.06.38.09Z"/><path class="cls-8" d="m71.99,122.05c-.08-.02-.16-.03-.24-.05.08.02.15.03.24.05Z"/><path class="cls-8" d="m71.37,121.92c-.07-.02-.14-.04-.21-.06h0s.08.03.22.06Z"/><path class="cls-6" d="m108.98,76.45s-3.66,15.02-9.95,16.25c-6.29,1.23-13.09-1.21-13.09-1.21,0,0-.65-17.65,2.57-19.96,3.22-2.32,10.63-5.66,20.47,4.92Z"/><path class="cls-17" d="m85.94,91.44s.14.04.47.18c.08-5.41.58-12.85,2.59-14.28,2.99-2.19,9.74-5.27,18.75,3.16.82-2.33,1.23-4.09,1.23-4.09-9.86-10.61-17.28-7.27-20.47-4.95-3.22,2.32-2.57,19.99-2.57,19.99Z"/><path class="cls-22" d="m89.66,83.79c0,3.42,2.77,6.19,6.19,6.19s6.19-2.77,6.19-6.19-2.77-6.19-6.19-6.19-6.19,2.77-6.19,6.19Z"/><path class="cls-7" d="m96.13,87.91c1.79-.15,3.16-1.95,3-3.93-.16-1.98-1.81-3.53-3.6-3.38-1.79.15-3.16,1.95-3,3.93.16,1.98,1.81,3.54,3.6,3.39Z"/><path class="cls-19" d="m95.98,87.2c1.24-.11,2.53-1.47,2.4-3.15-.14-1.69-1.63-2.82-2.88-2.72-1.24.11-2.53,1.48-2.39,3.16.14,1.68,1.63,2.82,2.87,2.72Z"/><path class="cls-6" d="m96.99,83.05c.05.61.68,1.05,1.39.99.72-.06,1.26-.6,1.21-1.21-.05-.61-.67-1.05-1.39-1-.72.06-1.26.6-1.21,1.21Z"/><path class="cls-6" d="m92.97,86.57c.03.3.34.53.69.5.36-.03.63-.3.61-.6-.03-.3-.34-.53-.69-.5-.36.03-.63.3-.61.6Z"/><path d="m66.56,76.72c-.05-.07-1.19-1.81-3.52-3.6-1.46-1.12-2.89-1.97-4.38-2.61-1.81-.76-3.75-1.3-5.63-1.55-1.7-.19-3.59-.14-5.8.16-1.68.32-3.32.82-4.71,1.43-.99.34-1.78.82-2.41,1.21-.24.15-.46.28-.68.4l-3,1.89,3.46-.81c.16-.04.34-.09.52-.14.72-.19,1.61-.43,2.65-.58.24-.04.49-.08.75-.14.44-.09.89-.18,1.36-.2.52-.03,1.07-.07,1.63-.11l.73-.05c1.92-.02,3.54.12,4.97.45,1.57.27,3.19.78,4.67,1.46,1.4.67,2.74,1.33,3.79,2.1,2.11,1.41,3.29,2.59,3.3,2.6h0c.29.29.68.44,1.07.44.28,0,.57-.08.82-.24.7-.46.89-1.4.45-2.07l-.03-.05Z"/><path d="m109.6,72.15c-.2-.11-.42-.24-.66-.39-.63-.39-1.41-.87-2.38-1.2-1.42-.63-3.06-1.13-4.76-1.45-2.18-.29-4.07-.34-5.78-.15-1.87.26-3.82.79-5.63,1.55-1.46.63-2.94,1.5-4.38,2.61-2.29,1.76-3.43,3.46-3.51,3.59l-.02.03c-.39.6-.3,1.39.2,1.89.28.29.66.44,1.06.44h0c.4,0,.78-.16,1.06-.44h.01c.11-.12,1.25-1.24,3.3-2.61,1.03-.76,2.37-1.42,3.77-2.09,1.49-.69,3.1-1.2,4.7-1.47,1.42-.33,3.04-.47,4.93-.45l.76.05c.55.04,1.09.08,1.62.11.46.02.91.11,1.35.2.25.05.5.1.75.14,1.05.15,1.94.39,2.65.58.19.05.36.1.53.14l3.46.81-3.03-1.9Z"/><path class="cls-1" d="m70.27,128.55c-.22-.04-.43-.08-.6-.12.2.04.4.08.6.12Z"/><path class="cls-1" d="m69.44,128.39c-.14-.03-.28-.06-.37-.08.12.03.24.06.37.08Z"/><path class="cls-13" d="m69.67,128.44c-.08-.02-.15-.03-.23-.05.08.02.14.03.23.05Z"/><path class="cls-13" d="m69.07,128.3c-.07-.02-.14-.04-.21-.06h0s.08.02.21.06Z"/><path class="cls-1" d="m70.1,127.97c-.22-.04-.43-.08-.6-.12.21.04.4.08.6.12Z"/><path class="cls-1" d="m69.26,127.8c-.14-.03-.28-.06-.37-.08.12.03.24.06.37.08Z"/><path class="cls-13" d="m69.49,127.85c-.08-.02-.15-.03-.23-.05.08.02.14.03.23.05Z"/><path class="cls-13" d="m68.9,127.72c-.07-.02-.14-.04-.21-.06h0s.08.02.21.06Z"/><path class="cls-1" d="m70.61,127.89c-.22-.04-.41-.08-.58-.11.2.04.39.08.58.11Z"/><path class="cls-1" d="m69.8,127.73c-.13-.03-.27-.06-.35-.08.12.03.23.05.35.08Z"/><path class="cls-13" d="m70.03,127.77c-.07-.02-.15-.03-.22-.05.07.02.14.03.22.05Z"/><path class="cls-13" d="m69.45,127.64c-.07-.02-.13-.04-.2-.06h0s.08.02.21.06Z"/><path class="cls-5" d="m65,129.56c-.18-2.39,6.65.5,8.89.57,1.79.06,7.16-.35,7.66-.54,3.76-1.4-.21,3.99-7.77,4.27-3.47.14-8.68-2.85-8.78-4.3Z"/><path class="cls-9" d="m87.51,123.83c-4.33-.81-13.45.05-13.45.05-7.52,1.25-13.41-.08-13.45-.03-.18.02,6.01,8.22,13.35,7.85h0c7.34.38,13.73-7.85,13.56-7.87Z"/><path class="cls-18" d="m78.4,122.1c-1.95-.22-3.34,1.19-4.34,1.09-1.02.09-2.34-.81-4.3-.83-2.76-.03-4.11-.27-9.16,1.5.18.34,3.41,2.22,9.47,2.32.09,0,1.71.92,4.02.91,1.45,0,3.43-.97,3.51-.97,6.07-.09,9.77-1.9,9.94-2.23-6.67-2.07-6.14-1.8-9.14-1.78Z"/><path class="cls-24" d="m111.54,165.88c-7.09,3.36-19.95,5.59-34.66,5.59-16.99,0-31.53-2.98-37.53-7.21,5.16-6.12,10.87-8.64,14.08-9.64,0,.15-.02.31-.02.46,0,7.18,9.44,13.03,21.29,13.34.32.02.64.02.98.02,12.17,0,22.07-5.89,22.21-13.2,3.65,1.43,8.98,4.44,13.65,10.65Z"/><path class="cls-25" d="m38.76,201.82c.02-3.45.12-6.66.32-9.67.08-1.14.17-2.26.28-3.33.11-1.23.23-2.43.38-3.59.32-2.62-.72-5.08-2.56-6.66-1.29-1.11-2.98-1.78-4.84-1.78h-.11c.22-.57.43-1.12.64-1.66,1.84-4.51,4.1-8.06,6.46-10.87,5.13-6.09,10.82-8.61,14.03-9.62.02,0,.03-.02.05-.02,0,.15-.02.31-.02.46,0,4.39,3.53,8.29,8.98,10.71,2.85,1.27,6.22,2.15,9.9,2.49h.02c.78.08,1.58.12,2.39.14.32.02.64.02.98.02,12.17,0,22.07-5.89,22.21-13.2,1.46.57,3.19,1.4,5.05,2.58,2.13,1.37,4.44,3.22,6.66,5.73.66.72,1.3,1.5,1.93,2.35,2.07,2.76,3.99,6.14,5.57,10.31.09.2.15.38.23.58-.29,0-.58.02-.87.06-.91.09-1.75.35-2.52.75h-.02c-2.18,1.14-3.71,3.27-3.99,5.77v.02c-.08.6-.08,1.21,0,1.84.26,2.06.46,4.24.63,6.54.21,3.24.34,6.72.34,10.47"/><path class="cls-21" d="m22.79,45.98c1.02-3.7,2.07-6.56,2.08-6.58-.01,0-.16.04-1.58.04-8.79-.02-13.74-8.43-13.74-8.43,0,0,3.31,4.8,14.71,1.06,11.14-3.65,10.86-15.54,26.87-22.18,8.19-3.4,13.09-2.95,15.92-1.72-2.87-2.34-8.77-2.13-8.77-2.13,0,0,7.28-3.97,18.54-.41,7.91,2.51,12.64,5.36,15.3,7.41l-4.44-4.19s3.15,1.11,7.6,3.35c-3.03-5.82-8.62-12.19-8.62-12.19,14.27,5.27,26.08,24.21,26.08,24.21-1.13-7.14-3.63-13.68-3.63-13.68,24.35,17.96,20.56,50.38,20.56,50.38,0,12.27-4.88,24.58-8.08,28.23-3.21,3.65-2.18,8.95-3.14,8.95,0,0-1.93.07-1.99-9.19-.24-3.13-1.24-8.15-5.32-6.64-.22.1-.44.2-.65.28-.04.02-.08.04-.12.06h0c-11.87,4.7-20.37-.22-25.43-5.19h0s-.01,0-.01,0c-.82-.81-1.55-1.61-2.18-2.38-5.92-6.09-22.19-20.52-29.21-3.02,0,0-5.99-14.99,12.92-13.38-7.69-5.09-16.35-6.52-19.92,8.58,0,0-6.48-15.83,9.88-19.03-17.47-3.57-24.71,24.44-23.18,32,2.4,12.01-.95,18.92-2.23,18.6,0,0-.04-3.05-1.21-5.77-3.45-8.1-6.34-2.47-6.87-13.44-.43-8.81-1.51-13.78-1.94-18.26-2.73,2.16-6.81,3.69-12.91,3.82,0,0,8.62-2.65,14.71-19.14Z"/><path class="cls-23" d="m39.74,185.22c.32-2.62-.72-5.08-2.56-6.66-1.29-1.11-2.98-1.78-4.84-1.78h-.11c.22-.57.43-1.12.64-1.66l20.49-20.49s.03-.02.05-.02c0,.15-.02.31-.02.46,0,4.39,3.53,8.29,8.98,10.71l-23.02,23.02c.11-1.23.23-2.43.38-3.59Z"/><path class="cls-23" d="m38.76,201.82l33.52-33.54h.02c.78.08,1.58.12,2.39.14.32.02.64.02.98.02,12.17,0,22.07-5.89,22.21-13.2,1.46.57,3.19,1.4,5.05,2.58l-44.94,44.94"/><path class="cls-23" d="m70.38,202.75l39.22-39.22c.66.72,1.3,1.5,1.93,2.35,2.07,2.76,3.99,6.14,5.57,10.31l-.64.64c-.91.09-1.75.35-2.52.75h-.02c-2.18,1.14-3.71,3.27-3.99,5.77v.02l-19.37,19.37"/></svg>