<?xml version="1.0" encoding="UTF-8"?><svg id="Layer_1" xmlns="http://www.w3.org/2000/svg" xmlns:xlink="http://www.w3.org/1999/xlink" viewBox="0 0 117.07 187.63"><defs><style>.cls-1{fill:none;}.cls-2{clip-path:url(#clippath);}.cls-3,.cls-4{fill:#f7be00;}.cls-5{fill:#f1dab4;}.cls-6{fill:#e4c59e;}.cls-7{fill:#f3dab4;}.cls-8{fill:#fff;}.cls-9{fill:#7f401b;}.cls-10{fill:#c3977d;}.cls-11{fill:#b48d76;}.cls-12{fill:#c1967d;}.cls-13{fill:#cba686;}.cls-14{fill:#c49d80;}.cls-15{fill:#c5997d;}.cls-16{fill:#e1bd9d;}.cls-17{fill:#d7ad88;}.cls-18{fill:#dbbb9a;}.cls-19{fill:#e1c7a3;}.cls-20{fill:#231c08;}.cls-21{fill:#9b3e35;}.cls-22{fill:#4c2912;}.cls-23{fill:#7a1f23;}.cls-4{fill-rule:evenodd;}</style><clipPath id="clippath"><rect class="cls-1" x="46.46" y="118.88" width="25.11" height="14.85"/></clipPath></defs><path class="cls-6" d="m58.91,103.62v84.01H13.61c-.75-.29-1.09-.45-1.09-.45,0-4.01.21-7.69.61-11.07.4-3.28.95-6.29,1.64-9.03.51-1.96,1.07-3.81,1.69-5.51,3.24-8.87,8.01-14.34,12.45-17.68,3.42-2.58,6.62-3.9,8.75-4.56,1.57-.49,2.56-.61,2.56-.61h.05c.17,0,.29-.02.45-.05h.02c1.43-.23,2.58-1.47,3.52-3.45.69-1.47,1.27-3.35,1.73-5.53.18-.84.32-1.7.49-2.62.21-1.57.41-3.18.6-4.88.09-1.04.18-2.04.31-3.12.4-5.14.52-10.76.52-16.09,0,0,6.08.63,11.01.63Z"/><path class="cls-5" d="m105.51,187.19s-.4.15-1.07.45h-45.53v-84.01h.12c4.91,0,11.07-.63,11.07-.63,0,5.28.09,10.84.51,15.98.12,1,.23,2.03.29,3.04.18,1.77.41,3.44.66,4.99v.03c.08.71.23,1.34.35,2,.43,2.19.97,4.11,1.64,5.66.8,1.9,1.8,3.25,2.99,3.78.15.06.31.12.48.17.23.06.49.09.75.09,0,0,.25.03.68.12h.02c.74.15,2.01.48,3.64,1.12,1.9.74,4.24,1.9,6.69,3.71,4.51,3.32,9.44,8.83,12.77,17.9.63,1.7,1.18,3.55,1.69,5.51.68,2.69,1.23,5.65,1.63,8.87.4,3.42.63,7.15.63,11.22Z"/><g class="cls-2"><path class="cls-14" d="m71.57,126.85v.04c-1.14,1.76-4.98,6.84-12.57,6.84h-.07c-7.19-.04-11.39-5.26-12.46-6.8.22-1.54.44-3.16.63-4.85.07-.99.18-2.02.3-3.09,3.5.88,7.34,1.43,11.39,1.51h.15c4.2-.07,8.07-.66,11.69-1.62.11.99.22,2.02.29,3.01.18,1.76.41,3.42.66,4.96"/></g><path class="cls-17" d="m58.4,7.87C10.41,7.87,10.15,48.12,12.29,74.47c-3.28-6.25-13.05-4.34-12.24,5.51.77,9.48,14.73,14.32,14.34,13.27,7.27,19.49,26.51,34.18,44.02,34.18h.37V7.87h-.37"/><path class="cls-11" d="m3.11,75.83c2.36-3.82,6.05-2.17,6.93-1.32.96.92,1.73,2.09,1.14,4.34-.33,1.29-1.66,1.4-1.36,3.31.37,2.17,1.36,2.28,1.95,2.79.55.48,1.25.85,1.59,1.76.37.92.41,1.87.22,2.72-.37,1.54-2.62.29-4.13-.37-1-.48-4.17-3.16-4.98-4.04-1.99-2.28-2.95-6.69-1.36-9.19"/><path class="cls-16" d="m58.66,7.87c48,0,48.26,40.25,46.15,66.6,3.28-6.25,13.01-4.34,12.2,5.51-.74,9.48-14.72,14.32-14.34,13.27-7.08,19.49-26.51,34.18-44.02,34.18h-.26l-.11-119.57h.37"/><path class="cls-11" d="m113.96,75.83c-2.36-3.82-6.01-2.17-6.93-1.32-.96.92-1.7,2.09-1.14,4.34.33,1.29,1.66,1.4,1.36,3.31-.37,2.17-1.36,2.28-1.92,2.79-.55.48-1.29.85-1.62,1.76-.33.92-.41,1.87-.22,2.72.37,1.54,2.62.29,4.13-.37,1.03-.48,4.17-3.16,4.98-4.04,2.03-2.28,2.95-6.69,1.36-9.19"/><path class="cls-6" d="m58.03,19.23c-15.78,0-27.35,4.59-34.32,13.64-9.77,12.68-9.4,32.01-5.82,45.91,1.11,4.26,1.7,15.69,2.43,19.88,3.43,18.78,24.11,28.78,37.71,28.78h.37V19.23h-.22"/><path class="cls-5" d="m92.31,32.9c-6.93-9.01-18.36-13.6-33.92-13.67v108.21c15.56-.18,34.17-11.14,37.34-28.78.77-4.19,1.33-15.62,2.43-19.88,3.61-13.86,3.98-33.15-5.86-45.87"/><path class="cls-1" d="m56.47,104.32c-.22-.04-.42-.08-.59-.11.2.04.4.08.59.11Z"/><path class="cls-1" d="m55.65,108.21c-.14-.03-.27-.06-.36-.08.12.03.24.05.36.08Z"/><path class="cls-10" d="m55.88,108.26c-.08-.02-.15-.03-.23-.05.07.02.14.03.23.05Z"/><path class="cls-10" d="m55.29,108.13c-.07-.02-.13-.04-.2-.06h0s.08.02.21.06Z"/><path class="cls-1" d="m15.37,52.96c-.43,1.43-.73,3-.93,4.67,0,0,.63-2.64,2.03-6.54-.6.83-1,1.5-1.1,1.87Z"/><path class="cls-1" d="m56.62,106.18c-.22-.04-.43-.08-.61-.12.21.04.41.09.61.12Z"/><path class="cls-1" d="m55.78,106.01c-.14-.03-.28-.06-.37-.09.12.03.24.06.37.09Z"/><path class="cls-12" d="m56.01,106.06c-.08-.02-.15-.03-.23-.05.08.02.14.03.23.05Z"/><path class="cls-12" d="m55.41,105.93c-.07-.02-.14-.04-.21-.06h0s.08.03.21.06Z"/><path class="cls-8" d="m23.96,61.47s3.66,15.07,9.95,16.3c6.29,1.23,13.09-1.22,13.09-1.22,0,0,.65-17.71-2.57-20.02-3.22-2.32-10.63-5.68-20.47,4.94Z"/><path class="cls-18" d="m47.01,76.5s-.14.04-.47.18c-.08-5.43-.58-12.89-2.59-14.32-2.99-2.2-9.74-5.28-18.75,3.17-.82-2.33-1.23-4.1-1.23-4.1,9.86-10.64,17.28-7.29,20.47-4.96,3.22,2.32,2.57,20.05,2.57,20.05Z"/><path class="cls-22" d="m43.29,68.83c0,3.43-2.77,6.21-6.19,6.21s-6.19-2.78-6.19-6.21,2.77-6.21,6.19-6.21,6.19,2.78,6.19,6.21Z"/><path class="cls-9" d="m36.81,72.96c-1.79-.15-3.16-1.96-3-3.95.16-1.99,1.81-3.54,3.6-3.39,1.79.15,3.16,1.95,3,3.94-.16,1.99-1.81,3.55-3.6,3.4Z"/><path class="cls-20" d="m36.97,72.25c-1.24-.11-2.53-1.47-2.4-3.16.14-1.69,1.63-2.83,2.88-2.73,1.24.11,2.53,1.48,2.39,3.17-.14,1.69-1.63,2.83-2.87,2.72Z"/><path class="cls-8" d="m35.96,68.09c-.05.61-.68,1.05-1.39,1-.72-.06-1.26-.61-1.21-1.21.05-.61.67-1.06,1.39-1,.72.06,1.26.6,1.21,1.21Z"/><path class="cls-8" d="m39.97,71.61c-.03.3-.34.53-.69.5-.36-.03-.63-.3-.61-.61.03-.3.34-.53.69-.5.36.03.63.3.61.61Z"/><path class="cls-1" d="m56.72,107.96c-.22-.04-.43-.08-.61-.12.21.04.41.09.61.12Z"/><path class="cls-1" d="m55.88,107.79c-.14-.03-.28-.06-.37-.09.12.03.24.06.37.09Z"/><path class="cls-12" d="m56.11,107.84c-.08-.02-.15-.03-.23-.05.08.02.14.03.23.05Z"/><path class="cls-12" d="m55.51,107.71c-.07-.02-.14-.04-.21-.06h0s.08.02.21.06Z"/><path class="cls-1" d="m56.48,107.54c-.24-.04-.46-.08-.65-.12.22.05.44.09.65.12Z"/><path class="cls-1" d="m55.58,107.36c-.15-.03-.3-.07-.4-.09.13.03.26.06.4.09Z"/><path class="cls-10" d="m55.83,107.41c-.08-.02-.17-.03-.25-.05.08.02.15.03.25.05Z"/><path class="cls-10" d="m55.18,107.27c-.08-.02-.15-.04-.22-.06h0s.09.03.23.06Z"/><path class="cls-1" d="m56.29,106.91c-.24-.04-.46-.08-.65-.12.22.05.44.09.65.12Z"/><path class="cls-1" d="m55.39,106.73c-.15-.03-.3-.07-.4-.09.13.03.26.06.4.09Z"/><path class="cls-10" d="m55.64,106.78c-.08-.02-.17-.03-.25-.05.08.02.15.03.25.05Z"/><path class="cls-10" d="m55,106.64c-.08-.02-.15-.04-.22-.06h0s.09.03.23.06Z"/><path class="cls-1" d="m56.85,106.82c-.23-.04-.44-.08-.63-.12.21.05.42.09.63.12Z"/><path class="cls-1" d="m55.98,106.65c-.14-.03-.29-.06-.38-.09.13.03.25.06.38.09Z"/><path class="cls-10" d="m56.22,106.7c-.08-.02-.16-.03-.24-.05.08.02.15.03.24.05Z"/><path class="cls-10" d="m55.59,106.56c-.07-.02-.14-.04-.21-.06h0s.08.03.22.06Z"/><path class="cls-8" d="m93.2,60.95s-3.66,15.07-9.95,16.3c-6.29,1.23-13.09-1.22-13.09-1.22,0,0-.65-17.71,2.57-20.02,3.22-2.32,10.63-5.68,20.47,4.94Z"/><path class="cls-18" d="m70.16,75.99s.14.04.47.18c.08-5.43.58-12.89,2.59-14.32,2.99-2.2,9.74-5.28,18.75,3.16.82-2.33,1.23-4.1,1.23-4.1-9.86-10.64-17.28-7.29-20.47-4.96-3.22,2.32-2.57,20.05-2.57,20.05Z"/><path class="cls-22" d="m73.88,68.32c0,3.43,2.77,6.21,6.19,6.21s6.19-2.78,6.19-6.21-2.77-6.21-6.19-6.21-6.19,2.78-6.19,6.21Z"/><path class="cls-9" d="m80.35,72.45c1.79-.15,3.16-1.96,3-3.95-.16-1.99-1.81-3.54-3.6-3.39-1.79.15-3.16,1.95-3,3.94.16,1.99,1.81,3.55,3.6,3.4Z"/><path class="cls-20" d="m80.2,71.73c1.24-.11,2.53-1.47,2.4-3.16-.14-1.69-1.63-2.83-2.88-2.73-1.24.11-2.53,1.48-2.39,3.17.14,1.69,1.63,2.83,2.87,2.72Z"/><path class="cls-8" d="m81.21,67.57c.05.61.68,1.05,1.39,1,.72-.06,1.26-.61,1.21-1.21-.05-.61-.67-1.06-1.39-1-.72.06-1.26.6-1.21,1.22Z"/><path class="cls-8" d="m77.2,71.1c.03.3.34.53.69.5.36-.03.63-.3.61-.61-.03-.3-.34-.53-.69-.5-.36.03-.63.3-.61.61Z"/><path d="m50.78,61.23c-.05-.07-1.19-1.81-3.52-3.61-1.46-1.12-2.89-1.98-4.38-2.62-1.81-.76-3.75-1.3-5.63-1.56-1.7-.19-3.59-.14-5.8.16-1.68.32-3.32.82-4.71,1.44-.99.34-1.78.82-2.41,1.21-.24.15-.46.28-.68.4l-3,1.89,3.46-.82c.16-.04.34-.09.52-.14.72-.19,1.61-.43,2.65-.58.24-.04.49-.09.75-.14.44-.09.89-.18,1.36-.2.52-.03,1.07-.07,1.63-.11l.73-.05c1.92-.02,3.54.12,4.97.45,1.57.27,3.19.78,4.67,1.47,1.4.67,2.74,1.34,3.79,2.11,2.11,1.42,3.29,2.6,3.3,2.61h0c.29.29.68.44,1.07.44.28,0,.57-.08.82-.25.7-.46.89-1.4.45-2.08l-.03-.05Z"/><path d="m93.82,56.64c-.2-.11-.42-.24-.66-.39-.63-.39-1.41-.87-2.38-1.2-1.42-.63-3.06-1.13-4.76-1.45-2.18-.29-4.07-.35-5.78-.15-1.87.26-3.82.8-5.63,1.56-1.46.63-2.94,1.51-4.38,2.62-2.29,1.76-3.43,3.47-3.51,3.6l-.02.03c-.39.6-.3,1.4.2,1.9.28.29.66.45,1.06.45h0c.4,0,.78-.16,1.06-.45h.01c.11-.12,1.25-1.24,3.3-2.62,1.03-.76,2.37-1.43,3.77-2.1,1.49-.69,3.1-1.2,4.7-1.48,1.42-.33,3.04-.47,4.93-.45l.76.05c.55.04,1.09.08,1.62.11.46.02.91.11,1.35.2.25.05.5.1.75.14,1.05.15,1.94.39,2.65.58.19.05.36.1.53.14l3.46.82-3.03-1.91Z"/><path class="cls-1" d="m55.66,109.75c-.23-.04-.45-.08-.64-.12.22.05.43.09.64.12Z"/><path class="cls-1" d="m54.78,109.57c-.15-.03-.29-.07-.39-.09.13.03.26.06.39.09Z"/><path class="cls-15" d="m55.02,109.62c-.08-.02-.16-.03-.24-.05.08.02.15.03.24.05Z"/><path class="cls-15" d="m54.39,109.48c-.07-.02-.14-.04-.22-.06h0s.08.03.22.06Z"/><path class="cls-7" d="m49.53,112.73c-.18-2.42,6.73.51,9,.58,1.81.06,7.25-.36,7.75-.55,3.8-1.43-.21,4.05-7.86,4.34-3.51.14-8.78-2.9-8.88-4.36Z"/><path class="cls-19" d="m72.02,108.06c-1.88-.09-3.8,1.48-6.06,1.24-.09-.05-.14-.05-.23-.05-.52-.09-1.03,0-1.6.14-.7.15-1.41.43-2.07.66-1.13.37-2.4.66-3.7.56h0s-.05,0-.07,0-.05,0-.07,0h0c-1.31.09-2.58-.2-3.7-.57-.66-.23-1.37-.52-2.07-.66-.56-.14-1.08-.23-1.6-.14-.1,0-.14,0-.23.05-2.26.24-4.18-1.33-6.06-1.24-.52.05-1.27-.09-1.69-.09.09.05.19.09.28.14,5.35,2.61,9.96,7.51,15.07,7.35h.15c5.11.16,9.72-4.74,15.07-7.35.1-.05.19-.09.28-.14-.42,0-1.17.14-1.69.09Z"/><path class="cls-13" d="m73.59,107.91h0s-5.44-2.1-9.3-.87c0,0-1.44.56-2.93.91-.91.35-2.01.46-3.07.41h0c-.81-.03-1.59-.14-2.22-.25-.21-.03-.42-.08-.64-.12-.09-.02-.16-.03-.24-.05-.13-.03-.26-.06-.39-.09-.14-.03-.22-.06-.22-.06h0c-1.24-.34-2.3-.75-2.3-.75-3.87-1.23-9.3.87-9.3.87h0c-.07.03-.12.06-.12.06.42,0,1.17.14,1.69.09,1.88-.09,3.8,1.48,6.06,1.24.09-.05.14-.05.23-.05.52-.09,1.03,0,1.6.14.7.15,1.41.43,2.07.66,1.13.37,2.4.66,3.7.56h0s.05,0,.07,0,.05,0,.07,0h0c1.31.09,2.58-.2,3.7-.57.66-.23,1.37-.52,2.07-.66.56-.14,1.08-.23,1.6-.14.1,0,.14,0,.23.05,2.26.24,4.18-1.33,6.06-1.24.52.05,1.27-.09,1.69-.09,0,0-.05-.02-.12-.06Z"/><path class="cls-13" d="m49.15,109.19c.1.02,10.19,3.11,18.08.07l-.91-.61h-10.66l-6.5.55Z"/><path class="cls-21" d="m55.36,156.07v31.56H18.49v-10.24l-5.36-1.27c.4-3.28.95-6.29,1.64-9.03.51-1.96,1.07-3.81,1.69-5.51,3.24-8.87,8.01-14.34,12.45-17.68,5.51,4.82,14.8,11.11,26.45,12.17Z"/><path class="cls-23" d="m55.36,146.23v9.84c-11.65-1.06-20.94-7.35-26.45-12.17,3.42-2.58,6.62-3.9,8.75-4.56,1.57-.49,2.56-.61,2.56-.61h.05l9.42,5.45c1.77,1.01,3.68,1.7,5.66,2.06Z"/><path class="cls-21" d="m104.88,175.97l-6.03,1.43v10.24h-36.39v-31.6c8.03-.8,16.95-4.33,26.34-12.34,4.51,3.32,9.44,8.83,12.77,17.9.63,1.7,1.18,3.55,1.69,5.51.68,2.69,1.23,5.65,1.63,8.87Z"/><path class="cls-23" d="m88.79,143.69c-9.39,8.01-18.31,11.54-26.34,12.34v-9.96c1.63-.38,3.21-.98,4.68-1.83l9.89-5.6c.23.06.49.09.75.09,0,0,.25.03.68.12h.02c.74.15,2.01.48,3.64,1.12,1.9.74,4.24,1.9,6.69,3.71Z"/><path class="cls-4" d="m29.47,136.04c1.72,3.95,9.88,2.5,10.99-3.19,1.19-6.15-3.85-15.72-3.19-24.45.62-8.18,6.36-17.58,17.01-13.47,1.75.67,2.45,1.03,3.9,3.9,7.81-9.7,20.12-2.58,21.27,8.51.94,9.13-4.75,19.84-2.84,26.23,1.36,4.55,7.49,6.34,10.28,3.19.7,8.85-11.28,10.46-15.95,6.03-6.83-6.49-2.52-23.08-5.31-31.19-2.21-6.42-11.57-6.96-14.18-1.06-2.96,6.7,1.34,25.73-5.67,32.26-5.67,5.27-16.6,2.01-16.3-6.74Z"/><path class="cls-3" d="m8.09,29.55c.52,2.55.77,4.01.82,5.04h.94c-3.27,4.78-5.11,10.13-5.11,15.77,0,7.32,3.09,14.13,8.4,19.87-.19-1.65-.29-3.33-.29-5.03,0-24.6,20.17-44.04,45.11-44.04s45.22,19.44,45.22,44.04c0,1.88-.14,3.74-.36,5.56,5.62-5.85,8.9-12.86,8.9-20.4,0-5.64-1.84-10.98-5.11-15.77h.51c.04-1.03.3-2.49.82-5.04,1.41-7.03,5.61-8.87,5.61-8.87,0,0-6.49,2.68-8.06,4.5-.76.89-2.76,3.3-3.38,4.05-.02-.01-.04-.03-.06-.05.36-.81,1.21-3.42.01-8.45-1.57-6.59-8-11.02-8-11.02,0,0,3.86,5.24,2.79,10.97,0,0,.22-2.3-6.05-8.68-6.26-6.39-17.98-11.99-17.98-11.99,0,0,.24,3.98.37,8.33-4.57-1.35-9.34-2.12-14.3-2.12-.29,0-.59.01-.88.02-.29-.01-.58-.02-.88-.02-4.96,0-9.73.77-14.3,2.12.13-4.35.37-8.33.37-8.33,0,0-11.71,5.6-17.98,11.99-6.27,6.38-6.04,8.68-6.04,8.68-1.06-5.73,2.79-10.97,2.79-10.97,0,0-6.43,4.43-8,11.02-1.2,5.04-.35,7.65,0,8.46,0,.01-.03.03-.05.06-.61-.74-2.63-3.19-3.4-4.07-1.56-1.82-8.05-4.5-8.05-4.5,0,0,4.2,1.84,5.61,8.87Z"/><path class="cls-16" d="m49.24,94.99c-.18-3.74,6.85-1.37,9.16-1.25,1.83.09,7.4-1.18,7.88-.85,3.28,2.22-3.47,6.68-8,6.68-1.21,0-8.94-2.33-9.05-4.58Z"/></svg>