<?xml version="1.0" encoding="UTF-8"?><svg id="Layer_1" xmlns="http://www.w3.org/2000/svg" xmlns:xlink="http://www.w3.org/1999/xlink" viewBox="0 0 127.68 210.06"><defs><style>.cls-1{fill:none;}.cls-2{clip-path:url(#clippath);}.cls-3{fill:#f1dab4;}.cls-4{fill:#e4c59e;}.cls-5{fill:#fff;}.cls-6{fill:#7f401b;}.cls-7{fill:#c3977d;}.cls-8{fill:#c36b70;}.cls-9{fill:#b48d76;}.cls-10{fill:#8f6faa;}.cls-11{fill:#ab8fbe;}.cls-12{fill:#c1967d;}.cls-13{fill:#c49d80;}.cls-14{fill:#e1bd9d;}.cls-15{fill:#d7ad88;}.cls-16{fill:#dbbb9a;}.cls-17{fill:#d67a76;}.cls-18{fill:#231c08;}.cls-19{fill:#463216;}.cls-20{fill:#393b35;}.cls-21{fill:#4c2912;}.cls-22{fill:#f6f7f6;opacity:.55;}.cls-23{fill:#1b1d16;opacity:.4;}</style><clipPath id="clippath"><rect class="cls-1" x="57.07" y="141.51" width="25.11" height="14.8"/></clipPath></defs><path class="cls-4" d="m23.12,209.62c0-10.69,1.57-19.03,3.96-25.53,5.77-15.69,16.32-20.67,21.18-22.17,1.59-.49,2.58-.61,2.58-.61.17,0,.33-.02.5-.04,1.43-.23,2.59-1.47,3.51-3.45.69-1.47,1.27-3.34,1.74-5.51.19-.85.33-1.7.48-2.62.22-1.55.44-3.17.63-4.87.07-1.03.18-2.03.29-3.1.4-5.12.52-10.73.52-16.05,0,0,6.08.63,11.02.63v83.76"/><path class="cls-3" d="m69.53,210.06v-83.76h.11c4.9,0,11.06-.63,11.06-.63,0,5.27.11,10.81.51,15.93.11,1,.22,2.03.29,3.02.19,1.77.41,3.43.67,4.98v.03c.07.7.22,1.33.33,1.99.45,2.18.99,4.1,1.64,5.63.81,1.91,1.8,3.25,3.01,3.77.38.17.79.26,1.21.26,0,0,1.74.21,4.36,1.24,5.33,2.09,14.29,7.57,19.44,21.55,2.39,6.5,3.96,14.84,3.96,25.53"/><g class="cls-2"><path class="cls-13" d="m82.18,149.46v.04c-1.14,1.76-4.98,6.82-12.57,6.82h-.07c-7.19-.04-11.39-5.24-12.46-6.78.22-1.54.44-3.15.63-4.84.07-.99.18-2.02.29-3.08,3.5.88,7.34,1.43,11.39,1.5h.15c4.2-.07,8.07-.66,11.69-1.61.11.99.22,2.02.29,3,.18,1.76.41,3.41.66,4.95"/></g><path class="cls-10" d="m33.59,209.54c0-6.4.37-12.03.98-17.01.57-4.48-2.89-8.44-7.4-8.44h-.09c5.76-15.69,16.32-20.68,21.18-22.18-.02.15-.02.31-.02.48,0,7.17,9.42,13.03,21.29,13.34.26,0,.54.02.8.02h.17c12.19,0,22.09-5.89,22.23-13.2,3.76,1.47,9.35,4.65,14.12,11.31,1.96,2.76,3.79,6.12,5.31,10.24-4.51,0-7.95,3.96-7.4,8.44.63,4.96.98,10.61.98,17.01"/><path class="cls-15" d="m69.02,30.85c-48,0-48.26,40.12-46.12,66.39-3.28-6.23-13.05-4.32-12.24,5.5.77,9.45,14.73,14.27,14.34,13.23,7.27,19.43,26.51,34.08,44.02,34.08h.37V30.85h-.37"/><path class="cls-14" d="m69.28,30.85c48,0,48.26,40.12,46.15,66.39,3.28-6.23,13.01-4.32,12.2,5.5-.74,9.45-14.72,14.27-14.34,13.23-7.08,19.43-26.51,34.08-44.02,34.08h-.26l-.11-119.19h.37"/><path class="cls-4" d="m68.64,42.17c-15.78,0-27.35,4.58-34.32,13.59-9.77,12.64-9.4,31.91-5.82,45.76,1.11,4.25,1.7,15.65,2.43,19.82,3.43,18.72,24.11,28.69,37.71,28.69h.37V42.17h-.22"/><path class="cls-3" d="m102.93,55.8c-6.93-8.98-18.36-13.56-33.92-13.63v107.87c15.56-.18,34.17-11.1,37.34-28.69.77-4.18,1.33-15.57,2.43-19.82,3.61-13.81,3.98-33.05-5.86-45.73"/><path class="cls-19" d="m55.91,42.82l-.2.2.03.07c.07-.1.1-.2.17-.27Z"/><path class="cls-5" d="m34.58,84.27s3.66,15.02,9.95,16.25c6.29,1.23,13.09-1.21,13.09-1.21,0,0,.65-17.65-2.57-19.96-3.22-2.32-10.63-5.66-20.47,4.92Z"/><path class="cls-5" d="m103.82,83.76s-3.66,15.02-9.95,16.25c-6.29,1.23-13.09-1.21-13.09-1.21,0,0-.65-17.65,2.57-19.96,3.22-2.32,10.63-5.66,20.47,4.92Z"/><path class="cls-9" d="m13.72,98.6c2.36-3.81,6.05-2.16,6.93-1.32.96.92,1.73,2.09,1.14,4.32-.33,1.28-1.66,1.39-1.36,3.3.37,2.16,1.36,2.27,1.95,2.78.55.48,1.25.84,1.59,1.76.37.92.41,1.87.22,2.71-.37,1.54-2.62.29-4.13-.37-1-.48-4.17-3.15-4.98-4.03-1.99-2.27-2.95-6.67-1.36-9.16"/><path class="cls-9" d="m124.57,98.6c-2.36-3.81-6.01-2.16-6.93-1.32-.96.92-1.7,2.09-1.14,4.32.33,1.28,1.66,1.39,1.36,3.3-.37,2.16-1.36,2.27-1.92,2.78-.55.48-1.29.84-1.62,1.76-.33.92-.41,1.87-.22,2.71.37,1.54,2.62.29,4.13-.37,1.03-.48,4.17-3.15,4.98-4.03,2.03-2.27,2.95-6.67,1.36-9.16"/><path class="cls-1" d="m67.08,131.03c-.22-.04-.42-.08-.59-.11.2.04.4.08.59.11Z"/><path class="cls-1" d="m66.27,130.87c-.14-.03-.27-.06-.36-.08.12.03.24.05.36.08Z"/><path class="cls-7" d="m66.49,130.92c-.08-.02-.15-.03-.23-.05.07.02.14.03.23.05Z"/><path class="cls-7" d="m65.91,130.79c-.07-.02-.13-.04-.2-.06h0s.08.02.21.06Z"/><path class="cls-14" d="m60.05,115.04c-.18-3.73,6.85-1.36,9.16-1.25,1.83.09,7.4-1.17,7.88-.85,3.28,2.21-3.47,6.66-8,6.66-1.21,0-8.94-2.32-9.05-4.57Z"/><path class="cls-1" d="m25.98,75.79c-.43,1.43-.73,2.99-.93,4.66,0,0,.63-2.63,2.03-6.52-.6.83-1,1.5-1.1,1.86Z"/><path class="cls-1" d="m67.23,128.85c-.22-.04-.43-.08-.61-.12.21.04.41.08.61.12Z"/><path class="cls-1" d="m66.39,128.68c-.14-.03-.28-.06-.37-.08.12.03.24.06.37.08Z"/><path class="cls-12" d="m66.62,128.73c-.08-.02-.15-.03-.23-.05.08.02.14.03.23.05Z"/><path class="cls-12" d="m66.02,128.6c-.07-.02-.14-.04-.21-.06h0s.08.02.21.06Z"/><path class="cls-16" d="m57.62,99.26s-.14.04-.47.18c-.08-5.42-.58-12.85-2.59-14.28-2.99-2.19-9.74-5.27-18.75,3.16-.82-2.33-1.23-4.09-1.23-4.09,9.86-10.61,17.28-7.27,20.47-4.95,3.22,2.32,2.57,19.99,2.57,19.99Z"/><circle class="cls-21" cx="47.71" cy="91.61" r="6.19"/><path class="cls-6" d="m47.43,95.74c-1.79-.15-3.16-1.95-3-3.93.16-1.98,1.81-3.53,3.6-3.38,1.79.15,3.16,1.95,3,3.93-.16,1.98-1.81,3.54-3.6,3.39Z"/><path class="cls-18" d="m47.58,95.02c-1.24-.11-2.53-1.47-2.4-3.15.14-1.69,1.63-2.82,2.88-2.72,1.24.11,2.53,1.48,2.39,3.16-.14,1.68-1.63,2.82-2.87,2.72Z"/><path class="cls-1" d="m67.33,130.62c-.22-.04-.43-.08-.61-.12.21.04.41.08.61.12Z"/><path class="cls-1" d="m66.49,130.45c-.14-.03-.28-.06-.37-.08.12.03.24.06.37.08Z"/><path class="cls-12" d="m66.72,130.5c-.08-.02-.15-.03-.23-.05.08.02.14.03.23.05Z"/><path class="cls-12" d="m66.12,130.37c-.07-.02-.14-.04-.21-.06h0s.08.02.21.06Z"/><path class="cls-1" d="m67.09,130.2c-.24-.04-.46-.08-.65-.12.22.05.44.09.65.12Z"/><path class="cls-1" d="m66.19,130.03c-.15-.03-.3-.07-.4-.09.13.03.26.06.4.09Z"/><path class="cls-7" d="m66.44,130.08c-.08-.02-.17-.03-.25-.05.08.02.15.03.25.05Z"/><path class="cls-7" d="m65.8,129.94c-.08-.02-.15-.04-.22-.06h0s.09.03.23.06Z"/><path class="cls-1" d="m66.91,129.58c-.24-.04-.46-.08-.65-.12.22.05.44.09.65.12Z"/><path class="cls-1" d="m66.01,129.4c-.15-.03-.3-.07-.4-.09.13.03.26.06.4.09Z"/><path class="cls-7" d="m66.25,129.45c-.08-.02-.17-.03-.25-.05.08.02.15.03.25.05Z"/><path class="cls-7" d="m65.61,129.31c-.08-.02-.15-.04-.22-.06h0s.09.03.23.06Z"/><path class="cls-1" d="m67.46,129.49c-.23-.04-.44-.08-.63-.12.21.05.42.09.63.12Z"/><path class="cls-1" d="m66.59,129.31c-.14-.03-.29-.06-.38-.09.13.03.25.06.38.09Z"/><path class="cls-7" d="m66.83,129.37c-.08-.02-.16-.03-.24-.05.08.02.15.03.24.05Z"/><path class="cls-7" d="m66.21,129.23c-.07-.02-.14-.04-.21-.06h0s.08.03.22.06Z"/><path class="cls-16" d="m80.77,98.75s.14.04.47.18c.08-5.41.58-12.85,2.59-14.28,2.99-2.19,9.74-5.27,18.75,3.16.82-2.33,1.23-4.09,1.23-4.09-9.86-10.61-17.28-7.27-20.47-4.95-3.22,2.32-2.57,19.99-2.57,19.99Z"/><path class="cls-21" d="m84.49,91.1c0,3.42,2.77,6.19,6.19,6.19s6.19-2.77,6.19-6.19-2.77-6.19-6.19-6.19-6.19,2.77-6.19,6.19Z"/><path class="cls-6" d="m90.97,95.22c1.79-.15,3.16-1.95,3-3.93-.16-1.98-1.81-3.53-3.6-3.38-1.79.15-3.16,1.95-3,3.93.16,1.98,1.81,3.54,3.6,3.39Z"/><path class="cls-18" d="m90.81,94.51c1.24-.11,2.53-1.47,2.4-3.15-.14-1.69-1.63-2.82-2.88-2.72-1.24.11-2.53,1.48-2.39,3.16.14,1.68,1.63,2.82,2.87,2.72Z"/><path d="m61.39,84.03c-.05-.07-1.19-1.81-3.52-3.6-1.46-1.12-2.89-1.97-4.38-2.61-1.81-.76-3.75-1.3-5.63-1.55-1.7-.19-3.59-.14-5.79.16-1.68.32-3.32.82-4.71,1.43-.99.34-1.78.82-2.41,1.21-.24.15-.46.28-.68.4l-3,1.89,3.46-.81c.16-.04.34-.09.52-.14.72-.19,1.61-.43,2.65-.58.24-.04.49-.08.75-.14.44-.09.89-.18,1.36-.2.52-.03,1.07-.07,1.63-.11l.73-.05c1.92-.02,3.54.12,4.97.45,1.57.27,3.19.78,4.67,1.46,1.4.67,2.74,1.33,3.79,2.1,2.11,1.41,3.29,2.59,3.3,2.6h0c.29.29.68.44,1.07.44.28,0,.57-.08.82-.24.7-.46.89-1.4.45-2.07l-.03-.05Z"/><path d="m104.44,79.46c-.2-.11-.42-.24-.66-.39-.63-.39-1.41-.87-2.38-1.2-1.42-.63-3.06-1.13-4.76-1.45-2.18-.29-4.07-.34-5.78-.15-1.87.26-3.82.79-5.63,1.55-1.46.63-2.94,1.5-4.38,2.61-2.29,1.76-3.43,3.46-3.51,3.59l-.02.03c-.39.6-.3,1.39.2,1.89.28.29.66.44,1.07.44h0c.4,0,.78-.16,1.06-.44h.01c.11-.12,1.25-1.24,3.3-2.61,1.03-.76,2.37-1.42,3.77-2.09,1.49-.69,3.1-1.2,4.7-1.47,1.42-.33,3.04-.47,4.93-.45l.76.05c.55.04,1.09.08,1.62.11.46.02.91.11,1.35.2.25.05.5.1.75.14,1.05.15,1.94.39,2.65.58.19.05.36.1.53.14l3.46.81-3.03-1.9Z"/><path class="cls-8" d="m84.52,129.55c-4.36-1.27-15.61-3.58-15.61-3.58-8.18,1.25-14.54,3.53-14.59,3.58-.2.02,7.33,7.86,15.31,7.48h0c7.98.38,15.09-7.45,14.89-7.48Z"/><path class="cls-5" d="m46.57,90.87c-.05.61-.68,1.05-1.39.99-.72-.06-1.26-.6-1.21-1.21.05-.61.67-1.05,1.39-1,.72.06,1.26.6,1.21,1.21Z"/><path class="cls-5" d="m50.59,94.39c-.03.3-.34.53-.69.5-.36-.03-.63-.3-.61-.6.03-.3.34-.53.69-.5.36.03.63.3.61.6Z"/><path class="cls-5" d="m69.25,126.42h0s-.05,0-.08,0-.05,0-.08,0h0c-1.19.08-2.35-.12-3.42-.42h0c-3.64-1.14-7.16,2.01-7.6,2.43-.27.27-.59.48-1.04.57l.18.37c.68,1.38,2.23,2.11,3.72,1.74,1.99-.5,5.02-1.09,8.49-1.25v-3.43c-.06,0-.11,0-.17,0Z"/><path class="cls-5" d="m69.59,126.42h0s.05,0,.08,0,.05,0,.08,0h0c1.19.08,2.35-.12,3.42-.42h0c3.64-1.14,7.16,2.01,7.6,2.43.27.27.59.48,1.04.57l-.18.37c-.68,1.38-2.23,2.11-3.72,1.74-1.99-.5-5.02-1.09-8.49-1.25v-3.43c.06,0,.11,0,.17,0Z"/><path class="cls-17" d="m76.34,122.46s-1.18.46-2.55.83h0s-.09.03-.25.07c-.14.04-.28.06-.43.1-.09.02-.17.04-.27.06-.24.05-.47.1-.71.13-.71.12-1.57.24-2.47.27h0c-.08,0-.17,0-.25,0-.08,0-.17,0-.25,0h0c-.91-.04-1.76-.15-2.47-.27-.23-.04-.47-.08-.71-.13-.1-.02-.18-.04-.27-.06-.15-.03-.29-.06-.43-.1-.16-.04-.25-.06-.25-.06h0c-1.38-.38-2.55-.84-2.55-.84-4.3-1.37-8.18,7.08-8.18,7.08h0l.45.06c-.13.72.19-.25.19-.25.47,0,1.12-.25,1.69-.3.13,0,.26-.02.37-.05.43-.09.74-.28,1-.53h0s.02-.01.05-.04c.44-.42,3.96-3.57,7.6-2.43h0c1.07.3,2.23.5,3.42.41h0s.05,0,.08,0,.05,0,.08,0h0c.06,0,.11,0,.17,0,.06,0,.11,0,.17,0h0s.05,0,.08,0,.05,0,.08,0h0c1.19.08,2.35-.12,3.42-.42h0c3.64-1.14,7.16,2.01,7.6,2.43.03.03.05.05.05.05h0c.26.24.57.44,1,.52.12.02.24.04.37.05.58.05,1.23.3,1.69.3,0,0,.32.98.19.25l.45-.06h0s-3.88-8.45-8.18-7.08Z"/><path class="cls-5" d="m91.82,90.36c.05.61.68,1.05,1.39.99.72-.06,1.26-.6,1.21-1.21-.05-.61-.67-1.05-1.39-1-.72.06-1.26.6-1.21,1.21Z"/><path class="cls-5" d="m87.81,93.88c.03.3.34.53.69.5.36-.03.63-.3.61-.6-.03-.3-.34-.53-.69-.49-.36.03-.63.3-.61.6Z"/><path class="cls-5" d="m69.73,135.1h0s.03,0,.05,0,.03,0,.05,0h0c.71-.05,1.41.07,2.05.25h0c2.19.68,4.3-1.21,4.57-1.46.16-.16.35-.29.63-.34l-.11-.22c-.41-.83-1.34-1.27-2.23-1.04-1.2.3-3.01.66-5.1.75v2.06s.07,0,.1,0Z"/><path class="cls-5" d="m69.53,135.1h0s-.03,0-.05,0-.03,0-.05,0h0c-.71-.05-1.41.07-2.05.25h0c-2.19.68-4.3-1.21-4.57-1.46-.16-.16-.35-.29-.63-.34l.11-.22c.41-.83,1.34-1.27,2.23-1.04,1.2.3,3.01.66,5.1.75v2.06s-.07,0-.1,0Z"/><path class="cls-20" d="m121.88,55.83c-7.18-22.99-17.38-31.56-29.83-36.55-11.26-4.51-30.19-.43-33.71.38-.04-.09-.07-.15-.07-.15-1.99-.07-3.71.14-5.3.63h0s-4.91-2.89-11.14-4.78l5.9-7.13c1.54.68,3.38.29,4.55-1.12,1.47-1.78,1.31-4.49-.36-6.05-1.67-1.57-4.22-1.39-5.68.38-1.17,1.41-1.3,3.4-.46,4.95l-6.79,8.21c-11.39-2.64-25.15-.5-22.23,26.88l-11.2,13.54c-1.54-.68-3.38-.3-4.54,1.11-1.47,1.78-1.32,4.49.36,6.05,1.67,1.57,4.21,1.4,5.68-.38,1.16-1.41,1.29-3.4.46-4.95l9.7-11.73c.37,2.53.87,5.25,1.51,8.17,0,.26-1.31,4.37-1.93,6.35-7.19,23-3.35,42.57.11,49.86,8.74,18.43,15.13,18.53,15.13,18.53,0,0-1.9-4.83-1.9-18.13,0-8.49,4.93-18.26,8.5-24.22,1.22-2.04,2.28-3.63,2.92-4.56l13.76-21.51c.11.91.26,1.84.56,2.85,2.12,7.44,4.51,11.26,19.56,20.49,6.18,3.8,5.24,27.93,5.24,27.93,0,0,6.8-20.29,3.83-28.99v-.03c2.53,3.33,5.68,6.99,9.45,10.5,11.84,11.01,4.43,25.76,4.43,25.76,0,0,5.84-8.78,4.74-20.15-.52-5.32-.92-7.55-1.19-8.44,1.57,1.05,6.6,5.29,6.6,16.52,0,13.3-2.77,22.33-4.63,27.58-2.39,6.78-14.64,22.63-14.64,22.63,0,0,28.1-25.17,32.51-50.61,1.39-8.04,7.3-26.87.11-49.86Z"/><path class="cls-11" d="m40.33,210.06l30.01-34.32h.17c12.19,0,22.09-5.89,22.23-13.2,3.76,1.47,9.35,4.65,14.12,11.31l-36.21,36.21"/><path class="cls-23" d="m59.64,98.57c.45-1.54.7-3.16.7-4.84,0-9.47-7.65-17.16-17.09-17.16s-17.08,7.68-17.08,17.16c0,2.11.39,4.11,1.08,5.98,7.77-3.48,19.97-6.71,32.39-1.14Z"/><path class="cls-23" d="m109.54,102.27c1.44-2.52,2.27-5.43,2.27-8.54,0-9.47-7.65-17.16-17.08-17.16s-17.09,7.68-17.09,17.16c0,3.32.96,6.4,2.57,9.02,7.68-3.97,18.21-6.51,29.33-.48Z"/><path class="cls-23" d="m62.3,99.9c-.06.17-.11.34-.16.51.08-.16.18-.29.26-.46-.03-.02-.07-.03-.1-.05Z"/><path class="cls-22" d="m62.3,99.9c-.06.17-.11.34-.16.51.08-.16.18-.29.26-.46-.03-.02-.07-.03-.1-.05Z"/><path class="cls-23" d="m43.25,110.89c7.76,0,14.31-5.2,16.39-12.32-12.42-5.57-24.61-2.35-32.39,1.14,2.42,6.53,8.66,11.19,16,11.19Z"/><path class="cls-22" d="m43.25,110.89c7.76,0,14.31-5.2,16.39-12.32-12.42-5.57-24.61-2.35-32.39,1.14,2.42,6.53,8.66,11.19,16,11.19Z"/><path class="cls-23" d="m77.37,104.35c.26.38.55.71.83,1.06-.26-.36-.52-.73-.75-1.11-.03.02-.05.03-.08.04Z"/><path class="cls-22" d="m77.37,104.35c.26.38.55.71.83,1.06-.26-.36-.52-.73-.75-1.11-.03.02-.05.03-.08.04Z"/><path class="cls-23" d="m94.73,110.89c6.33,0,11.86-3.48,14.81-8.62-11.11-6.03-21.65-3.48-29.33.48,3.02,4.88,8.38,8.14,14.52,8.14Z"/><path class="cls-22" d="m94.73,110.89c6.33,0,11.86-3.48,14.81-8.62-11.11-6.03-21.65-3.48-29.33.48,3.02,4.88,8.38,8.14,14.52,8.14Z"/><path class="cls-5" d="m114.19,88.9c-.09,0-.16,0-.24.02-1.2-4.88-4.16-9.06-8.17-11.82-3.21-2.21-7.08-3.52-11.27-3.52s-7.7,1.18-10.82,3.2c-4.02,2.6-7.05,6.6-8.42,11.31h-12.79c-1.9-6.55-7.01-11.72-13.51-13.67-1.82-.54-3.75-.84-5.74-.84-2.26,0-4.42.4-6.44,1.08-6.43,2.2-11.37,7.57-13,14.26-.09-.01-.18-.03-.28-.03-1,0-1.82.82-1.82,1.83v5.36c0,1.01.81,1.83,1.82,1.83.05,0,.11,0,.16,0,.04.17.08.36.12.53,1.51,6.33,5.96,11.5,11.85,13.94,2.34.97,4.91,1.5,7.6,1.5,5.34,0,10.19-2.1,13.78-5.52,2.29-2.18,4.06-4.9,5.13-7.96.06-.16.11-.34.16-.51.48-1.51.82-3.09.93-4.74.85-.37,1.74-.63,2.65-.83,2.29-.49,4.64-.39,6.63.25.73.24,1.43.54,2.03.93.28,3.2,1.31,6.19,2.9,8.79.23.38.49.74.75,1.11,3.63,5.12,9.56,8.47,16.31,8.47,1.91,0,3.75-.28,5.5-.78,4.85-1.39,8.93-4.57,11.52-8.79,1.19-1.94,2.07-4.1,2.55-6.4.03,0,.07,0,.11,0,1,0,1.81-.82,1.81-1.83v-5.36c0-1.01-.81-1.83-1.81-1.83Zm-54.55,9.67c-2.08,7.12-8.63,12.32-16.39,12.32-7.34,0-13.58-4.66-16-11.19-.69-1.86-1.08-3.87-1.08-5.98,0-9.47,7.65-17.16,17.08-17.16s17.09,7.68,17.09,17.16c0,1.68-.25,3.3-.7,4.84Zm14.85-5.51c-.63-.29-1.33-.51-2.04-.69-2-.5-4.22-.58-6.42-.2-.94.16-1.87.4-2.77.73-.04-1.03-.16-2.05-.36-3.04h11.95c-.2,1.04-.33,2.11-.37,3.2Zm35.05,9.2c-2.95,5.14-8.47,8.62-14.81,8.62s-11.5-3.26-14.52-8.14c-1.62-2.62-2.57-5.71-2.57-9.02,0-9.47,7.65-17.16,17.09-17.16s17.08,7.68,17.08,17.16c0,3.11-.83,6.02-2.27,8.54Z"/></svg>