<?xml version="1.0" encoding="UTF-8"?><svg id="Layer_1" xmlns="http://www.w3.org/2000/svg" viewBox="0 0 305.89 356.66"><defs><style>.cls-1{fill:#d8bcdb;}</style></defs><path class="cls-1" d="m152.95,356.66c-4.43-.01-17.02-1.36-21.45-1.42-10.95-.81-21.56-3.33-32.17-6.04-9.02-2.3-17.73-5.53-26.2-9.17-9.64-4.15-18.99-9.04-27.93-14.69-10.19-6.43-19.54-13.92-28.76-21.57-4.22-3.5-7.99-7.6-11.7-11.66-1.87-2.05-3.69-4.3-4.37-7.16-1.09-4.79.31-8.88,3.84-12.13,4.14-3.81,9-6.6,14.03-9.1,5.48-2.72,11.25-4.56,17.16-5.98,4.32-1.03,8.71-1.77,13.06-2.66,9.7-1.97,19.38-4.04,29.1-5.9,5.36-1.03,10.75-1.86,15.89-3.74,5.83-2.13,8.58-6.04,8.54-12.26-.03-3.96.42-7.93-.35-11.88-.58-2.96-2.57-5.16-3.92-7.71-2.66-5.06-5.5-10.04-8.07-15.15-3.59-7.14-8.19-13.46-13.76-19.2-4.55-4.69-8.33-10.03-11.8-15.63-4.54-7.32-7.09-15.32-8.13-23.68-.88-7.13-.76-14.42,2.78-21.07,1.37-2.58,1.59-5.28,1.59-8.09.02-9.63-.23-19.26.22-28.88.21-4.49.34-9.07,1.32-13.43,2.22-9.89,6.69-18.81,12.52-27.12,6.64-9.46,15-17.13,24.49-23.5,6.91-4.64,14.27-8.55,22.22-11.31,7.48-2.6,15.04-4.65,22.87-5.82,8.73-1.3,17.37-.75,25.99,1.06,7.85,1.65,15.29,4.42,22.56,7.73,3.11,1.42,6.49,2.04,9.78,2.95,5.85,1.61,11.94,2.45,17.52,4.97,5.58,2.52,9.47,6.95,12.7,11.93,3.14,4.83,4.97,10.17,6.28,15.84,1.51,6.49,1.64,13.05,2.3,19.59.3,2.98.99,5.93,1.58,8.88,1.41,7.08,2.15,14.23,2.36,21.44.2,6.57.5,13.14.43,19.71-.03,2.26,1.54,3.99,2.31,5.99,2.59,6.66,2.9,13.49,1.85,20.5-1.41,9.34-4.86,17.9-10.07,25.68-2.91,4.35-6.03,8.61-9.81,12.31-6.54,6.41-11.29,14.03-15.18,22.26-2.93,6.2-6.41,12.12-9.95,18-.27.45-.62.87-.61,1.44.1,4.51-.3,9.03.2,13.53.82,7.39,5.38,10.77,12.09,12.14,6.94,1.42,13.87,2.86,20.82,4.24,5.88,1.17,11.8,2.17,17.67,3.39,12.67,2.63,25.47,4.87,36.91,11.48,3.11,1.79,6.13,3.7,8.95,5.93,4.14,3.28,5.66,7.6,5.09,12.75-.91,3.35-2.93,5.97-5.39,8.35-3.49,3.36-6.81,6.89-10.32,10.23-6.14,5.85-12.7,11.27-19.59,16.17-10.75,7.65-22.3,14.1-34.36,19.44-14.56,6.45-29.65,11.35-45.39,14.11-6.17,1.08-12.31,2.29-18.57,2.72l-19.21,1.18Z"/></svg>