<?xml version="1.0" encoding="UTF-8"?><svg id="Layer_1" xmlns="http://www.w3.org/2000/svg" xmlns:xlink="http://www.w3.org/1999/xlink" viewBox="0 0 127.75 208.26"><defs><style>.cls-1{fill:none;}.cls-2{clip-path:url(#clippath);}.cls-3{fill:#f1dab4;}.cls-4{fill:#e9897e;}.cls-5{fill:#e4c59e;}.cls-6{fill:#fff;}.cls-7{fill:#7f401b;}.cls-8{fill:#c3977d;}.cls-9{fill:#a19d9c;}.cls-10{fill:#b48d76;}.cls-11{fill:#c1967d;}.cls-12{fill:#e01a09;}.cls-13{fill:#c49d80;}.cls-14{fill:#c5997d;}.cls-15{fill:#e1bd9d;}.cls-16{fill:#e0bc9b;}.cls-17{fill:#d7ad88;}.cls-18{fill:#dbbb9a;}.cls-19{fill:#231c08;}.cls-20{fill:#463216;}.cls-21{fill:#4c2912;}.cls-22{fill:url(#Névtelen_színátmenet_5);}.cls-22,.cls-23,.cls-24{opacity:.49;}.cls-23{fill:url(#Névtelen_színátmenet_5-2);}.cls-25{fill:#7b7476;fill-rule:evenodd;}.cls-24{fill:#b2d3a9;}</style><clipPath id="clippath"><rect class="cls-1" x="46.46" y="139.71" width="25.11" height="14.8"/></clipPath><linearGradient id="Névtelen_színátmenet_5" x1="30.33" y1="115.71" x2="30.33" y2="65.83" gradientUnits="userSpaceOnUse"><stop offset="0" stop-color="#fff"/><stop offset="1" stop-color="#93b189"/></linearGradient><linearGradient id="Névtelen_színátmenet_5-2" x1="85.74" y1="115.71" x2="85.74" y2="65.83" xlink:href="#Névtelen_színátmenet_5"/></defs><path class="cls-5" d="m58.92,124.5v83.76H13.61c-.74-.29-1.11-.44-1.11-.44,0-10.69,1.57-19.03,3.96-25.53,5.77-15.69,16.32-20.67,21.18-22.17,1.59-.49,2.58-.61,2.58-.61.17,0,.33-.02.5-.04,1.43-.23,2.59-1.47,3.51-3.45.69-1.47,1.27-3.34,1.74-5.51.19-.85.33-1.7.48-2.62.22-1.55.44-3.17.63-4.87.07-1.03.18-2.03.29-3.1.4-5.12.52-10.73.52-16.05,0,0,6.08.63,11.02.63Z"/><path class="cls-3" d="m105.52,207.82s-.41.15-1.07.44h-45.53v-83.76h.11c4.9,0,11.06-.63,11.06-.63,0,5.27.11,10.81.51,15.93.11,1,.22,2.03.29,3.02.19,1.77.41,3.43.67,4.98v.03c.07.7.22,1.33.33,1.99.45,2.18.99,4.1,1.64,5.63.81,1.91,1.8,3.25,3.01,3.77.38.17.79.26,1.21.26,0,0,1.74.21,4.36,1.24,5.33,2.09,14.29,7.57,19.44,21.55,2.39,6.5,3.96,14.84,3.96,25.53Z"/><g class="cls-2"><path class="cls-13" d="m71.57,147.66v.04c-1.14,1.76-4.98,6.82-12.57,6.82h-.07c-7.19-.04-11.39-5.24-12.46-6.78.22-1.54.44-3.15.63-4.84.07-.99.18-2.02.29-3.08,3.5.88,7.34,1.43,11.39,1.5h.15c4.2-.07,8.07-.66,11.69-1.61.11.99.22,2.02.29,3,.18,1.76.41,3.41.66,4.95"/></g><path class="cls-17" d="m58.4,29.05c-48,0-48.26,40.12-46.12,66.39-3.28-6.23-13.05-4.32-12.24,5.5.77,9.45,14.73,14.27,14.34,13.23,7.27,19.43,26.51,34.08,44.02,34.08h.37V29.05h-.37"/><path class="cls-10" d="m3.11,96.8c2.36-3.81,6.05-2.16,6.93-1.32.96.92,1.73,2.09,1.14,4.32-.33,1.28-1.66,1.39-1.36,3.3.37,2.16,1.36,2.27,1.95,2.78.55.48,1.25.84,1.59,1.76.37.92.41,1.87.22,2.71-.37,1.54-2.62.29-4.13-.37-1-.48-4.17-3.15-4.98-4.03-1.99-2.27-2.95-6.67-1.36-9.16"/><path class="cls-15" d="m58.66,29.05c48,0,48.26,40.12,46.15,66.39,3.28-6.23,13.01-4.32,12.2,5.5-.74,9.45-14.72,14.27-14.34,13.23-7.08,19.43-26.51,34.08-44.02,34.08h-.26l-.11-119.19h.37"/><path class="cls-10" d="m113.96,96.8c-2.36-3.81-6.01-2.16-6.93-1.32-.96.92-1.7,2.09-1.14,4.32.33,1.28,1.66,1.39,1.36,3.3-.37,2.16-1.36,2.27-1.92,2.78-.55.48-1.29.84-1.62,1.76-.33.92-.41,1.87-.22,2.71.37,1.54,2.62.29,4.13-.37,1.03-.48,4.17-3.15,4.98-4.03,2.03-2.27,2.95-6.67,1.36-9.16"/><path class="cls-5" d="m58.03,40.37c-15.78,0-27.35,4.58-34.32,13.59-9.77,12.64-9.4,31.91-5.82,45.76,1.11,4.25,1.7,15.65,2.43,19.82,3.43,18.72,24.11,28.69,37.71,28.69h.37V40.37h-.22"/><path class="cls-3" d="m92.31,54c-6.93-8.98-18.36-13.56-33.92-13.63v107.87c15.56-.18,34.17-11.1,37.34-28.69.77-4.18,1.33-15.57,2.43-19.82,3.61-13.81,3.98-33.05-5.86-45.73"/><path class="cls-1" d="m56.47,129.24c-.22-.04-.42-.08-.59-.11.2.04.4.08.59.11Z"/><path class="cls-1" d="m55.65,129.08c-.14-.03-.27-.06-.36-.08.12.03.24.05.36.08Z"/><path class="cls-8" d="m55.88,129.12c-.08-.02-.15-.03-.23-.05.07.02.14.03.23.05Z"/><path class="cls-8" d="m55.29,128.99c-.07-.02-.13-.04-.2-.06h0s.08.02.21.06Z"/><path class="cls-1" d="m15.37,74c-.43,1.43-.73,2.99-.93,4.66,0,0,.63-2.63,2.03-6.52-.6.83-1,1.5-1.1,1.86Z"/><path class="cls-20" d="m45,40.64l-.2.2.03.07c.07-.1.1-.2.17-.27Z"/><path class="cls-1" d="m56.62,127.05c-.22-.04-.43-.08-.61-.12.21.04.41.09.61.12Z"/><path class="cls-1" d="m55.78,126.89c-.14-.03-.28-.06-.37-.08.12.03.24.06.37.08Z"/><path class="cls-11" d="m56.01,126.94c-.08-.02-.15-.03-.23-.05.08.02.14.03.23.05Z"/><path class="cls-11" d="m55.41,126.8c-.07-.02-.14-.04-.21-.06h0s.08.02.21.06Z"/><path class="cls-16" d="m49.02,114c-.19-3.83,7.03-1.4,9.41-1.28,1.88.1,7.6-1.21,8.09-.87,3.37,2.27-3.57,6.84-8.21,6.84-1.24,0-9.18-2.38-9.29-4.69Z"/><path class="cls-6" d="m23.96,82.48s3.66,15.02,9.95,16.25c6.29,1.23,13.09-1.21,13.09-1.21,0,0,.65-17.65-2.57-19.96-3.22-2.32-10.63-5.66-20.47,4.92Z"/><path class="cls-18" d="m47.01,97.47s-.14.04-.47.18c-.08-5.42-.58-12.85-2.59-14.28-2.99-2.19-9.74-5.27-18.75,3.16-.82-2.33-1.23-4.09-1.23-4.09,9.86-10.61,17.28-7.27,20.47-4.95,3.22,2.32,2.57,19.99,2.57,19.99Z"/><circle class="cls-21" cx="37.1" cy="89.82" r="6.19"/><path class="cls-7" d="m36.81,93.94c-1.79-.15-3.16-1.95-3-3.93.16-1.98,1.81-3.53,3.6-3.38,1.79.15,3.16,1.95,3,3.93-.16,1.98-1.81,3.54-3.6,3.39Z"/><path class="cls-19" d="m36.97,93.22c-1.24-.11-2.53-1.47-2.4-3.15.14-1.69,1.63-2.82,2.88-2.72,1.24.11,2.53,1.48,2.39,3.16-.14,1.68-1.63,2.82-2.87,2.72Z"/><path class="cls-6" d="m35.96,89.08c-.05.61-.68,1.05-1.39.99-.72-.06-1.26-.6-1.21-1.21.05-.61.67-1.05,1.39-1,.72.06,1.26.6,1.21,1.21Z"/><path class="cls-6" d="m39.97,92.59c-.03.3-.34.53-.69.5-.36-.03-.63-.3-.61-.6.03-.3.34-.53.69-.5.36.03.63.3.61.6Z"/><path class="cls-1" d="m56.72,128.82c-.22-.04-.43-.08-.61-.12.21.04.41.08.61.12Z"/><path class="cls-1" d="m55.88,128.66c-.14-.03-.28-.06-.37-.08.12.03.24.06.37.08Z"/><path class="cls-11" d="m56.11,128.71c-.08-.02-.15-.03-.23-.05.08.02.14.03.23.05Z"/><path class="cls-11" d="m55.51,128.57c-.07-.02-.14-.04-.21-.06h0s.08.02.21.06Z"/><path class="cls-1" d="m56.48,128.41c-.24-.04-.46-.08-.65-.12.22.05.44.09.65.12Z"/><path class="cls-1" d="m55.58,128.23c-.15-.03-.3-.07-.4-.09.13.03.26.06.4.09Z"/><path class="cls-8" d="m55.83,128.28c-.08-.02-.17-.03-.25-.05.08.02.15.03.25.05Z"/><path class="cls-8" d="m55.18,128.14c-.08-.02-.15-.04-.22-.06h0s.09.03.23.06Z"/><path class="cls-1" d="m56.29,127.78c-.24-.04-.46-.08-.65-.12.22.05.44.09.65.12Z"/><path class="cls-1" d="m55.39,127.6c-.15-.03-.3-.07-.4-.09.13.03.26.06.4.09Z"/><path class="cls-8" d="m55.64,127.65c-.08-.02-.17-.03-.25-.05.08.02.15.03.25.05Z"/><path class="cls-8" d="m55,127.51c-.08-.02-.15-.04-.22-.06h0s.09.03.23.06Z"/><path class="cls-1" d="m56.85,127.69c-.23-.04-.44-.08-.63-.12.21.05.42.09.63.12Z"/><path class="cls-1" d="m55.98,127.52c-.14-.03-.29-.06-.38-.09.13.03.25.06.38.09Z"/><path class="cls-8" d="m56.22,127.57c-.08-.02-.16-.03-.24-.05.08.02.15.03.24.05Z"/><path class="cls-8" d="m55.59,127.43c-.07-.02-.14-.04-.21-.06h0s.08.03.22.06Z"/><path class="cls-6" d="m93.2,81.97s-3.66,15.02-9.95,16.25c-6.29,1.23-13.09-1.21-13.09-1.21,0,0-.65-17.65,2.57-19.96,3.22-2.32,10.63-5.66,20.47,4.92Z"/><path class="cls-18" d="m70.16,96.96s.14.04.47.18c.08-5.41.58-12.85,2.59-14.28,2.99-2.19,9.74-5.27,18.75,3.16.82-2.33,1.23-4.09,1.23-4.09-9.86-10.61-17.28-7.27-20.47-4.95-3.22,2.32-2.57,19.99-2.57,19.99Z"/><path class="cls-21" d="m73.88,89.31c0,3.42,2.77,6.19,6.19,6.19s6.19-2.77,6.19-6.19-2.77-6.19-6.19-6.19-6.19,2.77-6.19,6.19Z"/><path class="cls-7" d="m80.35,93.43c1.79-.15,3.16-1.95,3-3.93-.16-1.98-1.81-3.53-3.6-3.38-1.79.15-3.16,1.95-3,3.93.16,1.98,1.81,3.54,3.6,3.39Z"/><path class="cls-19" d="m80.2,92.71c1.24-.11,2.53-1.47,2.4-3.15-.14-1.69-1.63-2.82-2.88-2.72-1.24.11-2.53,1.48-2.39,3.16.14,1.68,1.63,2.82,2.87,2.72Z"/><path class="cls-6" d="m81.21,88.57c.05.61.68,1.05,1.39.99.72-.06,1.26-.6,1.21-1.21-.05-.61-.67-1.05-1.39-1-.72.06-1.26.6-1.21,1.21Z"/><path class="cls-6" d="m77.2,92.08c.03.3.34.53.69.5.36-.03.63-.3.61-.6-.03-.3-.34-.53-.69-.5-.36.03-.63.3-.61.6Z"/><path d="m50.78,82.24c-.05-.07-1.19-1.81-3.52-3.6-1.46-1.12-2.89-1.97-4.38-2.61-1.81-.76-3.75-1.3-5.63-1.55-1.7-.19-3.59-.14-5.8.16-1.68.32-3.32.82-4.71,1.43-.99.34-1.78.82-2.41,1.21-.24.15-.46.28-.68.4l-3,1.89,3.46-.81c.16-.04.34-.09.52-.14.72-.19,1.61-.43,2.65-.58.24-.04.49-.08.75-.14.44-.09.89-.18,1.36-.2.52-.03,1.07-.07,1.63-.11l.73-.05c1.92-.02,3.54.12,4.97.45,1.57.27,3.19.78,4.67,1.46,1.4.67,2.74,1.33,3.79,2.1,2.11,1.41,3.29,2.59,3.3,2.6h0c.29.29.68.44,1.07.44.28,0,.57-.08.82-.24.7-.46.89-1.4.45-2.07l-.03-.05Z"/><path d="m93.82,77.67c-.2-.11-.42-.24-.66-.39-.63-.39-1.41-.87-2.38-1.2-1.42-.63-3.06-1.13-4.76-1.45-2.18-.29-4.07-.34-5.78-.15-1.87.26-3.82.79-5.63,1.55-1.46.63-2.94,1.5-4.38,2.61-2.29,1.76-3.43,3.46-3.51,3.59l-.02.03c-.39.6-.3,1.39.2,1.89.28.29.66.44,1.07.44h0c.4,0,.78-.16,1.06-.44h.01c.11-.12,1.25-1.24,3.3-2.61,1.03-.76,2.37-1.42,3.77-2.09,1.49-.69,3.1-1.2,4.7-1.47,1.42-.33,3.04-.47,4.93-.45l.76.05c.55.04,1.09.08,1.62.11.46.02.91.11,1.35.2.25.05.5.1.75.14,1.05.15,1.94.39,2.65.58.19.05.36.1.53.14l3.46.81-3.03-1.9Z"/><path class="cls-1" d="m54.49,134.06c-.22-.04-.43-.08-.6-.12.21.04.4.08.6.12Z"/><path class="cls-1" d="m53.66,133.9c-.14-.03-.28-.06-.37-.08.12.03.24.06.37.08Z"/><path class="cls-14" d="m53.89,133.95c-.08-.02-.15-.03-.23-.05.08.02.14.03.23.05Z"/><path class="cls-14" d="m53.29,133.82c-.07-.02-.14-.04-.21-.06h0s.08.02.21.06Z"/><path class="cls-1" d="m54.32,133.48c-.22-.04-.43-.08-.6-.12.2.04.4.08.6.12Z"/><path class="cls-1" d="m53.49,133.32c-.14-.03-.28-.06-.37-.08.12.03.24.06.37.08Z"/><path class="cls-14" d="m53.72,133.37c-.08-.02-.15-.03-.23-.05.08.02.14.03.23.05Z"/><path class="cls-14" d="m53.12,133.23c-.07-.02-.14-.04-.21-.06h0s.08.02.21.06Z"/><path class="cls-1" d="m54.83,133.4c-.22-.04-.41-.08-.58-.11.2.04.39.08.58.11Z"/><path class="cls-1" d="m54.03,133.24c-.13-.03-.27-.06-.35-.08.12.03.23.05.35.08Z"/><path class="cls-14" d="m54.25,133.29c-.07-.02-.15-.03-.22-.05.07.02.14.03.22.05Z"/><path class="cls-14" d="m53.67,133.16c-.07-.02-.13-.04-.2-.06h0s.08.02.21.06Z"/><path class="cls-4" d="m95.07,203.45c.05,1.38.06,2.81.06,4.28,0,0-.28.14-.84.52H23.84c-.57-.38-.86-.52-.86-.52,0-1.47.02-2.9.06-4.28.03-1.46.09-2.87.17-4.25.12-2.39.32-4.68.55-6.85.15-1.47.34-2.89.55-4.25.31-2.06.68-3.99,1.07-5.82h-8.93c.14-.35.26-.71.4-1.04.6-1.52,1.24-2.93,1.92-4.25,5.96-11.56,14.61-15.55,18.86-16.87,0,.15-.02.31-.02.46,0,7.18,9.44,13.03,21.29,13.34.32.02.64.02.98.02,12.17,0,22.07-5.89,22.21-13.2,4.6,1.8,11.91,6.12,17.13,16.26.68,1.32,1.32,2.73,1.92,4.25.14.34.28.69.4,1.04h-8.84c.4,1.81.77,3.76,1.07,5.82.03.18.06.35.08.54.18,1.2.34,2.44.48,3.71.23,2.16.43,4.44.55,6.85.06,1.2.12,2.43.15,3.68,0,.18.02.38.02.57Z"/><path class="cls-6" d="m112.51,48.46c-.14-.51-.28-1-.42-1.48,7.57-1.21,11.8-7.79,11.8-7.79,0,0-2.33,3.09-9.74,2.18,7.75-1.24,12.08-8.69,12.08-8.69,0,0-3.43,5.06-15.25,1.12-11.55-3.85-11.25-16.38-27.85-23.38-8.5-3.58-13.57-3.11-16.51-1.81,2.98-2.46,9.09-2.25,9.09-2.25,0,0-7.55-4.19-19.22-.43-8.2,2.64-13.11,5.65-15.86,7.81l4.6-4.42s-3.26,1.17-7.87,3.53c3.14-6.13,8.94-12.86,8.94-12.86-14.78,5.55-27.03,25.52-27.03,25.52,1.17-7.53,3.76-14.42,3.76-14.42C4.78,24.8,1.79,46.47,1.53,57.4c-.84,3.29-1.23,6.65-1.23,10.12,0,11.63,5.02,23.29,8.32,26.75,3.3,3.46,2.24,8.48,3.22,8.48,0,0,.48.02.97-.99.11.98.22,1.61.55,1.61,0,0,2,.07,2.07-9.68.24-3.29,1.28-8.59,5.51-7,.23.1.46.21.68.3.04.02.08.04.12.06h0c21.24,8.56,32.09-13.12,32.09-13.12,0,0,1.82-3.87,4.59-8.27,2.49-3.95,5.74-8.32,9.17-10.73,2.14-1.5,4.94-2.64,8.33-3.71,19.35-6.07,27.38,25.07,25.75,33.28-1.56,7.93-.78,13.75.35,16.91.67,1.88,1.47,2.82,1.96,2.69,0,0,.05-3.21,1.25-6.08,3.57-8.53,6.57-2.6,7.12-14.17.44-9.28,1.56-14.53,2-19.24,2.83,2.28,7.06,3.89,13.38,4.02,0,0-8.94-2.79-15.24-20.17Z"/><path class="cls-22" d="m48.35,99.43c-.12.45-.24.88-.38,1.3-13.93-7.35-26.25-3.56-34.48,1.29-2.54-5.99-1.84-11.94-1.84-11.94,3.24-15.47,25.99-9.71,25.99-9.71,15.65,5.67,10.71,19.06,10.71,19.06Z"/><path class="cls-23" d="m103.16,100.47c-8.72-4.31-20.94-6.62-34.48,1.92-.36-.91-.69-1.89-.96-2.96,0,0-4.95-13.4,10.7-19.06,0,0,22.75-5.76,25.99,9.71,0,0,.58,4.97-1.25,10.39Z"/><path class="cls-24" d="m103.16,100.47c-1.92,5.68-6.48,11.85-17.13,13.33-.65.09-1.32.12-1.98.07-3.04-.24-11.49-1.81-15.37-11.48,13.54-8.54,25.76-6.23,34.48-1.92Z"/><path class="cls-24" d="m47.98,100.73c-3.52,11.15-12.74,12.88-15.95,13.14-.66.06-1.32.03-1.98-.07-9.69-1.35-14.34-6.57-16.55-11.78,8.23-4.86,20.55-8.64,34.48-1.29Z"/><path class="cls-12" d="m97.22,77.49c-8.29-3.26-38.02-3.67-39.17-3.69h0s0,0-.02,0c-.01,0-.02,0-.02,0h0c-1.14.02-30.87.43-39.17,3.69,0,0-12.68,5.67-15.2,6.48v6.21s3.51.81,4.32,5.67c0,0,2.44,15.56,16.79,19.85,3.56,1.07,7.35,1.05,10.93.06,6.55-1.81,16.93-7.02,17.28-21.85.03-1.36-.39-2.69-1.12-3.83-1.17-1.84-1.91-4.85,6.17-4.48h0s.01,0,.02,0c0,0,.01,0,.02,0h0c8.08-.37,7.34,2.64,6.17,4.48-.73,1.15-1.15,2.47-1.12,3.83.35,14.84,10.73,20.04,17.28,21.85,3.58.99,7.37,1,10.93-.06,14.35-4.29,16.79-19.85,16.79-19.85.81-4.86,4.32-5.67,4.32-5.67v-6.21c-2.52-.81-15.2-6.48-15.2-6.48Zm7.19,12.59s.58,4.97-1.25,10.39h0c-.24.71-.52,1.42-.85,2.14,0,0,0,.01,0,.02-.08.17-.16.33-.24.5,0,.02-.02.04-.03.06-.08.15-.16.31-.24.46-.02.03-.03.06-.05.09-.08.14-.15.28-.23.42-.02.04-.05.08-.07.12-.08.13-.15.26-.23.39-.03.05-.06.1-.09.15-.08.12-.15.24-.23.37-.04.05-.07.11-.11.16-.08.11-.16.23-.24.34-.04.06-.08.12-.13.18-.08.11-.16.22-.24.32-.05.06-.09.12-.14.19-.08.1-.16.21-.25.31-.05.06-.11.13-.16.19-.08.1-.17.2-.25.29-.06.07-.12.13-.18.2-.08.09-.17.19-.26.28-.06.07-.13.13-.19.2-.09.09-.18.18-.27.27-.07.07-.13.13-.2.2-.09.09-.19.17-.28.26-.07.07-.14.13-.22.2-.1.09-.19.17-.29.25-.08.06-.15.13-.23.19-.1.08-.2.16-.31.24-.08.06-.16.13-.24.19-.11.08-.21.16-.32.24-.08.06-.17.12-.25.18-.11.08-.23.15-.34.23-.09.06-.17.11-.26.17-.12.08-.24.15-.37.23-.09.05-.17.11-.26.16-.13.08-.26.15-.39.22-.09.05-.17.1-.26.15-.14.07-.28.15-.42.22-.09.04-.17.09-.26.13-.15.07-.3.14-.46.22-.08.04-.17.08-.25.12-.17.07-.34.14-.51.22-.08.03-.15.07-.23.1-.19.07-.38.15-.57.22-.07.03-.13.05-.2.08-.21.08-.43.15-.65.22-.05.02-.1.03-.15.05-.25.08-.5.15-.76.23-.03,0-.05.01-.07.02-1.15.32-2.38.58-3.71.76-.15.02-.29.04-.44.05-.49.05-.98.05-1.46.02-.03,0-.05,0-.08,0-.04,0-.09,0-.14-.01-.06,0-.11,0-.17-.02-.04,0-.08,0-.12-.01-.08,0-.16-.02-.24-.03-.04,0-.08-.01-.12-.02-.09-.01-.17-.02-.26-.04-.04,0-.09-.01-.13-.02-.09-.01-.19-.03-.28-.04-.05,0-.1-.02-.14-.02-.1-.02-.2-.03-.3-.05-.05,0-.1-.02-.16-.03-.1-.02-.2-.04-.31-.06-.06-.01-.11-.02-.17-.04-.1-.02-.21-.05-.32-.07-.06-.01-.12-.03-.18-.04-.11-.03-.22-.06-.34-.09-.06-.02-.12-.03-.18-.05-.12-.03-.24-.07-.36-.11-.06-.02-.11-.03-.17-.05-.14-.04-.28-.09-.42-.14-.04-.01-.08-.03-.13-.04-.18-.06-.37-.13-.56-.2-.04-.02-.09-.04-.13-.05-.14-.06-.28-.11-.43-.17-.08-.03-.15-.07-.23-.1-.11-.05-.23-.1-.34-.15-.09-.04-.17-.08-.26-.12-.11-.05-.21-.1-.32-.16-.09-.05-.18-.09-.27-.14-.1-.05-.21-.11-.31-.17-.09-.05-.19-.11-.28-.16-.1-.06-.2-.12-.31-.18-.09-.06-.19-.12-.28-.18-.1-.06-.2-.13-.3-.2-.09-.06-.19-.13-.28-.19-.1-.07-.2-.14-.3-.22-.09-.07-.19-.14-.28-.21-.1-.08-.21-.16-.31-.24-.09-.07-.18-.14-.27-.22-.11-.09-.22-.19-.33-.28-.08-.07-.16-.14-.24-.21-.14-.13-.28-.26-.42-.4-.05-.05-.1-.09-.14-.14-.18-.18-.37-.37-.55-.57-.05-.06-.11-.12-.16-.19-.13-.14-.25-.29-.38-.43-.06-.08-.12-.15-.19-.23-.11-.14-.23-.29-.34-.43-.06-.08-.12-.17-.18-.25-.11-.15-.22-.3-.32-.46-.06-.09-.12-.18-.18-.27-.11-.16-.21-.33-.31-.5-.05-.09-.11-.18-.16-.27-.1-.18-.21-.36-.31-.55-.05-.09-.1-.18-.14-.27-.11-.2-.21-.41-.31-.62-.04-.08-.08-.16-.12-.25-.11-.23-.22-.48-.32-.72-.03-.06-.05-.13-.08-.19-.4-.96-.75-2.01-1.04-3.14,0,0-4.95-13.4,10.7-19.06,0,0,22.75-5.76,25.99,9.71Zm-92.76,0c3.24-15.47,25.99-9.71,25.99-9.71,15.65,5.67,10.7,19.06,10.7,19.06-.14.53-.29,1.03-.45,1.53-.08.26-.17.52-.26.77-.03.07-.05.14-.08.2-.1.26-.2.52-.3.78-.01.03-.03.06-.04.1-.51,1.21-1.1,2.29-1.73,3.25,0,0,0,0,0,0-.13.19-.26.37-.39.55-.04.06-.08.12-.13.18-.12.16-.24.31-.36.46-.06.07-.12.15-.18.23-.11.14-.23.27-.34.4-.07.08-.14.16-.21.24-.11.12-.22.24-.34.36-.08.08-.15.16-.23.24-.11.11-.22.22-.33.32-.08.08-.16.16-.24.23-.11.1-.22.19-.33.29-.09.07-.17.15-.26.22-.11.09-.22.18-.33.26-.09.07-.18.14-.27.21-.11.08-.21.16-.32.24-.09.07-.18.13-.28.2-.11.07-.21.15-.32.22-.09.06-.19.12-.28.18-.11.07-.21.13-.32.2-.1.06-.19.12-.29.17-.1.06-.21.12-.31.18-.1.05-.19.11-.29.16-.1.05-.2.11-.31.16-.1.05-.19.1-.29.14-.1.05-.2.1-.3.14-.1.04-.19.09-.29.13-.1.04-.2.08-.29.13-.1.04-.2.08-.29.12-.09.04-.19.07-.28.11-.1.04-.19.07-.29.11-.09.03-.18.07-.27.1-.1.03-.19.06-.29.09-.09.03-.18.06-.26.08-.1.03-.19.06-.28.08-.08.02-.17.05-.25.07-.09.03-.18.05-.27.07-.08.02-.17.04-.25.06-.09.02-.17.04-.26.06-.08.02-.16.04-.23.05-.08.02-.17.03-.25.05-.08.02-.15.03-.23.05-.08.01-.15.03-.23.04-.07.01-.15.03-.22.04-.07.01-.13.02-.2.03-.07.01-.15.02-.22.03-.05,0-.1.01-.16.02-.08.01-.16.02-.24.03-.02,0-.04,0-.06,0-.22.03-.43.05-.61.06-.04,0-.08,0-.11,0-.48.03-.96.02-1.43-.02-.14-.01-.29-.03-.43-.05-.55-.08-1.08-.17-1.6-.27-.06-.01-.12-.02-.18-.03-.2-.04-.4-.09-.6-.13-.09-.02-.18-.04-.26-.06-.18-.04-.36-.09-.54-.14-.1-.03-.2-.05-.29-.08-.17-.05-.34-.09-.5-.14-.1-.03-.2-.06-.3-.09-.16-.05-.31-.1-.47-.15-.1-.03-.21-.07-.31-.1-.15-.05-.29-.1-.44-.16-.1-.04-.21-.08-.31-.12-.14-.05-.28-.11-.42-.16-.1-.04-.21-.08-.31-.13-.13-.06-.26-.11-.39-.17-.1-.05-.21-.09-.31-.14-.12-.06-.25-.12-.37-.17-.1-.05-.21-.1-.31-.16-.11-.06-.23-.12-.34-.18-.11-.06-.21-.12-.31-.17-.1-.06-.21-.12-.31-.17-.11-.07-.22-.13-.33-.2-.09-.05-.18-.11-.27-.16-.14-.09-.28-.18-.42-.28-.05-.03-.1-.07-.15-.1-.19-.13-.37-.26-.55-.4-.03-.02-.06-.05-.09-.07-.15-.11-.3-.23-.44-.34-.05-.04-.09-.08-.14-.12-.12-.1-.25-.2-.37-.31-.05-.04-.1-.09-.15-.13-.11-.1-.23-.2-.34-.31-.05-.04-.09-.09-.14-.13-.11-.1-.22-.21-.32-.32-.04-.04-.09-.09-.13-.14-.1-.11-.21-.22-.31-.32-.04-.04-.08-.09-.12-.14-.1-.11-.2-.22-.3-.34-.04-.04-.07-.09-.11-.13-.1-.12-.2-.24-.29-.35-.03-.04-.06-.08-.1-.12-.1-.12-.19-.25-.29-.38-.03-.03-.05-.07-.08-.1-.1-.13-.19-.27-.29-.41-.02-.03-.04-.06-.06-.08-.1-.15-.2-.3-.3-.44-.01-.02-.02-.03-.03-.05-.54-.84-1-1.7-1.39-2.57-.01-.03-.03-.06-.04-.09-2.7-6.09-1.98-12.27-1.98-12.27Zm46.4-8.99h0s0,0-.02,0c-.01,0-.02,0-.02,0h0c-.49,0-6.08.14-8.23,1.17,0,0-1.71.9-4.95-1.98,0,0-2.59-1.54-4.15-1.97-.7-.19-.64-1.2.07-1.31.34-.05.79-.08,1.38-.04h31.78c.59-.03,1.04-.01,1.38.04.71.12.77,1.12.07,1.31-1.55.43-4.15,1.97-4.15,1.97-3.24,2.88-4.95,1.98-4.95,1.98-2.15-1.03-7.74-1.16-8.23-1.17Z"/><path class="cls-25" d="m57.73,123.36c4.63-10.39,18.14-3.6,26.06-1.06,1.69-.01.52-3.01,1.54-3.73,7.8,20.52-20.21,25.45-27.6,12.24-7.18,11.59-33.04,8.99-27.6-12.24,2.07.15.39,4.2,2.56,4.26,7.23-3.81,20.17-8.91,25.04.53Z"/><path class="cls-25" d="m32.69,122.83c-2.16-.05-.49-4.1-2.56-4.26-5.45,21.23,20.41,23.83,27.6,12.24,7.39,13.21,35.4,8.28,27.6-12.24-1.02.72.16,3.72-1.54,3.73-7.92-2.54-21.43-9.33-26.06,1.06-4.87-9.44-17.81-4.34-25.04-.53Z"/><path class="cls-9" d="m47.13,143.23c.06,4.09,2.05,7.4,4.47,7.4h13.78c2.46,0,4.45-3.43,4.45-7.63v-.02c-3,1.73-7.06,2.8-11.53,2.8s-8.18-.98-11.16-2.56Z"/></svg>