<?xml version="1.0" encoding="UTF-8"?><svg id="Layer_1" xmlns="http://www.w3.org/2000/svg" viewBox="0 0 1452.66 1452.31"><defs><style>.cls-1{fill:#fff;}.cls-2{fill:#4caf50;}</style></defs><path class="cls-1" d="m726.17,0c400.68-1.84,726.46,326.56,726.49,725.97.02,398.88-325.27,726.29-726.2,726.34C325.84,1452.36-.14,1125.72,0,725.77.14,325.4,326.5-1.65,726.17,0Z"/><path class="cls-2" d="m726.17,0c400.68-1.84,726.46,326.56,726.49,725.97.02,398.88-325.27,726.29-726.2,726.34C325.84,1452.36-.14,1125.72,0,725.77.14,325.4,326.5-1.65,726.17,0ZM238.73,743.98c-.36,17.48,6.57,32.37,19.43,45.21,112.41,112.2,224.68,224.56,337,336.85,2.71,2.71,5.48,5.38,8.46,7.77,11.96,9.59,25.67,13.54,40.95,12.61,16.47-1.01,29.8-8.15,41.32-19.71,51.18-51.35,102.49-102.57,153.75-153.83,118.2-118.2,236.39-236.41,354.63-354.58,8.91-8.9,16.01-18.77,18.21-31.43,3.93-22.66-.14-42.9-17.44-59.52-15.63-15-30.72-30.56-46.2-45.72-14.52-14.22-28.21-29.33-43.77-42.45-11.56-9.75-25.31-13.59-40.4-12.69-16.31.98-29.33,8.33-40.74,19.73-126.66,126.47-253.44,252.83-380.09,379.32-2.85,2.85-4.06,3-7.01.05-69.23-69.37-138.59-138.6-207.91-207.87-7.99-7.98-16.69-14.94-27.82-17.82-23.62-6.11-43.89-.16-61.18,17.11-27.24,27.21-54.58,54.31-82.17,81.16-12.83,12.49-18.98,27.41-19.02,45.8Z"/></svg>